<svg xmlns:xlink="http://www.w3.org/1999/xlink" style="shape-rendering:geometricPrecision; text-rendering:geometricPrecision; image-rendering:optimizeQuality; fill-rule:evenodd; clip-rule:evenodd" height="360px" width="442px" version="1.1" xmlns="http://www.w3.org/2000/svg">
<g><path d="M 115.5,-0.5 C 185.5,-0.5 255.5,-0.5 325.5,-0.5C 344.109,1.96692 360.776,9.13359 375.5,21C 410.351,52.5265 431.184,91.6931 438,138.5C 439.349,147.962 440.516,157.296 441.5,166.5C 441.5,175.167 441.5,183.833 441.5,192.5C 439.291,232.663 427.791,269.996 407,304.5C 396.167,320.667 382.667,334.167 366.5,345C 352.951,352.572 338.617,357.405 323.5,359.5C 254.167,359.5 184.833,359.5 115.5,359.5C 87.4647,355.896 64.298,343.229 46,321.5C 22.4535,293.056 8.1202,260.389 3,223.5C 1.6884,213.031 0.521729,202.698 -0.5,192.5C -0.5,183.833 -0.5,175.167 -0.5,166.5C 1.29239,135.326 8.45905,105.326 21,76.5C 33.1007,52.0705 49.934,31.5705 71.5,15C 85.1857,6.71775 99.8524,1.55108 115.5,-0.5 Z M 142.5,81.5 C 193.834,81.3333 245.168,81.5 296.5,82C 315.467,83.3027 330.3,91.8027 341,107.5C 361.328,138.791 367.661,172.791 360,209.5C 355.446,232.128 344.613,250.961 327.5,266C 318.299,272.763 307.966,276.429 296.5,277C 245.167,277.667 193.833,277.667 142.5,277C 120.03,274.852 103.196,264.019 92,244.5C 72.656,207.245 70.3226,168.911 85,129.5C 91.3815,114.881 100.548,102.381 112.5,92C 121.743,85.9763 131.743,82.4763 142.5,81.5 Z" fill="#9965ff" style="opacity:0.992"></path></g>
</svg>
