<svg xmlns:xlink="http://www.w3.org/1999/xlink" style="shape-rendering:geometricPrecision; text-rendering:geometricPrecision; image-rendering:optimizeQuality; fill-rule:evenodd; clip-rule:evenodd" height="363px" width="409px" version="1.1" xmlns="http://www.w3.org/2000/svg">
<g><path d="M -0.5,-0.5 C 27.1667,-0.5 54.8333,-0.5 82.5,-0.5C 82.0954,39.5173 82.5954,79.5173 84,119.5C 85.319,143.196 94.819,162.696 112.5,178C 121.798,184.434 132.131,188.1 143.5,189C 179.498,189.5 215.498,189.667 251.5,189.5C 251.5,126.167 251.5,62.8333 251.5,-0.5C 279.167,-0.5 306.833,-0.5 334.5,-0.5C 334.5,62.8333 334.5,126.167 334.5,189.5C 359.167,189.5 383.833,189.5 408.5,189.5C 408.5,216.833 408.5,244.167 408.5,271.5C 383.833,271.5 359.167,271.5 334.5,271.5C 334.5,301.833 334.5,332.167 334.5,362.5C 306.833,362.5 279.167,362.5 251.5,362.5C 251.5,332.167 251.5,301.833 251.5,271.5C 206.832,271.667 162.165,271.5 117.5,271C 86.9194,268.627 61.7527,255.794 42,232.5C 24.41,210.778 12.7434,186.111 7,158.5C 3.33815,141.183 0.838148,123.849 -0.5,106.5C -0.5,70.8333 -0.5,35.1667 -0.5,-0.5 Z" fill="#9865ff" style="opacity:0.99"></path></g>
</svg>
