<svg version="1.1" xmlns="http://www.w3.org/2000/svg" xmlns:xlink="http://www.w3.org/1999/xlink" width="607" height="132.55931" viewBox="0,0,607,132.55931"><g transform="translate(-92.98098,-127.30405)"><g fill="#fefefe" fill-rule="evenodd" stroke="none" stroke-miterlimit="10"><path d="M92.98098,127.30405c165.46143,0 598.62502,0 602.36281,0c0,81.69144 4.63719,50.86788 4.63719,132.55931c-167.99819,0 -601.16177,0 -602.36281,0c0,-79.67336 -4.41091,-52.32212 -4.62884,-126.70768c-0.00552,-1.88414 -0.00835,-3.83355 -0.00835,-5.85163zM139.22073,165.33927c11.03409,0.33073 18.17238,5.75052 21.41426,16.25897c-2.15808,1.27851 -4.40539,2.46819 -6.74152,3.56905c-1.26654,-3.19072 -3.11717,-6.03288 -5.55185,-8.52605c-6.84844,-4.12344 -12.99513,-3.26409 -18.44006,2.57764c-4.49434,7.93121 -4.49434,15.86241 0,23.79362c4.27032,4.94827 9.49167,6.33624 15.66413,4.16388c1.49837,-0.83754 2.88632,-1.82894 4.16388,-2.97421c1.70497,-2.22391 3.09294,-4.60327 4.16388,-7.13808c2.43686,0.8871 4.68417,2.07679 6.74152,3.56905c-3.84584,11.70765 -11.90919,16.92916 -24.19019,15.66413c-9.79493,-2.66171 -15.41283,-9.0729 -16.85381,-19.23318c-1.52261,-8.77945 0.19582,-16.84311 5.15528,-24.19018c3.90683,-4.36533 8.73167,-6.87675 14.47445,-7.53465zM270.48221,165.33927c6.20974,-0.16774 11.76159,1.61677 16.65554,5.35356c0.94144,0.80858 1.73455,1.73376 2.37936,2.77593c-1.93363,1.86701 -3.78437,3.78358 -5.55184,5.75013c-5.43724,-5.27742 -11.65015,-6.40088 -18.63834,-3.37077c-3.13401,4.06673 -2.3409,7.2392 2.37937,9.51745c3.8161,1.11909 7.64925,2.17672 11.50025,3.17248c10.16068,3.73084 13.39898,10.67064 9.71573,20.81941c-2.68789,3.96005 -6.45521,6.27319 -11.30198,6.93981c-7.36413,1.23093 -14.10565,-0.22326 -20.22457,-4.36216c-2.00342,-1.89675 -3.72172,-4.012 -5.15528,-6.34497c1.79721,-1.93006 3.71418,-3.71458 5.75012,-5.35356c5.0609,6.88667 11.7362,9.1998 20.0263,6.93981c5.11483,-2.40117 5.64346,-5.57366 1.58625,-9.51745c-1.49543,-0.87997 -3.08167,-1.54064 -4.75872,-1.98281c-6.05309,-0.56113 -11.40666,-2.74221 -16.06069,-6.54324c-4.49422,-6.21291 -4.49422,-12.42543 0,-18.63834c3.33468,-3.0904 7.23405,-4.80869 11.69853,-5.15528zM312.51761,165.33927c5.9841,-0.12452 11.40389,1.52794 16.25898,4.957c0.99814,0.93151 1.92332,1.92292 2.77593,2.97421c-1.56444,2.16046 -3.34895,4.14327 -5.35357,5.94841c-4.88404,-4.83685 -10.63416,-6.22481 -17.25038,-4.16388c-3.88113,2.30441 -4.40975,5.21239 -1.58625,8.72433c1.12583,0.76139 2.31552,1.42246 3.56905,1.98281c5.42415,0.92676 10.57944,2.64545 15.46585,5.15528c4.8884,3.42271 6.93743,8.11521 6.14669,14.07789c-0.67217,4.58542 -3.11776,7.82414 -7.33637,9.71573c-6.9993,2.37897 -14.00493,2.37897 -21.0177,0c-4.10361,-2.12199 -7.27609,-5.16202 -9.51745,-9.12089c1.76469,-1.82973 3.61505,-3.61425 5.55185,-5.35356c5.07716,6.98343 11.81869,9.29657 20.22458,6.93981c4.2769,-1.96694 5.07002,-4.87492 2.37937,-8.72433c-1.12583,-0.76139 -2.31552,-1.42246 -3.56905,-1.9828c-3.52304,-1.11196 -7.09208,-2.03753 -10.70713,-2.77593c-8.18302,-2.68273 -11.68624,-8.30079 -10.50885,-16.85381c0.64243,-3.94657 2.69146,-6.92077 6.14668,-8.92261c2.69344,-1.29834 5.46936,-2.15769 8.32777,-2.57765zM598.8342,165.33927c7.66155,-0.35809 14.00651,2.28578 19.0349,7.93121c-1.56245,2.16046 -3.34698,4.14327 -5.35357,5.94841c-5.19494,-5.06368 -11.21076,-6.31919 -18.0435,-3.76732c-3.69595,3.19469 -3.56508,6.23511 0.39656,9.12088c5.57564,1.75081 11.12748,3.60156 16.65553,5.55184c7.4831,4.87214 9.39849,11.41539 5.75013,19.62974c-2.77989,3.8276 -6.54722,6.00868 -11.30198,6.54324c-8.11362,1.40977 -15.25171,-0.5072 -21.41425,-5.75012c-1.57831,-1.38003 -2.768,-3.0321 -3.56905,-4.957c1.78056,-1.84797 3.6325,-3.6325 5.55185,-5.35356c5.07597,6.98343 11.8175,9.29657 20.22457,6.93981c4.46527,-2.00421 5.25839,-4.91219 2.37937,-8.72433c-1.12623,-0.76139 -2.31592,-1.42246 -3.56905,-1.9828c-3.52146,-1.11196 -7.0905,-2.03753 -10.70713,-2.77593c-8.05413,-2.76958 -11.55973,-8.38764 -10.50885,-16.85381c0.9557,-4.52396 3.53336,-7.76266 7.73293,-9.71573c2.25247,-0.79312 4.49699,-1.38797 6.74152,-1.78453zM167.77308,166.13239c2.48167,-0.12293 4.92686,0.00952 7.33637,0.39656c0.19828,13.3502 0.26451,26.7012 0.19828,40.0526c9.12169,-0.06623 18.24258,0 27.36267,0.19828c0.38863,2.80725 0.52068,5.649 0.39656,8.52604c-11.72788,0.13047 -23.4264,-0.00198 -35.0956,-0.39656c-0.19828,-16.25858 -0.26451,-32.51756 -0.19828,-48.77693zM223.29153,166.13239c3.14076,-0.12491 6.24702,0.00714 9.31917,0.39656c5.27584,16.22408 10.6294,32.41723 16.06069,48.57864c-2.65378,0.32954 -5.29726,0.26332 -7.93121,-0.19828c-1.07586,-3.29541 -2.26554,-6.53372 -3.56904,-9.71573c-6.21291,-0.26451 -12.42543,-0.26451 -18.63834,0c-1.34712,3.24863 -2.5368,6.55316 -3.56905,9.91401c-2.64387,0.26451 -5.28734,0.26451 -7.93121,0c5.46024,-16.31529 10.88003,-32.64009 16.25897,-48.97521zM366.84638,166.13239c11.1037,0 22.20738,0 33.31108,0c0,2.90797 0,5.81636 0,8.72433c-8.72433,0 -17.44866,0 -26.17299,0c0,3.56904 0,7.13809 0,10.70713c7.27014,0 14.54068,0 21.81082,0c0,2.77593 0,5.55184 0,8.32777c-7.27014,0 -14.54068,0 -21.81082,0c0,4.23011 0,8.45982 0,12.68993c9.12089,0 18.24178,0 27.36267,0c0,2.90797 0,5.81635 0,8.72432c-11.50025,0 -23.0005,0 -34.50075,0c0,-16.39102 0,-32.78246 0,-49.17348zM405.7093,166.52895c2.71405,-0.52307 5.48998,-0.52307 8.32777,0c4.13058,12.85411 8.29445,25.67609 12.49165,38.46635c4.22416,-12.7966 8.38804,-25.61859 12.49165,-38.46635c2.76641,-0.4616 5.54233,-0.52782 8.32777,-0.19828c-5.47372,16.28871 -11.02556,32.54769 -16.65553,48.77693c-2.87387,0.322 -5.71602,0.25618 -8.52605,-0.19828c-5.3028,-16.23915 -10.78842,-32.36606 -16.45726,-48.38036zM453.6931,166.13239c10.97163,0 21.94288,0 32.91451,0c0,2.90797 0,5.81636 0,8.72433c-8.59227,0 -17.18415,0 -25.77643,0c0,3.56904 0,7.13809 0,10.70713c7.13808,0 14.27617,0 21.41425,0c0,2.77593 0,5.55184 0,8.32777c-7.13808,0 -14.27617,0 -21.41425,0c0,4.23011 0,8.45982 0,12.68993c8.98884,0 17.97727,0 26.96611,0c0,2.90797 0,5.81635 0,8.72432c-11.3682,0 -22.736,0 -34.1042,0c0,-16.39102 0,-32.78246 0,-49.17348zM494.14226,166.13239c2.745,-0.12373 5.45509,0.00833 8.12949,0.39656c7.4359,11.83177 14.97015,23.59653 22.60394,35.29387c0.19828,-11.89602 0.26569,-23.79282 0.19828,-35.69043c2.37937,0 4.75872,0 7.13808,0c0,16.39102 0,32.78246 0,49.17349c-2.61333,0.12332 -5.19097,-0.00872 -7.73293,-0.39656c-7.66552,-12.16132 -15.3338,-24.32224 -23.0005,-36.48355c-0.46001,6.0876 -0.6583,12.23429 -0.59485,18.44006c0.00159,6.10941 0.13365,12.18988 0.39657,18.24178c-2.37579,0.19789 -4.75516,0.26411 -7.13809,0.19828c0,-16.39102 0,-32.78246 0,-49.17349zM538.16046,166.13239c12.95563,0 25.90729,0 38.86292,0c0,2.90797 0,5.81636 0,8.72433c-5.28615,0 -10.57626,0 -15.86241,0c0,13.48305 0,26.96611 0,40.44915c-2.51022,0 -5.02442,0 -7.53465,0c0,-13.48305 0,-26.9661 0,-40.44915c-5.15528,0 -10.31058,0 -15.46586,0c0,-2.90797 0,-5.81636 0,-8.72433z"/><path d="M227.6537,175.64984c0.24468,0.04402 0.44296,0.17607 0.59484,0.39656c2.14183,6.7558 4.3229,13.49733 6.54325,20.22458c-4.62667,0.52862 -9.25295,0.52862 -13.87961,0c2.37104,-6.84304 4.61834,-13.71663 6.74152,-20.62114z"/></g></g></svg>