<svg version="1.1" xmlns="http://www.w3.org/2000/svg" xmlns:xlink="http://www.w3.org/1999/xlink" width="510.29429" height="620.82696" viewBox="0,0,510.29429,620.82696"><g transform="translate(-62.81982,83.72594)"><g stroke="none" stroke-miterlimit="10"><path d="M130.13739,372.3037v-389h368.88588v389z" fill-opacity="0.01176" fill="#000000" fill-rule="nonzero" stroke-width="0"/><path d="M255.06311,32.37006c42.71189,0.1201 85.41928,0.1201 128.12165,0c19.41231,0.23553 37.7154,4.83217 54.90927,13.79c17.37891,13.27551 26.65582,30.91017 27.83073,52.90346c1.0014,53.32117 1.0014,106.64284 0,159.96401c-2.87584,38.98107 -23.6862,61.12882 -62.43109,66.44274c-56.83135,1.0014 -113.6632,1.0014 -170.49456,0c-30.54761,-4.64247 -49.35216,-21.94265 -56.41364,-51.90055c-1.75609,-11.46225 -2.759,-22.99571 -3.00873,-34.60037c-1.13128,-48.65062 -0.79681,-97.29172 1.00291,-145.92328c5.00602,-31.66936 23.14213,-50.97516 54.40782,-57.918c8.793,-0.66914 17.48522,-1.58846 26.07564,-2.758zM409.00967,62.9588c-3.92639,2.05597 -7.43657,4.73023 -10.53054,8.02327c-6.44419,12.41351 -4.27089,23.02779 6.51891,31.84237c12.99921,5.343 23.11154,2.08355 30.338,-9.77836c4.18313,-21.30981 -4.59232,-31.33891 -26.32637,-30.08728zM409.00967,156.22934c-0.02909,2.72741 0.63936,5.23468 2.00582,7.52182c4.23077,57.17234 -21.34341,92.85936 -76.72255,107.06056c-47.10263,4.16208 -80.44936,-15.14393 -100.04019,-57.91801c-13.69222,-43.79002 -2.74396,-79.9785 32.84528,-108.56491c34.26038,-21.18846 68.86075,-21.68992 103.8011,-1.50437c19.40479,12.97714 32.10814,30.77878 38.11055,53.40491z" fill="#fefefe" fill-rule="evenodd" stroke-width="1"/><path d="M316.24057,121.12753c20.21665,-0.79731 37.18236,6.22306 50.89764,21.0611c9.95738,13.75089 13.96902,29.12899 12.03491,46.13382c-7.11915,32.10814 -27.09359,49.15759 -59.92382,51.14837c-36.10724,-3.01123 -55.66397,-22.56797 -58.67018,-58.67019c0.56464,-26.20902 12.59955,-45.01357 36.10473,-56.41364c2.28362,-0.87303 4.62392,-1.54147 7.02037,-2.00581c4.26838,-0.28181 8.447,-0.69953 12.53636,-1.25364z" fill="#fefefe" fill-rule="evenodd" stroke-width="1"/><path d="M409.00967,156.22934c1.85989,2.26005 2.52834,4.76733 2.00582,7.52182c-1.36647,-2.28714 -2.03491,-4.79441 -2.00582,-7.52182z" fill="#909090" fill-rule="evenodd" stroke-width="1"/><path d="M419.03876,355.30683c-3.82509,2.06198 -7.83673,2.73042 -12.03491,2.00582c3.91937,-1.18093 7.93101,-1.84936 12.03491,-2.00582z" fill="#b8b8b8" fill-rule="evenodd" stroke-width="1"/><path d="M62.81982,-81.72594c213.95412,0 296.34017,-2 510.29429,-2c0,120.3491 0,500.47786 0,620.82696c-213.95412,0 -296.34017,-88.88983 -510.29429,-88.88983c0,-120.3491 0,-327.58802 0,-447.93712zM419.03876,354.30682c-4.1039,0.15645 -8.11554,0.82489 -12.03491,2.00582c-57.00135,1.41711 -113.99968,1.33337 -170.99601,-0.25073c-49.79945,-4.95688 -80.30444,-31.7847 -91.51546,-80.48346c-2.3448,-21.49786 -3.5152,-43.0604 -3.51018,-64.68764c-0.40267,-38.11306 -0.23568,-76.2236 0.50146,-114.33164c2.3789,-27.72993 13.32716,-51.38164 32.84527,-70.95582c13.66715,-11.51159 29.37922,-18.69909 47.13673,-21.56255c1.14282,-0.23709 2.14572,-0.73857 3.00872,-1.50436c7.17582,-0.66777 14.36317,-1.16922 21.56255,-1.50436c49.81099,-1.00291 99.62247,-1.00291 149.43346,0c60.92623,3.09067 95.10889,34.93303 102.54746,95.52709c0.98285,54.99201 0.98285,109.98504 0,164.97856c-2.14422,28.10252 -13.25996,51.92161 -33.34673,71.45727c-13.56083,10.62482 -28.77146,17.72843 -45.63236,21.31182z" fill="#fefefe" fill-rule="evenodd" stroke-width="1"/></g></g></svg>