<svg xmlns:xlink="http://www.w3.org/1999/xlink" style="shape-rendering:geometricPrecision; text-rendering:geometricPrecision; image-rendering:optimizeQuality; fill-rule:evenodd; clip-rule:evenodd" height="359px" width="401px" version="1.1" xmlns="http://www.w3.org/2000/svg">
<g><path d="M -0.5,-0.5 C 95.5,-0.5 191.5,-0.5 287.5,-0.5C 325.967,2.14856 356.8,18.8152 380,49.5C 405.82,93.3864 402.986,135.22 371.5,175C 389.638,194.246 399.304,217.079 400.5,243.5C 400.5,246.167 400.5,248.833 400.5,251.5C 394.382,300.505 368.049,333.672 321.5,351C 305.639,355.312 289.639,357.812 273.5,358.5C 182.5,358.5 91.5,358.5 0.5,358.5C 0.5,331.167 0.5,303.833 0.5,276.5C 94.1673,276.667 187.834,276.5 281.5,276C 296.493,274.932 307.326,267.766 314,254.5C 315.514,234.654 306.348,222.821 286.5,219C 191.501,218.5 96.5006,218.333 1.5,218.5C 1.5,190.833 1.5,163.167 1.5,135.5C 96.5006,135.667 191.501,135.5 286.5,135C 301.56,131.681 310.226,122.515 312.5,107.5C 311.259,95.421 304.925,87.2544 293.5,83C 288.968,81.3783 284.301,80.3783 279.5,80C 186.167,79.5 92.8339,79.3333 -0.5,79.5C -0.5,52.8333 -0.5,26.1667 -0.5,-0.5 Z" fill="#9865ff" style="opacity:0.99"></path></g>
</svg>
