<svg version="1.1" xmlns="http://www.w3.org/2000/svg" xmlns:xlink="http://www.w3.org/1999/xlink" width="220.55255" height="96.7043" viewBox="0,0,220.55255,96.7043"><g transform="translate(-465.94746,-228.5457)"><g stroke="none" stroke-miterlimit="10"><path d="M465.94746,325.25v-96.7043h220.55255v95.7043zM533.45599,310.53544c5.52285,0 10,-4.47715 10,-10c0,-5.52285 -4.47715,-10 -10,-10c-5.52285,0 -10,4.47715 -10,10c0,5.52285 4.47715,10 10,10zM593.91972,311.53544c5.52285,0 10,-4.47715 10,-10c0,-5.52285 -4.47715,-10 -10,-10c-5.52285,0 -10,4.47715 -10,10c0,5.52285 4.47715,10 10,10zM563.91972,310.86877c5.52285,0 10,-4.47715 10,-10c0,-5.52285 -4.47715,-10 -10,-10c-5.52285,0 -10,4.47715 -10,10c0,5.52285 4.47715,10 10,10z" fill="#ffffff" stroke-width="0"/><path d="" fill="#7e7e7e" stroke-width="NaN"/><path d="" fill="#7e7e7e" stroke-width="NaN"/><path d="M542.73282,304.27618c-0.96827,2.74541 -3.21279,4.88868 -6.02104,5.71728c2.7402,-0.94309 4.94184,-3.04347 6.02104,-5.71728z" fill="#7e7e7e" stroke-width="NaN"/><path d="M508.50001,321.58333v-44.5h111v44.5z" fill-opacity="0.01176" fill="#ffffff" stroke-width="0"/></g></g></svg>