<svg xmlns:xlink="http://www.w3.org/1999/xlink" style="shape-rendering:geometricPrecision; text-rendering:geometricPrecision; image-rendering:optimizeQuality; fill-rule:evenodd; clip-rule:evenodd" height="692px" width="192px" version="1.1" xmlns="http://www.w3.org/2000/svg">
<g><path d="M 126.5,-0.5 C 130.833,-0.5 135.167,-0.5 139.5,-0.5C 165.568,5.39819 182.068,21.3982 189,47.5C 189.862,53.9773 190.695,60.3106 191.5,66.5C 191.5,115.5 191.5,164.5 191.5,213.5C 176.588,213.824 161.755,213.491 147,212.5C 146.667,161.167 146.333,109.833 146,58.5C 142.363,46.5874 135.196,43.4207 124.5,49C 122.623,51.2513 121.123,53.7513 120,56.5C 118.987,94.8238 117.987,133.157 117,171.5C 108.309,203.843 87.1428,220.01 53.5,220C 28.3111,215.815 11.4777,201.648 3,177.5C 2.03112,171.656 0.86445,165.989 -0.5,160.5C -0.5,109.167 -0.5,57.8333 -0.5,6.5C 14.4219,5.51696 29.4219,5.18362 44.5,5.5C 44.3333,57.5011 44.5,109.501 45,161.5C 49.9777,174.387 58.1443,176.887 69.5,169C 71.6856,165.795 73.1856,162.295 74,158.5C 74.3333,123.5 74.6667,88.5 75,53.5C 80.1883,23.8166 97.355,5.81658 126.5,-0.5 Z" fill="#9966ff" style="opacity:0.976"></path></g>
<g><path d="M 191.5,312.5 C 191.5,361.167 191.5,409.833 191.5,458.5C 176.5,458.5 161.5,458.5 146.5,458.5C 145.172,413.84 145.172,369.173 146.5,324.5C 144.064,312.456 137.397,303.622 126.5,298C 110.734,291.352 94.4003,289.685 77.5,293C 66.218,295.952 56.718,301.785 49,310.5C 47.3921,313.382 46.0587,316.382 45,319.5C 43.5303,365.8 43.0303,412.133 43.5,458.5C 28.8333,458.5 14.1667,458.5 -0.5,458.5C -0.5,408.167 -0.5,357.833 -0.5,307.5C 2.12756,295.754 7.79423,285.588 16.5,277C 39.2029,257.819 65.5363,248.653 95.5,249.5C 120.929,249.52 144.262,256.353 165.5,270C 180.22,280.631 188.886,294.797 191.5,312.5 Z" fill="#9966ff" style="opacity:0.974"></path></g>
<g><path d="M 74.5,323.5 C 89.1667,323.5 103.833,323.5 118.5,323.5C 118.5,368.167 118.5,412.833 118.5,457.5C 103.833,457.5 89.1667,457.5 74.5,457.5C 74.5,412.833 74.5,368.167 74.5,323.5 Z" fill="#9966ff" style="opacity:0.974"></path></g>
<g><path d="M 191.5,552.5 C 191.5,598.833 191.5,645.167 191.5,691.5C 176.5,691.5 161.5,691.5 146.5,691.5C 146.667,648.832 146.5,606.165 146,563.5C 143.538,553.372 137.705,545.872 128.5,541C 109.345,532.016 89.6785,530.683 69.5,537C 54.8467,542.147 46.18,552.314 43.5,567.5C 44.8278,608.833 44.8278,650.167 43.5,691.5C 28.8333,691.5 14.1667,691.5 -0.5,691.5C -0.5,643.833 -0.5,596.167 -0.5,548.5C 2.58892,536.174 8.92226,525.674 18.5,517C 40.5031,499.554 65.6697,491.054 94,491.5C 121.49,490.718 146.323,498.218 168.5,514C 181.137,524.077 188.803,536.911 191.5,552.5 Z" fill="#9965ff" style="opacity:0.977"></path></g>
</svg>
