<svg version="1.1" xmlns="http://www.w3.org/2000/svg" xmlns:xlink="http://www.w3.org/1999/xlink" width="85.58559" height="139.63964" viewBox="0,0,85.58559,139.63964"><g transform="translate(-273.09309,-506.43643)"><g stroke="none" stroke-miterlimit="10"><path d="M334,515.50001c0,4.835 0,9.665 0,14.5c-2.101,0.16 -4.101,-0.01 -6,-0.5c1.8335,0 3.6665,0 5.5,0c-0.1635,-4.755 0.003,-9.425 0.5,-14z" fill="#bfbfbf" fill-rule="evenodd" stroke-width="1"/><path d="M319,516.00001c0.4965,4.41 0.6635,8.91 0.5,13.5c1.5,0 3,0 4.5,0c-0.1625,-3.76 0.004,-7.425 0.5,-11c0,3.835 0,7.665 0,11.5c-1.8335,0 -3.6665,0 -5.5,0c0,-4.665 0,-9.335 0,-14z" fill="#cacaca" fill-rule="evenodd" stroke-width="1"/><path d="M304,544.50001c-1.1665,0 -2.3335,0 -3.5,0c0.1635,4.755 -0.003,9.425 -0.5,14c0,-4.835 0,-9.665 0,-14.5c1.4425,-0.155 2.776,0.015 4,0.5z" fill="#bbbbbb" fill-rule="evenodd" stroke-width="1"/><path d="M282,545.00001c1.224,-0.485 2.5575,-0.655 4,-0.5c0,4.665 0,9.335 0,14c-0.4965,-4.41 -0.6635,-8.91 -0.5,-13.5c-1.1665,0 -2.3335,0 -3.5,0z" fill="#c2c2c2" fill-rule="evenodd" stroke-width="1"/><path d="M294.5,547.50001c-1.1665,0 -2.3335,0 -3.5,0c0.1625,3.76 -0.004,7.425 -0.5,11c0,-3.835 0,-7.665 0,-11.5c1.4425,-0.155 2.776,0.015 4,0.5z" fill="#cdcdcd" fill-rule="evenodd" stroke-width="1"/><path d="M333.5,566.00001c0,3 0,6 0,9c-1.8335,0 -3.6665,0 -5.5,0c-0.2145,-3.725 0.0355,-7.39 0.75,-11c1.0765,-0.97 2.3265,-1.22 3.75,-0.75c0.8275,0.72 1.161,1.64 1,2.75z" fill="#fcfcfc" fill-rule="evenodd" stroke-width="1"/><path d="M321,564.50001c1.2995,0.025 2.383,0.525 3.25,1.5c0.25,3.16 0.333,6.33 0.25,9.5c-1.8335,0 -3.6665,0 -5.5,0c-0.083,-3.005 0.0005,-6.005 0.25,-9c0.345,-0.925 0.928,-1.59 1.75,-2z" fill="#f5f5f5" fill-rule="evenodd" stroke-width="1"/><path d="M333.5,566.00001c0.495,3.07 0.6615,6.24 0.5,9.5c-2.101,0.16 -4.101,-0.01 -6,-0.5c1.8335,0 3.6665,0 5.5,0c0,-3 0,-6 0,-9z" fill="#c7c7c7" fill-rule="evenodd" stroke-width="1"/><path d="M328.5,589.00001c0.656,1.12 0.989,2.455 1,4c-0.0835,1.335 -0.1665,2.665 -0.25,4c-3.2665,-1.285 -6.5165,-2.615 -9.75,-4c2.992,-1.44 5.992,-2.77 9,-4z" fill="#f0f0f0" fill-rule="evenodd" stroke-width="1"/><path d="M273.09309,646.07607v-139.63964h85.58559v139.63964z" fill="#fefffe" fill-rule="nonzero" stroke-width="0"/></g></g></svg>