<svg version="1.1" xmlns="http://www.w3.org/2000/svg" xmlns:xlink="http://www.w3.org/1999/xlink" width="516.2937" height="165.27861" viewBox="0,0,516.2937,165.27861"><g transform="translate(-106.45367,-260.36487)"><g stroke="none" stroke-miterlimit="10"><path d="M365.21259,283.99187c0,6.66521 0,13.33089 0,19.99609c2.32513,0 4.65026,0 6.97538,0c0,2.79016 0,5.5803 0,8.37046c-2.32513,0 -4.65026,0 -6.97538,0c0,8.83548 0,17.67097 0,26.50645c-2.32513,0 -4.65026,0 -6.97538,0c0,-3.10032 0,-6.20018 0,-9.30051c-3.01662,-0.53664 -6.11694,-0.6143 -9.30051,-0.23251c0.25297,0.33343 0.56315,0.56594 0.93006,0.69754c0.8761,0.09858 1.49598,0.56361 1.8601,1.39507c-1.1807,2.43905 -2.42093,4.84184 -3.7202,7.2079c-1.82709,-0.49618 -3.37701,-1.50389 -4.65026,-3.02267c-0.21996,-0.65382 -0.68498,-0.964 -1.39507,-0.93006c-3.91366,-2.46138 -8.02122,-4.63166 -12.32317,-6.51036c-0.05952,-3.05289 0.48317,-5.9979 1.62759,-8.83548c0.70963,0.22972 1.32951,0.5399 1.8601,0.93006c0.0279,0.25251 0.18275,0.40736 0.46503,0.46503c0.46503,-11.31127 0.61988,-22.62721 0.46503,-33.94686c2.17028,0 4.34008,0 6.51036,0c0,5.73516 0,11.47079 0,17.20594c1.80011,0.14649 3.50536,-0.00837 5.11528,-0.46503c0,-4.96043 0,-9.92039 0,-14.88081c2.17028,0 4.34008,0 6.51036,0c0,5.11528 0,10.23056 0,15.34584c2.1075,0.14788 4.12291,-0.00698 6.04533,-0.46503c0,-6.51036 0,-13.02071 0,-19.53107c2.32513,0 4.65026,0 6.97538,0zM341.03126,312.82345c-0.15393,3.88762 0.00093,7.76267 0.46503,11.62564c1.27929,0.83379 2.5967,1.60852 3.95271,2.32513c0.23251,-4.64746 0.3097,-9.29772 0.23251,-13.95077c-1.54993,0 -3.10032,0 -4.65026,0zM352.6569,312.82345c0,2.6353 0,5.27013 0,7.90543c1.8601,0 3.7202,0 5.5803,0c0,-2.6353 0,-5.27013 0,-7.90543c-1.8601,0 -3.7202,0 -5.5803,0z" fill="#fefefe" fill-rule="evenodd" stroke-width="1"/><path d="M365.21259,283.99187c0.46317,6.42804 0.61802,12.9384 0.46503,19.53107c2.26142,-0.14834 4.43169,0.00651 6.51036,0.46503c-2.32513,0 -4.65026,0 -6.97538,0c0,-6.66521 0,-13.33089 0,-19.99609z" fill="#e6e6e6" fill-rule="evenodd" stroke-width="1"/><path d="M547.50254,283.99187c0,6.66521 0,13.33089 0,19.99609c2.32513,0 4.65026,0 6.97538,0c0,2.79016 0,5.5803 0,8.37046c-2.32513,0 -4.65026,0 -6.97538,0c0,8.83548 0,17.67097 0,26.50645c-2.32513,0 -4.65026,0 -6.97538,0c0,-3.10032 0,-6.20018 0,-9.30051c-3.01802,-0.53664 -6.11509,-0.6143 -9.30051,-0.23251c0.25111,0.33343 0.56268,0.56594 0.93006,0.69754c0.87425,0.09858 1.49738,0.56361 1.8601,1.39507c-1.18117,2.43905 -2.42279,4.84184 -3.7202,7.2079c-1.82755,-0.49618 -3.37609,-1.50389 -4.65026,-3.02267c-0.21856,-0.65382 -0.68359,-0.964 -1.39507,-0.93006c-3.91366,-2.46138 -8.02122,-4.63166 -12.32317,-6.51036c-0.05952,-3.05289 0.48317,-5.9979 1.62759,-8.83548c0.70963,0.22972 1.32951,0.5399 1.8601,0.93006c0.0279,0.25251 0.18275,0.40736 0.46503,0.46503c0.46503,-11.31127 0.61988,-22.62721 0.46503,-33.94686c2.17028,0 4.34008,0 6.51036,0c0,5.73516 0,11.47079 0,17.20594c1.79965,0.14649 3.5063,-0.00837 5.11528,-0.46503c0,-4.96043 0,-9.92039 0,-14.88081c2.17167,0 4.33868,0 6.51036,0c0,5.11528 0,10.23056 0,15.34584c2.10656,0.14788 4.12478,-0.00698 6.04533,-0.46503c0,-6.51036 0,-13.02071 0,-19.53107c2.32513,0 4.65026,0 6.97538,0zM523.32121,312.82345c-0.15346,3.88762 0,7.76267 0.46503,11.62564c1.27882,0.83379 2.59484,1.60852 3.95271,2.32513c0.23251,-4.64746 0.31157,-9.29772 0.23251,-13.95077c-1.54854,0 -3.10172,0 -4.65026,0zM534.94684,312.82345c0,2.6353 0,5.27013 0,7.90543c1.8601,0 3.7202,0 5.5803,0c0,-2.6353 0,-5.27013 0,-7.90543c-1.8601,0 -3.7202,0 -5.5803,0z" fill="#fefefe" fill-rule="evenodd" stroke-width="1"/><path d="M547.50254,283.99187c0.46503,6.42804 0.61848,12.9384 0.46503,19.53107c2.26002,-0.14834 4.43169,0.00651 6.51036,0.46503c-2.32513,0 -4.65026,0 -6.97538,0c0,-6.66521 0,-13.33089 0,-19.99609z" fill="#e6e6e6" fill-rule="evenodd" stroke-width="1"/><path d="M334.05584,286.78203c0.15485,11.31965 0,22.63557 -0.46503,33.94686c-0.28227,-0.05767 -0.43713,-0.21252 -0.46503,-0.46503c0.31018,-11.16061 0.61988,-22.32122 0.93006,-33.48183z" fill="#dedede" fill-rule="evenodd" stroke-width="1"/><path d="M334.05584,286.78203c2.23445,-0.45898 4.55958,-0.6143 6.97538,-0.46503c0,5.73516 0,11.47079 0,17.20594c1.54993,0 3.10032,0 4.65026,0c-1.60992,0.45665 -3.31517,0.61151 -5.11528,0.46503c0,-5.73516 0,-11.47079 0,-17.20594c-2.17028,0 -4.34008,0 -6.51036,0z" fill="#f1f1f1" fill-rule="evenodd" stroke-width="1"/><path d="M516.34584,286.78203c0.15485,11.31965 0,22.63557 -0.46503,33.94686c-0.28227,-0.05767 -0.43713,-0.21252 -0.46503,-0.46503c0.31018,-11.16061 0.61988,-22.32122 0.93006,-33.48183z" fill="#dedede" fill-rule="evenodd" stroke-width="1"/><path d="M516.34584,286.78203c2.23445,-0.45898 4.55958,-0.6143 6.97538,-0.46503c0,5.73516 0,11.47079 0,17.20594c1.54854,0 3.10172,0 4.65026,0c-1.60899,0.45665 -3.31563,0.61151 -5.11528,0.46503c0,-5.73516 0,-11.47079 0,-17.20594c-2.17028,0 -4.34008,0 -6.51036,0z" fill="#f1f1f1" fill-rule="evenodd" stroke-width="1"/><path d="M345.68151,288.64213c2.23445,-0.45898 4.55958,-0.6143 6.97538,-0.46503c0,5.11528 0,10.23056 0,15.34584c1.8601,0 3.7202,0 5.5803,0c-1.92242,0.45805 -3.93783,0.6129 -6.04533,0.46503c0,-5.11528 0,-10.23056 0,-15.34584c-2.17028,0 -4.34008,0 -6.51036,0z" fill="#f1f1f1" fill-rule="evenodd" stroke-width="1"/><path d="M527.97147,288.64213c2.23677,-0.45898 4.5619,-0.6143 6.97538,-0.46503c0,5.11528 0,10.23056 0,15.34584c1.8601,0 3.7202,0 5.5803,0c-1.92056,0.45805 -3.93876,0.6129 -6.04533,0.46503c0,-5.11528 0,-10.23056 0,-15.34584c-2.17167,0 -4.33868,0 -6.51036,0z" fill="#f1f1f1" fill-rule="evenodd" stroke-width="1"/><path d="M372.18796,312.35842c-2.07866,0.45852 -4.24894,0.61337 -6.51036,0.46503c0.15346,8.76155 -0.0014,17.44171 -0.46503,26.04142c0,-8.83548 0,-17.67097 0,-26.50645c2.32513,0 4.65026,0 6.97538,0z" fill="#e8e8e8" fill-rule="evenodd" stroke-width="1"/><path d="M554.47791,312.35842c-2.07866,0.45852 -4.25034,0.61337 -6.51036,0.46503c0.15346,8.76155 0,17.44171 -0.46503,26.04142c0,-8.83548 0,-17.67097 0,-26.50645c2.32513,0 4.65026,0 6.97538,0z" fill="#e8e8e8" fill-rule="evenodd" stroke-width="1"/><path d="M358.23719,329.56437c-2.8785,-0.1502 -5.66866,0.00465 -8.37046,0.46503c-0.36691,-0.1316 -0.67707,-0.36412 -0.93006,-0.69754c3.18357,-0.38178 6.28389,-0.30413 9.30051,0.23251z" fill="#e6e6e6" fill-rule="evenodd" stroke-width="1"/><path d="M540.52712,329.56437c-2.8785,-0.1502 -5.66866,0.00465 -8.37046,0.46503c-0.36737,-0.1316 -0.67894,-0.36412 -0.93006,-0.69754c3.18542,-0.38178 6.28249,-0.30413 9.30051,0.23251z" fill="#e6e6e6" fill-rule="evenodd" stroke-width="1"/><path d="M341.9613,334.67964c0.71009,-0.03395 1.17512,0.27622 1.39507,0.93006c-0.71009,0.03395 -1.17512,-0.27622 -1.39507,-0.93006z" fill="#ebebeb" fill-rule="evenodd" stroke-width="1"/><path d="M524.25128,334.67964c0.71149,-0.03395 1.17652,0.27622 1.39507,0.93006c-0.71149,0.03395 -1.17652,-0.27622 -1.39507,-0.93006z" fill="#ebebeb" fill-rule="evenodd" stroke-width="1"/><path d="M194.9115,288.4225c0,6.5244 0,13.04926 0,19.57366c2.27601,0 4.55202,0 6.82802,0c0,2.73121 0,5.46242 0,8.19363c-2.27601,0 -4.55202,0 -6.82802,0c0,8.64883 0,17.29765 0,25.94648c-2.27601,0 -4.55202,0 -6.82802,0c0,-3.03482 0,-6.0692 0,-9.10403c-2.95289,-0.5253 -5.98772,-0.60133 -9.10403,-0.2276c0.24763,0.32638 0.55125,0.55398 0.91041,0.6828c0.85759,0.0965 1.46438,0.5517 1.82081,1.3656c-1.15576,2.38753 -2.36978,4.73956 -3.64161,7.05563c-1.78849,-0.4857 -3.30567,-1.47212 -4.55202,-2.95881c-0.21531,-0.64001 -0.67051,-0.94363 -1.3656,-0.91041c-3.83098,-2.40938 -7.85177,-4.53381 -12.06284,-6.37282c-0.05826,-2.9884 0.47296,-5.87119 1.59321,-8.64883c0.69463,0.22487 1.30142,0.52849 1.82081,0.91041c0.02731,0.24717 0.17889,0.39876 0.4552,0.4552c0.4552,-11.07232 0.60679,-22.14919 0.4552,-33.2297c2.12443,0 4.2484,0 6.37283,0c0,5.614 0,11.22846 0,16.84245c1.76208,0.14339 3.43131,-0.0082 5.00721,-0.4552c0,-4.85563 0,-9.71081 0,-14.56645c2.12443,0 4.2484,0 6.37282,0c0,5.00721 0,10.01444 0,15.02165c2.06298,0.14475 4.03582,-0.00683 5.91762,-0.4552c0,-6.37282 0,-12.74564 0,-19.11846c2.27601,0 4.55202,0 6.82802,0zM171.24104,316.64499c-0.15067,3.80549 0.00091,7.59868 0.4552,11.38003c1.25226,0.81617 2.54184,1.57453 3.8692,2.27601c0.2276,-4.54928 0.30316,-9.10129 0.2276,-13.65604c-1.51718,0 -3.03482,0 -4.55202,0zM182.62108,316.64499c0,2.57962 0,5.15879 0,7.73842c1.82081,0 3.64161,0 5.46242,0c0,-2.57962 0,-5.15879 0,-7.73842c-1.82081,0 -3.64161,0 -5.46242,0z" fill="#fefefe" fill-rule="evenodd" stroke-width="1"/><path d="M194.9115,288.4225c0.45338,6.29225 0.60496,12.66507 0.4552,19.11846c2.21365,-0.1452 4.33807,0.00637 6.37283,0.4552c-2.27601,0 -4.55202,0 -6.82802,0c0,-6.5244 0,-13.04926 0,-19.57366z" fill="#e6e6e6" fill-rule="evenodd" stroke-width="1"/><path d="M164.41302,291.15371c0.15158,11.08051 0,22.15738 -0.4552,33.2297c-0.27631,-0.05645 -0.42789,-0.20803 -0.4552,-0.4552c0.30362,-10.92483 0.60679,-21.84967 0.91041,-32.7745z" fill="#dedede" fill-rule="evenodd" stroke-width="1"/><path d="M164.41302,291.15371c2.18724,-0.44928 4.46325,-0.60132 6.82802,-0.4552c0,5.614 0,11.22846 0,16.84245c1.51718,0 3.03482,0 4.55202,0c-1.57591,0.44701 -3.24513,0.59859 -5.00721,0.4552c0,-5.614 0,-11.22846 0,-16.84245c-2.12443,0 -4.2484,0 -6.37283,0z" fill="#f1f1f1" fill-rule="evenodd" stroke-width="1"/><path d="M175.79304,292.97452c2.18724,-0.44928 4.46325,-0.60132 6.82802,-0.4552c0,5.00721 0,10.01444 0,15.02165c1.82081,0 3.64161,0 5.46242,0c-1.88181,0.44838 -3.85465,0.59996 -5.91762,0.4552c0,-5.00721 0,-10.01444 0,-15.02165c-2.12443,0 -4.2484,0 -6.37282,0z" fill="#f1f1f1" fill-rule="evenodd" stroke-width="1"/><path d="M201.73953,316.18979c-2.03475,0.44883 -4.15918,0.60041 -6.37283,0.4552c0.15022,8.57645 -0.00137,17.07324 -0.4552,25.49128c0,-8.64883 0,-17.29765 0,-25.94648c2.27601,0 4.55202,0 6.82802,0z" fill="#e8e8e8" fill-rule="evenodd" stroke-width="1"/><path d="M188.0835,333.03224c-2.81769,-0.14703 -5.54891,0.00455 -8.19363,0.4552c-0.35916,-0.12882 -0.66277,-0.35643 -0.91041,-0.6828c3.11631,-0.37372 6.15114,-0.2977 9.10403,0.2276z" fill="#e6e6e6" fill-rule="evenodd" stroke-width="1"/><path d="M172.15144,338.03945c0.69509,-0.03323 1.15029,0.27039 1.3656,0.91041c-0.69509,0.03323 -1.15029,-0.27039 -1.3656,-0.91041z" fill="#ebebeb" fill-rule="evenodd" stroke-width="1"/><path d="M184.44188,347.14348c-2.73121,0 -5.46242,0 -8.19363,0c0,17.60127 0,35.20209 0,52.80336c-0.45475,-17.67548 -0.60633,-35.42832 -0.4552,-53.25856c2.96882,-0.14703 5.85161,0.00455 8.64883,0.4552z" fill="#eeeeee" fill-rule="evenodd" stroke-width="1"/><path d="M184.44188,347.14348c0.45475,17.52343 0.60634,35.1247 0.45521,52.80336c-2.88279,0 -5.76604,0 -8.64883,0c0,-17.60127 0,-35.20209 0,-52.80336c2.73121,0 5.46242,0 8.19363,0z" fill="#fdfdfd" fill-rule="evenodd" stroke-width="1"/><path d="M360.56233,344.91021c2.6353,0 5.27013,0 7.90543,0c0,17.36079 0,34.72205 0,52.08284c-2.6353,0 -5.27013,0 -7.90543,0c-0.61988,-17.36079 -0.61988,-34.72205 0,-52.08284z" fill="#fdfdfd" fill-rule="evenodd" stroke-width="1"/><path d="M360.56233,344.91021c2.7018,-0.46038 5.49195,-0.61523 8.37046,-0.46503c0,17.67097 0,35.34193 0,53.0129c-2.8785,0.1502 -5.66866,-0.00465 -8.37046,-0.46503c2.6353,0 5.27013,0 7.90543,0c0,-17.36079 0,-34.72205 0,-52.08284c-2.6353,0 -5.27013,0 -7.90543,0z" fill="#e2e2e2" fill-rule="evenodd" stroke-width="1"/><path d="M552.1528,345.37523c-2.47858,0 -4.96182,0 -7.44041,0c0,17.05109 0,34.10171 0,51.1528c2.47858,0 4.96182,0 7.44041,0c-2.54834,0.45991 -5.18038,0.61477 -7.90543,0.46503c0,-17.36079 0,-34.72205 0,-52.08284c2.72505,-0.14974 5.3571,0.00511 7.90543,0.46503z" fill="#f5f5f5" fill-rule="evenodd" stroke-width="1"/><path d="M552.1528,345.37523c0.61848,17.05109 0.61848,34.10171 0,51.1528c-2.47858,0 -4.96182,0 -7.44041,0c0,-17.05109 0,-34.10171 0,-51.1528c2.47858,0 4.96182,0 7.44041,0z" fill="#fdfdfd" fill-rule="evenodd" stroke-width="1"/><path d="M522.85615,349.09543c0.46503,14.64644 0.61848,29.37194 0.46503,44.17742c-2.79016,0 -5.5803,0 -8.37046,0c0,-14.88081 0,-29.76163 0,-44.64244c2.72412,-0.14974 5.35942,0.00511 7.90543,0.46503z" fill="#ebebeb" fill-rule="evenodd" stroke-width="1"/><path d="M522.85615,349.09543c0,14.57065 0,29.14175 0,43.71239c-2.47998,0 -4.96043,0 -7.44041,0c0,-14.57065 0,-29.14175 0,-43.71239c2.47998,0 4.96043,0 7.44041,0z" fill="#fefffe" fill-rule="evenodd" stroke-width="1"/><path d="M334.05584,350.49051c2.6353,0 5.27013,0 7.90543,0c0,13.64059 0,27.28164 0,40.92224c-2.6353,0 -5.27013,0 -7.90543,0c0,-13.64059 0,-27.28164 0,-40.92224z" fill="#fefefe" fill-rule="evenodd" stroke-width="1"/><path d="M334.05584,350.49051c2.7018,-0.46038 5.49195,-0.61523 8.37046,-0.46503c0,13.95077 0,27.90152 0,41.85229c-2.8785,0.1502 -5.66866,-0.00465 -8.37046,-0.46503c2.6353,0 5.27013,0 7.90543,0c0,-13.64059 0,-27.28164 0,-40.92224c-2.6353,0 -5.27013,0 -7.90543,0z" fill="#e7e7e7" fill-rule="evenodd" stroke-width="1"/><path d="M528.43648,352.35061c2.79016,0 5.5803,0 8.37046,0c0,12.40083 0,24.8012 0,37.20203c-2.79016,0 -5.5803,0 -8.37046,0c0,-12.40083 0,-24.8012 0,-37.20203z" fill="#fbfbfb" fill-rule="evenodd" stroke-width="1"/><path d="M465.74737,344.85502c0,-43.35435 35.14565,-78.5 78.5,-78.5c43.35435,0 78.5,35.14565 78.5,78.5c0,43.35435 -35.14565,78.5 -78.5,78.5c-43.35435,0 -78.5,-35.14565 -78.5,-78.5z" fill-opacity="0.01176" fill="#ffffff" fill-rule="nonzero" stroke-width="0"/><path d="M273.5855,338.86487c0,-43.35435 35.14565,-78.5 78.5,-78.5c43.35435,0 78.5,35.14565 78.5,78.5c0,43.35435 -35.14565,78.5 -78.5,78.5c-43.35435,0 -78.5,-35.14565 -78.5,-78.5z" fill-opacity="0.01176" fill="#ffffff" fill-rule="nonzero" stroke-width="0"/><path d="M106.45367,347.14348c0,-43.35435 35.14565,-78.5 78.5,-78.5c43.35435,0 78.5,35.14565 78.5,78.5c0,43.35435 -35.14565,78.5 -78.5,78.5c-43.35435,0 -78.5,-35.14565 -78.5,-78.5z" fill-opacity="0.01176" fill="#ffffff" fill-rule="nonzero" stroke-width="0"/></g></g></svg>