<svg version="1.1" xmlns="http://www.w3.org/2000/svg" xmlns:xlink="http://www.w3.org/1999/xlink" width="654.7062" height="267.0498" viewBox="0,0,654.7062,267.0498"><g transform="translate(-95.71904,-226.66855)"><g fill="#fefffe" fill-rule="evenodd" stroke="none" stroke-miterlimit="10"><path d="M95.71904,226.66855c194.21942,0 460.48677,0 654.7062,0c0,96.9579 0,170.0919 0,267.0498c-194.21942,0 -460.48677,0 -654.7062,0c0,-94.29693 0,-264.38883 0,-267.0498zM179.43466,266.57283c28.85294,-0.48024 51.84061,10.74776 68.96302,33.68491c18.15298,29.09374 18.45614,58.37821 0.91041,87.85387c-20.13538,27.65986 -47.21986,38.81229 -81.25345,33.4573c-32.39532,-8.1176 -52.65164,-28.37407 -60.76939,-60.7694c-5.24638,-33.29161 5.45086,-60.07293 32.0917,-80.34305c12.1821,-8.13172 25.53452,-12.75975 40.05772,-13.88365zM357.87362,266.57283c28.85294,-0.48024 51.84061,10.74776 68.96302,33.68491c18.15298,29.09374 18.45614,58.37821 0.91041,87.85387c-20.13538,27.65986 -47.21986,38.81229 -81.25345,33.4573c-32.39532,-8.1176 -52.65178,-28.37407 -60.76939,-60.7694c-5.2462,-33.29161 5.45103,-60.07293 32.0917,-80.34305c12.1821,-8.13172 25.53453,-12.75975 40.05773,-13.88365zM536.31256,266.57283c28.85067,-0.48024 51.83834,10.74776 68.96302,33.68491c18.15343,29.09374 18.45842,58.37821 0.91041,87.85387c-20.13356,27.65986 -47.21805,38.81229 -81.25345,33.4573c-32.39532,-8.1176 -52.65178,-28.37407 -60.76939,-60.7694c-5.2462,-33.29161 5.45103,-60.07293 32.0917,-80.34305c12.1821,-8.13172 25.53453,-12.75975 40.05773,-13.88365z"/></g></g></svg>