<svg xmlns:xlink="http://www.w3.org/1999/xlink" style="shape-rendering:geometricPrecision; text-rendering:geometricPrecision; image-rendering:optimizeQuality; fill-rule:evenodd; clip-rule:evenodd" height="701px" width="194px" version="1.1" xmlns="http://www.w3.org/2000/svg">
<g><path d="M -0.5,-0.5 C 63.8333,-0.5 128.167,-0.5 192.5,-0.5C 192.5,0.166667 192.833,0.5 193.5,0.5C 193.5,14.8333 193.5,29.1667 193.5,43.5C 169.878,44.48 146.212,44.8133 122.5,44.5C 122.5,78.8333 122.5,113.167 122.5,147.5C 146.241,147.177 169.908,147.511 193.5,148.5C 193.5,162.833 193.5,177.167 193.5,191.5C 128.905,192.496 64.2378,192.83 -0.5,192.5C -0.5,177.833 -0.5,163.167 -0.5,148.5C 25.7612,147.676 52.0946,147.176 78.5,147C 77.504,112.906 77.1707,78.7397 77.5,44.5C 51.4555,44.8152 25.4555,44.4819 -0.5,43.5C -0.5,28.8333 -0.5,14.1667 -0.5,-0.5 Z" fill="#9965ff" style="opacity:0.98"></path></g>
<g><path d="M -0.5,457.5 C -0.5,425.5 -0.5,393.5 -0.5,361.5C 3.49066,335.641 17.1573,316.474 40.5,304C 60.7155,295.908 81.7155,291.575 103.5,291C 110.934,293.435 116.101,298.268 119,305.5C 120.282,338.137 120.949,370.804 121,403.5C 124.797,414.986 131.963,417.82 142.5,412C 144.401,409.03 145.901,405.864 147,402.5C 147.667,362.5 147.667,322.5 147,282.5C 146.727,280.671 145.893,279.171 144.5,278C 96.2053,276.524 47.8719,276.024 -0.5,276.5C -0.5,261.833 -0.5,247.167 -0.5,232.5C 57.0962,231.338 114.763,231.171 172.5,232C 182.131,234.296 188.631,240.129 192,249.5C 192.667,298.5 192.667,347.5 192,396.5C 191.666,422.015 180.833,441.515 159.5,455C 121.833,468.919 95.0001,457.419 79,420.5C 78.1265,416.465 77.1265,412.465 76,408.5C 75.6667,386.167 75.3333,363.833 75,341.5C 61.5436,341.746 51.8769,348.079 46,360.5C 44.5438,393.131 44.0438,425.798 44.5,458.5C 29.4219,458.816 14.4219,458.483 -0.5,457.5 Z" fill="#9966ff" style="opacity:0.971"></path></g>
<g><path d="M 191.5,700.5 C 177.167,700.5 162.833,700.5 148.5,700.5C 147.671,648.904 147.171,597.237 147,545.5C 144.314,534.762 137.814,530.929 127.5,534C 123.284,537.932 120.784,542.766 120,548.5C 119.667,582.5 119.333,616.5 119,650.5C 116.419,672.23 105.919,688.897 87.5,700.5C 69.5,700.5 51.5,700.5 33.5,700.5C 13.5347,688.593 2.70138,670.926 1,647.5C 0.333333,596.167 0.333333,544.833 1,493.5C 15.755,492.509 30.5884,492.176 45.5,492.5C 45.3333,544.501 45.5,596.501 46,648.5C 50.532,661.02 58.3653,663.687 69.5,656.5C 72.3929,653.381 74.2262,649.714 75,645.5C 75.3333,610.5 75.6667,575.5 76,540.5C 80.4448,513.055 95.9448,495.222 122.5,487C 154.303,484.321 176.137,497.821 188,527.5C 190.632,535.958 191.965,544.625 192,553.5C 192.828,602.571 192.661,651.571 191.5,700.5 Z" fill="#9966ff" style="opacity:0.977"></path></g>
</svg>
