<svg version="1.1" xmlns="http://www.w3.org/2000/svg" xmlns:xlink="http://www.w3.org/1999/xlink" width="514.56331" height="620.82696" viewBox="0,0,514.56331,620.82696"><g transform="translate(-140.11837,53.72594)"><g fill-rule="evenodd" stroke="none" stroke-miterlimit="10"><path d="" fill="#fefefe"/><path d="" fill="#fefefe"/><path d="" fill="#909090"/><path d="" fill="#b8b8b8"/><path d="M151.8949,-51.72593c213.95412,0 288.83266,-2 502.78678,-2c0,120.3491 0,500.47786 0,620.82696c-74.5586,0 -514.56331,-139.875 -514.56331,-139.875c0,0 11.77653,-478.95196 11.77653,-478.95196z" fill="#fefefe"/><path d="" fill="#7e7e7e"/><path d="" fill="#7e7e7e"/><path d="" fill="#7e7e7e"/><path d="" fill="#7e7e7e"/><path d="" fill="#7e7e7e"/><path d="" fill="#7e7e7e"/><path d="" fill="#7e7e7e"/><path d="" fill="#7e7e7e"/><path d="" fill="#7e7e7e"/><path d="" fill="#7e7e7e"/><path d="" fill="#7e7e7e"/><path d="" fill="#7e7e7e"/><path d="" fill="#7e7e7e"/><path d="" fill="#7e7e7e"/><path d="M294.35346,93.32841c0,-3.48793 0,-6.97612 0,-10.46406c-27.03206,0 -54.06438,0 -81.09643,0c0,3.48793 0,6.97612 0,10.46406c-2.23905,7.88231 -7.03498,9.62615 -14.38808,5.23203c-1.7441,-8.71996 -1.7441,-17.44018 0,-26.16014c3.89969,-3.9337 8.69563,-6.11389 14.38808,-6.54003c-7.92443,-12.18068 -4.43624,-16.54079 10.46406,-13.08007c6.1029,3.25066 7.847,7.61077 5.23203,13.08007c5.43791,2.11295 10.66994,1.67686 15.69608,-1.30801c-4.61256,-7.7986 -2.86872,-13.03063 5.23203,-15.69608c9.90004,2.36775 13.38797,8.03561 10.46406,17.00409c5.23203,1.7441 10.46406,1.7441 15.69608,0c4.25652,-11.2983 12.10456,-15.65815 23.54413,-13.08007c3.5583,5.06879 2.68612,9.4289 -2.61601,13.08007c5.69245,0.42615 10.48838,2.60633 14.38808,6.54003c1.7441,7.84804 1.7441,15.69608 0,23.54413c-6.83015,7.17677 -12.49827,6.30459 -17.00409,-2.61601z" fill="#064500"/><path d="M341.44171,166.5768c0.43374,-12.23902 -0.00209,-24.44717 -1.30801,-36.62419c-1.87621,1.42363 -3.18421,3.16773 -3.92402,5.23203c-6.25097,10.43371 -9.73916,9.1257 -10.46406,-3.92402c3.96143,-12.7324 8.32154,-25.37664 13.08007,-37.9322c-12.47315,-1.78962 -15.96135,-8.32965 -10.46406,-19.6201c3.38303,-1.28185 6.87122,-1.71794 10.46406,-1.30801c-0.42929,-7.03001 0.0068,-14.00614 1.30801,-20.92811c5.23203,-3.48793 10.46406,-3.48793 15.69608,0c1.30121,6.92197 1.73729,13.8981 1.30801,20.92811c13.06123,1.30016 15.67725,6.96828 7.84804,17.00409c-2.47998,1.26301 -5.096,1.6991 -7.84804,1.30801c1.82153,7.98826 5.74555,14.96412 11.77206,20.92811c1.7441,4.36011 1.7441,8.71996 0,13.08007c-4.48411,3.72913 -7.9723,2.85721 -10.46406,-2.61601c-0.87192,14.82417 -1.7441,29.64807 -2.61601,44.47224c-5.15041,6.86416 -9.94661,6.86416 -14.38808,0z" fill="#064500"/><path d="M401.61003,48.85617c13.08007,-2.61601 18.3121,2.61601 15.69608,15.69608c7.89618,-0.4306 15.74317,0.00523 23.54413,1.30801c7.34054,11.13794 3.85339,17.24215 -10.46406,18.3121c9.10634,7.23485 13.03037,16.3909 11.77206,27.46815c-11.6151,4.79044 -19.02836,13.5104 -22.23612,26.16014c8.10441,6.60674 15.95245,13.14678 23.54413,19.6201c-2.31517,6.24207 -6.67607,10.16609 -13.08007,11.77206c-8.26974,-3.69669 -16.11778,-8.05654 -23.54413,-13.08007c-7.90847,5.6982 -16.62843,10.05831 -26.16014,13.08007c-5.51691,-0.72019 -9.00484,-3.77229 -10.46406,-9.15605c9.00903,-6.80948 17.72899,-14.22144 26.16014,-22.23612c-4.39883,-11.49633 -11.81104,-20.21629 -22.23612,-26.16014c-1.7441,-3.48793 -1.7441,-6.97612 0,-10.46406c3.574,-4.89273 6.62584,-10.12476 9.15605,-15.69608c-8.44737,-3.59571 -11.49947,-9.69992 -9.15605,-18.3121c7.99637,-2.48652 16.2805,-3.3587 24.85213,-2.61601c-0.45702,-5.54804 0.4149,-10.78007 2.61601,-15.69608z" fill="#064500"/><path d="M431.25819,225.87311c-8.71917,0 -17.44096,0 -26.16014,0c-0.77172,5.84784 0.10202,11.07987 2.61601,15.69608c-0.36363,17.94952 3.99727,34.51778 13.08007,49.70426c2.77821,-6.38804 6.70223,-11.62007 11.77206,-15.69608c5.99329,1.63265 9.04356,5.55668 9.15605,11.77206c-0.24067,19.43358 -9.8336,27.28162 -28.77615,23.54413c-10.88523,-8.25091 -17.42527,-19.15079 -19.6201,-32.70017c-4.17516,-17.20657 -6.35691,-34.64675 -6.54003,-52.32028c-20.07529,0.4353 -40.13227,-0.00078 -60.16832,-1.30801c-6.97691,-5.23203 -6.97691,-10.46406 0,-15.69608c19.16492,-1.30722 38.34815,-1.74305 57.55231,-1.30801c-0.42379,-5.30345 0.01308,-10.53547 1.30801,-15.69608c6.10316,-6.97612 12.20894,-6.97612 18.3121,0c1.29493,5.16061 1.7318,10.39264 1.30801,15.69608c5.30266,0.42406 10.53469,-0.01177 15.69608,-1.30801c-11.78253,-13.08818 -9.16651,-17.88412 7.84804,-14.38808c3.29618,4.84721 3.29618,9.64315 0,14.38808c8.82905,2.69319 11.88194,8.36104 9.15605,17.00409c-1.75535,1.96829 -3.93448,2.84047 -6.54003,2.61601z" fill="#064500"/><path d="M224.59309,191.86493c7.25159,0.24904 12.48362,3.73698 15.69608,10.46406c-6.54265,13.09681 -14.39069,25.30496 -23.54413,36.62419c-13.58234,8.95383 -20.12238,5.4659 -19.6201,-10.46406c8.88137,-12.75098 18.03742,-24.95913 27.46815,-36.62419z" fill="#064500"/><path d="M263.8333,194.48094c5.30266,-0.42406 10.53469,0.01177 15.69608,1.30801c6.72316,11.2329 15.00807,21.26113 24.85213,30.08416c1.68733,11.38071 -3.10782,17.04882 -14.38808,17.00409c-11.65173,-11.63917 -21.24203,-24.71924 -28.77615,-39.24021c1.27923,-2.97833 2.15036,-6.03044 2.61601,-9.15605z" fill="#064500"/><path d="M422.53814,85.48037c-9.59214,-3.48793 -19.18401,-3.48793 -28.77615,0c-2.0643,-0.73981 -3.80839,-2.04782 -5.23203,-3.92402c12.3005,-2.16684 24.50865,-1.73075 36.62419,1.30801c-0.32334,1.58714 -1.19526,2.45905 -2.61601,2.61601z" fill="#064500"/><path d="M294.35346,93.32841c-2.36488,-1.85475 -3.23679,-4.47077 -2.61601,-7.84804c-25.28822,0 -50.57618,0 -75.8644,0c0.62078,3.37727 -0.25114,5.99329 -2.61601,7.84804c0,-3.48793 0,-6.97612 0,-10.46406c27.03206,0 54.06438,0 81.09643,0c0,3.48793 0,6.97612 0,10.46406z" fill="#064500"/><path d="M393.76199,85.48037c9.59214,-3.48793 19.18401,-3.48793 28.77615,0c-3.33725,7.02452 -2.46533,14.00064 2.61601,20.92811c-9.40065,1.11416 -15.06876,6.34619 -17.00409,15.69608c-3.29565,-7.65995 -8.96377,-12.45589 -17.00409,-14.38808c8.51329,-7.19561 9.38547,-14.60756 2.61601,-22.23612z" fill="#064500"/><path d="M221.10507,93.32841c20.94616,-0.4353 41.87427,0.00078 62.78433,1.30801c3.94338,2.19039 5.25139,5.24223 3.92402,9.15605c-5.76753,6.6452 -12.30756,12.31305 -19.6201,17.00409c13.95199,0.87192 27.90424,1.7441 41.85622,2.61601c3.26269,3.90728 3.26269,7.8313 0,11.77206c-15.53651,2.50379 -31.23259,3.3757 -47.08825,2.61601c5.89388,26.80446 -4.57018,37.70461 -31.39217,32.70017c-7.08887,-3.81886 -8.83297,-9.05088 -5.23203,-15.69608c6.04247,-1.29911 12.14668,-1.7352 18.3121,-1.30801c0,-5.23203 0,-10.46406 0,-15.69608c-14.84954,0.43452 -29.67371,-0.00157 -44.47224,-1.30801c-5.30214,-3.65117 -6.17432,-8.01128 -2.61601,-13.08007c15.76802,-0.44394 31.46411,-1.75194 47.08825,-3.92402c2.25919,-4.43807 5.74712,-7.49017 10.46406,-9.15605c-10.46406,-0.87192 -20.92811,-1.7441 -31.39217,-2.61601c-2.37037,-4.44592 -3.24229,-9.24185 -2.61601,-14.38808z" fill="#064500"/><path d="M235.05715,238.95318c5.30266,-0.42406 10.53469,0.01177 15.69608,1.30801c1.5199,2.33505 2.39365,4.95107 2.61601,7.84804c-4.13592,12.2024 -9.36795,23.97446 -15.69608,35.31619c11.77468,3.79139 23.10987,2.91921 34.00818,-2.61601c-9.48828,-14.49795 -6.00114,-21.03798 10.46406,-19.6201c12.67982,11.82857 19.21985,26.21665 19.6201,43.16423c-1.30801,1.30801 -2.61601,2.61601 -3.92402,3.92402c-6.84611,-0.61502 -13.38614,-2.79521 -19.6201,-6.54003c-21.78355,1.83513 -43.58279,3.57923 -65.40035,5.23203c-12.42345,-0.22602 -16.78173,-6.32997 -13.08007,-18.3121c5.23203,-1.7441 10.46406,-3.48793 15.69608,-5.23203c6.8121,-14.79199 13.35214,-29.61616 19.6201,-44.47224z" fill="#064500"/><path d="M331.84966,238.95318c15.85566,-0.75969 31.55174,0.11223 47.08825,2.61601c3.76444,13.07431 -1.46758,18.30634 -15.69608,15.69608c0,8.71996 0,17.44018 0,26.16014c6.06654,-1.74488 12.17231,-2.18071 18.3121,-1.30801c5.8965,2.75702 6.76763,6.68104 2.61601,11.77206c-18.71496,6.27346 -37.89819,9.32557 -57.55231,9.15605c-3.4139,-14.45191 2.68926,-20.12002 18.3121,-17.00409c0,-9.59214 0,-19.18401 0,-28.77615c-16.38148,1.16203 -20.74237,-4.94217 -13.08007,-18.3121z" fill="#064500"/><path d="M341.44171,166.5768c-1.7441,-10.46406 -3.48793,-20.92811 -5.23203,-31.39217c0.73981,-2.0643 2.04782,-3.80839 3.92402,-5.23203c1.30591,12.17702 1.74174,24.38517 1.30801,36.62419z" fill="#064500"/></g></g></svg>