<svg version="1.1" xmlns="http://www.w3.org/2000/svg" xmlns:xlink="http://www.w3.org/1999/xlink" width="819.57958" height="120.61768" viewBox="0,0,819.57958,120.61768"><g transform="translate(24.47447,-76.95843)"><g fill-rule="evenodd" stroke="none" stroke-miterlimit="10"><path d="M-24.47446,76.95843c213.45362,0 606.12596,0 819.57958,0c0,93.71924 0,26.89844 0,120.61768c-213.45362,0 -606.12596,0 -819.57958,0c0,-93.71924 0,-26.89844 0,-120.61768zM8.32527,94.95083c20.67829,0 41.35662,0 62.03491,0c0.15809,4.12832 -0.00901,8.21412 -0.50028,12.2569c-8.1696,0.25014 -16.3407,0.33369 -24.5138,0.25014c0,19.67757 0,39.35565 0,59.03322c-4.169,0 -8.33804,0 -12.50704,0c0,-19.67757 0,-39.35565 0,-59.03322c-8.17125,0 -16.34255,0 -24.5138,0c0,-4.16885 0,-8.33819 0,-12.50704zM82.86722,94.95083c3.83566,0 7.67082,0 11.50648,0c0,23.84692 0,47.69334 0,71.54026c-3.83566,0 -7.67082,0 -11.50648,0c0,-23.84692 0,-47.69334 0,-71.54026zM109.88242,94.95083c4.46151,-0.15859 8.8805,0.008 13.25746,0.50028c7.91145,18.90214 15.91596,37.74574 24.01351,56.53181c8.16059,-18.72504 16.08205,-37.56914 23.76337,-56.53181c4.49003,-0.49928 8.99256,-0.66638 13.5076,-0.50028c0,23.84692 0,47.69334 0,71.54026c-3.83566,0 -7.67082,0 -11.50648,0c0.08355,-15.50973 0,-31.01846 -0.25014,-46.52618c-6.59671,15.2841 -13.10037,30.62623 -19.51098,46.0259c-4.04278,0.49128 -8.12857,0.65837 -12.2569,0.50028c-6.13445,-15.60728 -12.55457,-31.11601 -19.26084,-46.52618c-0.25014,15.50773 -0.33369,31.01645 -0.25014,46.52618c-3.83566,0 -7.67082,0 -11.50648,0c0,-23.84692 0,-47.69334 0,-71.54026zM228.94944,107.45787c-0.33369,0 -0.66688,0 -1.00056,0c-6.50366,0 -13.00732,0 -19.51098,0c-0.15959,5.12739 0.007,10.21375 0.50028,15.25859c11.50547,0.25014 23.01195,0.33369 34.51943,0.25014c0.15809,4.12832 -0.00901,8.21412 -0.50028,12.2569c-11.50547,0.25014 -23.01195,0.33369 -34.51943,0.25014c-0.08355,5.83879 0,11.67557 0.25014,17.50985c0.25014,0.25014 0.50028,0.50028 0.75042,0.75042c14.12745,0.41423 28.21838,0.33069 42.27379,-0.25014c0.25014,4.33244 0.33319,8.66838 0.25014,13.00732c-18.34382,0 -36.68715,0 -55.03097,0c0,-23.84692 0,-47.69334 0,-71.54026c17.67645,0 35.35339,0 53.02984,0c0,4.16885 0,8.33819 0,12.50704c-7.00394,0 -14.00788,0 -21.01182,0zM303.99167,94.95083c20.67814,0 41.35677,0 62.03491,0c0.15809,4.12832 -0.00901,8.21412 -0.50028,12.2569c-8.1696,0.25014 -16.3407,0.33369 -24.5138,0.25014c0,19.67757 0,39.35565 0,59.03322c-4.16885,0 -8.33819,0 -12.50704,0c0,-19.67757 0,-39.35565 0,-59.03322c-8.1711,0 -16.3427,0 -24.5138,0c0,-4.16885 0,-8.33819 0,-12.50704zM392.5415,94.95083c5.16941,0 10.33932,0 15.50873,0c8.30417,23.74386 16.80896,47.42419 25.51436,71.03998c-4.32293,0.49928 -8.65887,0.66587 -13.00732,0.50028c-1.51635,-4.96579 -3.18379,-9.88556 -5.00282,-14.75831c-10.17222,-0.33369 -20.34495,-0.33369 -30.51717,0c-1.81902,4.87274 -3.48646,9.79251 -5.00282,14.75831c-4.34845,0.16559 -8.68439,-0.001 -13.00732,-0.50028c8.7074,-23.62129 17.21219,-47.30112 25.51436,-71.03998zM442.56965,94.95083c12.17485,-0.08355 24.3482,0 36.52055,0.25014c14.2075,3.13476 19.79414,11.88969 16.75943,26.26478c-0.7134,2.63048 -2.1307,4.7987 -4.25239,6.50366c7.2906,3.22732 10.79107,8.89701 10.50591,17.00957c-0.02001,10.76656 -5.18842,17.52036 -15.50873,20.2614c-2.32281,0.41523 -4.65762,0.74892 -7.00394,1.00056c-12.33894,0.25014 -24.67939,0.33369 -37.02083,0.25014c0,-23.84692 0,-47.69334 0,-71.54026zM513.60961,94.95083c3.83716,0 7.66932,0 11.50648,0c0,19.51098 0,39.02196 0,58.53294c14.67826,-0.08355 29.35152,0 44.02477,0.25014c0.57532,4.04628 0.65537,8.13158 0.25014,12.2569c-18.55544,0.49828 -37.15091,0.66537 -55.78139,0.50028c0,-23.84692 0,-47.69334 0,-71.54026zM579.64676,94.95083c17.67495,0 35.3549,0 53.02984,0c0,4.16885 0,8.33819 0,12.50704c-13.84279,0 -27.68058,0 -41.52337,0c0,5.16941 0,10.33932 0,15.50873c11.50648,0 23.01295,0 34.51943,0c0,4.16885 0,8.33819 0,12.50704c-11.50648,0 -23.01295,0 -34.51943,0c-0.16009,6.12695 0.005,12.21387 0.50028,18.26028c14.17298,0.25014 28.34595,0.33369 42.52393,0.25014c0,4.16885 0,8.33819 0,12.50704c-18.17523,0 -36.35546,0 -54.53069,0c0,-23.84692 0,-47.69334 0,-71.54026z" fill="#fefefe"/><path d="M452.57463,109.96059c6.83935,-0.08355 13.6762,0 20.51154,0.25014c8.84848,0.28316 11.76662,4.53555 8.75493,12.75718c-1.56938,1.2437 -3.32037,2.16072 -5.25296,2.75155c-7.989,0.66237 -15.9935,0.91251 -24.01351,0.75042c0,-5.5031 0,-11.00619 0,-16.50929z" fill="#fefefe"/><path d="M226.44737,110.46087c0.33369,0 0.66688,0 1.00056,0c-0.59784,1.89407 -0.93152,1.89407 -1.00056,0z" fill="#a9a9a9"/><path d="M398.54422,111.46143c4.15034,10.11269 7.8189,20.45201 11.00619,31.01745c-7.17054,0 -14.34157,0 -21.51211,0c3.30436,-10.41286 6.80633,-20.75218 10.50591,-31.01745z" fill="#fefefe"/><path d="M452.57463,137.97635c8.00601,-0.08355 16.01051,0 24.01351,0.25014c3.97674,0.15609 7.39516,1.57339 10.25577,4.25239c3.36339,6.25502 1.779,10.67401 -4.75267,13.25746c-1.80802,0.47277 -3.64255,0.80645 -5.5031,1.00056c-8.003,0.25014 -16.00751,0.33369 -24.01351,0.25014c0,-6.33707 0,-12.67363 0,-19.0107z" fill="#fefefe"/><path d="M346.51494,147.98198c0.39522,0.55481 0.64536,1.22169 0.75042,2.00113c0.33369,2.8351 0.33369,5.66969 0,8.50479c-0.18811,-3.51098 -0.43825,-7.01295 -0.75042,-10.50591z" fill="#c8c8c8"/></g></g></svg>