<svg version="1.1" xmlns="http://www.w3.org/2000/svg" xmlns:xlink="http://www.w3.org/1999/xlink" width="360" height="640" viewBox="0,0,360,640"><g fill-rule="evenodd" stroke="none" stroke-miterlimit="10"><path d="M360,0c0,213.3335 0,426.6665 0,640c-120,0 -240,0 -360,0c0,-213.3335 0,-426.6665 0,-640c120,0 240,0 360,0zM295.5,345.5c-5.843,-0.166 -11.676,0.0005 -17.5,0.5c0.6775,1.0105 1.5105,1.844 2.5,2.5c0,0.1665 0,0.3335 0,0.5c0.683,1.366 1.3495,2.6995 2,4c0,0.3335 0,0.6665 0,1c-0.1475,1.1175 0.0195,2.1175 0.5,3c0,0.1665 0,0.3335 0,0.5c-0.4805,0.8825 -0.6475,1.8825 -0.5,3c0,0.3335 0,0.6665 0,1c-0.452,0.3545 -0.6185,0.8545 -0.5,1.5c0,0.1665 0,0.3335 0,0.5c-0.6185,0.7325 -1.1185,1.566 -1.5,2.5c0,0.1665 0,0.3335 0,0.5c-1.3335,1 -2.5,2.1665 -3.5,3.5c-1.4925,0.413 -2.8255,1.0795 -4,2c-8.4315,1.346 -16.9315,1.846 -25.5,1.5c0,-2.5 0,-5 0,-7.5c7.3585,0.2065 14.692,-0.0435 22,-0.75c5.407,-2.0605 7.49,-5.977 6.25,-11.75c-1.0495,-3.549 -3.2995,-5.966 -6.75,-7.25c-7.137,-0.715 -14.304,-0.965 -21.5,-0.75c0,-2.5 0,-5 0,-7.5c16,0 32,0 48,0c0,2.5 0,5 0,7.5zM295.5,506.5c-5.843,-0.165 -11.676,0 -17.5,0.5c0.6775,1.01 1.5105,1.845 2.5,2.5c0,0.165 0,0.335 0,0.5c0.3815,0.935 0.8815,1.77 1.5,2.5c0,0.165 0,0.335 0,0.5c-0.086,0.495 0.081,0.83 0.5,1c0,0.335 0,0.665 0,1c-0.1475,1.12 0.0195,2.12 0.5,3c0,0.165 0,0.335 0,0.5c-0.484,1.055 -0.651,2.22 -0.5,3.5c0,0.165 0,0.335 0,0.5c-0.452,0.355 -0.6185,0.855 -0.5,1.5c0,0.165 0,0.335 0,0.5c-1.4365,2.61 -3.27,4.94 -5.5,7c-3.147,1.535 -6.4805,2.455 -10,2.75c-6.331,0.25 -12.6645,0.335 -19,0.25c0,-2.5 0,-5 0,-7.5c7.529,0.215 15.029,-0.035 22.5,-0.75c5.1335,-2.05 7.05,-5.8 5.75,-11.25c-1.6175,-4.95 -5.0345,-7.7 -10.25,-8.25c-5.9975,-0.25 -11.9975,-0.335 -18,-0.25c0,-2.335 0,-4.665 0,-7c16.1,-0.3585 32.1,-0.3585 48,0c0,2.335 0,4.665 0,7zM294,77c0,0.1665 0,0.3335 0,0.5c-0.484,1.0535 -0.651,2.2205 -0.5,3.5c0,0.3335 0,0.6665 0,1c-0.419,0.171 -0.586,0.504 -0.5,1c0,0.1665 0,0.3335 0,0.5c-0.419,0.171 -0.586,0.504 -0.5,1c-0.305,0.4455 -0.4715,0.9455 -0.5,1.5c-1.8335,2.1665 -3.8335,4.1665 -6,6c-5.2995,1.841 -9.9665,0.841 -14,-3c-0.6395,-0.6075 -1.1395,-0.441 -1.5,0.5c0,0.1665 0,0.3335 0,0.5c-1.3335,1 -2.5,2.1665 -3.5,3.5c-0.8265,0.08 -1.493,0.413 -2,1c-1.4365,0.151 -2.7695,0.4845 -4,1c-2.609,-0.288 -5.109,-0.9545 -7.5,-2c-0.2365,-0.703 -0.7365,-1.0365 -1.5,-1c-5.894,-7.329 -7.3105,-15.4955 -4.25,-24.5c2.951,-6.936 8.201,-9.936 15.75,-9c0.64,0.7155 1.4735,1.049 2.5,1c0.2365,0.703 0.7365,1.0365 1.5,1c1.2495,1.3345 2.416,2.751 3.5,4.25c0.4685,0.346 0.8015,0.2625 1,-0.25c0.6665,-0.3335 1.1665,-0.8335 1.5,-1.5c0.7635,0.0365 1.2635,-0.297 1.5,-1c3.067,-1.381 6.2335,-1.7145 9.5,-1c0.8405,0.754 1.8405,1.254 3,1.5c1,1.3335 2.1665,2.5 3.5,3.5c0,0.1665 0,0.3335 0,0.5c0.1665,0.5 0.5,0.8335 1,1c0.0285,0.5545 0.195,1.0545 0.5,1.5c-0.086,0.496 0.081,0.829 0.5,1c0,0.1665 0,0.3335 0,0.5c-0.1185,0.6455 0.048,1.1455 0.5,1.5c0,0.1665 0,0.3335 0,0.5c-0.153,1.4425 0.0135,2.776 0.5,4zM294,210c0,1.6665 0,3.3335 0,5c-0.452,0.3545 -0.6185,0.8545 -0.5,1.5c0,0.3335 0,0.6665 0,1c-0.419,0.171 -0.586,0.504 -0.5,1c0,0.1665 0,0.3335 0,0.5c-0.419,0.171 -0.586,0.504 -0.5,1c-0.305,0.4455 -0.4715,0.9455 -0.5,1.5c-1.4855,1.654 -2.9855,3.3205 -4.5,5c-0.7635,-0.0365 -1.2635,0.297 -1.5,1c-10.884,4.7185 -21.7175,4.635 -32.5,-0.25c-5.155,-3.8115 -7.655,-8.9785 -7.5,-15.5c-0.062,-5.176 1.521,-9.759 4.75,-13.75c1.392,-1.3095 2.9755,-2.3095 4.75,-3c0.5545,0.0285 1.0545,0.195 1.5,0.5c0,0.1665 0,0.3335 0,0.5c0.08,0.8265 0.413,1.493 1,2c0.0285,0.5545 0.195,1.0545 0.5,1.5c-0.086,0.496 0.081,0.829 0.5,1c-0.141,0.639 -0.4745,1.139 -1,1.5c-1.2945,0.4595 -2.2945,1.293 -3,2.5c0,0.1665 0,0.3335 0,0.5c-0.5,0.1665 -0.8335,0.5 -1,1c0,0.1665 0,0.3335 0,0.5c-0.419,0.171 -0.586,0.504 -0.5,1c0,0.3335 0,0.6665 0,1c-0.6665,2.3335 -0.6665,4.6665 0,7c0,0.1665 0,0.3335 0,0.5c-0.086,0.496 0.081,0.829 0.5,1c0,0.1665 0,0.3335 0,0.5c0.1665,0.5 0.5,0.8335 1,1c0,0.1665 0,0.3335 0,0.5c0.7055,1.207 1.7055,2.0405 3,2.5c2.331,1.752 4.9975,2.5855 8,2.5c0.604,0.641 1.271,0.641 2,0c-0.062,-0.3035 -0.2285,-0.47 -0.5,-0.5c-1.8475,-1.1845 -3.0975,-2.8515 -3.75,-5c-2.6755,-8.8015 -0.592,-16.2185 6.25,-22.25c4.2765,-2.2345 8.7765,-2.818 13.5,-1.75c0.8405,0.754 1.8405,1.254 3,1.5c0.381,0.881 1.048,1.381 2,1.5c0.1665,0.3335 0.3335,0.6665 0.5,1c1.183,1.6785 2.3495,3.345 3.5,5c0,0.1665 0,0.3335 0,0.5c-0.086,0.496 0.081,0.829 0.5,1c0,0.1665 0,0.3335 0,0.5c-0.1185,0.6455 0.048,1.1455 0.5,1.5c0,0.3335 0,0.6665 0,1c-0.134,0.7995 0.033,1.466 0.5,2zM293.5,48c-15.3335,0 -30.6665,0 -46,0c0,-2.66665 0,-5.33335 0,-8c11.8345,0.0833 23.668,0 35.5,-0.25c-0.272,-0.3586 -0.6055,-0.6086 -1,-0.75c0.0365,-0.76345 -0.297,-1.26345 -1,-1.5c0.0365,-0.76345 -0.297,-1.26345 -1,-1.5c-0.1885,-0.879 -0.522,-1.7123 -1,-2.5c2.0085,-0.8384 4.0085,-1.6717 6,-2.5c0.7105,1.2547 1.544,2.4214 2.5,3.5c0,0.16665 0,0.33335 0,0.5c0.312,1.127 0.9785,1.9603 2,2.5c0,0.16665 0,0.33335 0,0.5c0.8335,1.16665 1.8335,2.16665 3,3c0.1665,0.33335 0.3335,0.66665 0.5,1c0.465,1.9499 0.6315,3.9499 0.5,6zM293.5,182.5c-15.3335,0 -30.6665,0 -46,0c0,-2.5 0,-5 0,-7.5c11.8345,0.0835 23.668,0 35.5,-0.25c-1.432,-2.0165 -2.7655,-4.0995 -4,-6.25c2.01,-1.143 4.0935,-2.143 6.25,-3c0.1995,0.114 0.2825,0.281 0.25,0.5c-0.0365,0.7635 0.297,1.2635 1,1.5c0.0285,0.5545 0.195,1.0545 0.5,1.5c0.1665,0.5 0.5,0.8335 1,1c0,0.1665 0,0.3335 0,0.5c0.4715,1.3045 1.305,2.3045 2.5,3c0,0.1665 0,0.3335 0,0.5c0.8135,1.065 1.73,2.065 2.75,3c0.2495,1.826 0.3325,3.659 0.25,5.5zM293,269c0.1665,0 0.3335,0 0.5,0c0,2.6665 0,5.3335 0,8c-0.6455,-0.1185 -1.1455,0.048 -1.5,0.5c-1.326,-0.045 -2.4925,0.288 -3.5,1c-0.7995,-0.134 -1.466,0.033 -2,0.5c-1.326,-0.045 -2.4925,0.288 -3.5,1c-1.9635,0.213 -3.7965,0.713 -5.5,1.5c-1.326,-0.045 -2.4925,0.288 -3.5,1c-0.7995,-0.134 -1.466,0.033 -2,0.5c-1.326,-0.045 -2.4925,0.288 -3.5,1c-1.9635,0.213 -3.7965,0.713 -5.5,1.5c-1.326,-0.045 -2.4925,0.288 -3.5,1c-2.6665,0.3335 -2.6665,0.6665 0,1c0.534,0.467 1.2005,0.634 2,0.5c1.0075,0.712 2.174,1.045 3.5,1c8.038,2.454 16.2045,4.6205 24.5,6.5c1.0075,0.712 2.174,1.045 3.5,1c0.6665,2.5 0.6665,5 0,7.5c-0.7995,-0.134 -1.466,0.033 -2,0.5c-1.326,-0.045 -2.4925,0.288 -3.5,1c-1.464,0.0325 -2.7975,0.366 -4,1c-1.326,-0.045 -2.4925,0.288 -3.5,1c-1.464,0.0325 -2.7975,0.366 -4,1c-1.326,-0.045 -2.4925,0.288 -3.5,1c-1.464,0.0325 -2.7975,0.366 -4,1c-1.326,-0.045 -2.4925,0.288 -3.5,1c-1.464,0.0325 -2.7975,0.366 -4,1c-1.2135,0.0115 -2.38,0.2615 -3.5,0.75c0.5315,0.594 1.1985,0.844 2,0.75c0.534,0.467 1.2005,0.634 2,0.5c1.0075,0.712 2.174,1.045 3.5,1c1.7035,0.787 3.5365,1.287 5.5,1.5c1.0075,0.712 2.174,1.045 3.5,1c3.533,1.301 7.1995,2.301 11,3c1.0075,0.712 2.174,1.045 3.5,1c1.0495,0.556 2.2165,0.8895 3.5,1c0.3545,0.452 0.8545,0.6185 1.5,0.5c0,2.6665 0,5.3335 0,8c-5.7675,-1.8665 -11.601,-3.533 -17.5,-5c-1.0075,-0.712 -2.174,-1.045 -3.5,-1c-1.525,-0.8005 -3.192,-1.3005 -5,-1.5c-1.0075,-0.712 -2.174,-1.045 -3.5,-1c-1.525,-0.8005 -3.192,-1.3005 -5,-1.5c-1.0075,-0.712 -2.174,-1.045 -3.5,-1c-2.5585,-1.0185 -5.225,-1.852 -8,-2.5c-0.1645,-2.853 0.0025,-5.686 0.5,-8.5c2.0855,-0.584 4.0855,-1.251 6,-2c1.326,0.045 2.4925,-0.288 3.5,-1c7.747,-1.77 15.414,-3.8535 23,-6.25c-6.919,-2.2295 -13.919,-4.1465 -21,-5.75c-1.0075,-0.712 -2.174,-1.045 -3.5,-1c-2.5635,-0.9775 -5.23,-1.811 -8,-2.5c-0.7745,-3.129 -0.608,-6.129 0.5,-9c1.326,0.045 2.4925,-0.288 3.5,-1c8.636,-2.214 17.136,-4.714 25.5,-7.5c1.326,0.045 2.4925,-0.288 3.5,-1c1.808,-0.1995 3.475,-0.6995 5,-1.5c1.326,0.045 2.4925,-0.288 3.5,-1c1.2835,-0.1105 2.4505,-0.444 3.5,-1zM281.5,489.5c-2.1665,0 -4.3335,0 -6.5,0c0,-3.1665 0,-6.3335 0,-9.5c-4.591,-0.1635 -9.091,0.0035 -13.5,0.5c-1.9945,-0.192 -3.8275,0.1415 -5.5,1c-0.952,0.119 -1.619,0.619 -2,1.5c-0.4615,1.782 -0.628,3.6155 -0.5,5.5c-0.1185,0.6455 0.048,1.1455 0.5,1.5c0.043,0.498 -0.124,0.9145 -0.5,1.25c-1.302,0.195 -2.469,0.612 -3.5,1.25c-0.896,-0.067 -1.729,0.0995 -2.5,0.5c-0.581,-2.9815 -1.081,-5.9815 -1.5,-9c0.1735,-4.44 2.1735,-7.69 6,-9.75c2.6355,-0.8275 5.302,-1.411 8,-1.75c5,0 10,0 15,0c0,-2.5 0,-5 0,-7.5c2.1665,0 4.3335,0 6.5,0c0,2.5 0,5 0,7.5c3.1665,0 6.3335,0 9.5,0c0,2.5 0,5 0,7.5c-3.1665,0 -6.3335,0 -9.5,0c0,3.1665 0,6.3335 0,9.5zM282.5,395c0,0.5 0,1 0,1.5c0,1.8335 0,3.6665 0,5.5c0,0.3335 0,0.6665 0,1c-0.452,0.3545 -0.6185,0.8545 -0.5,1.5c0,0.1665 0,0.3335 0,0.5c-0.419,0.171 -0.586,0.504 -0.5,1c0,0.1665 0,0.3335 0,0.5c-0.4505,0.395 -0.784,0.895 -1,1.5c-0.305,0.4455 -0.4715,0.9455 -0.5,1.5c-0.8335,0.5 -1.5,1.1665 -2,2c0,0.1665 0,0.3335 0,0.5c-1.1245,0.29 -1.9575,0.9565 -2.5,2c-4.5835,2.1255 -9.4165,3.1255 -14.5,3c0,-9.5 0,-19 0,-28.5c-1.199,-0.1205 -2.199,0.213 -3,1c-0.7635,-0.0365 -1.2635,0.297 -1.5,1c-0.7635,-0.0365 -1.2635,0.297 -1.5,1c0,0.1665 0,0.3335 0,0.5c-0.5,0.1665 -0.8335,0.5 -1,1c0,0.1665 0,0.3335 0,0.5c-0.7155,0.64 -1.049,1.4735 -1,2.5c0,0.1665 0,0.3335 0,0.5c-0.6665,1.3335 -0.6665,2.6665 0,4c0,0.3335 0,0.6665 0,1c-0.1185,0.6455 0.048,1.1455 0.5,1.5c0,0.1665 0,0.3335 0,0.5c-0.086,0.496 0.081,0.829 0.5,1c0,0.1665 0,0.3335 0,0.5c0.511,1.511 1.511,2.511 3,3c0.1665,0.3335 0.3335,0.6665 0.5,1c-0.419,0.171 -0.586,0.504 -0.5,1c0,0.1665 0,0.3335 0,0.5c-0.419,0.171 -0.586,0.504 -0.5,1c0,0.1665 0,0.3335 0,0.5c-0.419,0.171 -0.586,0.504 -0.5,1c0,0.1665 0,0.3335 0,0.5c-0.452,0.3545 -0.6185,0.8545 -0.5,1.5c-0.6105,0.4825 -1.277,0.399 -2,-0.25c-6.637,-6.294 -8.72,-13.8775 -6.25,-22.75c4.1785,-8.9675 11.2615,-12.801 21.25,-11.5c0.857,0.619 1.857,0.9525 3,1c1.1745,0.9205 2.5075,1.587 4,2c1,1.3335 2.1665,2.5 3.5,3.5c0,0.1665 0,0.3335 0,0.5c0.552,0.9445 1.2185,1.7775 2,2.5c0,0.1665 0,0.3335 0,0.5c-0.086,0.496 0.081,0.829 0.5,1c0,0.1665 0,0.3335 0,0.5c-0.086,0.496 0.081,0.829 0.5,1c0,0.1665 0,0.3335 0,0.5c-0.1185,0.6455 0.048,1.1455 0.5,1.5zM282.5,438.5c0,0.8335 0,1.6665 0,2.5c0,0.8335 0,1.6665 0,2.5c0,0.8335 0,1.6665 0,2.5c-0.452,0.3545 -0.6185,0.8545 -0.5,1.5c0,0.1665 0,0.3335 0,0.5c-0.6915,1.547 -1.525,3.047 -2.5,4.5c0,0.1665 0,0.3335 0,0.5c-1.61,1.0515 -3.11,2.218 -4.5,3.5c-2.057,0.505 -4.057,1.005 -6,1.5c-7.1665,0 -14.3335,0 -21.5,0c0,-2.3335 0,-4.6665 0,-7c1.3435,0.082 2.677,-0.0015 4,-0.25c-0.272,-0.3585 -0.6055,-0.6085 -1,-0.75c-3.0645,-3.3535 -4.5645,-7.3535 -4.5,-12c0.1855,-4.312 1.6855,-8.062 4.5,-11.25c1.2855,-0.727 2.619,-1.31 4,-1.75c2.079,-0.084 4.079,0.249 6,1c0.395,0.4505 0.895,0.784 1.5,1c0.1665,0.5 0.5,0.8335 1,1c0,0.1665 0,0.3335 0,0.5c0.552,0.9445 1.2185,1.7775 2,2.5c0,0.1665 0,0.3335 0,0.5c0.08,0.8265 0.413,1.493 1,2c0,0.1665 0,0.3335 0,0.5c-0.086,0.496 0.081,0.829 0.5,1c0,0.1665 0,0.3335 0,0.5c-0.086,0.496 0.081,0.829 0.5,1c0,0.3335 0,0.6665 0,1c-0.1185,0.6455 0.048,1.1455 0.5,1.5c0,0.3335 0,0.6665 0,1c-0.134,0.7995 0.033,1.466 0.5,2c0,0.6665 0,1.3335 0,2c-0.083,2.007 0.0005,4.007 0.25,6c0.808,0.6505 1.558,0.6505 2.25,0c2.5735,-0.4865 4.3235,-1.9865 5.25,-4.5c1.0755,-4.6765 -0.0075,-8.6765 -3.25,-12c-0.2365,-0.703 -0.7365,-1.0365 -1.5,-1c0.563,-2.1245 1.3965,-4.1245 2.5,-6c0.6665,0.1665 1.3335,0.3335 2,0.5c1.1665,1.5 2.5,2.8335 4,4c0,0.1665 0,0.3335 0,0.5c0.1665,0.5 0.5,0.8335 1,1c0.0285,0.5545 0.195,1.0545 0.5,1.5c0.148,0.9515 0.4815,1.785 1,2.5c0,0.1665 0,0.3335 0,0.5c-0.1185,0.6455 0.048,1.1455 0.5,1.5zM282.5,556c0,0.5 0,1 0,1.5c0,1.835 0,3.665 0,5.5c0,0.335 0,0.665 0,1c-0.452,0.355 -0.6185,0.855 -0.5,1.5c0,0.165 0,0.335 0,0.5c-0.419,0.17 -0.586,0.505 -0.5,1c0,0.165 0,0.335 0,0.5c-0.8265,1.315 -1.6595,2.65 -2.5,4c0,0.165 0,0.335 0,0.5c-1.823,1.16 -3.49,2.49 -5,4c-1.0265,-0.05 -1.86,0.285 -2.5,1c-3.455,0.745 -6.955,1.08 -10.5,1c0,-9.5 0,-19 0,-28.5c-0.7995,-0.135 -1.466,0.035 -2,0.5c-2.6665,1 -4.5,2.835 -5.5,5.5c0,0.165 0,0.335 0,0.5c-0.419,0.17 -0.586,0.505 -0.5,1c0,0.165 0,0.335 0,0.5c-0.6665,1.335 -0.6665,2.665 0,4c0,0.5 0,1 0,1.5c-0.086,0.495 0.081,0.83 0.5,1c0.052,1.1 0.385,2.1 1,3c0.847,1.18 1.847,2.18 3,3c0,0.165 0,0.335 0,0.5c-0.419,0.17 -0.586,0.505 -0.5,1c0,0.165 0,0.335 0,0.5c-0.7155,0.64 -1.049,1.475 -1,2.5c0,0.165 0,0.335 0,0.5c-0.419,0.17 -0.586,0.505 -0.5,1c-0.6105,0.48 -1.277,0.4 -2,-0.25c-4.9905,-4.28 -7.4905,-9.78 -7.5,-16.5c1.749,-12.41 8.9155,-18.245 21.5,-17.5c2.459,0.405 4.7925,1.155 7,2.25c1.313,1.16 2.6465,2.33 4,3.5c0.1665,0.335 0.3335,0.665 0.5,1c0.1665,0.5 0.5,0.835 1,1c0,0.165 0,0.335 0,0.5c0.216,0.605 0.5495,1.105 1,1.5c0,0.165 0,0.335 0,0.5c0.08,0.825 0.413,1.495 1,2c0,0.165 0,0.335 0,0.5c-0.1185,0.645 0.048,1.145 0.5,1.5zM282.5,600c0,0.165 0,0.335 0,0.5c0,2.335 0,4.665 0,7c-0.1475,0.96 -0.564,1.795 -1.25,2.5c-1.4985,-0.685 -3.082,-1.015 -4.75,-1c-0.5255,-0.36 -0.859,-0.86 -1,-1.5c1.7685,-6.715 -0.7315,-10.8 -7.5,-12.25c-6.8225,-0.555 -13.6555,-0.805 -20.5,-0.75c0,-2.335 0,-4.665 0,-7c11.3335,0 22.6665,0 34,0c0,2.335 0,4.665 0,7c-3.649,-0.27 -3.8155,0.565 -0.5,2.5c0,0.165 0,0.335 0,0.5c0.1665,0.5 0.5,0.835 1,1c0,0.165 0,0.335 0,0.5c-0.086,0.495 0.081,0.83 0.5,1zM277.5,128.5c0,0.1665 0,0.3335 0,0.5c0,1.3335 0,2.6665 0,4c-0.305,0.4455 -0.4715,0.9455 -0.5,1.5c-0.703,0.2365 -1.0365,0.7365 -1,1.5c-0.7635,-0.0365 -1.2635,0.297 -1.5,1c-1.4775,0.3295 -2.9775,0.496 -4.5,0.5c-4.7625,-2.202 -6.0125,-5.702 -3.75,-10.5c1.9195,-2.168 4.336,-3.0015 7.25,-2.5c0.507,0.587 1.1735,0.92 2,1c0.4875,1.1475 1.154,2.1475 2,3zM205.5,296.5c0.0405,8.7085 -4.2095,13.875 -12.75,15.5c-1.1305,0.0305 -2.1305,-0.303 -3,-1c-1.309,-2.772 -2.892,-5.3555 -4.75,-7.75c-1.2695,-0.5235 -2.6025,-0.7735 -4,-0.75c-11.115,2.1305 -22.282,4.047 -33.5,5.75c-11.332,0.628 -22.6655,0.961 -34,1c-3.8815,-5.4325 -6.548,-11.4325 -8,-18c-0.1185,-2.342 0.9645,-3.592 3.25,-3.75c4.9035,1.9135 9.987,3.247 15.25,4c1.1835,-0.171 2.35,-0.421 3.5,-0.75c14.1865,-10.6865 26.52,-23.1865 37,-37.5c3.3985,0.0785 6.3985,1.245 9,3.5c2.9085,2.5365 5.9085,4.9535 9,7.25c0.7145,0.9155 0.9645,1.9155 0.75,3c-5.5565,3.723 -10.973,7.6395 -16.25,11.75c-5.837,3.4175 -11.5035,7.084 -17,11c-1.3835,1.4495 -1.05,2.4495 1,3c10.999,0.358 21.9155,-0.392 32.75,-2.25c0.4725,-0.2025 0.806,-0.536 1,-1c0.0835,-0.75 0.1665,-1.5 0.25,-2.25c-0.5585,-3.2525 -1.0585,-6.5025 -1.5,-9.75c3.0965,0.06 5.93,0.9765 8.5,2.75c4.099,3.9315 8.0155,8.015 11.75,12.25c0.739,1.329 1.3225,2.6625 1.75,4zM201.5,505.5c-20.814,-0.905 -41.6475,-0.905 -62.5,0c-6.135,0.07 -12.218,-0.265 -18.25,-1c-0.1995,0.115 -0.2825,0.28 -0.25,0.5c-1.188,-0.505 -1.688,-1.425 -1.5,-2.75c-0.1375,-1.53 0.529,-2.53 2,-3c1.882,-0.4925 3.7985,-0.7425 5.75,-0.75c3.9125,0.255 7.8295,0.422 11.75,0.5c3.0525,0.062 6.0525,-0.188 9,-0.75c0.6645,-5.1325 0.6645,-10.2155 0,-15.25c-6.1445,-0.99 -12.478,-1.3235 -19,-1c-2.3205,-1.8725 -2.8205,-4.1225 -1.5,-6.75c6.4905,0.2465 12.9905,0.2465 19.5,0c0.752,-0.7455 1.1685,-1.662 1.25,-2.75c0.527,-3.599 0.194,-7.099 -1,-10.5c-0.3885,-0.8575 -1.055,-1.3575 -2,-1.5c-7.6065,-0.2545 -15.19,-0.671 -22.75,-1.25c-1.79,-1.463 -1.9565,-3.13 -0.5,-5c0.8735,-0.176 1.707,-0.426 2.5,-0.75c7.247,0.557 14.414,0.557 21.5,0c0.4075,-0.4645 0.824,-0.9645 1.25,-1.5c0.1665,-4.1665 0.3335,-8.3335 0.5,-12.5c0.7095,-0.48 1.4595,-0.8965 2.25,-1.25c4.6555,0.075 9.322,0.242 14,0.5c1.921,0.2865 3.2545,1.2865 4,3c-0.0725,0.386 -0.239,0.7195 -0.5,1c0.7045,3.1895 1.121,6.4395 1.25,9.75c5.257,1.4575 9.0905,-0.376 11.5,-5.5c2.404,-3.651 5.4875,-4.401 9.25,-2.25c3.833,3.3265 6.6665,7.3265 8.5,12c-0.0725,0.613 -0.239,1.1965 -0.5,1.75c-2.5895,0.7765 -5.2565,1.1095 -8,1c-5.498,-0.393 -10.998,-0.476 -16.5,-0.25c-1.3335,0.3335 -2.6665,0.6665 -4,1c-1.9,4.3645 -1.9835,8.7815 -0.25,13.25c0.932,1.3535 2.182,1.7705 3.75,1.25c2.4885,-2.323 4.822,-4.823 7,-7.5c2.698,-1.1335 5.198,-0.8 7.5,1c2.4165,2.4165 4.8335,4.8335 7.25,7.25c1.977,2.5045 1.5605,4.4215 -1.25,5.75c-1.6425,0.412 -3.309,0.662 -5,0.75c-5.0015,-0.3175 -10.0015,-0.651 -15,-1c-1.363,0.091 -2.6965,0.341 -4,0.75c-1.1325,5.1995 -1.216,10.4495 -0.25,15.75c0.549,0.7335 1.299,1.1505 2.25,1.25c3.854,0.353 7.6875,0.186 11.5,-0.5c3,-2.6665 6,-5.3335 9,-8c1,-0.3335 2,-0.3335 3,0c3.976,3.1965 7.0595,7.113 9.25,11.75c0.432,1.655 -0.151,2.825 -1.75,3.5zM166.5,560c-5.0985,-0.48 -10.1815,-0.645 -15.25,-0.5c-1.4695,0.315 -2.886,0.645 -4.25,1c-1.9245,-0.24 -2.9245,0.595 -3,2.5c-0.727,1.61 -1.0605,3.36 -1,5.25c0.1025,2.685 0.436,5.27 1,7.75c-0.4925,1.79 -0.826,3.62 -1,5.5c-4.139,1.325 -8.3055,2.49 -12.5,3.5c-2.1335,0.15 -4.217,-0.02 -6.25,-0.5c-0.0975,-2.46 -0.3475,-4.875 -0.75,-7.25c0.201,-1.695 0.368,-3.195 0.5,-4.5c-0.5625,-18.39 -1.0625,-36.805 -1.5,-55.25c-0.335,-1.545 0.2485,-2.38 1.75,-2.5c3.0595,1.245 6.143,2.495 9.25,3.75c2.292,0.68 4.6255,1.1 7,1.25c0.3815,0.385 0.8815,0.635 1.5,0.75c9.8335,0.335 19.6665,0.335 29.5,0c0.6185,-0.115 1.1185,-0.365 1.5,-0.75c3.7845,-1.36 6.7845,-3.775 9,-7.25c2.09,-1.355 4.2565,-1.52 6.5,-0.5c4.0395,2.37 7.456,5.455 10.25,9.25c0.659,1.455 0.826,2.955 0.5,4.5c-0.7365,2.14 -1.7365,4.14 -3,6c-0.1665,14.835 -0.3335,29.665 -0.5,44.5c-2.192,7.53 -7.1085,10.445 -14.75,8.75c-2.516,-0.8 -4.766,-2.05 -6.75,-3.75c-0.845,-5.49 -2.928,-10.41 -6.25,-14.75c0.181,-0.945 0.7645,-1.36 1.75,-1.25c2.046,0.9 4.1295,1.065 6.25,0.5c1.2865,-2.885 0.453,-4.635 -2.5,-5.25c-2.3185,-0.415 -4.652,-0.665 -7,-0.75zM165,70.5c-2.3275,-0.333 -4.744,-0.4995 -7.25,-0.5c-3.8615,-0.075 -7.6115,0.2585 -11.25,1c-3.095,-0.1615 -6.095,0.005 -9,0.5c-0.452,0.3545 -0.6185,0.8545 -0.5,1.5c5.8985,-0.1305 11.732,0.3695 17.5,1.5c7.8245,3.556 8.991,8.6395 3.5,15.25c-1.9165,1.3645 -3.9165,1.531 -6,0.5c-1,-0.6665 -2,-1.3335 -3,-2c-3.792,-4.2935 -8.042,-8.0435 -12.75,-11.25c-0.6595,0.8935 -1.076,1.8935 -1.25,3c-0.378,6.2205 -0.378,12.3875 0,18.5c-0.3025,1.3135 -0.5525,2.6465 -0.75,4c-5.898,2.162 -11.9815,3.412 -18.25,3.75c-1.696,-1.509 -2.6125,-3.4255 -2.75,-5.75c-0.1665,-8.8335 -0.3335,-17.6665 -0.5,-26.5c-0.2325,-0.7155 -0.6495,-1.2985 -1.25,-1.75c-11.168,-0.9705 -22.3345,-0.9705 -33.5,0c-0.177,0.813 -0.177,1.7295 0,2.75c0.5895,4.509 0.5895,9.009 0,13.5c-3.4065,7.4535 -9.073,10.2035 -17,8.25c-3.251,-2.505 -4.751,-5.8385 -4.5,-10c1.6505,-10.388 3.0675,-20.8045 4.25,-31.25c1.142,-1.242 2.392,-1.3255 3.75,-0.25c3.201,2.702 5.8675,5.869 8,9.5c13.003,0.4165 26.003,0.3335 39,-0.25c1.9125,-4.647 1.9125,-9.3135 0,-14c-0.7725,-0.47595 -1.606,-0.6426 -2.5,-0.5c-1.0655,-0.4069 -2.232,-0.6569 -3.5,-0.75c-8.832,-0.24995 -17.665,-0.3333 -26.5,-0.25c-6.527,-0.53405 -13.027,-1.28405 -19.5,-2.25c-2.0825,-0.74155 -2.8325,-2.1582 -2.25,-4.25c0.911,-0.7727 1.9945,-1.106 3.25,-1c7.879,0.6185 15.879,0.9518 24,1c9.996,0.54315 20.0795,0.8765 30.25,1c14.0055,-0.5499 28.0055,-0.5499 42,0c1.38,-0.0731 2.63,-0.4064 3.75,-1c1.5735,-0.1183 3.0735,-0.53495 4.5,-1.25c4.7245,-3.19685 9.058,-6.8635 13,-11c1.4325,-0.4184 2.849,-0.8351 4.25,-1.25c5.423,3.41875 10.2565,7.5854 14.5,12.5c1.0865,1.4228 1.8365,3.0061 2.25,4.75c-0.529,2.0261 -1.8625,3.1928 -4,3.5c-19.922,-0.35085 -39.7555,-0.2675 -59.5,0.25c0.0955,3.9795 -0.0715,7.9795 -0.5,12c-0.1225,1.5095 0.5445,2.4265 2,2.75c8.3525,0.234 16.6025,0.3175 24.75,0.25c2.252,-0.5285 4.3355,-1.4455 6.25,-2.75c2.7095,-2.675 5.376,-5.342 8,-8c1.2165,-1.0665 2.6335,-1.65 4.25,-1.75c6.306,1.987 11.9725,5.154 17,9.5c1.082,1.1555 1.582,2.489 1.5,4c-0.5,1 -1,2 -1.5,3c-4.329,4.173 -7.6625,9.0065 -10,14.5c-3.599,5.2715 -8.349,9.0215 -14.25,11.25c-1.852,0.5355 -3.6855,0.619 -5.5,0.25c-0.361,-1.4785 -0.2775,-2.9785 0.25,-4.5c0.9705,-1.774 1.8035,-3.607 2.5,-5.5c0.982,-4.281 1.315,-8.614 1,-13c-1.919,-1.0035 -4.0025,-1.5035 -6.25,-1.5zM198,361c-0.516,1.6035 -1.516,2.8535 -3,3.75c-7.56,4.9105 -15.81,8.1605 -24.75,9.75c-4.2905,-2.3535 -8.5405,-4.77 -12.75,-7.25c-2.849,-1.616 -5.682,-1.616 -8.5,0c-7.561,6.3925 -16.1445,10.809 -25.75,13.25c-0.3335,-0.8335 -0.3335,-1.6665 0,-2.5c3.147,-3.981 6.48,-7.8145 10,-11.5c2.339,-3.015 4.4225,-6.1815 6.25,-9.5c-2.699,-4.482 -5.199,-9.065 -7.5,-13.75c0.9075,-1.135 2.074,-1.468 3.5,-1c3.5935,1.6345 7.26,2.9675 11,4c3.707,-5.164 6.54,-10.7475 8.5,-16.75c-7.769,-0.163 -15.6025,0.087 -23.5,0.75c-6.6665,9.3335 -14.6665,17.3335 -24,24c-0.9865,0.2475 -1.9865,0.331 -3,0.25c-0.082,-1.3435 0.0015,-2.677 0.25,-4c2.0795,-8.1505 4.0795,-16.3175 6,-24.5c0.475,-3.6535 0.8085,-7.32 1,-11c0.5785,-2.1605 1.9955,-3.327 4.25,-3.5c6.318,0.7075 12.6515,1.291 19,1.75c0.5165,2.544 0.9335,5.1275 1.25,7.75c1.5515,1.0765 3.3015,1.5765 5.25,1.5c5.706,-0.5185 11.373,-1.2685 17,-2.25c3.634,-2.302 6.9675,-4.9685 10,-8c1.3365,-0.852 2.7535,-1.4355 4.25,-1.75c2.54,0.4785 4.79,1.5615 6.75,3.25c4.114,3.6065 7.4475,7.773 10,12.5c-0.25,0.75 -0.5,1.5 -0.75,2.25c-3,2.6665 -6,5.3335 -9,8c-3.3525,5.687 -7.1025,11.1035 -11.25,16.25c1.2645,1.204 2.7645,2.0375 4.5,2.5c6.4105,1.652 12.9105,2.8185 19.5,3.5c1.9525,0.526 3.7855,1.276 5.5,2.25zM183,142.5c-21.756,0.213 -43.4225,0.8795 -65,2c-0.438,-0.0655 -0.7715,0.101 -1,0.5c1.547,1.876 2.8805,3.876 4,6c-0.423,1.853 -1.0895,3.603 -2,5.25c0.4405,0.7355 1.107,1.152 2,1.25c7.6635,-0.9315 15.3305,-1.848 23,-2.75c0.3335,-0.3335 0.6665,-0.6665 1,-1c-1.0215,-1.723 -1.8545,-3.5565 -2.5,-5.5c0.0725,-0.386 0.239,-0.7195 0.5,-1c2.69,-0.298 5.3565,-0.131 8,0.5c5.8845,2.3575 11.3845,5.3575 16.5,9c3.5045,3.5405 3.921,7.4575 1.25,11.75c-3.423,3.3385 -7.506,4.4215 -12.25,3.25c-3.599,-1.5155 -6.099,-4.099 -7.5,-7.75c-0.4165,-0.1665 -0.8335,-0.3335 -1.25,-0.5c-15.715,3.3675 -31.465,6.4505 -47.25,9.25c-2.8335,0.3335 -5.6665,0.3335 -8.5,0c-5.1765,-4.2595 -9.343,-9.3425 -12.5,-15.25c1.1665,-0.1665 2.3335,-0.3335 3.5,-0.5c3.7895,0.8235 7.623,1.0735 11.5,0.75c4.6705,-2.09 7.337,-5.6735 8,-10.75c0.7885,-1.247 0.455,-2.1635 -1,-2.75c-4.0885,-0.4115 -8.0885,-0.328 -12,0.25c-0.325,-0.152 -0.6585,-0.3185 -1,-0.5c-6.4825,1.162 -12.9825,1.2455 -19.5,0.25c-2.453,-1.328 -2.6195,-2.911 -0.5,-4.75c9.57,-0.315 19.07,-0.6485 28.5,-1c1.7145,0.1095 3.298,0.276 4.75,0.5c16.0395,-0.832 32.1225,-1.249 48.25,-1.25c2.664,-0.5815 5.164,-1.5815 7.5,-3c2.1665,-2.5 4.3335,-5 6.5,-7.5c2.07,-1.621 4.403,-2.121 7,-1.5c5.5565,3.723 10.973,7.6395 16.25,11.75c0.782,1.065 0.782,2.065 0,3c-1.2985,0.9055 -2.7155,1.5725 -4.25,2zM172,121.5c-24.276,0.643 -48.526,1.143 -72.75,1.5c-7.33,0.1565 -14.747,-0.01 -22.25,-0.5c-2.218,-2.5445 -1.718,-4.461 1.5,-5.75c23.856,-0.0095 47.6895,-0.343 71.5,-1c1.5365,-0.3485 2.5365,-1.265 3,-2.75c-1.373,-0.9865 -2.873,-1.7365 -4.5,-2.25c-4.0225,-4.521 -7.8555,-9.188 -11.5,-14c5.61,-0.55 11.11,-0.05 16.5,1.5c2.807,1.9465 4.474,4.613 5,8c2.028,-0.277 4.028,-0.694 6,-1.25c1.5265,-0.1345 2.86,0.282 4,1.25c3.599,3.432 7.016,7.015 10.25,10.75c0.472,1.4235 0.222,2.6735 -0.75,3.75c-2.0425,0.1165 -4.0425,0.3665 -6,0.75zM159,238.5c-0.227,1.32 -0.8105,2.4865 -1.75,3.5c-2.0995,2.267 -4.3495,4.3505 -6.75,6.25c-6.276,3.43 -12.3595,7.18 -18.25,11.25c-0.3335,0.3335 -0.3335,0.6665 0,1c7.3205,4.9365 8.5705,11.02 3.75,18.25c-7.691,5.5425 -13.6075,4.1255 -17.75,-4.25c-1.3065,-4.254 -2.8065,-8.4205 -4.5,-12.5c-2.069,-3.6345 -3.986,-7.3015 -5.75,-11c1.509,-0.0825 3.009,0.001 4.5,0.25c3.294,1.157 6.6275,1.99 10,2.5c7.812,-7.1365 14.4785,-15.1365 20,-24c1.547,-0.326 3.047,-0.159 4.5,0.5c3.803,3.0555 7.803,5.8055 12,8.25zM108.5,518.5c0.0265,5.26 0.36,10.43 1,15.5c0,5.835 0,11.665 0,17.5c-2.8445,0.67 -5.678,1.42 -8.5,2.25c-3.1665,0.335 -6.3335,0.335 -9.5,0c-0.6005,-0.45 -1.0175,-1.035 -1.25,-1.75c-0.2345,-2.355 -0.8175,-4.605 -1.75,-6.75c-3.8015,-1.38 -7.6345,-1.545 -11.5,-0.5c-1.106,2.315 -2.0225,4.73 -2.75,7.25c-1.2795,1.515 -2.863,2.6 -4.75,3.25c-3.105,1.135 -6.2715,2.055 -9.5,2.75c-2.122,-0.29 -3.4555,-1.455 -4,-3.5c-0.2165,-27.165 -0.383,-54.496 -0.5,-82c1.3385,-0.966 2.8385,-1.216 4.5,-0.75c5.005,2.003 10.005,4.003 15,6c4.5,0.3335 9,0.3335 13.5,0c0.6665,-0.3335 1.3335,-0.6665 2,-1c2.3335,-2.5 4.6665,-5 7,-7.5c1.7095,-1.423 3.543,-1.59 5.5,-0.5c2.024,1.858 4.191,3.525 6.5,5c3.442,3.4775 3.192,6.7275 -0.75,9.75c-0.903,11.659 -0.9865,23.325 -0.25,35zM105,83c-0.306,6.005 -3.4725,8.088 -9.5,6.25c-1.4125,-1.062 -2.6625,-2.312 -3.75,-3.75c-2.221,-3.72 -4.6375,-7.303 -7.25,-10.75c8.3585,-1.2375 15.192,1.5125 20.5,8.25zM104,102c0.913,4.7565 -0.7535,8.173 -5,10.25c-1.81,0.4205 -3.477,0.087 -5,-1c-4.929,-4.445 -7.762,-9.8615 -8.5,-16.25c5.314,-0.8385 10.314,0.078 15,2.75c1.477,1.2205 2.6435,2.6375 3.5,4.25zM68,375c-0.0455,-8.6165 -0.0455,-17.283 0,-26c0.82,-11.3595 0.57,-22.6925 -0.75,-34c-0.824,-0.764 -1.824,-1.0975 -3,-1c-3.2875,0.8935 -6.5375,1.3935 -9.75,1.5c-1.6665,-0.5605 -1.9165,-1.5605 -0.75,-3c8.4435,-7.4415 16.61,-15.2745 24.5,-23.5c3.4165,-4.4165 6.8335,-8.8335 10.25,-13.25c1.144,-0.209 2.144,0.1245 3,1c4.1875,3.921 8.354,7.838 12.5,11.75c-1.742,1.9925 -3.5755,3.909 -5.5,5.75c-4.4735,2.9735 -8.807,6.14 -13,9.5c-1.8625,1.3615 -3.3625,3.028 -4.5,5c0.0725,0.386 0.239,0.7195 0.5,1c2.292,0.647 4.459,1.5635 6.5,2.75c0.301,11.585 0.301,23.418 0,35.5c1.098,6.9865 1.181,13.9865 0.25,21c-0.25,0.9165 -0.8335,1.5 -1.75,1.75c-5.452,2.0185 -10.8685,4.102 -16.25,6.25c-1.059,-0.3915 -1.809,-1.058 -2.25,-2zM101.5,252c-1.8775,2.63 -4.0445,5.047 -6.5,7.25c-9.092,7.299 -18.9255,13.4655 -29.5,18.5c-3.839,1.6845 -7.839,2.7675 -12,3.25c0.296,-1.5955 0.8795,-3.0955 1.75,-4.5c2.5,-2.5 5,-5 7.5,-7.5c2.622,-3.957 5.622,-7.624 9,-11c4.6125,-6.447 9.0295,-13.0305 13.25,-19.75c6.724,2.962 12.224,7.545 16.5,13.75z" fill="#ffffff"/><path d="M280.5,348.5c-0.9895,-0.656 -1.8225,-1.4895 -2.5,-2.5c5.824,-0.4995 11.657,-0.666 17.5,-0.5c-5.128,0.4215 -10.628,0.6715 -16.5,0.75c0.6665,0.6665 1.3335,1.3335 2,2c-0.114,0.1995 -0.281,0.2825 -0.5,0.25z" fill="#bdbdbd"/><path d="M280.5,509.5c-0.9895,-0.655 -1.8225,-1.49 -2.5,-2.5c5.824,-0.5 11.657,-0.665 17.5,-0.5c-5.128,0.42 -10.628,0.67 -16.5,0.75c0.8205,0.565 1.3205,1.315 1.5,2.25z" fill="#adadad" opacity="0.947"/><path d="M294,77c-0.4865,-1.224 -0.653,-2.5575 -0.5,-4c0.624,0.417 0.9575,1.0835 1,2c-0.0055,0.7725 -0.172,1.439 -0.5,2z" fill="#aeaeae" opacity="0.122"/><path d="M293.5,81c-0.151,-1.2795 0.016,-2.4465 0.5,-3.5c0.326,0.4745 0.493,1.0575 0.5,1.75c-0.054,0.8405 -0.3875,1.424 -1,1.75z" fill="#b0b0b0" opacity="0.135"/><path d="M294,277c0.1605,-2.763 -0.006,-5.43 -0.5,-8c-0.1665,0 -0.3335,0 -0.5,0c0.3545,-0.452 0.8545,-0.6185 1.5,-0.5c0.161,2.929 -0.0055,5.7625 -0.5,8.5z" fill="#cbcbcb"/><path d="M294,323.5c0.658,2.7565 0.658,5.59 0,8.5c-0.3035,-0.062 -0.47,-0.2285 -0.5,-0.5c0.494,-2.57 0.6605,-5.237 0.5,-8z" fill="#cacaca"/><path d="M293.5,48c0.1315,-2.0501 -0.035,-4.0501 -0.5,-6c0.5,0 1,0 1.5,0c0.2945,2.23535 -0.0385,4.23535 -1,6z" fill="#b4b4b4" opacity="0.012"/><path d="M294,177c0.4915,1.899 0.6585,3.899 0.5,6c-15.752,0.166 -31.419,-0.001 -47,-0.5c15.3335,0 30.6665,0 46,0c0.491,-1.731 0.6575,-3.5645 0.5,-5.5z" fill="#c9c9c9"/><path d="M294,210c-0.467,-0.534 -0.634,-1.2005 -0.5,-2c0.3085,-0.0555 0.5585,-0.222 0.75,-0.5c0.39,0.9435 0.3065,1.777 -0.25,2.5z" fill="#afafaf" opacity="0.012"/><path d="M293.5,216.5c-0.1185,-0.6455 0.048,-1.1455 0.5,-1.5c0.549,0.5505 0.6325,1.217 0.25,2c-0.1915,-0.278 -0.4415,-0.4445 -0.75,-0.5z" fill="#b4b4b4" opacity="0.012"/><path d="M293.5,269c0.494,2.57 0.6605,5.237 0.5,8c-0.534,0.467 -1.2005,0.634 -2,0.5c0.3545,-0.452 0.8545,-0.6185 1.5,-0.5c0,-2.6665 0,-5.3335 0,-8z" fill="#acacac" opacity="0.012"/><path d="M293,304c0.6665,-2.5 0.6665,-5 0,-7.5c0.5,0 1,0 1.5,0c0,2.5 0,5 0,7.5c-0.5,0 -1,0 -1.5,0z" fill="#b4b4b4" opacity="0.078"/><path d="M294,323.5c0.1605,2.763 -0.006,5.43 -0.5,8c0,-2.6665 0,-5.3335 0,-8c-0.6455,0.1185 -1.1455,-0.048 -1.5,-0.5c0.7995,-0.134 1.466,0.033 2,0.5z" fill="#ababab" opacity="0.012"/><path d="M293.5,72.5c-0.452,-0.3545 -0.6185,-0.8545 -0.5,-1.5c1.026,0.2765 1.1925,0.7765 0.5,1.5z" fill="#aeaeae" opacity="0.012"/><path d="M293,83c-0.086,-0.496 0.081,-0.829 0.5,-1c0.4695,0.4135 0.3025,0.747 -0.5,1z" fill="#acacac" opacity="0.012"/><path d="M293.5,207c-0.452,-0.3545 -0.6185,-0.8545 -0.5,-1.5c1.026,0.2765 1.1925,0.7765 0.5,1.5z" fill="#adadad" opacity="0.012"/><path d="M293,218.5c-0.086,-0.496 0.081,-0.829 0.5,-1c0.4695,0.4135 0.3025,0.747 -0.5,1z" fill="#ababab" opacity="0.012"/><path d="M292.5,220c-0.086,-0.496 0.081,-0.829 0.5,-1c0.6285,0.5615 0.462,0.8945 -0.5,1z" fill="#b0b0b0" opacity="0.341"/><path d="M293,70.5c-0.419,-0.171 -0.586,-0.504 -0.5,-1c0.962,0.1055 1.1285,0.4385 0.5,1z" fill="#b1b1b1" opacity="0.012"/><path d="M292.5,84.5c-0.086,-0.496 0.081,-0.829 0.5,-1c0.4695,0.4135 0.3025,0.747 -0.5,1z" fill="#ababab" opacity="0.012"/><path d="M294,177c0.1575,1.9355 -0.009,3.769 -0.5,5.5c0.0825,-1.841 -0.0005,-3.674 -0.25,-5.5c-1.02,-0.935 -1.9365,-1.935 -2.75,-3c1.4635,0.6285 2.6305,1.6285 3.5,3z" fill="#aaaaaa" opacity="0.407"/><path d="M293,205c-0.419,-0.171 -0.586,-0.504 -0.5,-1c0.962,0.1055 1.1285,0.4385 0.5,1z" fill="#aeaeae" opacity="0.012"/><path d="M292,68c-0.5,-0.1665 -0.8335,-0.5 -1,-1c0.3695,-0.0655 0.703,0.018 1,0.25c0.619,0.345 0.619,0.595 0,0.75z" fill="#afafaf" opacity="0.341"/><path d="M292.5,203.5c-1.1505,-1.655 -2.317,-3.3215 -3.5,-5c1.897,0.9355 3.2305,2.4355 4,4.5c-0.062,0.3035 -0.2285,0.47 -0.5,0.5z" fill="#adadad" opacity="0.259"/><path d="M293,296.5c-1.326,0.045 -2.4925,-0.288 -3.5,-1c1.326,-0.045 2.4925,0.288 3.5,1z" fill="#b2b2b2" opacity="0.012"/><path d="M292.5,41c-1.1665,-0.83335 -2.1665,-1.83335 -3,-3c1.5,0.5 2.5,1.5 3,3z" fill="#acacac" opacity="0.012"/><path d="M286,92c2.1665,-1.8335 4.1665,-3.8335 6,-6c0.219,-0.0325 0.386,0.0505 0.5,0.25c-1.6415,2.561 -3.8085,4.478 -6.5,5.75z" fill="#a9a9a9" opacity="0.012"/><path d="M292,277.5c-1.0075,0.712 -2.174,1.045 -3.5,1c1.0075,-0.712 2.174,-1.045 3.5,-1z" fill="#b3b3b3" opacity="0.012"/><path d="M287.5,226.5c1.5145,-1.6795 3.0145,-3.346 4.5,-5c0.219,-0.0325 0.386,0.0505 0.5,0.25c-1.283,2.034 -2.9495,3.6175 -5,4.75z" fill="#ababab" opacity="0.012"/><path d="M291,66.5c-1.3335,-1 -2.5,-2.1665 -3.5,-3.5c1.5315,0.7755 2.8645,1.859 4,3.25c-0.114,0.1995 -0.281,0.2825 -0.5,0.25z" fill="#ababab" opacity="0.012"/><path d="M291,304.5c-1.0075,0.712 -2.174,1.045 -3.5,1c1.0075,-0.712 2.174,-1.045 3.5,-1z" fill="#b3b3b3" opacity="0.012"/><path d="M290.5,173.5c-1.195,-0.6955 -2.0285,-1.6955 -2.5,-3c0.498,-0.043 0.9145,0.124 1.25,0.5c0.3925,0.893 0.9755,1.643 1.75,2.25c-0.114,0.1995 -0.281,0.2825 -0.5,0.25z" fill="#adadad" opacity="0.259"/><path d="M289.5,37.5c-1.0215,-0.5397 -1.688,-1.373 -2,-2.5c0.498,-0.0429 0.9145,0.1238 1.25,0.5c0.2325,0.7154 0.6495,1.29875 1.25,1.75c-0.114,0.1994 -0.281,0.2827 -0.5,0.25z" fill="#adadad" opacity="0.259"/><path d="M289.5,270c-1.0075,0.712 -2.174,1.045 -3.5,1c1.0075,-0.712 2.174,-1.045 3.5,-1z" fill="#d0d0d0"/><path d="M288,170c-0.5,-0.1665 -0.8335,-0.5 -1,-1c0.3695,-0.0655 0.703,0.018 1,0.25c0.619,0.345 0.619,0.595 0,0.75z" fill="#acacac" opacity="0.012"/><path d="M288.5,197.5c-0.952,-0.119 -1.619,-0.619 -2,-1.5c0.952,0.119 1.619,0.619 2,1.5z" fill="#aeaeae" opacity="0.012"/><path d="M278,85c-0.8955,-1.316 -1.8955,-2.4825 -3,-3.5c0,-0.1665 0,-0.3335 0,-0.5c0.4695,-0.4135 0.3025,-0.747 -0.5,-1c0,-0.5 0,-1 0,-1.5c0.6665,-1 0.6665,-2 0,-3c0,-0.3335 0,-0.6665 0,-1c0.3835,-0.336 0.717,-0.7525 1,-1.25c-0.114,-0.1995 -0.281,-0.2825 -0.5,-0.25c0.1965,-0.892 0.5295,-1.725 1,-2.5c0.952,-0.119 1.619,-0.619 2,-1.5c4.5385,-1.7195 7.4555,-0.2195 8.75,4.5c0.3335,2.5 0.3335,5 0,7.5c-1.628,4.3965 -4.5445,5.73 -8.75,4z" fill="#ffffff"/><path d="M276.5,222.5c-0.715,-0.5185 -1.5485,-0.852 -2.5,-1c-0.7055,-1.207 -1.7055,-2.0405 -3,-2.5c0,-0.1665 0,-0.3335 0,-0.5c0.219,0.0325 0.386,-0.0505 0.5,-0.25c-0.237,-0.8645 -0.737,-1.4475 -1.5,-1.75c0,-0.1665 0,-0.3335 0,-0.5c0.6925,-0.7235 0.526,-1.2235 -0.5,-1.5c0,-1.6665 0,-3.3335 0,-5c0.3835,-0.336 0.717,-0.7525 1,-1.25c-0.114,-0.1995 -0.281,-0.2825 -0.5,-0.25c0.0285,-0.5545 0.195,-1.0545 0.5,-1.5c0.973,-0.2675 1.473,-0.934 1.5,-2c0,-0.1665 0,-0.3335 0,-0.5c0.7635,0.0365 1.2635,-0.297 1.5,-1c0.8265,-0.08 1.493,-0.413 2,-1c5.623,-1.6445 9.373,0.3555 11.25,6c0.678,4.0145 0.178,7.8475 -1.5,11.5c-2.4205,2.744 -5.3375,3.744 -8.75,3z" fill="#ffffff"/><path d="M288.5,322c-1.326,0.045 -2.4925,-0.288 -3.5,-1c1.326,-0.045 2.4925,0.288 3.5,1z" fill="#b3b3b3" opacity="0.012"/><path d="M287.5,34.5c-0.956,-1.0786 -1.7895,-2.2453 -2.5,-3.5c0.2885,-0.63665 0.6215,-0.63665 1,0c0.5675,1.14945 1.234,2.2328 2,3.25c-0.114,0.1994 -0.281,0.2827 -0.5,0.25z" fill="#adadad" opacity="0.341"/><path d="M287.5,226.5c-0.2365,0.703 -0.7365,1.0365 -1.5,1c0.2365,-0.703 0.7365,-1.0365 1.5,-1z" fill="#acacac" opacity="0.012"/><path d="M287.5,63c-1.1595,-0.246 -2.1595,-0.746 -3,-1.5c1.2945,-0.0195 2.2945,0.4805 3,1.5z" fill="#afafaf" opacity="0.012"/><path d="M286.5,167.5c-0.703,-0.2365 -1.0365,-0.7365 -1,-1.5c0.438,-0.0655 0.7715,0.101 1,0.5c0.525,0.4645 0.525,0.7975 0,1z" fill="#adadad" opacity="0.012"/><path d="M286.5,196c-1.1595,-0.246 -2.1595,-0.746 -3,-1.5c1.2945,-0.0195 2.2945,0.4805 3,1.5z" fill="#aeaeae" opacity="0.012"/><path d="M286.5,279c-1.0075,0.712 -2.174,1.045 -3.5,1c1.0075,-0.712 2.174,-1.045 3.5,-1z" fill="#b2b2b2" opacity="0.012"/><path d="M283,357c-0.4805,-0.8825 -0.6475,-1.8825 -0.5,-3c0.3085,-0.0555 0.5585,-0.222 0.75,-0.5c0.398,1.2695 0.3145,2.436 -0.25,3.5z" fill="#b0b0b0" opacity="0.153"/><path d="M282.5,360.5c-0.1475,-1.1175 0.0195,-2.1175 0.5,-3c0.5645,1.064 0.648,2.2305 0.25,3.5c-0.1915,-0.278 -0.4415,-0.4445 -0.75,-0.5z" fill="#b0b0b0" opacity="0.153"/><path d="M282.5,443.5c0,-0.8335 0,-1.6665 0,-2.5c0.384,-0.3815 0.634,-0.8815 0.75,-1.5c0.3335,1.8335 0.3335,3.6665 0,5.5c-0.116,-0.6185 -0.366,-1.1185 -0.75,-1.5z" fill="#cbcbcb"/><path d="M283,518c-0.4805,-0.88 -0.6475,-1.88 -0.5,-3c0.3085,-0.055 0.5585,-0.22 0.75,-0.5c0.398,1.27 0.3145,2.435 -0.25,3.5z" fill="#b0b0b0" opacity="0.153"/><path d="M282.5,522c-0.151,-1.28 0.016,-2.445 0.5,-3.5c0.3235,0.385 0.49,0.885 0.5,1.5c0.08,0.925 -0.2535,1.595 -1,2z" fill="#adadad" opacity="0.135"/><path d="M282.5,607.5c0,-2.335 0,-4.665 0,-7c0.6525,0.95 0.9855,2.115 1,3.5c-0.0145,1.385 -0.3475,2.55 -1,3.5z" fill="#afafaf" opacity="0.135"/><path d="M282.5,395c-0.452,-0.3545 -0.6185,-0.8545 -0.5,-1.5c1.026,0.2765 1.1925,0.7765 0.5,1.5z" fill="#b0b0b0" opacity="0.259"/><path d="M282.5,402c0,-1.8335 0,-3.6665 0,-5.5c0.6435,0.6855 0.9765,1.6025 1,2.75c-0.0235,1.1475 -0.3565,2.0645 -1,2.75z" fill="#b0b0b0" opacity="0.012"/><path d="M282,404.5c-0.1185,-0.6455 0.048,-1.1455 0.5,-1.5c0.6075,0.6395 0.441,1.1395 -0.5,1.5z" fill="#acacac" opacity="0.259"/><path d="M282.5,438.5c-0.452,-0.3545 -0.6185,-0.8545 -0.5,-1.5c1.026,0.2765 1.1925,0.7765 0.5,1.5z" fill="#adadad" opacity="0.259"/><path d="M282,447.5c-0.1185,-0.6455 0.048,-1.1455 0.5,-1.5c0.6925,0.7235 0.526,1.2235 -0.5,1.5z" fill="#b2b2b2" opacity="0.259"/><path d="M282.5,514c-0.419,-0.17 -0.586,-0.505 -0.5,-1c0.962,0.105 1.1285,0.44 0.5,1z" fill="#b0b0b0" opacity="0.341"/><path d="M282.5,563c0,-1.835 0,-3.665 0,-5.5c0.6435,0.685 0.9765,1.6 1,2.75c-0.0235,1.15 -0.3565,2.065 -1,2.75z" fill="#b0b0b0" opacity="0.012"/><path d="M282.5,600c-0.419,-0.17 -0.586,-0.505 -0.5,-1c0.962,0.105 1.1285,0.44 0.5,1z" fill="#b1b1b1" opacity="0.341"/><path d="M282,363c-0.1185,-0.6455 0.048,-1.1455 0.5,-1.5c0.6075,0.6395 0.441,1.1395 -0.5,1.5z" fill="#ababab" opacity="0.012"/><path d="M282,393c-0.419,-0.171 -0.586,-0.504 -0.5,-1c0.962,0.1055 1.1285,0.4385 0.5,1z" fill="#afafaf" opacity="0.341"/><path d="M282,512.5c-0.6185,-0.73 -1.1185,-1.565 -1.5,-2.5c0.942,0.44 1.6085,1.19 2,2.25c-0.114,0.2 -0.281,0.285 -0.5,0.25z" fill="#aaaaaa" opacity="0.341"/><path d="M282,524c-0.1185,-0.645 0.048,-1.145 0.5,-1.5c0.6075,0.64 0.441,1.14 -0.5,1.5z" fill="#aaaaaa" opacity="0.012"/><path d="M282.5,556c-0.452,-0.355 -0.6185,-0.855 -0.5,-1.5c1.026,0.275 1.1925,0.775 0.5,1.5z" fill="#b2b2b2" opacity="0.012"/><path d="M282,565.5c-0.1185,-0.645 0.048,-1.145 0.5,-1.5c0.6075,0.64 0.441,1.14 -0.5,1.5z" fill="#ababab" opacity="0.012"/><path d="M247.5,40c11.5,-0.33335 23,-0.66665 34.5,-1c0.3945,0.1414 0.728,0.3914 1,0.75c-11.832,0.25 -23.6655,0.3333 -35.5,0.25z" fill="#dadada"/><path d="M283.5,306.5c-1.0075,0.712 -2.174,1.045 -3.5,1c1.0075,-0.712 2.174,-1.045 3.5,-1z" fill="#b3b3b3" opacity="0.012"/><path d="M282.5,353c-0.6505,-1.3005 -1.317,-2.634 -2,-4c1.3525,0.595 2.186,1.678 2.5,3.25c-0.035,0.3825 -0.2015,0.6325 -0.5,0.75z" fill="#aeaeae" opacity="0.012"/><path d="M281.5,406c-0.086,-0.496 0.081,-0.829 0.5,-1c0.6285,0.5615 0.462,0.8945 -0.5,1z" fill="#adadad" opacity="0.012"/><path d="M280.5,408c0.216,-0.605 0.5495,-1.105 1,-1.5c0.219,-0.0325 0.386,0.0505 0.5,0.25c-0.289,0.7085 -0.789,1.125 -1.5,1.25z" fill="#aaaaaa" opacity="0.407"/><path d="M282,436.5c-0.5185,-0.715 -0.852,-1.5485 -1,-2.5c1.333,0.5045 1.6665,1.338 1,2.5z" fill="#aeaeae" opacity="0.012"/><path d="M282,554c-0.587,-0.505 -0.92,-1.175 -1,-2c0.438,-0.065 0.7715,0.1 1,0.5c0.5765,0.595 0.5765,1.095 0,1.5z" fill="#adadad" opacity="0.012"/><path d="M281.5,567c-0.086,-0.495 0.081,-0.83 0.5,-1c0.6285,0.56 0.462,0.895 -0.5,1z" fill="#ababab" opacity="0.012"/><path d="M282,587c0.1605,2.595 -0.0065,5.095 -0.5,7.5c0,-2.335 0,-4.665 0,-7c-11.3335,0 -22.6665,0 -34,0c11.4135,-0.5 22.9135,-0.665 34.5,-0.5z" fill="#ababab" opacity="0.833"/><path d="M282,587c0.494,2.57 0.6605,5.235 0.5,8c-2.7165,-0.345 -3.0495,0.24 -1,1.75c-0.114,0.2 -0.281,0.285 -0.5,0.25c-3.3155,-1.935 -3.149,-2.77 0.5,-2.5c0.4935,-2.405 0.6605,-4.905 0.5,-7.5z" fill="#c5c5c5"/><path d="M280.5,366c0.3815,-0.934 0.8815,-1.7675 1.5,-2.5c0.4825,0.6105 0.399,1.277 -0.25,2c-0.3355,0.376 -0.752,0.543 -1.25,0.5z" fill="#afafaf" opacity="0.259"/><path d="M281.5,391.5c-0.419,-0.171 -0.586,-0.504 -0.5,-1c0.962,0.1055 1.1285,0.4385 0.5,1z" fill="#afafaf" opacity="0.012"/><path d="M279.5,452.5c0.975,-1.453 1.8085,-2.953 2.5,-4.5c0.5605,0.7945 0.477,1.628 -0.25,2.5c-0.438,1.0675 -1.188,1.7345 -2.25,2z" fill="#b8b8b8" opacity="0.012"/><path d="M282,598.5c-0.5,-0.165 -0.8335,-0.5 -1,-1c0.3695,-0.065 0.703,0.02 1,0.25c0.619,0.345 0.619,0.595 0,0.75z" fill="#acacac" opacity="0.012"/><path d="M281,551.5c-0.4505,-0.395 -0.784,-0.895 -1,-1.5c1.2755,0.085 1.609,0.585 1,1.5z" fill="#adadad" opacity="0.259"/><path d="M279,571.5c0.8405,-1.35 1.6735,-2.685 2.5,-4c0.4825,0.61 0.399,1.275 -0.25,2c-0.438,1.07 -1.188,1.735 -2.25,2z" fill="#aeaeae" opacity="0.012"/><path d="M281,37.5c-0.703,-0.23655 -1.0365,-0.73655 -1,-1.5c0.703,0.23655 1.0365,0.73655 1,1.5z" fill="#c7c7c7"/><path d="M281,390c-0.7815,-0.7225 -1.448,-1.5555 -2,-2.5c1.563,0.369 2.23,1.2025 2,2.5z" fill="#adadad" opacity="0.259"/><path d="M277,370c1,-1.3335 2.1665,-2.5 3.5,-3.5c0.219,-0.0325 0.386,0.0505 0.5,0.25c-1.1355,1.391 -2.4685,2.4745 -4,3.25z" fill="#acacac" opacity="0.341"/><path d="M280.5,432.5c-0.5,-0.1665 -0.8335,-0.5 -1,-1c0.3695,-0.0655 0.703,0.018 1,0.25c0.619,0.345 0.619,0.595 0,0.75z" fill="#acacac" opacity="0.012"/><path d="M276.5,531.5c2.23,-2.06 4.0635,-4.39 5.5,-7c0.2715,0.03 0.438,0.195 0.5,0.5c-1.329,2.825 -3.329,4.995 -6,6.5z" fill="#aaaaaa" opacity="0.012"/><path d="M280,549.5c-0.5,-0.165 -0.8335,-0.5 -1,-1c0.3695,-0.065 0.703,0.02 1,0.25c0.619,0.345 0.619,0.595 0,0.75z" fill="#acacac" opacity="0.341"/><path d="M281,272.5c-1.0075,0.712 -2.174,1.045 -3.5,1c1.0075,-0.712 2.174,-1.045 3.5,-1z" fill="#cfcfcf"/><path d="M278,411.5c0.5,-0.8335 1.1665,-1.5 2,-2c0.219,-0.0325 0.386,0.0505 0.5,0.25c-0.6445,0.901 -1.478,1.4845 -2.5,1.75z" fill="#aaaaaa" opacity="0.012"/><path d="M277.5,133c0,-1.3335 0,-2.6665 0,-4c0.624,0.417 0.9575,1.0835 1,2c-0.0425,0.9165 -0.376,1.583 -1,2z" fill="#b1b1b1" opacity="0.012"/><path d="M278.5,547.5c-1.3535,-1.17 -2.687,-2.34 -4,-3.5c1.8235,0.585 3.3235,1.665 4.5,3.25c-0.114,0.2 -0.281,0.285 -0.5,0.25z" fill="#b1b1b1" opacity="0.012"/><path d="M278,69c-0.381,0.881 -1.048,1.381 -2,1.5c0.381,-0.881 1.048,-1.381 2,-1.5z" fill="#a7a7a7" opacity="0.012"/><path d="M279,387c-1.3335,-1 -2.5,-2.1665 -3.5,-3.5c1.5315,0.7755 2.8645,1.859 4,3.25c-0.114,0.1995 -0.281,0.2825 -0.5,0.25z" fill="#aeaeae" opacity="0.012"/><path d="M279.5,431c-1.5,-1.1665 -2.8335,-2.5 -4,-4c1.6995,0.944 3.1995,2.194 4.5,3.75c-0.114,0.1995 -0.281,0.2825 -0.5,0.25z" fill="#ababab" opacity="0.341"/><path d="M275,456.5c1.39,-1.282 2.89,-2.4485 4.5,-3.5c0.219,-0.0325 0.386,0.0505 0.5,0.25c-1.4395,1.4675 -3.106,2.551 -5,3.25z" fill="#aeaeae" opacity="0.341"/><path d="M279,572c-0.0055,0.76 -0.3385,1.34 -1,1.75c-1.1585,1.08 -2.492,1.83 -4,2.25c1.51,-1.51 3.177,-2.84 5,-4z" fill="#b0b0b0" opacity="0.012"/><path d="M277.5,128.5c-0.846,-0.8525 -1.5125,-1.8525 -2,-3c0.498,-0.043 0.9145,0.124 1.25,0.5c0.3535,0.7905 0.77,1.5405 1.25,2.25c-0.114,0.1995 -0.281,0.2825 -0.5,0.25z" fill="#b0b0b0" opacity="0.012"/><path d="M276,136c-0.0365,-0.7635 0.297,-1.2635 1,-1.5c0.258,0.629 -0.075,1.129 -1,1.5z" fill="#a9a9a9" opacity="0.012"/><path d="M278,412c-0.5425,1.0435 -1.3755,1.71 -2.5,2c0.5425,-1.0435 1.3755,-1.71 2.5,-2z" fill="#afafaf" opacity="0.012"/><path d="M277.5,281.5c-1.0075,0.712 -2.174,1.045 -3.5,1c1.0075,-0.712 2.174,-1.045 3.5,-1z" fill="#b3b3b3" opacity="0.012"/><path d="M276,395.5c0.1445,2.8725 -0.1055,5.706 -0.75,8.5c-1.787,2.8525 -4.3705,4.3525 -7.75,4.5c0,-6.6665 0,-13.3335 0,-20c2.052,0.192 3.8855,0.942 5.5,2.25c1.081,1.59 2.081,3.173 3,4.75z" fill="#ffffff"/><path d="M276,556.5c0.2905,3.28 -0.126,6.445 -1.25,9.5c-1.8115,2.445 -4.228,3.615 -7.25,3.5c0,-6.665 0,-13.335 0,-20c4.0295,0.86 6.863,3.195 8.5,7z" fill="#ffffff"/><path d="M275,81c-0.419,-0.171 -0.586,-0.504 -0.5,-1c0.8025,0.253 0.9695,0.5865 0.5,1z" fill="#aaaaaa" opacity="0.341"/><path d="M278,85c-1.704,-0.539 -2.704,-1.7055 -3,-3.5c1.1045,1.0175 2.1045,2.184 3,3.5z" fill="#adadad" opacity="0.012"/><path d="M277,370c-1.0395,1.1865 -2.373,1.853 -4,2c1.1745,-0.9205 2.5075,-1.587 4,-2z" fill="#afafaf" opacity="0.012"/><path d="M276.5,609c-0.5,0 -1,0 -1.5,0c-0.1185,-0.645 0.048,-1.145 0.5,-1.5c0.141,0.64 0.4745,1.14 1,1.5z" fill="#c7c7c7" opacity="0.988"/><path d="M274.5,74.5c-0.1185,-0.6455 0.048,-1.1455 0.5,-1.5c0.219,-0.0325 0.386,0.0505 0.5,0.25c-0.283,0.4975 -0.6165,0.914 -1,1.25z" fill="#a9a9a9" opacity="0.012"/><path d="M274.5,78.5c-0.6665,-1 -0.6665,-2 0,-3c0.6665,1 0.6665,2 0,3z" fill="#aaaaaa" opacity="0.259"/><path d="M276,136c-0.2365,0.703 -0.7365,1.0365 -1.5,1c0.2365,-0.703 0.7365,-1.0365 1.5,-1z" fill="#aaaaaa" opacity="0.012"/><path d="M275.5,202c-0.507,0.587 -1.1735,0.92 -2,1c0.3935,-0.802 1.06,-1.1355 2,-1z" fill="#b0b0b0"/><path d="M276.5,222.5c-1.099,0.19 -1.9325,-0.1435 -2.5,-1c0.9515,0.148 1.785,0.4815 2.5,1z" fill="#b1b1b1" opacity="0.012"/><path d="M261.5,480.5c4.409,-0.4965 8.909,-0.6635 13.5,-0.5c0,3.1665 0,6.3335 0,9.5c2.1665,0 4.3335,0 6.5,0c-1.948,0.5005 -4.2815,0.667 -7,0.5c0,-3.1665 0,-6.3335 0,-9.5c-4.3335,0 -8.6665,0 -13,0z" fill="#c5c5c5" opacity="0.988"/><path d="M275.5,125.5c-0.8265,-0.08 -1.493,-0.413 -2,-1c0.94,-0.1355 1.6065,0.198 2,1z" fill="#b0b0b0" opacity="0.506"/><path d="M276,308.5c-1.0075,0.712 -2.174,1.045 -3.5,1c1.0075,-0.712 2.174,-1.045 3.5,-1z" fill="#b3b3b3" opacity="0.012"/><path d="M276,326.5c-1.326,0.045 -2.4925,-0.288 -3.5,-1c1.326,-0.045 2.4925,0.288 3.5,1z" fill="#d1d1d1"/><path d="M275.5,427c-0.6665,-0.1665 -1.3335,-0.3335 -2,-0.5c0.814,-0.6765 1.481,-0.5095 2,0.5z" fill="#aeaeae" opacity="0.012"/><path d="M275,62.5c-0.2365,0.703 -0.7365,1.0365 -1.5,1c0.2365,-0.703 0.7365,-1.0365 1.5,-1z" fill="#c7c7c7"/><path d="M275.5,383.5c-1.4925,-0.413 -2.8255,-1.0795 -4,-2c1.627,0.147 2.9605,0.8135 4,2z" fill="#aeaeae" opacity="0.012"/><path d="M273.5,203c-0.2365,0.703 -0.7365,1.0365 -1.5,1c0.2365,-0.703 0.7365,-1.0365 1.5,-1z" fill="#a8a8a8" opacity="0.012"/><path d="M274,318c-1.326,0.045 -2.4925,-0.288 -3.5,-1c1.326,-0.045 2.4925,0.288 3.5,1z" fill="#b3b3b3" opacity="0.012"/><path d="M275,465c0,2.5 0,5 0,7.5c-5,0 -10,0 -15,0c4.743,-0.497 9.576,-0.6635 14.5,-0.5c-0.1595,-2.4315 0.007,-4.765 0.5,-7z" fill="#d9d9d9"/><path d="M274,576c-0.64,0.715 -1.4735,1.05 -2.5,1c0.64,-0.715 1.4735,-1.05 2.5,-1z" fill="#b2b2b2"/><path d="M274.5,137c-0.723,0.72 -1.6395,1.0535 -2.75,1c-0.6925,-0.007 -1.2755,-0.174 -1.75,-0.5c1.5225,-0.004 3.0225,-0.1705 4.5,-0.5z" fill="#c6c6c6"/><path d="M274,221.5c-1.2945,-0.4595 -2.2945,-1.293 -3,-2.5c1.2945,0.4595 2.2945,1.293 3,2.5z" fill="#acacac" opacity="0.012"/><path d="M272.5,433.5c-0.7635,0.0365 -1.2635,-0.297 -1.5,-1c0.7635,-0.0365 1.2635,0.297 1.5,1z" fill="#c7c7c7"/><path d="M272,204.5c-0.027,1.066 -0.527,1.7325 -1.5,2c0.119,-0.952 0.619,-1.619 1.5,-2z" fill="#aeaeae"/><path d="M272,89c-0.4455,0.305 -0.9455,0.4715 -1.5,0.5c0.3605,-0.941 0.8605,-1.1075 1.5,-0.5z" fill="#ababab" opacity="0.012"/><path d="M271,218.5c-0.587,-0.507 -0.92,-1.1735 -1,-2c0.763,0.3025 1.263,0.8855 1.5,1.75c-0.114,0.1995 -0.281,0.2825 -0.5,0.25z" fill="#acacac" opacity="0.012"/><path d="M272,283c-1.0075,0.712 -2.174,1.045 -3.5,1c1.0075,-0.712 2.174,-1.045 3.5,-1z" fill="#b2b2b2" opacity="0.012"/><path d="M272,65c-0.1985,0.5125 -0.5315,0.596 -1,0.25c-1.084,-1.499 -2.2505,-2.9155 -3.5,-4.25c1.813,0.9795 3.313,2.313 4.5,4z" fill="#aeaeae" opacity="0.012"/><path d="M267,93.5c1,-1.3335 2.1665,-2.5 3.5,-3.5c0.219,-0.0325 0.386,0.0505 0.5,0.25c-1.1355,1.391 -2.4685,2.4745 -4,3.25z" fill="#aeaeae" opacity="0.451"/><path d="M269.5,209.5c-0.1185,-0.6455 0.048,-1.1455 0.5,-1.5c0.219,-0.0325 0.386,0.0505 0.5,0.25c-0.283,0.4975 -0.6165,0.914 -1,1.25z" fill="#a9a9a9" opacity="0.012"/><path d="M270,216c-0.452,-0.3545 -0.6185,-0.8545 -0.5,-1.5c1.026,0.2765 1.1925,0.7765 0.5,1.5z" fill="#b2b2b2" opacity="0.012"/><path d="M271.5,381.5c-1.143,-0.0475 -2.143,-0.381 -3,-1c1.199,-0.1205 2.199,0.213 3,1z" fill="#bcbcbc"/><path d="M270.5,450c-0.692,0.6505 -1.442,0.6505 -2.25,0c-0.2495,-1.993 -0.333,-3.993 -0.25,-6c0.384,-0.3815 0.634,-0.8815 0.75,-1.5c0.2495,2.4945 0.333,4.9945 0.25,7.5c0.5,0 1,0 1.5,0z" fill="#b1b1b1" opacity="0.153"/><path d="M267.5,439c-0.452,-0.3545 -0.6185,-0.8545 -0.5,-1.5c0.3085,-0.0555 0.5585,-0.222 0.75,-0.5c0.3825,0.783 0.299,1.4495 -0.25,2z" fill="#b3b3b3" opacity="0.259"/><path d="M268,442c-0.467,-0.534 -0.634,-1.2005 -0.5,-2c0.3085,-0.0555 0.5585,-0.222 0.75,-0.5c0.39,0.9435 0.3065,1.777 -0.25,2.5z" fill="#b1b1b1" opacity="0.012"/><path d="M257.5,87c-0.8635,-1.0335 -1.8635,-1.8665 -3,-2.5c-0.305,-0.4455 -0.4715,-0.9455 -0.5,-1.5c0.5365,-0.3755 0.62,-0.8755 0.25,-1.5c-0.1915,0.278 -0.4415,0.4445 -0.75,0.5c0,-0.3335 0,-0.6665 0,-1c0.5565,-0.723 0.64,-1.5565 0.25,-2.5c-0.139,0.458 -0.389,0.791 -0.75,1c0,-1.6665 0,-3.3335 0,-5c0.3835,-0.336 0.717,-0.7525 1,-1.25c-0.114,-0.1995 -0.281,-0.2825 -0.5,-0.25c0,-0.3335 0,-0.6665 0,-1c0.962,-0.1055 1.1285,-0.4385 0.5,-1c0.0285,-0.5545 0.195,-1.0545 0.5,-1.5c1.2945,-0.4595 2.2945,-1.293 3,-2.5c5.3965,-1.671 8.6465,0.329 9.75,6c0.3335,2.8335 0.3335,5.6665 0,8.5c-1.435,5.338 -4.685,7.1715 -9.75,5.5z" fill="#ffffff"/><path d="M268.5,310.5c-1.0075,0.712 -2.174,1.045 -3.5,1c1.0075,-0.712 2.174,-1.045 3.5,-1z" fill="#b2b2b2" opacity="0.012"/><path d="M267,436.5c-0.419,-0.171 -0.586,-0.504 -0.5,-1c0.962,0.1055 1.1285,0.4385 0.5,1z" fill="#afafaf" opacity="0.012"/><path d="M267.5,61c-0.7635,0.0365 -1.2635,-0.297 -1.5,-1c0.7635,-0.0365 1.2635,0.297 1.5,1z" fill="#aeaeae" opacity="0.012"/><path d="M267.5,223.5c0.2715,0.03 0.438,0.1965 0.5,0.5c-0.729,0.641 -1.396,0.641 -2,0c0.6455,0.1185 1.1455,-0.048 1.5,-0.5z" fill="#a9a9a9" opacity="0.012"/><path d="M266.5,435c-0.419,-0.171 -0.586,-0.504 -0.5,-1c0.962,0.1055 1.1285,0.4385 0.5,1z" fill="#adadad" opacity="0.012"/><path d="M267.5,324c-1.326,0.045 -2.4925,-0.288 -3.5,-1c1.326,-0.045 2.4925,0.288 3.5,1z" fill="#d1d1d1"/><path d="M266,433.5c-0.587,-0.507 -0.92,-1.1735 -1,-2c0.438,-0.0655 0.7715,0.101 1,0.5c0.5765,0.5935 0.5765,1.0935 0,1.5z" fill="#aeaeae" opacity="0.012"/><path d="M266,60c-1.0265,0.049 -1.86,-0.2845 -2.5,-1c1.0265,-0.049 1.86,0.2845 2.5,1z" fill="#b0b0b0" opacity="0.506"/><path d="M265,431c-0.7815,-0.7225 -1.448,-1.5555 -2,-2.5c0.498,-0.043 0.9145,0.124 1.25,0.5c0.2325,0.7155 0.6495,1.2985 1.25,1.75c-0.114,0.1995 -0.281,0.2825 -0.5,0.25z" fill="#ababab" opacity="0.012"/><path d="M265,289c-1.326,0.045 -2.4925,-0.288 -3.5,-1c1.326,-0.045 2.4925,0.288 3.5,1z" fill="#b3b3b3" opacity="0.012"/><path d="M265,315.5c-1.326,0.045 -2.4925,-0.288 -3.5,-1c1.326,-0.045 2.4925,0.288 3.5,1z" fill="#b4b4b4" opacity="0.012"/><path d="M263,447.5c0.4805,0.8825 0.6475,1.8825 0.5,3c-1.1175,0.1475 -2.1175,-0.0195 -3,-0.5c0.8335,0 1.6665,0 2.5,0c0,-0.8335 0,-1.6665 0,-2.5z" fill="#b0b0b0" opacity="0.988"/><path d="M263,428c-0.5,-0.1665 -0.8335,-0.5 -1,-1c0.6665,0 1,0.3335 1,1z" fill="#b2b2b2" opacity="0.012"/><path d="M263,447.5c0,0.8335 0,1.6665 0,2.5c-0.8335,0 -1.6665,0 -2.5,0c-1.5745,0.0425 -2.908,-0.4575 -4,-1.5c-0.381,-0.881 -1.048,-1.381 -2,-1.5c0,-0.1665 0,-0.3335 0,-0.5c0.219,0.0325 0.386,-0.0505 0.5,-0.25c-0.289,-0.7085 -0.789,-1.125 -1.5,-1.25c0,-0.1665 0,-0.3335 0,-0.5c0.4695,-0.4135 0.3025,-0.747 -0.5,-1c0,-0.3335 0,-0.6665 0,-1c0.6665,-2 0.6665,-4 0,-6c0,-0.1665 0,-0.3335 0,-0.5c0.8025,-0.253 0.9695,-0.5865 0.5,-1c0,-0.1665 0,-0.3335 0,-0.5c0.952,-0.119 1.619,-0.619 2,-1.5c1.5775,-0.7325 2.9945,-0.3995 4.25,1c2.2595,4.2135 3.343,8.7135 3.25,13.5z" fill="#ffffff"/><path d="M265,94.5c-1.14,0.8615 -2.4735,1.1945 -4,1c1.2305,-0.5155 2.5635,-0.849 4,-1z" fill="#b3b3b3" opacity="0.012"/><path d="M263,285.5c-1.0075,0.712 -2.174,1.045 -3.5,1c1.0075,-0.712 2.174,-1.045 3.5,-1z" fill="#b3b3b3" opacity="0.012"/><path d="M259,200.5c-0.419,-0.171 -0.586,-0.504 -0.5,-1c0.962,0.1055 1.1285,0.4385 0.5,1z" fill="#b1b1b1" opacity="0.341"/><path d="M261,312.5c-0.7,0.3 -1.2,0.8 -1.5,1.5c-0.8015,0.094 -1.4685,-0.156 -2,-0.75c1.12,-0.4885 2.2865,-0.7385 3.5,-0.75z" fill="#b0b0b0" opacity="0.341"/><path d="M259.5,286.5c0,0.3335 0,0.6665 0,1c-2.6665,-0.3335 -2.6665,-0.6665 0,-1z" fill="#b1b1b1" opacity="0.012"/><path d="M259.5,294.5c-1.326,0.045 -2.4925,-0.288 -3.5,-1c1.326,-0.045 2.4925,0.288 3.5,1z" fill="#d1d1d1"/><path d="M258,198c-0.587,-0.507 -0.92,-1.1735 -1,-2c0.438,-0.0655 0.7715,0.101 1,0.5c0.5765,0.5935 0.5765,1.0935 0,1.5z" fill="#aeaeae" opacity="0.012"/><path d="M259,321.5c-1.326,0.045 -2.4925,-0.288 -3.5,-1c1.326,-0.045 2.4925,0.288 3.5,1z" fill="#d0d0d0"/><path d="M258,389.5c-0.2365,0.703 -0.7365,1.0365 -1.5,1c0.2365,-0.703 0.7365,-1.0365 1.5,-1z" fill="#b1b1b1" opacity="0.012"/><path d="M257,410c-0.086,-0.496 0.081,-0.829 0.5,-1c0.6285,0.5615 0.462,0.8945 -0.5,1z" fill="#adadad" opacity="0.012"/><path d="M257,571.5c-0.086,-0.495 0.081,-0.83 0.5,-1c0.4695,0.415 0.3025,0.745 -0.5,1z" fill="#adadad" opacity="0.012"/><path d="M257,195.5c-0.4455,-0.305 -0.9455,-0.4715 -1.5,-0.5c0.604,-0.641 1.271,-0.641 2,0c-0.062,0.3035 -0.2285,0.47 -0.5,0.5z" fill="#afafaf" opacity="0.012"/><path d="M258,202c-0.7055,1.207 -1.7055,2.0405 -3,2.5c0.7055,-1.207 1.7055,-2.0405 3,-2.5z" fill="#b0b0b0" opacity="0.012"/><path d="M258,221.5c-1.2945,-0.4595 -2.2945,-1.293 -3,-2.5c1.2945,0.4595 2.2945,1.293 3,2.5z" fill="#acacac" opacity="0.012"/><path d="M256.5,411.5c-0.086,-0.496 0.081,-0.829 0.5,-1c0.6285,0.5615 0.462,0.8945 -0.5,1z" fill="#acacac" opacity="0.012"/><path d="M260.5,426c-1.921,-0.751 -3.921,-1.084 -6,-1c1.233,-0.567 2.5665,-0.6505 4,-0.25c0.91,0.1 1.5765,0.517 2,1.25z" fill="#c1c1c1"/><path d="M257.5,67c-0.7055,1.207 -1.7055,2.0405 -3,2.5c0.7055,-1.207 1.7055,-2.0405 3,-2.5z" fill="#afafaf" opacity="0.012"/><path d="M256,413c-0.086,-0.496 0.081,-0.829 0.5,-1c0.6285,0.5615 0.462,0.8945 -0.5,1z" fill="#acacac" opacity="0.012"/><path d="M256,574.5c-0.049,-1.025 0.2845,-1.86 1,-2.5c0.219,-0.035 0.386,0.05 0.5,0.25c-0.2765,0.94 -0.7765,1.69 -1.5,2.25z" fill="#ababab" opacity="0.012"/><path d="M257.5,306.5c-1.0075,0.712 -2.174,1.045 -3.5,1c1.0075,-0.712 2.174,-1.045 3.5,-1z" fill="#d1d1d1"/><path d="M256.5,390.5c-0.2365,0.703 -0.7365,1.0365 -1.5,1c0.2365,-0.703 0.7365,-1.0365 1.5,-1z" fill="#a7a7a7" opacity="0.012"/><path d="M255.5,415c-0.1185,-0.6455 0.048,-1.1455 0.5,-1.5c0.6075,0.6395 0.441,1.1395 -0.5,1.5z" fill="#ababab" opacity="0.012"/><path d="M269,458c-7.245,0.498 -14.5785,0.6645 -22,0.5c0,-2.6665 0,-5.3335 0,-8c1.2795,0.151 2.4465,-0.016 3.5,-0.5c0.3945,0.1415 0.728,0.3915 1,0.75c-1.323,0.2485 -2.6565,0.332 -4,0.25c0,2.3335 0,4.6665 0,7c7.1665,0 14.3335,0 21.5,0z" fill="#cdcdcd"/><path d="M257.5,570c-1.153,-0.82 -2.153,-1.82 -3,-3c1.118,0.445 2.118,1.11 3,2c0.6365,0.38 0.6365,0.71 0,1z" fill="#aeaeae" opacity="0.012"/><path d="M255.5,576c-0.086,-0.495 0.081,-0.83 0.5,-1c0.4695,0.415 0.3025,0.745 -0.5,1z" fill="#acacac" opacity="0.012"/><path d="M257.5,87c-1.4535,-0.2865 -2.4535,-1.1195 -3,-2.5c1.1365,0.6335 2.1365,1.4665 3,2.5z" fill="#aeaeae" opacity="0.012"/><path d="M256.5,448.5c-0.952,-0.119 -1.619,-0.619 -2,-1.5c0.952,0.119 1.619,0.619 2,1.5z" fill="#a8a8a8" opacity="0.012"/><path d="M256,481.5c-0.381,0.881 -1.048,1.381 -2,1.5c0.381,-0.881 1.048,-1.381 2,-1.5z" fill="#b1b1b1" opacity="0.012"/><path d="M254,206c0.1665,-0.5 0.5,-0.8335 1,-1c0.219,-0.0325 0.386,0.0505 0.5,0.25c-0.372,0.5195 -0.872,0.7695 -1.5,0.75z" fill="#b1b1b1" opacity="0.341"/><path d="M254,393c0.1665,-0.5 0.5,-0.8335 1,-1c0.219,-0.0325 0.386,0.0505 0.5,0.25c-0.372,0.5195 -0.872,0.7695 -1.5,0.75z" fill="#b0b0b0" opacity="0.341"/><path d="M257,408c-1.489,-0.489 -2.489,-1.489 -3,-3c1.1425,0.809 2.1425,1.809 3,3z" fill="#aaaaaa" opacity="0.259"/><path d="M255.5,433c-0.381,0.881 -1.048,1.381 -2,1.5c0.381,-0.881 1.048,-1.381 2,-1.5z" fill="#b5b5b5" opacity="0.012"/><path d="M254,83c-0.419,-0.171 -0.586,-0.504 -0.5,-1c0.3085,-0.0555 0.5585,-0.222 0.75,-0.5c0.37,0.6245 0.2865,1.1245 -0.25,1.5z" fill="#b3b3b3" opacity="0.341"/><path d="M254,217c-0.419,-0.171 -0.586,-0.504 -0.5,-1c0.962,0.1055 1.1285,0.4385 0.5,1z" fill="#afafaf" opacity="0.341"/><path d="M255,218.5c-0.5,-0.1665 -0.8335,-0.5 -1,-1c0.3695,-0.0655 0.703,0.018 1,0.25c0.619,0.345 0.619,0.595 0,0.75z" fill="#acacac" opacity="0.012"/><path d="M254,404.5c-0.419,-0.171 -0.586,-0.504 -0.5,-1c0.8025,0.253 0.9695,0.5865 0.5,1z" fill="#aaaaaa" opacity="0.341"/><path d="M259,550c-2.0275,1.695 -3.861,3.53 -5.5,5.5c1,-2.665 2.8335,-4.5 5.5,-5.5z" fill="#afafaf" opacity="0.209"/><path d="M253.5,72c-0.086,-0.496 0.081,-0.829 0.5,-1c0.6285,0.5615 0.462,0.8945 -0.5,1z" fill="#aeaeae" opacity="0.012"/><path d="M253.5,207.5c-0.086,-0.496 0.081,-0.829 0.5,-1c0.6285,0.5615 0.462,0.8945 -0.5,1z" fill="#acacac" opacity="0.012"/><path d="M253.5,215.5c-0.6665,-2.3335 -0.6665,-4.6665 0,-7c0.6665,2.3335 0.6665,4.6665 0,7z" fill="#cdcdcd"/><path d="M254.5,446.5c-0.703,-0.2365 -1.0365,-0.7365 -1,-1.5c0.711,0.125 1.211,0.5415 1.5,1.25c-0.114,0.1995 -0.281,0.2825 -0.5,0.25z" fill="#afafaf" opacity="0.012"/><path d="M254,490c-0.452,-0.3545 -0.6185,-0.8545 -0.5,-1.5c1.026,0.2765 1.1925,0.7765 0.5,1.5z" fill="#b1b1b1" opacity="0.012"/><path d="M253,74.5c-0.1185,-0.6455 0.048,-1.1455 0.5,-1.5c0.219,-0.0325 0.386,0.0505 0.5,0.25c-0.283,0.4975 -0.6165,0.914 -1,1.25z" fill="#ababab" opacity="0.012"/><path d="M253.5,81c-0.452,-0.3545 -0.6185,-0.8545 -0.5,-1.5c0.361,-0.209 0.611,-0.542 0.75,-1c0.39,0.9435 0.3065,1.777 -0.25,2.5z" fill="#b6b6b6" opacity="0.012"/><path d="M253,396c-0.049,-1.0265 0.2845,-1.86 1,-2.5c0.219,-0.0325 0.386,0.0505 0.5,0.25c-0.2765,0.939 -0.7765,1.689 -1.5,2.25z" fill="#ababab" opacity="0.012"/><path d="M253,400.5c-0.6665,-1.3335 -0.6665,-2.6665 0,-4c0.6665,1.3335 0.6665,2.6665 0,4z" fill="#acacac" opacity="0.209"/><path d="M253.5,403c-0.452,-0.3545 -0.6185,-0.8545 -0.5,-1.5c0.3835,0.336 0.717,0.7525 1,1.25c-0.114,0.1995 -0.281,0.2825 -0.5,0.25z" fill="#ababab" opacity="0.012"/><path d="M253,436c-0.086,-0.496 0.081,-0.829 0.5,-1c0.4695,0.4135 0.3025,0.747 -0.5,1z" fill="#aeaeae" opacity="0.012"/><path d="M253,442.5c-0.6665,-2 -0.6665,-4 0,-6c0.6665,2 0.6665,4 0,6z" fill="#b2b2b2" opacity="0.088"/><path d="M253.5,444.5c-0.419,-0.171 -0.586,-0.504 -0.5,-1c0.8025,0.253 0.9695,0.5865 0.5,1z" fill="#acacac" opacity="0.012"/><path d="M253,557c-0.086,-0.495 0.081,-0.83 0.5,-1c0.4695,0.415 0.3025,0.745 -0.5,1z" fill="#acacac" opacity="0.012"/><path d="M253,561.5c-0.6665,-1.335 -0.6665,-2.665 0,-4c0.6665,1.335 0.6665,2.665 0,4z" fill="#ababab" opacity="0.122"/><path d="M253.5,564c-0.419,-0.17 -0.586,-0.505 -0.5,-1c0.8025,0.255 0.9695,0.585 0.5,1z" fill="#acacac" opacity="0.012"/><path d="M253.5,93.5c-0.7635,0.0365 -1.2635,-0.297 -1.5,-1c0.7635,-0.0365 1.2635,0.297 1.5,1z" fill="#c8c8c8"/><path d="M252,281c-1.0075,0.712 -2.174,1.045 -3.5,1c1.0075,-0.712 2.174,-1.045 3.5,-1z" fill="#d1d1d1"/><path d="M250,492.5c-0.5705,0.4195 -1.237,0.753 -2,1c-0.3035,-0.062 -0.47,-0.2285 -0.5,-0.5c0.771,-0.4005 1.604,-0.567 2.5,-0.5z" fill="#b6b6b6" opacity="0.012"/><path d="M202.5,296c0.0825,1.509 -0.001,3.009 -0.25,4.5c-0.3795,1.0675 -1.1295,1.734 -2.25,2c-0.7775,-1.9965 -1.2775,-4.08 -1.5,-6.25c0.453,-0.8495 0.6195,-1.7665 0.5,-2.75c1.8435,-0.004 3.01,0.8295 3.5,2.5z" fill="#f2f2f2"/><path d="M186.5,565.5c0.5855,3.665 -0.9145,5.245 -4.5,4.75c-0.6965,-0.585 -1.1135,-1.335 -1.25,-2.25c-0.294,-2.515 -0.211,-5.015 0.25,-7.5c2.457,0.955 4.2905,2.625 5.5,5z" fill="#f2f2f2"/><path d="M183,550c0,0.665 0,1.335 0,2c-0.5,0 -1,0 -1.5,0c0,-0.665 0,-1.335 0,-2c0.5,0 1,0 1.5,0z" fill="#e6e6e6"/><path d="M181,321.5c0.2265,3.0915 -0.0235,6.0915 -0.75,9c-3.034,-2.3675 -3.617,-5.1175 -1.75,-8.25c0.7625,-0.5045 1.596,-0.7545 2.5,-0.75z" fill="#f1f1f1"/><path d="M145,528c10.15,-0.835 20.317,-1.085 30.5,-0.75c0.272,0.36 0.6055,0.61 1,0.75c1.425,2.655 1.7585,5.49 1,8.5c-2.1805,0.455 -4.347,0.955 -6.5,1.5c-8.94,0.215 -17.94,-0.205 -27,-1.25c-0.9965,-1.395 -1.4965,-2.98 -1.5,-4.75c0.1685,-1.34 0.335,-2.67 0.5,-4c0.6665,0 1.3335,0 2,0z" fill="#f5f5f5"/><path d="M177,545c0.083,2.175 -0.0005,4.34 -0.25,6.5c-0.3535,0.79 -0.77,1.54 -1.25,2.25c-9.5,0.335 -19,0.335 -28.5,0c-1.81,0.075 -3.06,-0.675 -3.75,-2.25c-0.3335,-2.165 -0.3335,-4.335 0,-6.5c0.6995,-0.365 1.4495,-0.615 2.25,-0.75c10.0015,-0.97 20.0015,-0.97 30,0c0.5135,0.255 1.0135,0.505 1.5,0.75z" fill="#f5f5f5"/><path d="M174,263.5c-0.222,2.2795 -1.1385,4.2795 -2.75,6c-2.534,-3.4045 -3.9505,-7.238 -4.25,-11.5c3.219,0.72 5.552,2.5535 7,5.5z" fill="#f2f2f2"/><path d="M176.5,528c-0.3945,-0.14 -0.728,-0.39 -1,-0.75c-10.183,-0.335 -20.35,-0.085 -30.5,0.75c0.726,-0.4 1.559,-0.65 2.5,-0.75c8.8495,-0.415 17.683,-0.835 26.5,-1.25c0.6475,0.3 1.314,0.55 2,0.75c0.376,0.335 0.543,0.75 0.5,1.25z" fill="#e7e7e7"/><path d="M166.5,560c-6.506,-0.02 -13.006,0.15 -19.5,0.5c1.364,-0.355 2.7805,-0.685 4.25,-1c5.0685,-0.145 10.1515,0.02 15.25,0.5z" fill="#e3e3e3"/><path d="M165,70.5c-6.1735,-0.0255 -12.34,0.1415 -18.5,0.5c3.6385,-0.7415 7.3885,-1.075 11.25,-1c2.506,0.0005 4.9225,0.167 7.25,0.5z" fill="#e2e2e2"/><path d="M161.5,163.5c-0.037,2.548 -1.2035,3.548 -3.5,3c-1.382,-3.23 -2.7155,-6.48 -4,-9.75c0.509,-1.4975 1.342,-1.664 2.5,-0.5c2.61,1.8445 4.2765,4.261 5,7.25z" fill="#f2f2f2"/><path d="M155.5,447.5c0.2245,2.926 -0.0255,5.7595 -0.75,8.5c-2.836,-2.3405 -3.7525,-5.257 -2.75,-8.75c1.2145,-0.3515 2.381,-0.2685 3.5,0.25z" fill="#f2f2f2"/><path d="M154.5,485c0.638,3.4755 -0.1955,6.4755 -2.5,9c-0.293,-0.1045 -0.543,-0.2715 -0.75,-0.5c-0.2865,-3.0195 -0.1195,-6.0195 0.5,-9c0.184,-0.705 0.6005,-1.205 1.25,-1.5c0.5105,0.7005 1.0105,1.3675 1.5,2z" fill="#f1f1f1"/><path d="M172,121.5c-0.5545,0.395 -1.221,0.645 -2,0.75c-30.6635,0.7195 -61.33,1.053 -92,1c-0.458,-0.139 -0.791,-0.389 -1,-0.75c7.503,0.49 14.92,0.6565 22.25,0.5c24.224,-0.357 48.474,-0.857 72.75,-1.5z" fill="#e9e9e9"/><path d="M183,142.5c-0.5545,0.395 -1.221,0.645 -2,0.75c-21.005,0.2395 -42.005,0.6565 -63,1.25c21.5775,-1.1205 43.244,-1.787 65,-2z" fill="#e7e7e7"/><path d="M147.5,483c-6.3825,-0.3245 -12.716,-0.6575 -19,-1c6.522,-0.3235 12.8555,0.01 19,1z" fill="#e4e4e4"/><path d="M173,520c-0.3815,0.385 -0.8815,0.635 -1.5,0.75c-9.8335,0.335 -19.6665,0.335 -29.5,0c-0.6185,-0.115 -1.1185,-0.365 -1.5,-0.75c10.837,0.655 21.67,0.655 32.5,0z" fill="#e6e6e6"/><path d="M201.5,505.5c-19.5815,-0.115 -39.248,0.055 -59,0.5c-5.6665,-0.085 -11.3335,-0.165 -17,-0.25c-1.7625,-0.09 -3.4295,-0.34 -5,-0.75c-0.0325,-0.22 0.0505,-0.385 0.25,-0.5c6.032,0.735 12.115,1.07 18.25,1c20.8525,-0.905 41.686,-0.905 62.5,0z" fill="#ececec"/><path d="M144,563c-0.41,4.32 -0.41,8.655 0,13c-0.564,-2.48 -0.8975,-5.065 -1,-7.75c-0.0605,-1.89 0.273,-3.64 1,-5.25z" fill="#e6e6e6"/><path d="M154.5,74.5c-5.768,-1.1305 -11.6015,-1.6305 -17.5,-1.5c-0.1185,-0.6455 0.048,-1.1455 0.5,-1.5c0.0555,0.3085 0.222,0.5585 0.5,0.75c4.5155,0.141 9.0155,0.4745 13.5,1c1.176,0.12 2.176,0.5365 3,1.25z" fill="#e3e3e3"/><path d="M140,551.5c-0.155,4.17 -0.405,8.335 -0.75,12.5c-0.049,1.06 -0.4655,1.895 -1.25,2.5c-1.109,-0.71 -1.859,-1.71 -2.25,-3c-2.101,-4.795 -2.7675,-9.795 -2,-15c0.8105,-1.995 2.227,-2.91 4.25,-2.75c1.1635,1.78 1.8305,3.695 2,5.75z" fill="#f4f4f4"/><path d="M138,296c0.0585,0.992 -0.275,1.825 -1,2.5c-1.404,0.735 -2.904,1.1515 -4.5,1.25c-4.6665,0.3335 -9.3335,0.3335 -14,0c-1.5045,-1.4695 -1.338,-2.636 0.5,-3.5c5.999,-0.69 11.999,-1.19 18,-1.5c0.283,0.4975 0.6165,0.914 1,1.25z" fill="#f2f2f2"/><path d="M145.5,453.5c-7.086,0.557 -14.253,0.557 -21.5,0c7.076,-0.135 14.243,-0.135 21.5,0z" fill="#e5e5e5"/><path d="M135,98.5c-0.378,-6.1125 -0.378,-12.2795 0,-18.5c0.325,6.2525 0.325,12.4195 0,18.5z" fill="#e2e2e2"/><path d="M131.5,68.5c-0.016,2.8445 -0.183,5.6775 -0.5,8.5c-1.7715,-0.186 -2.855,-1.186 -3.25,-3c-0.4735,-5.553 -0.1405,-11.053 1,-16.5c0.2675,-0.8855 0.6845,-1.052 1.25,-0.5c0.6855,3.874 1.1855,7.707 1.5,11.5z" fill="#f1f1f1"/><path d="M131.5,577.5c0.1115,1.305 -0.472,2.14 -1.75,2.5c-1.296,-1.395 -1.296,-2.895 0,-4.5c0.775,0.545 1.3585,1.21 1.75,2z" fill="#f0f0f0"/><path d="M130,320.5c-0.4005,0.771 -0.567,1.604 -0.5,2.5c-2.1965,-0.3665 -3.363,-1.7 -3.5,-4c0.1765,-1.1155 0.593,-2.1155 1.25,-3c0.5,0.3335 1,0.6665 1.5,1c0.349,1.252 0.7655,2.4185 1.25,3.5z" fill="#f0f0f0"/><path d="M130.5,585c-2.2,0.66 -4.45,0.66 -6.75,0c-0.421,-5.495 -0.754,-10.995 -1,-16.5c-0.25,-17 -0.3335,-34 -0.25,-51c0.4375,18.445 0.9375,36.86 1.5,55.25c-0.132,1.305 -0.299,2.805 -0.5,4.5c0.4025,2.375 0.6525,4.79 0.75,7.25c2.033,0.48 4.1165,0.65 6.25,0.5z" fill="#ebebeb"/><path d="M113,160.5c0.128,1.146 -0.0385,2.2295 -0.5,3.25c-2.639,1.0695 -5.3055,1.2365 -8,0.5c-1.3955,-2.0505 -1.8125,-4.3005 -1.25,-6.75c0.9105,-1.7455 2.327,-2.3285 4.25,-1.75c1.917,1.501 3.75,3.0845 5.5,4.75z" fill="#f3f3f3"/><path d="M109.5,534c-0.64,-5.07 -0.9735,-10.24 -1,-15.5c0.785,5.06 1.118,10.23 1,15.5z" fill="#e6e6e6"/><path d="M109,50c-10.0795,-0.2825 -20.0795,-0.6158 -30,-1c8.835,-0.0833 17.668,0.00005 26.5,0.25c1.268,0.0931 2.4345,0.3431 3.5,0.75z" fill="#e6e6e6"/><path d="M104.5,536c0,0.835 0,1.665 0,2.5c-0.5,0 -1,0 -1.5,0c-0.08,-0.85 0.003,-1.685 0.25,-2.5c0.385,-0.55 0.8015,-0.55 1.25,0z" fill="#e7e7e7"/><path d="M160.5,42.5c-1.12,0.5936 -2.37,0.9269 -3.75,1c-13.9945,-0.5499 -27.9945,-0.5499 -42,0c-10.1705,-0.1235 -20.254,-0.45685 -30.25,-1c25.367,0.3842 50.7005,0.3842 76,0z" fill="#eaeaea"/><path d="M102.5,147c0.1815,-1.2055 -0.3185,-1.9555 -1.5,-2.25c-3.8295,-0.25 -7.663,-0.333 -11.5,-0.25c3.9115,-0.578 7.9115,-0.6615 12,-0.25c1.455,0.5865 1.7885,1.503 1,2.75z" fill="#e2e2e2"/><path d="M97.5,289c0.368,3.714 -1.299,5.631 -5,5.75c-0.5085,-0.5245 -0.592,-1.108 -0.25,-1.75c1.339,-1.5885 2.756,-3.0885 4.25,-4.5c0.3415,0.1815 0.675,0.348 1,0.5z" fill="#f0f0f0"/><path d="M88.5,491.5c0.166,5.6765 -0.0005,11.345 -0.5,17c-3.8335,0.665 -7.6665,0.665 -11.5,0c-0.562,-0.935 -0.9785,-1.935 -1.25,-3c-1.0665,-6.86 -0.983,-13.693 0.25,-20.5c3.609,-1.2345 7.276,-1.3175 11,-0.25c0.6955,2.288 1.362,4.538 2,6.75z" fill="#f5f5f5"/><path d="M88.5,516.5c0.0835,6.835 0,13.67 -0.25,20.5c-1.692,0.965 -3.5255,1.465 -5.5,1.5c-2.27,-0.295 -4.52,-0.715 -6.75,-1.25c-0.3455,-0.535 -0.5955,-1.115 -0.75,-1.75c-0.0835,-3 -0.1665,-6 -0.25,-9c-0.055,-3.54 0.195,-7.04 0.75,-10.5c1.903,-0.76 3.903,-1.095 6,-1c2.444,-0.23 4.694,0.27 6.75,1.5z" fill="#f5f5f5"/><path d="M85,250.5c-0.0945,5.4395 -2.2615,9.856 -6.5,13.25c-1.7075,0.133 -2.7075,-0.7 -3,-2.5c2.141,-4.395 4.9745,-8.312 8.5,-11.75c0.341,0.3715 0.6745,0.7045 1,1z" fill="#f3f3f3"/><path d="M97,138.5c-9.43,0.3515 -18.93,0.685 -28.5,1c0.209,-0.361 0.542,-0.611 1,-0.75c9.165,-0.25 18.332,-0.3335 27.5,-0.25z" fill="#e2e2e2"/><path d="M78,88.5c0.5895,-4.491 0.5895,-8.991 0,-13.5c0.7495,2.3725 1.083,4.8725 1,7.5c-0.0835,1.6665 -0.1665,3.3335 -0.25,5c-0.139,0.458 -0.389,0.791 -0.75,1z" fill="#e3e3e3"/><path d="M76.5,354.5c-0.226,3.1915 -0.476,6.5245 -0.75,10c-0.6055,1.981 -1.6055,2.3145 -3,1c-0.5085,-6.457 0.158,-12.7905 2,-19c0.3335,-0.6665 0.6665,-0.6665 1,0c0.0865,2.758 0.3365,5.4245 0.75,8z" fill="#f2f2f2"/><path d="M72.5,83.5c0.442,1.995 -0.2245,3.4115 -2,4.25c-1.545,0.6815 -3.128,1.265 -4.75,1.75c-0.8025,-0.3005 -1.469,-0.8005 -2,-1.5c-0.303,-3.789 0.78,-7.122 3.25,-10c2.074,-0.86 3.4905,-0.1935 4.25,2c0.195,1.302 0.612,2.469 1.25,3.5z" fill="#f4f4f4"/><path d="M72,546c0.169,1.33 -0.1645,2.495 -1,3.5c-2.1245,0.69 -4.291,0.94 -6.5,0.75c-1.2835,-3.41 -1.2,-6.83 0.25,-10.25c0.882,-1.08 1.7985,-1.165 2.75,-0.25c2.191,1.65 3.691,3.735 4.5,6.25z" fill="#f3f3f3"/><path d="M69.5,485.5c0.1425,0.894 -0.024,1.7275 -0.5,2.5c-1.128,-0.4605 -1.628,-1.294 -1.5,-2.5c0.6665,0 1.3335,0 2,0z" fill="#e8e8e8"/><path d="M68,349c-0.0455,8.717 -0.0455,17.3835 0,26c-0.3085,-0.0555 -0.5585,-0.222 -0.75,-0.5c0.0225,-8.5765 0.2725,-17.0765 0.75,-25.5z" fill="#e8e8e8"/><path d="M67,269.5c0.215,1.681 -0.285,3.0975 -1.5,4.25c-1.2125,0.493 -2.0455,0.1595 -2.5,-1c0.5595,-1.7015 1.643,-2.9515 3.25,-3.75c0.1915,0.278 0.4415,0.4445 0.75,0.5z" fill="#efefef"/><path d="M61.5,507.5c0.2265,5.385 -0.0235,10.72 -0.75,16c-0.7635,-0.86 -1.2635,-1.86 -1.5,-3c-0.444,-3.245 -0.8605,-6.495 -1.25,-9.75c0.0555,-2.445 0.5555,-4.78 1.5,-7c0.416,-0.345 0.749,-0.26 1,0.25c0.2835,1.24 0.617,2.41 1,3.5z" fill="#f0f0f0"/><path d="M56,554.5c-0.7225,-16.995 -1.056,-34.08 -1,-51.25c0,-10.3345 0.1665,-20.5845 0.5,-30.75c0.117,27.504 0.2835,54.835 0.5,82z" fill="#e7e7e7"/></g></svg>