<svg version="1.1" xmlns="http://www.w3.org/2000/svg" xmlns:xlink="http://www.w3.org/1999/xlink" width="694.05405" height="345.51352" viewBox="0,0,694.05405,345.51352"><g transform="translate(12.012,-189.48048)"><g stroke="none" stroke-miterlimit="10"><path d="M-12.012,189.48049c213.3335,0 480.72055,-0.00001 694.05405,-0.00001c0,120 0,222.51051 0,342.51051c-213.3335,0 -480.72055,3.00301 -694.05405,3.00301c0,-120 0,-225.51351 0,-345.51351zM235.00001,211.48048c57.5,0 115,0 172.5,0c0,29.1665 0,58.3335 0,87.5c17.5,0 35,0 52.5,0c0,-29.1665 0,-58.3335 0,-87.5c57.5,0 115,0 172.5,0c0,57.5 0,115 0,172.5c-37.5,0 -75,0 -112.5,0c0,29.1665 0,58.3335 0,87.5c-57.5,0 -115,0 -172.5,0c0,-29.1665 0,-58.3335 0,-87.5c-17.5,0 -35,0 -52.5,0c0,29.1665 0,58.3335 0,87.5c-57.5,0 -115,0 -172.5,0c0,-28.8335 0,-57.6665 0,-86.5c-38.3335,0 -76.66665,0 -115,0c0,-57.5 0,-115 0,-172.5c57.5,0 115,0 172.5,0c0,28.8335 0,57.6665 0,86.5c18.3335,0 36.6665,0 55,0c0,-29.1665 0,-58.3335 0,-87.5z" fill="#fefffe" fill-rule="evenodd" stroke-width="1"/><path d="M196.67478,448.897c0,1 0,2 0,3c-1.699,-0.027 -3.033,-0.694 -4,-2c-3.315,-7.582 -6.482,-15.249 -9.5,-23c-1.41,-1.287 -2.91,-2.454 -4.5,-3.5c-11.304,-1.341 -22.637,-1.341 -34,0c-7.136,1.691 -14.302,3.191 -21.5,4.5c-4.246,-1.071 -6.413,-3.738 -6.5,-8c2.73,-0.027 5.23,0.64 7.5,2c31.405,-6.175 30.905,-8.841 -1.5,-8c-0.721,-3.317 -0.888,-6.651 -0.5,-10c1.395,1.64 2.895,3.14 4.5,4.5c12.533,0.804 25.033,0.638 37.5,-0.5c5.517,0.954 11.017,1.954 16.5,3c-0.165,-3.682 0.001,-7.348 0.5,-11c1.255,0.711 2.421,1.544 3.5,2.5c-1.016,0.519 -1.682,1.353 -2,2.5c0.691,3.714 2.191,7.048 4.5,10c1.945,1.192 3.945,1.192 6,0c4.098,0.745 5.765,3.079 5,7c-2.5,2.036 -5.167,2.37 -8,1c-0.344,8.253 0.989,16.253 4,24c0.708,0.881 1.542,1.547 2.5,2z" fill="#ffffff" fill-rule="evenodd" stroke-width="1"/><path d="M427.72181,447.69038c-0.38636,2.03255 -1.08475,3.95212 -2.09411,5.75881c-3.89819,-0.04157 -7.7367,-0.39066 -11.51763,-1.04706c-2.04281,1.81581 -3.08986,4.08457 -3.14117,6.80587c-9.42979,0.17381 -18.85331,0 -28.27053,-0.52353c-2.07422,-0.63347 -2.42394,-1.68053 -1.04706,-3.14117c-11.98566,-1.81151 -23.85195,-3.73108 -35.59993,-5.75881c-0.10366,-3.322 0.59473,-6.46317 2.09411,-9.42351c1.2439,1.40306 2.81449,2.10102 4.71176,2.09411c4.79866,-0.95869 9.51042,-2.18029 14.13527,-3.6647c4.91174,-0.68017 9.79731,-0.50562 14.6588,0.52353c4.75992,-0.97261 9.47168,-2.01967 14.13527,-3.14117c5.74625,0.87073 11.50506,1.56881 17.27644,2.09411c0.26805,2.55189 0.96643,4.99509 2.09411,7.3294c3.40293,0.3227 6.89278,0.49714 10.47057,0.52353c0.5696,0.75095 1.26799,1.27448 2.09411,1.57059z" fill="#ffffff" fill-rule="evenodd" stroke-width="1"/><path d="M417.24365,416.59932c-1.333,0.6667 -2.667,1.3333 -4,2c-0.792,2.0873 -1.959,3.9207 -3.5,5.5c-4.287,1.1534 -8.621,1.9867 -13,2.5c0,-1 0,-2 0,-3c-6.342,0.1662 -12.675,-0.0005 -19,-0.5c-9.872,-2.0053 -19.872,-3.172 -30,-3.5c0.219,1.175 -0.114,2.175 -1,3c-1.312,-2.2363 -0.979,-4.2363 1,-6c-2.528,-1.0174 -2.528,-2.1841 0,-3.5c7.735,-2.3704 15.568,-2.8704 23.5,-1.5c5.351,-1.8561 10.851,-2.8561 16.5,-3c0.206,-4.9855 2.706,-6.3188 7.5,-4c1.092,-0.7961 2.259,-1.4628 3.5,-2c4.304,0.7095 8.637,1.2095 13,1.5c1.444,1.7635 2.444,3.7635 3,6c2.447,1.857 4.613,1.6904 6.5,-0.5c5.1618,-0.3408 7.3284,1.9925 6.5,7c-3.502,2.6195 -7.002,2.6195 -10.5,0z" fill="#ffffff" fill-rule="evenodd" stroke-width="1"/><path d="M245.0663,244.77875c0,-1.3333 0,-2.6667 0,-4c2.044,-0.5312 3.711,-1.6978 5,-3.5c1,-0.6667 2,-0.6667 3,0c0.808,2.0876 1.808,4.0876 3,6c3.657,2.6584 6.991,5.6584 10,9c3.428,0.7011 6.762,0.3677 10,-1c2.403,-3.0665 5.403,-5.3998 9,-7c5.338,-0.3151 10.672,-0.1484 16,0.5c-0.323,-9.2879 -2.656,-17.9546 -7,-26c1.322,-0.17 2.489,0.1634 3.5,1c6.206,9.7444 11.372,20.0777 15.5,31c1.869,1.1236 3.869,1.9569 6,2.5c1.482,2.5918 1.148,4.9251 -1,7c-2.507,0.0929 -4.674,0.9262 -6.5,2.5c-1.077,4.6152 -3.91,6.1152 -8.5,4.5c-6.272,-5.5789 -12.105,-5.4123 -17.5,0.5c-1.003,4.3548 -2.503,8.521 -4.5,12.5c0.667,0.333 1.333,0.667 2,1c-0.165,1.117 -0.498,2.284 -1,3.5c1.247,1.823 1.914,3.823 2,6c-1.052,0.149 -2.052,-0.017 -3,-0.5c-2.425,-3.759 -5.425,-6.759 -9,-9c0.77,-1.775 1.937,-3.275 3.5,-4.5c1.005,-5.215 2.838,-10.0483 5.5,-14.5c-4.257,0.5317 -8.591,0.5317 -13,0c-6.568,-4.8989 -12.068,-10.7322 -16.5,-17.5c-1.956,0.2845 -4.123,0.2845 -6.5,0z" fill="#ffffff" fill-rule="evenodd" stroke-width="1"/><path d="M7.47651,275.83706c0,-2.333 0,-4.667 0,-7c13.291,-2.001 26.624,-4.001 40,-6c2.948,-0.277 5.781,0.056 8.5,1c0.833,-0.833 1.667,-1.667 2.5,-2.5c-1.973,-0.495 -3.973,-0.662 -6,-0.5c0.041,-2.245 0.875,-2.912 2.5,-2c2.89,-1.094 5.723,-2.26 8.5,-3.5c-6.233,-0.368 -12.4,0.132 -18.5,1.5c-9.748,-1.513 -19.581,-2.347 -29.5,-2.5c-2.654,-0.941 -5.321,-1.774 -8,-2.5c0,-1 0,-2 0,-3c6.324,0.193 12.658,0.193 19,0c-5.98,-2.672 -12.313,-3.672 -19,-3c0,-1.667 0,-3.333 0,-5c6.692,-0.165 13.359,0.168 20,1c4.765,-0.965 9.431,-2.132 14,-3.5c4.722,-0.777 9.389,-0.61 14,0.5c0.952,-1.545 1.285,-3.212 1,-5c6.449,-0.208 12.282,1.459 17.5,5c1.062,5.947 4.395,7.613 10,5c4.745,0.063 6.245,2.23 4.5,6.5c-4.284,1.167 -8.617,1.667 -13,1.5c-0.566,3.317 -2.233,5.817 -5,7.5c3.794,0.456 6.461,2.456 8,6c3.733,0.066 7.233,0.899 10.5,2.5c0.72,1.612 0.554,3.112 -0.5,4.5c-2.851,1.289 -5.851,1.789 -9,1.5c-0.968,5.484 -3.802,9.817 -8.5,13c-0.689,-0.857 -1.522,-1.523 -2.5,-2c-5.73,4.886 -8.896,3.553 -9.5,-4c-0.725,-0.559 -1.558,-0.892 -2.5,-1c-2.468,0.543 -4.968,0.876 -7.5,1c-13.717,-2.463 -27.55,-4.13 -41.5,-5z" fill="#ffffff" fill-rule="evenodd" stroke-width="1"/><path d="M526.04422,244.20204c-1.1498,2.4622 -2.4831,4.7955 -4,7c-3.7981,0.7719 -7.6314,1.2719 -11.5,1.5c-14.8968,-2.0833 -29.8968,-4.0833 -45,-6c-2.2552,0.1095 -3.9219,1.1095 -5,3c-0.4974,-2.646 -0.6641,-5.3127 -0.5,-8c7.1443,0.7368 14.311,1.4035 21.5,2c3.3829,-0.0166 6.5495,-0.8499 9.5,-2.5c-10.328,-0.4998 -20.6613,-0.6665 -31,-0.5c0,-1.3333 0,-2.6667 0,-4c10.3034,-1.1033 20.6367,-1.9366 31,-2.5c3.1331,0.0461 5.7998,-0.9539 8,-3c8.0416,-0.7231 16.0416,-0.3897 24,1c0.708,2.5886 2.0413,4.7553 4,6.5c6.1049,-3.7332 9.1049,-2.0665 9,5c-3.2898,0.9526 -6.6231,1.1193 -10,0.5z" fill="#ffffff" fill-rule="evenodd" stroke-width="1"/><path d="M539.02496,271.76956c-0.0062,3.602 -1.8395,5.602 -5.5,6c-1.3876,-1.054 -2.8876,-1.22 -4.5,-0.5c-0.8918,2.95 -2.2252,5.617 -4,8c-9.3999,2.315 -18.5666,1.815 -27.5,-1.5c-13.6474,1.753 -27.1474,3.753 -40.5,6c-0.1766,-2.481 0.8234,-4.314 3,-5.5c12.2195,-1.722 24.2195,-4.388 36,-8c-4.1237,-0.856 -8.2904,-1.356 -12.5,-1.5c-7.8228,0.911 -15.6561,1.078 -23.5,0.5c-2.0152,-1.555 -2.3485,-3.389 -1,-5.5c1,0.667 2,1.333 3,2c11.6555,-1.014 23.3222,-2.181 35,-3.5c9.3553,-4.158 19.0219,-4.658 29,-1.5c0.6228,2.211 1.6228,4.211 3,6c3.2095,-2.094 6.5428,-2.427 10,-1z" fill="#ffffff" fill-rule="evenodd" stroke-width="1"/><path d="M-2.98498,503.41666v-300h646v300z" fill-opacity="0.01176" fill="#ffffff" fill-rule="nonzero" stroke-width="0"/></g></g></svg>