<svg xmlns:xlink="http://www.w3.org/1999/xlink" style="shape-rendering:geometricPrecision; text-rendering:geometricPrecision; image-rendering:optimizeQuality; fill-rule:evenodd; clip-rule:evenodd" height="359px" width="414px" version="1.1" xmlns="http://www.w3.org/2000/svg">
<g><path d="M 10.5,-0.5 C 105.167,-0.5 199.833,-0.5 294.5,-0.5C 339.09,0.873703 373.923,19.8737 399,56.5C 406.157,69.4789 410.991,83.1455 413.5,97.5C 413.5,105.167 413.5,112.833 413.5,120.5C 405.57,163.95 380.903,193.783 339.5,210C 326.193,214.496 312.527,217.162 298.5,218C 236.833,218.333 175.167,218.667 113.5,219C 97.81,221.689 88.31,230.856 85,246.5C 83.9503,254.663 84.6169,262.663 87,270.5C 89.9639,274.049 93.7972,275.882 98.5,276C 199.499,276.5 300.499,276.667 401.5,276.5C 401.5,303.833 401.5,331.167 401.5,358.5C 286.833,358.5 172.167,358.5 57.5,358.5C 23.3162,353.317 3.98282,333.65 -0.5,299.5C -0.5,279.5 -0.5,259.5 -0.5,239.5C 5.66531,193.057 30.6653,161.224 74.5,144C 88.8098,139.393 103.476,136.726 118.5,136C 179.833,135.667 241.167,135.333 302.5,135C 310.895,132.937 318.062,128.77 324,122.5C 331.947,105.208 327.114,92.7081 309.5,85C 305.012,83.1886 300.346,82.1886 295.5,82C 200.501,81.5 105.501,81.3333 10.5,81.5C 10.5,54.1667 10.5,26.8333 10.5,-0.5 Z" fill="#9865ff" style="opacity:0.991"></path></g>
</svg>
