<svg version="1.1" xmlns="http://www.w3.org/2000/svg" xmlns:xlink="http://www.w3.org/1999/xlink" width="214.71471" height="139.63964" viewBox="0,0,214.71471,139.63964"><g transform="translate(-110.93093,5.57559)"><g stroke="none" stroke-miterlimit="10"><path d="M142,23c0,7.5 0,15 0,22.5c1.1665,0 2.3335,0 3.5,0c-1.224,0.48655 -2.5575,0.6532 -4,0.5c-0.165,-7.75455 0.002,-15.4212 0.5,-23z" fill="#c1c1c1" fill-rule="evenodd" stroke-width="1"/><path d="M215,23c0,7.5 0,15 0,22.5c1.1665,0 2.3335,0 3.5,0c-1.224,0.48655 -2.5575,0.6532 -4,0.5c-0.165,-7.75455 0.002,-15.4212 0.5,-23z" fill="#c1c1c1" fill-rule="evenodd" stroke-width="1"/><path d="M182.5,35.5c-3.741,0.496 -7.574,0.6627 -11.5,0.5c0,1.83335 0,3.66665 0,5.5c-0.4915,-1.8992 -0.6585,-3.8992 -0.5,-6c4,0 8,0 12,0z" fill="#c4c4c4" fill-rule="evenodd" stroke-width="1"/><path d="M319,32c0.4865,1.22395 0.653,2.5573 0.5,4c-4,0 -8,0 -12,0c3.741,-0.496 7.574,-0.6627 11.5,-0.5c0,-1.16665 0,-2.33335 0,-3.5z" fill="#c0c0c0" fill-rule="evenodd" stroke-width="1"/><path d="M162,23c0.498,7.5788 0.665,15.24545 0.5,23c-1.5,0 -3,0 -4.5,0c0,-3.33335 0,-6.66665 0,-10c-4.1665,0 -8.3335,0 -12.5,0c4.242,-0.4965 8.5755,-0.6632 13,-0.5c0,3.33335 0,6.66665 0,10c1.1665,0 2.3335,0 3.5,0c0,-7.5 0,-15 0,-22.5z" fill="#d2d2d2" fill-rule="evenodd" stroke-width="1"/><path d="M299,45.5c-1.224,0.48655 -2.5575,0.6532 -4,0.5c0,-3.33335 0,-6.66665 0,-10c-4.1665,0 -8.3335,0 -12.5,0c0,3.33335 0,6.66665 0,10c-1.4425,0.1532 -2.776,-0.01345 -4,-0.5c1.1665,0 2.3335,0 3.5,0c0,-3.33335 0,-6.66665 0,-10c4.5,0 9,0 13.5,0c0,3.33335 0,6.66665 0,10c1.1665,0 2.3335,0 3.5,0z" fill="#c1c1c1" fill-rule="evenodd" stroke-width="1"/><path d="M300,69.5c-6.5,0 -13,0 -19.5,0c0,5.6665 0,11.3335 0,17c7.1665,0 14.3335,0 21.5,0c-7.245,0.498 -14.5785,0.6645 -22,0.5c0,-6 0,-12 0,-18c6.755,-0.1645 13.422,0.002 20,0.5z" fill="#d1d1d1" fill-rule="evenodd" stroke-width="1"/><path d="M300,69.5c7.985,0.116 11.0685,4.116 9.25,12c-1.436,3.093 -3.853,4.7595 -7.25,5c-7.1665,0 -14.3335,0 -21.5,0c0,-5.6665 0,-11.3335 0,-17c6.5,0 13,0 19.5,0z" fill="#fdfdfd" fill-rule="evenodd" stroke-width="1"/><path d="M173.5,116.5c-0.3335,-12.1665 -0.6665,-24.3335 -1,-36.5c-0.0195,-0.628 0.2305,-1.128 0.75,-1.5c0.25,12.6655 0.3335,25.332 0.25,38z" fill="#d2d2d2" fill-rule="evenodd" stroke-width="1"/><path d="M129.5,80c-0.3335,12.1665 -0.6665,24.3335 -1,36.5c-0.0835,-12.668 0,-25.3345 0.25,-38c0.5195,0.372 0.7695,0.872 0.75,1.5z" fill="#d6d6d6" fill-rule="evenodd" stroke-width="1"/><path d="M110.93093,134.06405v-139.63964h214.71471v139.63964z" fill="#fefffe" fill-rule="nonzero" stroke-width="0"/></g></g></svg>