<svg version="1.1" xmlns="http://www.w3.org/2000/svg" xmlns:xlink="http://www.w3.org/1999/xlink" width="666.15616" height="314.47044" viewBox="0,0,666.15616,314.47044"><g transform="translate(8.43844,-60.29331)"><g fill="#fefefe" fill-rule="evenodd" stroke="none" stroke-miterlimit="10"><path d="M-8.43844,61.79481c212.95312,0 453.20304,-1.5015 666.15616,-1.5015c0,98.82348 0,215.64696 0,314.47044c-212.95312,0 -453.20304,0 -666.15616,0c0,-98.82348 0,-214.14546 0,-312.96894zM432.79018,86.25114c-3.6949,0.49272 -7.35537,1.40779 -10.98039,2.7451c-6.1031,2.60973 -10.34552,7.01851 -12.72727,13.22637c-2.9098,9.41728 -0.99622,17.65247 5.73975,24.70587c-3.57711,2.24599 -6.48841,5.15729 -8.7344,8.7344c-4.96014,12.69283 -2.04884,23.09075 8.7344,31.19428c12.00107,6.17347 24.31208,6.83878 36.93403,1.99643c6.64613,-2.98567 11.22145,-7.8939 13.72548,-14.7237c3.03008,-11.46053 -0.21412,-20.61069 -9.73262,-27.45097c1.65554,-1.65005 3.07001,-3.47978 4.24242,-5.49019c4.66067,-10.84288 2.74759,-20.4091 -5.73975,-28.69874c-6.435,-4.44526 -13.58872,-6.5249 -21.46166,-6.23886zM593.00398,86.25112c-3.99786,0.58146 -7.99072,1.49648 -11.9786,2.7451c-9.25347,3.93192 -14.82851,10.83624 -16.72013,20.713c-1.11301,21.01496 8.86916,32.16155 29.94651,33.44027c8.42495,0.5635 15.41247,-2.26495 20.96256,-8.48484c0.25953,2.02189 0.08984,4.01832 -0.49911,5.9893c-1.22781,7.21362 -4.97112,12.62046 -11.22994,16.22103c-11.51943,4.00734 -20.50338,0.92984 -26.95186,-9.23351c-3.98788,1.49733 -7.81604,3.24421 -11.4795,5.24064c0.77361,2.96321 2.02139,5.7083 3.74331,8.23529c6.76292,7.66781 15.32762,11.32777 25.70409,10.98039c13.37112,0.43173 23.10374,-5.22467 29.19785,-16.96969c4.60677,-13.90117 5.44028,-28.04241 2.49554,-42.42422c-3.90802,-17.79941 -14.96826,-26.61701 -33.19071,-26.45275zM83.41424,87.74846c-0.08336,16.30507 0,32.60925 0.24955,48.91263c0.46517,12.66238 5.70581,22.7279 15.72192,30.19606c13.39657,6.78588 26.8725,6.95208 40.42779,0.49911c10.82017,-7.4457 16.39321,-17.84363 16.72013,-31.19428c0.24955,-16.13717 0.3329,-32.2748 0.24955,-48.41352c-4.82489,0 -9.64927,0 -14.47415,0c0.08336,15.97232 0,31.94394 -0.24955,47.91441c-0.38531,10.5247 -5.45975,17.59507 -15.22281,21.21211c-16.239,2.99415 -25.80541,-3.57712 -28.69874,-19.71479c-0.24955,-16.46958 -0.3329,-32.94031 -0.24955,-49.41174c-4.82489,0 -9.64927,0 -14.47415,0zM172.25554,169.60225c22.45989,0 44.91977,0 67.37965,0c0,-4.82489 0,-9.64927 0,-14.47415c-17.8017,0 -35.60291,0 -53.40461,0c0,-22.45989 0,-44.91977 0,-67.37965c-4.65818,0 -9.31686,0 -13.97504,0c0,27.28476 0,54.56904 0,81.8538zM247.1218,87.74845c10.18082,16.53092 20.74545,32.83535 31.69339,48.91263c0.24955,10.97889 0.3329,21.95928 0.24955,32.94116c4.65818,0 9.31686,0 13.97504,0c-0.08336,-10.81518 0,-21.62936 0.24955,-32.44205c10.66895,-16.43016 21.39978,-32.81744 32.1925,-49.16219c-5.32399,-0.33276 -10.64748,-0.33276 -15.97147,0c-7.79857,12.01944 -15.53475,24.08099 -23.20854,36.18537c-7.84049,-12.10438 -15.74288,-24.16624 -23.70765,-36.18537c-5.15479,-0.24945 -10.31208,-0.33265 -15.47236,-0.24955zM52.4695,87.74846c0.08336,15.97232 0,31.94394 -0.24955,47.91441c-0.19814,2.78103 -0.6139,5.52613 -1.24777,8.23529c-1.54674,5.53461 -4.87434,9.52748 -9.98217,11.9786c-12.33736,2.93226 -21.23816,-1.31016 -26.7023,-12.72727c-4.03954,1.81127 -8.11556,3.55815 -12.22816,5.24064c-0.27876,0.36185 -0.44513,0.77761 -0.49911,1.24777c4.82034,13.05518 14.13705,20.45846 27.95008,22.21033c22.88063,1.40848 35.27499,-9.32235 37.18358,-32.1925c0.24955,-17.30159 0.3329,-34.60404 0.24955,-51.90728c-4.82489,0 -9.64927,0 -14.47415,0zM535.10742,87.74846c-5.14581,5.6542 -11.13511,10.22937 -17.96791,13.72548c-0.74368,0.37209 -1.24278,0.95435 -1.49733,1.74688c1.38253,4.16411 3.04955,8.15698 4.99108,11.9786c3.62852,-1.96499 7.12228,-4.12783 10.48128,-6.48841c0.49911,20.29425 0.66382,40.59149 0.49911,60.89123c4.65668,0 9.31836,0 13.97504,0c0,-27.28476 0,-54.56903 0,-81.85379c-3.49376,0 -6.98752,0 -10.48128,0zM367.90606,94.98552c-4.00185,2.67528 -7.99472,5.33722 -11.9786,7.98574c1.32663,4.23339 2.99015,8.30946 4.99108,12.22816c3.74481,-1.78781 7.23857,-3.95039 10.48128,-6.48841c0.49911,20.29425 0.66531,40.59149 0.49911,60.89123c4.65818,0 9.31686,0 13.97504,0c0,-27.28476 0,-54.56903 0,-81.85379c-3.49376,0 -6.98752,0 -10.48128,0c-2.24449,2.6602 -4.74004,5.07254 -7.48663,7.23707zM481.7028,163.11383c-0.1123,4.28385 1.71743,7.36185 5.49019,9.23351c8.12399,1.93405 12.44777,-1.22681 12.97682,-9.48306c-0.25954,-6.3307 -3.58609,-9.5749 -9.98217,-9.73262c-5.60049,0.84948 -8.42894,4.17654 -8.48484,9.98217zM35.02096,201.74078c0.14844,0 557.29537,-0.00647 557.44052,-0.01914c2.5551,-0.22304 4.55948,-2.36788 4.55948,-4.98086c0,-2.62634 -2.02492,-4.77973 -4.5987,-4.98413c-0.13238,-0.01051 -557.26622,-0.01587 -557.4013,-0.01587c-2.76143,0 -5,2.23857 -5,5c0,2.76143 2.23857,5 5,5z"/><path d="M431.79195,99.72706c5.94488,-0.74856 11.18552,0.74876 15.72192,4.49198c3.96442,9.28342 0.88642,14.85696 -9.23351,16.72013c-6.04171,0.92435 -11.28235,-0.65633 -15.72192,-4.74153c-2.88634,-5.19946 -2.13768,-9.77464 2.24599,-13.72548c2.25447,-1.27497 4.58381,-2.19004 6.98752,-2.7451z"/><path d="M594.50132,99.72706c7.27201,-0.16176 13.01176,2.66649 17.21924,8.48484c3.2492,11.54737 -0.99323,18.61774 -12.72727,21.21211c-7.34688,1.10103 -13.58573,-0.97875 -18.71657,-6.23886c-5.04599,-9.515 -2.8,-16.75188 6.73796,-21.71122c2.5205,-0.78595 5.01604,-1.36821 7.48663,-1.74688z"/><path d="M431.29284,134.16554c5.56456,-0.43123 10.88855,0.48364 15.97147,2.7451c5.77818,4.11615 7.02595,9.35679 3.74331,15.72192c-4.26039,4.45904 -9.50103,6.45547 -15.72192,5.9893c-5.7642,0.28848 -10.83864,-1.37554 -15.22281,-4.99108c-4.14709,-6.07515 -3.39843,-11.48199 2.24599,-16.22103c2.89183,-1.54474 5.88649,-2.62581 8.98395,-3.24421z"/></g></g></svg>