<svg xmlns:xlink="http://www.w3.org/1999/xlink" style="shape-rendering:geometricPrecision; text-rendering:geometricPrecision; image-rendering:optimizeQuality; fill-rule:evenodd; clip-rule:evenodd" height="361px" width="414px" version="1.1" xmlns="http://www.w3.org/2000/svg">
<g><path d="M 31.5,-0.5 C 147.833,-0.5 264.167,-0.5 380.5,-0.5C 397.798,4.13139 408.798,15.1314 413.5,32.5C 413.5,37.5 413.5,42.5 413.5,47.5C 412.196,52.5663 410.363,57.5663 408,62.5C 348.892,161.724 290.058,261.057 231.5,360.5C 199.167,360.5 166.833,360.5 134.5,360.5C 189.615,267.777 244.615,174.943 299.5,82C 231.833,81.3333 164.167,81.3333 96.5,82C 87,82.1667 82.1667,87 82,96.5C 81.5,129.832 81.3333,163.165 81.5,196.5C 54.1667,196.5 26.8333,196.5 -0.5,196.5C -0.5,142.833 -0.5,89.1667 -0.5,35.5C 2.744,16.9216 13.4107,4.92164 31.5,-0.5 Z" fill="#9966ff" style="opacity:0.992"></path></g>
</svg>
