<svg xmlns:xlink="http://www.w3.org/1999/xlink" style="shape-rendering:geometricPrecision; text-rendering:geometricPrecision; image-rendering:optimizeQuality; fill-rule:evenodd; clip-rule:evenodd" height="371px" width="213px" version="1.1" xmlns="http://www.w3.org/2000/svg">
<g><path d="M 166.5,-0.5 C 169.5,-0.5 172.5,-0.5 175.5,-0.5C 194.856,3.18938 207.189,14.5227 212.5,33.5C 212.5,145.833 212.5,258.167 212.5,370.5C 184.833,370.5 157.167,370.5 129.5,370.5C 129.667,289.166 129.5,207.833 129,126.5C 102.642,147.025 76.1425,167.358 49.5,187.5C 33.0546,166.248 16.3879,145.248 -0.5,124.5C -0.5,123.5 -0.5,122.5 -0.5,121.5C 49.4981,83.4923 99.1648,44.9923 148.5,6C 154.294,2.9052 160.294,0.738531 166.5,-0.5 Z" fill="#9865ff" style="opacity:0.989"></path></g>
</svg>
