<svg version="1.1" xmlns="http://www.w3.org/2000/svg" xmlns:xlink="http://www.w3.org/1999/xlink" width="112.61261" height="180" viewBox="0,0,112.61261,180"><g transform="translate(-99.27928,157.40742)"><g stroke="none" stroke-miterlimit="10"><path d="M165.5,-113.5c-1.22395,0.48655 -2.5573,0.6532 -4,0.5c0,-3.83335 0,-7.66665 0,-11.5c-1.66665,0 -3.33335,0 -5,0c0.16345,4.7575 -0.0032,9.42415 -0.5,14c0,-4.83335 0,-9.66665 0,-14.5c2,0 4,0 6,0c0,3.83335 0,7.66665 0,11.5c1.16665,0 2.33335,0 3.5,0z" fill="#d8d8d8" fill-rule="evenodd" stroke-width="1"/><path d="M165.5,-124.5c1.5624,-0.4897 3.22905,-0.6564 5,-0.5c0,4.66665 0,9.33335 0,14c-0.49665,-4.4089 -0.6633,-8.9089 -0.5,-13.5c-1.5,0 -3,0 -4.5,0z" fill="#cccccc" fill-rule="evenodd" stroke-width="1"/><path d="M193.5,-76c3.269,0.8675 6.436,2.0345 9.5,3.5c-2.835,1.5815 -5.835,2.915 -9,4c-0.497,-2.478 -0.6635,-4.978 -0.5,-7.5z" fill="#f0f0f0" fill-rule="evenodd" stroke-width="1"/><path d="M159,-46.5c5,0.3335 10,0.6665 15,1c-5.33595,0.0835 -10.66925,0 -16,-0.25c0.2721,-0.3585 0.60545,-0.6085 1,-0.75z" fill="#bfbfbf" fill-rule="evenodd" stroke-width="1"/><path d="M153,-46.5c0,1.3335 0,2.6665 0,4c7,0 14,0 21,0c-7.07845,0.498 -14.24515,0.6645 -21.5,0.5c-0.155,-1.6065 0.01165,-3.1065 0.5,-4.5z" fill="#bebebe" fill-rule="evenodd" stroke-width="1"/><path d="M152.5,-27.5c6,0 12,0 18,0c0,2.8335 0,5.6665 0,8.5c-0.49405,-2.57 -0.6607,-5.237 -0.5,-8c-5.92265,0.164 -11.756,-0.0025 -17.5,-0.5z" fill="#c2c2c2" fill-rule="evenodd" stroke-width="1"/><path d="M99.27928,22.59258v-180h112.61261v180z" fill="#fefffe" fill-rule="nonzero" stroke-width="0"/></g></g></svg>