<svg xmlns:xlink="http://www.w3.org/1999/xlink" style="shape-rendering:geometricPrecision; text-rendering:geometricPrecision; image-rendering:optimizeQuality; fill-rule:evenodd; clip-rule:evenodd" height="359px" width="425px" version="1.1" xmlns="http://www.w3.org/2000/svg">
<g><path d="M 111.5,-0.5 C 178.167,-0.5 244.833,-0.5 311.5,-0.5C 356.591,2.78724 390.091,24.1206 412,63.5C 428.964,103.699 423.798,140.699 396.5,174.5C 403.307,182.142 409.14,190.475 414,199.5C 419.245,212.156 422.745,225.156 424.5,238.5C 424.5,244.167 424.5,249.833 424.5,255.5C 414.942,309.562 383.275,342.729 329.5,355C 320.056,356.5 310.723,357.667 301.5,358.5C 241.5,358.5 181.5,358.5 121.5,358.5C 77.0744,357.706 41.9078,339.372 16,303.5C 7.79877,289.387 2.29877,274.387 -0.5,258.5C -0.5,250.5 -0.5,242.5 -0.5,234.5C 3.42414,211.985 12.7575,191.985 27.5,174.5C -6.08305,131.149 -6.91639,87.1495 25,42.5C 47.8218,16.0057 76.6551,1.67235 111.5,-0.5 Z M 120.5,79.5 C 183.861,79.0256 247.195,79.5256 310.5,81C 328.973,84.7836 337.473,95.9503 336,114.5C 330.896,125.479 322.396,132.312 310.5,135C 244.833,135.667 179.167,135.667 113.5,135C 98.4465,131.947 89.4465,122.947 86.5,108C 88.322,95.8395 94.9887,87.5062 106.5,83C 111.224,81.5058 115.891,80.3391 120.5,79.5 Z M 113.5,218.5 C 179.168,218.333 244.834,218.5 310.5,219C 327.251,221.362 336.918,230.862 339.5,247.5C 336.894,262.276 328.227,271.443 313.5,275C 248.191,276.638 182.857,276.971 117.5,276C 98.9299,274.755 87.9299,265.088 84.5,247C 85.8514,234.308 92.518,225.641 104.5,221C 107.678,220.34 110.678,219.507 113.5,218.5 Z" fill="#9966ff" style="opacity:0.991"></path></g>
</svg>
