<svg xmlns:xlink="http://www.w3.org/1999/xlink" style="shape-rendering:geometricPrecision; text-rendering:geometricPrecision; image-rendering:optimizeQuality; fill-rule:evenodd; clip-rule:evenodd" height="359px" width="414px" version="1.1" xmlns="http://www.w3.org/2000/svg">
<g><path d="M 57.5,-0.5 C 172.167,-0.5 286.833,-0.5 401.5,-0.5C 401.5,26.8333 401.5,54.1667 401.5,81.5C 300.499,81.3333 199.499,81.5 98.5,82C 90.1404,82.027 85.6404,86.1936 85,94.5C 83.08,106.575 86.08,117.242 94,126.5C 99.3329,131.082 105.5,133.915 112.5,135C 173.5,135.333 234.5,135.667 295.5,136C 345.741,137.303 382.241,160.136 405,204.5C 408.791,214.356 411.625,224.356 413.5,234.5C 413.5,242.5 413.5,250.5 413.5,258.5C 405.643,302.874 380.643,333.374 338.5,350C 321.715,355.02 304.715,357.853 287.5,358.5C 195.167,358.5 102.833,358.5 10.5,358.5C 10.5,331.167 10.5,303.833 10.5,276.5C 105.501,276.667 200.501,276.5 295.5,276C 314.07,274.755 325.07,265.088 328.5,247C 325.775,230.61 316.108,221.277 299.5,219C 238.167,218.667 176.833,218.333 115.5,218C 64.8008,215.259 28.6341,191.092 7,145.5C 3.36509,135.298 0.865092,124.965 -0.5,114.5C -0.5,95.8333 -0.5,77.1667 -0.5,58.5C 3.32252,23.6769 22.6559,4.01019 57.5,-0.5 Z" fill="#9865ff" style="opacity:0.991"></path></g>
</svg>
