<svg xmlns:xlink="http://www.w3.org/1999/xlink" style="shape-rendering:geometricPrecision; text-rendering:geometricPrecision; image-rendering:optimizeQuality; fill-rule:evenodd; clip-rule:evenodd" height="701px" width="201px" version="1.1" xmlns="http://www.w3.org/2000/svg">
<g><path d="M -0.5,-0.5 C 47.1667,-0.5 94.8333,-0.5 142.5,-0.5C 173.69,6.35638 193.024,25.3564 200.5,56.5C 200.5,64.1667 200.5,71.8333 200.5,79.5C 197.814,92.5399 192.148,104.207 183.5,114.5C 191.611,125.054 197.278,136.721 200.5,149.5C 200.5,157.167 200.5,164.833 200.5,172.5C 192.537,205.294 171.87,224.461 138.5,230C 92.1256,230.823 45.7922,230.656 -0.5,229.5C -0.5,214.5 -0.5,199.5 -0.5,184.5C 44.8346,184.667 90.1679,184.5 135.5,184C 149.212,182.288 156.879,174.621 158.5,161C 156.466,146.636 148.133,138.636 133.5,137C 88.8346,136.5 44.1679,136.333 -0.5,136.5C -0.5,121.833 -0.5,107.167 -0.5,92.5C 45.4292,91.6718 91.4292,91.1718 137.5,91C 156.589,85.6566 162.422,73.8233 155,55.5C 150.55,50.39 145.05,46.89 138.5,45C 91.9884,43.5249 45.6551,43.0249 -0.5,43.5C -0.5,28.8333 -0.5,14.1667 -0.5,-0.5 Z" fill="#9965ff" style="opacity:0.974"></path></g>
<g><path d="M -0.5,470.5 C -0.5,402.5 -0.5,334.5 -0.5,266.5C 14.3632,265.189 29.1965,265.189 44,266.5C 44.5,292.831 44.6666,319.165 44.5,345.5C 78.8333,345.5 113.167,345.5 147.5,345.5C 147.333,319.165 147.5,292.831 148,266.5C 162.47,265.173 176.97,265.173 191.5,266.5C 192.831,334.734 192.831,402.901 191.5,471C 176.925,471.823 162.425,471.656 148,470.5C 147.5,444.169 147.333,417.835 147.5,391.5C 113.167,391.5 78.8333,391.5 44.5,391.5C 44.6666,417.835 44.5,444.169 44,470.5C 29.1667,471.826 14.3334,471.826 -0.5,470.5 Z" fill="#9965ff" style="opacity:0.982"></path></g>
<g><path d="M 200.5,590.5 C 200.5,603.5 200.5,616.5 200.5,629.5C 196.744,651.26 188.577,671.26 176,689.5C 172.296,693.036 168.796,696.702 165.5,700.5C 110.167,700.5 54.8333,700.5 -0.5,700.5C -0.5,689.833 -0.5,679.167 -0.5,668.5C 43.5391,668.974 87.5391,668.474 131.5,667C 140.985,661.563 147.818,653.73 152,643.5C 160.936,619.699 160.603,596.032 151,572.5C 146.885,564.421 141.052,557.921 133.5,553C 130.899,552.08 128.232,551.413 125.5,551C 83.5013,550.5 41.5013,550.333 -0.5,550.5C -0.5,535.833 -0.5,521.167 -0.5,506.5C 45.7625,505.339 92.0958,505.172 138.5,506C 149.137,507.654 158.471,511.987 166.5,519C 177.417,529.606 185.584,542.106 191,556.5C 194.816,567.779 197.983,579.113 200.5,590.5 Z" fill="#9965ff" style="opacity:0.973"></path></g>
</svg>
