<svg xmlns:xlink="http://www.w3.org/1999/xlink" style="shape-rendering:geometricPrecision; text-rendering:geometricPrecision; image-rendering:optimizeQuality; fill-rule:evenodd; clip-rule:evenodd" height="359px" width="424px" version="1.1" xmlns="http://www.w3.org/2000/svg">
<g><path d="M 115.5,-0.5 C 208.167,-0.5 300.833,-0.5 393.5,-0.5C 393.5,26.8333 393.5,54.1667 393.5,81.5C 306.812,81.024 220.145,81.524 133.5,83C 118.173,86.9185 106.007,95.4185 97,108.5C 74.7581,144.276 70.0915,182.276 83,222.5C 89.6338,241.116 100.8,256.282 116.5,268C 124.586,272.522 133.252,275.189 142.5,276C 196.833,276.667 251.167,276.667 305.5,276C 324.185,275.644 335.185,266.311 338.5,248C 336.194,231.027 326.527,221.36 309.5,219C 244.501,218.5 179.501,218.333 114.5,218.5C 114.5,190.833 114.5,163.167 114.5,135.5C 177.834,135.333 241.168,135.5 304.5,136C 355.331,137.312 392.165,160.479 415,205.5C 418.791,215.356 421.625,225.356 423.5,235.5C 423.5,243.5 423.5,251.5 423.5,259.5C 415.076,305.438 388.743,336.271 344.5,352C 328.962,356.197 313.295,358.363 297.5,358.5C 237.5,358.5 177.5,358.5 117.5,358.5C 81.842,353.7 54.342,336.033 35,305.5C 17.9387,279.687 7.27202,251.354 3,220.5C 1.49965,209.046 0.332985,197.713 -0.5,186.5C -0.5,181.833 -0.5,177.167 -0.5,172.5C 0.657722,139.594 7.82439,107.927 21,77.5C 31.1991,56.6062 44.6991,38.1062 61.5,22C 77.5662,9.70456 95.5662,2.20456 115.5,-0.5 Z" fill="#9865ff" style="opacity:0.99"></path></g>
</svg>
