<svg version="1.1" xmlns="http://www.w3.org/2000/svg" xmlns:xlink="http://www.w3.org/1999/xlink" width="51.94595" height="202.21373" viewBox="0,0,51.94595,202.21373"><g transform="translate(-374.05405,-216.28627)"><g stroke="none" stroke-miterlimit="10"><path d="M383.5,268.5c0,5.3335 0,10.6665 0,16c1,0 2,0 3,0c-1.0535,0.484 -2.2205,0.651 -3.5,0.5c-0.164,-5.5895 0.0025,-11.0895 0.5,-16.5z" fill="#b4b4b4" fill-rule="evenodd" stroke-width="1"/><path d="M397,310.5c0.3945,0.1415 0.728,0.3915 1,0.75c-4.8305,0.25 -9.664,0.333 -14.5,0.25c0,1 0,2 0,3c6.3335,0 12.6665,0 19,0c-6.4115,0.4975 -12.9115,0.6645 -19.5,0.5c0,-1.3335 0,-2.6665 0,-4c4.7575,0.1635 9.424,-0.003 14,-0.5z" fill="#d5d5d5" fill-rule="evenodd" stroke-width="1"/><path d="M387,322.5c1.995,-0.442 3.4115,0.2245 4.25,2c0.988,3.1665 0.0715,5.5 -2.75,7c-2.8215,-1.5 -3.738,-3.8335 -2.75,-7c0.331,-0.742 0.748,-1.4085 1.25,-2z" fill="#f7f7f7" fill-rule="evenodd" stroke-width="1"/><path d="M396,323c3.048,0.2485 4.298,1.9155 3.75,5c-0.374,2.207 -1.624,2.957 -3.75,2.25c-0.5835,-0.25 -1,-0.6665 -1.25,-1.25c-0.3335,-1.5 -0.3335,-3 0,-4.5c0.349,-0.5955 0.7655,-1.0955 1.25,-1.5z" fill="#f2f2f2" fill-rule="evenodd" stroke-width="1"/><path d="M397.5,349.5c0.2715,0.03 0.438,0.1965 0.5,0.5c-4.822,0.499 -9.655,0.666 -14.5,0.5c0,1 0,2 0,3c-0.484,-1.0535 -0.651,-2.2205 -0.5,-3.5c4.924,0.1635 9.757,-0.003 14.5,-0.5z" fill="#bcbcbc" fill-rule="evenodd" stroke-width="1"/><path d="M395.5,361c2.7685,0.355 4.2685,1.935 4.5,4.75c-0.327,3.5 -2.1605,4.835 -5.5,4c-0.9165,-0.25 -1.5,-0.835 -1.75,-1.75c-0.9925,-3.23 -0.076,-5.565 2.75,-7z" fill="#f6f6f6" fill-rule="evenodd" stroke-width="1"/><path d="M422,405c1.224,-0.485 2.5575,-0.655 4,-0.5c0,4.665 0,9.335 0,14c-0.4965,-4.41 -0.6635,-8.91 -0.5,-13.5c-1.1665,0 -2.3335,0 -3.5,0z" fill="#c2c2c2" fill-rule="evenodd" stroke-width="1"/><path d="M374.05405,384.45444v-168.16817h37.53754v168.16817z" fill="#fefffe" fill-rule="nonzero" stroke-width="0"/></g></g></svg>