<svg xmlns:xlink="http://www.w3.org/1999/xlink" style="shape-rendering:geometricPrecision; text-rendering:geometricPrecision; image-rendering:optimizeQuality; fill-rule:evenodd; clip-rule:evenodd" height="359px" width="424px" version="1.1" xmlns="http://www.w3.org/2000/svg">
<g><path d="M 116.5,-0.5 C 180.167,-0.5 243.833,-0.5 307.5,-0.5C 333.995,2.83202 356.162,14.4987 374,34.5C 399.323,64.1639 414.656,98.4973 420,137.5C 421.573,148.946 422.74,160.28 423.5,171.5C 423.5,175.833 423.5,180.167 423.5,184.5C 422.425,227.126 410.925,266.793 389,303.5C 378.581,318.587 366.081,331.754 351.5,343C 337.111,351.296 321.777,356.463 305.5,358.5C 213.5,358.5 121.5,358.5 29.5,358.5C 29.5,331.167 29.5,303.833 29.5,276.5C 115.527,276.981 201.527,276.481 287.5,275C 303.216,271.727 315.716,263.561 325,250.5C 345.516,219.251 351.849,185.251 344,148.5C 338.55,123.738 325.717,103.905 305.5,89C 297.648,84.9535 289.314,82.6202 280.5,82C 223.833,81.3333 167.167,81.3333 110.5,82C 91.5001,86.5312 83.3335,98.3645 86,117.5C 90.3477,127.85 97.8477,134.683 108.5,138C 175.135,139.479 241.802,139.979 308.5,139.5C 308.5,166.833 308.5,194.167 308.5,221.5C 241.833,221.667 175.166,221.5 108.5,221C 60.0631,216.208 25.8964,191.708 6,147.5C 3.33329,139.162 1.16662,130.828 -0.5,122.5C -0.5,114.167 -0.5,105.833 -0.5,97.5C 7.81861,53.6674 32.8186,23.5007 74.5,7C 88.3568,2.85887 102.357,0.35887 116.5,-0.5 Z" fill="#9865ff" style="opacity:0.991"></path></g>
</svg>
