<svg version="1.1" xmlns="http://www.w3.org/2000/svg" xmlns:xlink="http://www.w3.org/1999/xlink" width="661.36036" height="360.2027" viewBox="0,0,661.36036,360.2027"><g transform="translate(6.18018,0.10135)"><g fill-rule="evenodd" stroke="none" stroke-miterlimit="10"><path d="M-6.18018,-0.10135c213.45362,0 447.90674,0 661.36036,0c0,120.06757 0,240.13514 0,360.2027c-213.45362,0 -447.90674,0 -661.36036,0c0,-120.06757 0,-240.13514 0,-360.2027zM38.84178,14.90709c0.23668,0.70355 0.73696,1.03708 1.50084,1.00056c0.64786,0.49448 1.31489,0.99476 2.00113,1.50084c0.30507,0.44575 0.47182,0.94603 0.50028,1.50084c-0.50028,0.16674 -0.83382,0.50028 -1.00056,1.00056c-0.70355,0.23668 -1.03708,0.73696 -1.00056,1.50084c-1.18987,1.12899 -2.52397,1.29573 -4.00225,0.50028c-0.56802,-0.85708 -1.40179,-1.19062 -2.50141,-1.00056c-2.65139,-0.6224 -4.81931,0.21137 -6.50366,2.50141c-1.02007,0.7059 -1.52036,1.70646 -1.50084,3.00169c-1.4199,3.56816 -1.25316,7.07013 0.50028,10.50591c-0.03652,0.76388 0.29702,1.26416 1.00056,1.50084c1.68435,2.29004 3.85227,3.12381 6.50366,2.50141c1.09962,0.19006 1.93339,-0.14348 2.50141,-1.00056c0.82852,-0.32343 1.66234,-0.65692 2.50141,-1.00056c0.54216,0.09255 1.04244,0.2593 1.50084,0.50028c0.11887,0.95274 0.61915,1.61976 1.50084,2.00113c0,0.33354 0.16674,0.50028 0.50028,0.50028c0.1753,1.47753 -0.32498,2.64484 -1.50084,3.50197c-5.56588,3.13411 -11.23572,3.30086 -17.00957,0.50028c-0.23668,-0.70355 -0.73696,-1.03708 -1.50084,-1.00056c-5.57314,-6.69232 -6.90724,-14.19654 -4.00225,-22.51267c0.70355,-0.23668 1.03708,-0.73696 1.00056,-1.50084c0.49448,-0.64786 0.99476,-1.31489 1.50084,-2.00113c0.83382,-0.50028 1.50084,-1.16731 2.00113,-2.00113c0.33354,0 0.50028,-0.16674 0.50028,-0.50028c1.1599,-0.24639 2.16047,-0.74667 3.00169,-1.50084c4.00265,-1.334 8.0049,-1.334 12.00676,0zM112.38316,14.90709c0.60534,-0.21617 1.10562,-0.54966 1.50084,-1.00056c1.84204,-0.0827 3.67607,0.0007 5.5031,0.25014c0.73691,0.355 1.0706,0.93863 1.00056,1.75099c-0.47927,0.22653 -0.8965,0.56007 -1.2507,1.00056c-0.25014,10.17102 -0.33369,20.3434 -0.25014,30.51717c-2.46639,0.15134 -4.88425,-0.01541 -7.25408,-0.50028c-0.08555,-3.75786 -0.33569,-7.42658 -0.75042,-11.00619c0.07004,-0.81236 -0.26365,-1.39599 -1.00056,-1.75099c-2.8351,-0.33354 -5.66969,-0.33354 -8.50479,0c-0.40423,0.15389 -0.73792,0.40403 -1.00056,0.75042c-0.39272,3.98059 -0.39272,7.98284 0,12.00676c-2.57145,0.49433 -5.23995,0.66107 -8.0045,0.50028c-0.08355,-6.33912 0,-12.67598 0.25014,-19.0107c0.51979,-0.37211 0.76993,-0.87239 0.75042,-1.50084c0.33369,-4.09045 0.66688,-8.25945 1.00056,-12.50704c2.16772,-0.66703 4.33594,-0.66703 6.50366,0c0.58233,3.32277 0.66587,6.658 0.25014,10.00563c-1.55738,0.77919 -1.64092,1.6964 -0.25014,2.75155c3.1943,0.39657 6.36258,0.31318 9.50535,-0.25014c0.40873,-4.11041 1.07561,-8.11267 2.00113,-12.00676zM401.54589,20.41019c-1.44631,0.4515 -2.94716,0.6183 -4.50253,0.50028c-2.07417,-0.57382 -4.24239,-0.65717 -6.50366,-0.25014c-0.8895,1.0683 -1.22319,2.31901 -1.00056,3.75211c-1.0741,0.71645 -1.2407,1.63367 -0.50028,2.75155c3.63805,-0.03802 7.14002,0.37886 10.50591,1.2507c-0.12557,1.6061 -0.12557,3.10695 0,4.50253c-3.36589,0.87184 -6.86786,1.28873 -10.50591,1.2507c-0.56482,2.0404 -0.64836,4.12492 -0.25014,6.25352c4.46851,0.32718 8.8875,0.66072 13.25746,1.00056c-0.49828,-0.04292 -0.91501,0.12387 -1.2507,0.50028c-0.24964,1.99422 -0.33319,3.99535 -0.25014,6.00338c-6.72729,0.20552 -13.39754,-0.12802 -20.01126,-1.00056c-0.08355,-6.17237 0,-12.34255 0.25014,-18.51042c0.3587,-0.27225 0.60884,-0.60579 0.75042,-1.00056c0.32668,-4.41949 0.66037,-8.83862 1.00056,-13.25746c6.50366,-0.33354 13.00732,-0.33354 19.51098,0c0.73091,2.17247 0.56432,4.257 -0.50028,6.25352zM520.61289,35.91892c0.33519,2.00113 0.66537,2.00113 1.00056,0c1.05559,-3.72805 1.89106,-7.56356 2.50141,-11.50648c0.45025,-0.39547 0.78544,-0.89575 1.00056,-1.50084c0.48027,-0.22653 0.8955,-0.56007 1.2507,-1.00056c0.52029,-2.5837 1.27072,-5.08511 2.25127,-7.50422c1.80602,-0.54691 3.63705,-0.6303 5.5031,-0.25014c0.81046,0.54606 1.31074,1.29648 1.50084,2.25127c0.12507,1.17981 -0.21012,2.18038 -1.00056,3.00169c-0.27015,0.03002 -0.44025,0.19676 -0.50028,0.50028c1.58589,5.84314 2.92164,11.67972 4.00225,17.50985c-0.13007,0.73932 0.03502,1.40639 0.50028,2.00113c0.49028,-1.29398 0.65537,-2.62803 0.50028,-4.00225c1.0656,-6.11909 1.89607,-12.28927 2.50141,-18.51042c0.45025,-0.39547 0.78544,-0.89575 1.00056,-1.50084c0.82046,-0.15519 1.32074,-0.65547 1.50084,-1.50084c1.54087,0.80115 3.21181,1.13469 5.00282,1.00056c-0.67038,6.19233 -1.50585,12.36246 -2.50141,18.51042c-0.32018,0.29857 -0.48527,0.7155 -0.50028,1.2507c0.64036,1.18051 0.97555,2.43122 1.00056,3.75211c-0.7154,2.61217 -1.21568,5.28037 -1.50084,8.0045c-3.50197,0.66703 -7.00394,0.66703 -10.50591,0c-0.09005,-1.35901 -0.34019,-2.69312 -0.75042,-4.00225c-0.50528,-0.41854 -1.09061,-0.58533 -1.75099,-0.50028c-0.7104,-4.04268 -1.54087,-8.04493 -2.50141,-12.00676c-0.28516,-2.15406 -0.61535,-2.32081 -1.00056,-0.50028c-1.14064,4.04698 -1.97611,8.21602 -2.50141,12.50704c-0.21512,1.67629 -0.21512,3.34393 0,5.00282c-2.97668,-0.13122 -5.89332,0.20231 -8.75493,1.00056c-1.01557,0.07324 -1.85104,-0.2603 -2.50141,-1.00056c-1.14064,-6.00013 -2.22125,-12.0035 -3.25183,-18.01014c1.4258,-0.7102 1.76099,-1.71076 1.00056,-3.00169c-0.28016,-3.36324 -0.78044,-6.69847 -1.50084,-10.00563c0.16509,-0.50028 0.33519,-1.00056 0.50028,-1.50084c2.1412,-0.55306 4.30742,-0.63646 6.50366,-0.25014c0.25014,0.25014 0.50028,0.50028 0.75042,0.75042c0.39522,2.92199 0.81546,5.84029 1.2507,8.75493c-0.50028,1.16731 -1.00056,2.33466 -1.50084,3.50197c0.36521,3.01164 0.86549,5.92994 1.50084,8.75493zM179.92117,45.92455c0.05553,0.30887 0.22212,0.55901 0.50028,0.75042c-0.61885,0.11612 -1.11913,0.36626 -1.50084,0.75042c-2.30079,0.15008 -4.55206,-0.01666 -6.7538,-0.50028c-0.32668,-10.67166 -0.57682,-21.34436 -0.75042,-32.01802c2.50141,0 5.00282,0 7.50422,0c0.84047,10.25962 1.17366,20.59874 1.00056,31.01745zM250.46087,15.90766c0.50729,0.58718 1.17416,0.92072 2.00113,1.00056c0.16659,0.50028 0.50028,0.83382 1.00056,1.00056c0.39522,0.4509 0.8955,0.78439 1.50084,1.00056c0.43024,1.96801 0.59684,3.96913 0.50028,6.00338c-0.7159,0.64056 -1.04959,1.47438 -1.00056,2.50141c-1.45232,1.52961 -1.28572,2.86371 0.50028,4.00225c0.54231,1.25275 1.20918,2.42006 2.00113,3.50197c0.08255,1.51005 -0.001,3.01089 -0.25014,4.50253c-1.14364,1.12088 -1.89407,2.45498 -2.25127,4.00225c-1.00056,0.66703 -1.83453,1.50084 -2.50141,2.50141c-1.25971,0.38212 -2.42687,0.8824 -3.50197,1.50084c-0.79995,-0.13398 -1.46683,0.03277 -2.00113,0.50028c-4.67463,-0.04938 -9.34376,-0.21612 -14.00788,-0.50028c-0.69839,-10.63794 -1.11563,-21.31064 -1.2507,-32.01802c6.43762,-0.77599 12.85824,-0.60919 19.26084,0.50028zM461.07939,24.41244c0.15709,7.48466 0.65737,14.82214 1.50084,22.01239c-0.66688,0.33354 -1.33425,0.66703 -2.00113,1.00056c-2.4849,0.26915 -4.81971,-0.06439 -7.00394,-1.00056c-0.08355,-10.50751 -0.25014,-21.01343 -0.50028,-31.51774c2.50141,0 5.00282,0 7.50422,0c-0.16159,3.26289 0.005,6.43132 0.50028,9.50535zM323.50197,16.90822c2.71553,9.81067 5.71722,19.48276 9.00507,29.01633c0.08505,0.66142 -0.08155,1.24505 -0.50028,1.75099c-2.33481,0.33354 -4.66913,0.33354 -7.00394,0c-0.28316,-0.49763 -0.61685,-0.91451 -1.00056,-1.2507c-0.13408,-1.62071 -0.46726,-3.20495 -1.00056,-4.75267c-0.16809,-0.51524 -0.50178,-0.76538 -1.00056,-0.75042c-2.74404,-0.57617 -5.57864,-0.65957 -8.50479,-0.25014c-0.27816,0.19141 -0.44475,0.44155 -0.50028,0.75042c-0.80145,1.8707 -1.30173,3.87183 -1.50084,6.00338c-2.668,0.66703 -5.3365,0.66703 -8.0045,0c3.00169,-10.17237 6.00338,-20.3448 9.00507,-30.51717c0.38372,-0.33619 0.7174,-0.75307 1.00056,-1.2507c3.00169,-0.33354 6.00338,-0.33354 9.00507,0c0.28316,0.49763 0.61685,0.91451 1.00056,1.2507zM605.66075,15.40738c3.29686,-0.15559 6.54869,0.01116 9.75549,0.50028c3.547,10.56169 6.63373,21.23435 9.25521,32.01802c-2.52142,0.16384 -5.02283,-0.00295 -7.50422,-0.50028c-0.58033,-1.49154 -1.08061,-2.99238 -1.50084,-4.50253c0.13508,-0.94038 -0.20011,-1.6074 -1.00056,-2.00113c-2.74154,-0.57617 -5.57814,-0.65957 -8.50479,-0.25014c-1.31574,1.67209 -1.98111,3.58982 -2.00113,5.75324c-0.38522,0.33619 -0.7154,0.75307 -1.00056,1.2507c-2.32631,0.24974 -4.66262,0.33309 -7.00394,0.25014c-0.08005,-1.01422 0,-2.01478 0.25014,-3.00169c2.90664,-8.96845 5.65818,-17.97351 8.25465,-27.0152c0.52029,-0.71555 0.85048,-1.54937 1.00056,-2.50141zM278.47663,75.94144c8.3552,0.29717 16.69289,0.881 25.01408,1.75099c2.11069,0.08655 4.11181,0.58683 6.00338,1.50084c0.895,1.9586 0.22813,3.12576 -2.00113,3.50197c-3.18229,2.37284 -4.51654,5.54162 -4.00225,9.50535c-0.66487,5.01682 1.33625,8.3522 6.00338,10.00563c7.67082,0.33369 15.34213,0.33369 23.01295,0c2.95666,-0.78994 4.70765,-2.70752 5.25296,-5.75324c0.03302,-5.70571 0.36671,-11.3754 1.00056,-17.00957c1.72147,-2.94116 4.30642,-4.10881 7.75436,-3.50197c7.17254,0.55581 14.34357,1.13964 21.51211,1.75099c2.1352,0.01551 4.13633,0.51579 6.00338,1.50084c0.5273,0.69439 0.61034,1.44481 0.25014,2.25127c-4.72816,2.03364 -6.81233,5.61916 -6.25352,10.75605c0.20712,8.5343 4.54256,11.86968 13.00732,10.00563c0.87349,-0.23563 1.70746,-0.56932 2.50141,-1.00056c3.10925,-3.60903 6.02789,-7.36114 8.75493,-11.25633c1.0671,-1.17716 2.40135,-1.67744 4.00225,-1.50084c5.03934,0.56782 9.62492,2.3188 13.75774,5.25296c3.75211,3.41842 7.50422,6.83735 11.25633,10.25577c0.56182,1.82653 -0.02201,3.07723 -1.75099,3.75211c-15.17504,0.16659 -30.35058,0.33369 -45.52562,0.50028c-2.34382,0.67538 -4.0948,2.09268 -5.25296,4.25239c-0.50428,4.10031 -0.92102,8.18611 -1.2507,12.2569c-9.39929,4.33344 -19.15478,5.75074 -29.26647,4.25239c-0.16659,-5.00282 -0.33369,-10.00563 -0.50028,-15.00845c-0.64486,-3.47946 -2.72904,-5.39754 -6.25352,-5.75324c-7.33763,-0.33369 -14.67476,-0.33369 -22.01239,0c-2.59196,0.41573 -4.34294,1.83303 -5.25296,4.25239c-0.60534,4.30542 -0.93903,8.64136 -1.00056,13.00732c-4.18235,2.673 -8.76793,4.2569 -13.75774,4.75267c-4.81771,0.7059 -9.65393,0.87249 -14.50816,0.50028c-0.25014,-0.25014 -0.50028,-0.50028 -0.75042,-0.75042c-0.16659,-5.3365 -0.33369,-10.67251 -0.50028,-16.00901c-0.31268,-2.64699 -1.73047,-4.39797 -4.25239,-5.25296c-15.14452,-0.65537 -30.32006,-0.98906 -45.52562,-1.00056c-1.35926,-0.62985 -2.02614,-1.71396 -2.00113,-3.25183c0.10456,-0.74742 0.43825,-1.33125 1.00056,-1.75099c15.17504,-0.16659 30.35058,-0.33369 45.52562,-0.50028c2.97067,-0.80295 4.72166,-2.72053 5.25296,-5.75324c0.16659,-5.16941 0.33369,-10.33932 0.50028,-15.50873c0.63086,-2.37884 2.04865,-4.04628 4.25239,-5.00282zM528.11712,126.97016c-0.69039,0.40123 -0.61034,0.73491 0.25014,1.00056c0.38021,-0.03502 0.63035,-0.20161 0.75042,-0.50028c0.51529,0.19861 0.59534,0.5318 0.25014,1.00056c-2.6665,4.00225 -5.338,8.0045 -8.0045,12.00676c-5.338,6.33707 -10.67101,12.67363 -16.00901,19.0107c-2.53643,4.84523 -1.12063,7.76387 4.25239,8.75493c10.51592,0.96604 21.02183,0.96604 31.51774,0c1.53086,-0.5308 2.78157,-1.44781 3.75211,-2.75155c2.65649,-3.7396 5.40804,-7.40817 8.25465,-11.00619c3.21181,-2.04715 6.38359,-1.96361 9.50535,0.25014c5.90332,5.06835 11.65656,10.32131 17.25971,15.75887c0.55031,2.54093 -0.5353,3.79163 -3.25183,3.75211c-27.0152,0.33369 -54.03041,0.33369 -81.04561,0c-1.75749,-1.44882 -3.34138,-3.03271 -4.75267,-4.75267c-16.64737,10.61297 -34.57396,18.45088 -53.78026,23.51323c-1.44882,-0.26215 -1.7825,-1.01257 -1.00056,-2.25127c17.4178,-8.32869 32.09256,-20.0853 44.02477,-35.26985c1.27322,-0.46926 1.52336,-1.13614 0.75042,-2.00113c-0.52279,0.43675 -0.93953,0.93703 -1.2507,1.50084c-4.65612,3.08574 -9.49234,3.50247 -14.50816,1.2507c-1.36877,-0.21112 -2.70252,-0.21112 -4.00225,0c-0.25014,-0.25014 -0.50028,-0.50028 -0.75042,-0.75042c-0.09455,-5.05234 -1.4288,-9.72147 -4.00225,-14.00788c-2.46989,-2.11219 -5.22144,-2.52942 -8.25465,-1.2507c-3.92471,2.46289 -8.09355,4.38047 -12.50704,5.75324c-0.8935,-0.09806 -1.56038,-0.51479 -2.00113,-1.2507c12.4375,-13.10387 22.19299,-28.02877 29.26647,-44.7752c2.86461,-6.9259 5.53261,-13.92984 8.0045,-21.01182c2.8466,-2.59696 6.09843,-3.18079 9.75549,-1.75099c7.33763,2.668 14.67476,5.3365 22.01239,8.0045c1.84104,0.66037 2.59146,1.91108 2.25127,3.75211c-5.10587,1.22219 -8.77444,4.22388 -11.00619,9.00507c-0.37171,0.97105 -0.28816,1.88806 0.25014,2.75155c3.00169,1.00056 6.00338,1.00056 9.00507,0c3.83716,-3.50197 7.66932,-7.00394 11.50648,-10.50591c2.6665,-1.66744 5.338,-1.66744 8.0045,0c3.89219,3.85917 8.05954,7.36114 12.50704,10.50591c3.26184,2.24877 5.09787,1.4148 5.5031,-2.50141c-1.33575,-6.17197 -2.6665,-12.34195 -4.00225,-18.51042c-0.28016,-1.72147 0.38522,-2.38834 2.00113,-2.00113c4.32744,13.41805 11.16628,25.34126 20.51154,35.77013c1.30573,0.36521 2.64149,0.61535 4.00225,0.75042c2.68151,2.8511 5.51811,5.51961 8.50479,8.0045c2.89163,2.64099 6.06341,3.14127 9.50535,1.50084c2.39135,-3.65806 4.30742,-7.57676 5.75324,-11.75662c1.27572,-3.24683 2.19624,-6.5822 2.75155,-10.00563c-1.03058,0.09355 -2.03114,0.34369 -3.00169,0.75042c-9.17016,0.33369 -18.34532,0.33369 -27.51548,0c-1.49584,-1.0711 -2.08117,-2.4889 -1.75099,-4.25239c0.37521,-0.31318 0.79044,-0.56332 1.2507,-0.75042c9.00507,-0.16659 18.01014,-0.33369 27.0152,-0.50028c0.66537,-0.33369 1.33575,-0.66688 2.00113,-1.00056c3.35189,-3.51798 6.85386,-6.85286 10.50591,-10.00563c2.4864,-1.61691 4.98781,-1.61691 7.50422,0c1.93609,2.10218 4.01726,4.01976 6.25352,5.75324c1.27072,-0.64887 2.52142,-0.56582 3.75211,0.25014c3.60203,3.76762 7.35414,7.35314 11.25633,10.75605c1.10562,1.32124 1.35576,2.73904 0.75042,4.25239c-2.57145,0.63436 -5.07285,1.46783 -7.50422,2.50141c-7.41918,6.25102 -15.25358,11.92071 -23.51323,17.00957c-4.6126,3.96123 -4.6126,7.79689 0,11.50648c12.54706,6.18398 25.55438,11.1868 39.02196,15.00845c0.68038,0.96955 0.51529,1.80301 -0.50028,2.50141c-10.96617,2.79357 -18.72053,9.38078 -23.26309,19.76112c-2.3013,2.97167 -5.22294,3.88869 -8.75493,2.75155c-23.96849,-13.79276 -41.39329,-33.38729 -52.27942,-58.78308c-0.34519,-0.42874 -0.76043,-0.76193 -1.2507,-1.00056c-0.61034,0.60584 -1.19567,0.60584 -1.75099,0c-1.10062,-2.94766 -2.51642,-5.69921 -4.25239,-8.25465c-3.71709,-0.01701 -6.80383,1.40029 -9.25521,4.25239c-2.09618,4.19536 -4.18235,8.36471 -6.25352,12.50704zM24.33361,162.99043c0.45225,-0.3547 0.619,-0.85498 0.50028,-1.50084c-0.79995,-0.13408 -1.46703,0.03302 -2.00113,0.50028c-0.86974,0.46726 -1.70356,0.46726 -2.50141,0c5.46272,-7.92246 9.88191,-16.42724 13.25746,-25.51436c0.90301,-4.10131 -0.68118,-6.68626 -4.75267,-7.75436c-7.33748,-0.16659 -14.67491,-0.33369 -22.01239,-0.50028c-2.60664,-0.60584 -3.52382,-2.18973 -2.75155,-4.75267c12.07169,-0.27816 24.1618,-0.69489 36.27041,-1.2507c2.41921,-0.91001 3.83666,-2.661 4.25239,-5.25296c0.94778,-3.82015 0.03062,-7.07198 -2.75155,-9.75549c-1.00056,-0.33369 -2.00113,-0.66688 -3.00169,-1.00056c-8.92272,0.04052 -17.84444,0.29066 -26.76506,0.75042c-2.90624,-0.3607 -5.82458,-0.61084 -8.75493,-0.75042c-0.62396,-0.74742 -0.62396,-1.49784 0,-2.25127c25.83729,-6.25002 50.85112,-14.83785 75.04223,-25.7645c2.75205,-1.10762 5.42005,-0.94053 8.0045,0.50028c6.95241,6.61772 13.53962,13.53812 19.76112,20.76168c0.92452,2.99519 -0.15959,4.16234 -3.25183,3.50197c-3.26334,-0.46226 -6.51517,-0.96254 -9.75549,-1.50084c-5.13989,0.42474 -10.22575,1.17516 -15.25859,2.25127c-1.99612,0.99556 -3.24683,2.57995 -3.75211,4.75267c-0.33369,4.16885 -0.33369,8.33819 0,12.50704c2.18623,2.34282 4.60409,2.59296 7.25408,0.75042c3.52548,-4.02476 6.86036,-8.19361 10.00563,-12.50704c3.15327,-2.29629 6.32206,-2.29629 9.50535,0c4.65112,3.81665 9.15365,7.8189 13.5076,12.00676c1.12513,0.43174 2.04215,0.1816 2.75155,-0.75042c0.16659,-10.50591 0.33369,-21.01182 0.50028,-31.51774c1.15565,-3.25133 3.49046,-4.91927 7.00394,-5.00282c8.25264,0.76393 16.50729,1.51435 24.76394,2.25127c2.05466,0.21412 2.97167,1.29823 2.75155,3.25183c-2.25427,1.20968 -4.0888,2.87712 -5.5031,5.00282c-0.33369,4.00225 -0.33369,8.0045 0,12.00676c0.56332,0.72241 1.31374,1.05559 2.25127,1.00056c1.49184,-0.41623 2.99268,-0.49978 4.50253,-0.25014c0.31318,0.37521 0.56332,0.79245 0.75042,1.2507c0.33369,13.5076 0.33369,27.0152 0,40.5228c-8.74892,5.01882 -18.17073,7.103 -28.26591,6.25352c-0.41373,-9.88556 -0.66387,-19.80815 -0.75042,-29.76675c-0.25014,-0.25014 -0.50028,-0.50028 -0.75042,-0.75042c-5.48809,0.10656 -10.99119,0.27315 -16.50929,0.50028c-2.44488,1.13914 -4.94628,2.1397 -7.50422,3.00169c-8.1711,0.16659 -16.3427,0.33369 -24.5138,0.50028c-1.50885,0.76493 -2.17572,2.01563 -2.00113,3.75211c0.42574,3.08574 2.26027,4.58658 5.5031,4.50253c2.81158,-0.48827 5.48008,-1.40529 8.0045,-2.75155c10.23926,0.3547 19.16128,3.94022 26.76506,10.75605c2.62047,2.90614 4.45451,6.24151 5.5031,10.00563c0.84798,8.23063 -2.57045,13.81678 -10.25577,16.75943c-6.08492,1.4173 -11.17129,-0.16709 -15.25859,-4.75267c-1.37127,-6.78232 -3.53949,-13.28598 -6.50366,-19.51098c-3.0232,-3.03321 -4.85773,-2.36633 -5.5031,2.00113c-0.16659,11.84016 -0.33369,23.67983 -0.50028,35.51999c-1.44681,1.27922 -3.03121,2.36333 -4.75267,3.25183c-7.26509,2.73954 -14.76931,3.9067 -22.51267,3.50197c-0.46426,-0.19411 -0.79795,-0.5278 -1.00056,-1.00056c-0.40423,-6.90439 -0.65437,-13.82478 -0.75042,-20.76168c-0.92352,-4.58858 -3.67502,-6.33957 -8.25465,-5.25296c-6.12305,3.28635 -12.12642,6.78832 -18.01014,10.50591c-5.49714,2.92064 -11.16698,5.25496 -17.00957,7.00394c-0.63015,-0.90751 -0.63015,-1.82453 0,-2.75155c5.74979,-4.91176 10.7526,-10.41486 15.00845,-16.50929zM196.43046,86.94764c-1.9571,0.74692 -1.79051,1.08061 0.50028,1.00056c0.65087,0.69139 1.0676,1.52486 1.2507,2.50141c0.47477,26.02414 0.30817,52.03878 -0.50028,78.04392c-0.51079,6.36208 -3.34588,11.3649 -8.50479,15.00845c-1.35276,1.75049 -1.51936,3.58502 -0.50028,5.5031c1.99162,1.40729 3.74261,3.07523 5.25296,5.00282c-0.82496,1.07561 -1.74198,2.07617 -2.75155,3.00169c-0.33369,0.33369 -0.33369,0.66688 0,1.00056c4.00225,3.33538 8.0045,6.67025 12.00676,10.00563c1.34526,2.20574 0.76143,3.62304 -1.75099,4.25239c-15.67532,0.33369 -31.35114,0.33369 -47.02646,0c0.78344,-0.30417 1.45082,-0.72141 2.00113,-1.2507c0.27165,-0.03002 0.43825,-0.19661 0.50028,-0.50028c-7.08449,-0.66337 -14.08843,-0.66337 -21.01182,0c-1.17066,0.5363 -1.33725,1.37027 -0.50028,2.50141c1.81002,1.31124 3.47746,2.72854 5.00282,4.25239c-0.33469,0.92402 -1.00206,1.50785 -2.00113,1.75099c-0.55731,0.61184 -0.64086,1.27872 -0.25014,2.00113c12.19086,6.23201 24.94804,10.98468 38.27154,14.25802c10.03665,2.32531 20.12583,4.24289 30.26703,5.75324c0.25364,0.74842 0.0035,1.33225 -0.75042,1.75099c-6.7493,2.58245 -12.16885,6.83485 -16.25915,12.75718c-2.06566,4.20387 -4.31693,8.28966 -6.7538,12.2569c-2.34782,1.70546 -4.84923,2.03865 -7.50422,1.00056c-20.7932,-8.79045 -36.88526,-22.88138 -48.27717,-42.27379c-2.72003,-2.19774 -4.88775,-1.69746 -6.50366,1.50084c-0.16659,14.17448 -0.33369,28.34945 -0.50028,42.52393c-2.86061,1.80452 -5.94585,3.13827 -9.25521,4.00225c-7.19905,2.1362 -14.53668,2.88662 -22.01239,2.25127c-0.25014,-0.25014 -0.50028,-0.50028 -0.75042,-0.75042c-0.33369,-11.33988 -0.33369,-22.67926 0,-34.01914c1.09912,-1.63942 2.59996,-2.80658 4.50253,-3.50197c0.94703,-1.37027 0.94703,-2.70402 0,-4.00225c-17.35877,11.38941 -35.78614,20.72816 -55.28111,28.01577c-1.95605,0.05203 -3.62364,0.38572 -5.00282,1.00056c-6.4803,1.79801 -12.98396,3.549 -19.51098,5.25296c-1.00056,0.33369 -2.00113,0.33369 -3.00169,0c-0.47557,-0.3592 -0.55891,-0.77594 -0.25014,-1.2507c13.41225,-6.82684 25.83594,-15.08149 37.27097,-24.76394c6.95241,-6.61772 13.53962,-13.53812 19.76112,-20.76168c2.00363,-2.33081 2.8376,-4.99931 2.50141,-8.0045c-1.15665,-2.04115 -2.90764,-3.29185 -5.25296,-3.75211c-17.00957,-0.16659 -34.01914,-0.33369 -51.02872,-0.50028c-1.55007,-0.63436 -2.38384,-1.80151 -2.50141,-3.50197c0.12962,-0.63086 0.46316,-1.13114 1.00056,-1.50084c26.03725,-0.00901 52.05179,-0.34219 78.04392,-1.00056c1.99612,-0.99556 3.24683,-2.57995 3.75211,-4.75267c0.05203,-5.03233 0.38572,-10.03515 1.00056,-15.00845c1.49984,-2.75205 3.83466,-4.0863 7.00394,-4.00225c10.14921,0.74092 20.23839,1.82503 30.26703,3.25183c0.68639,0.62135 1.18667,1.37177 1.50084,2.25127c-6.80583,3.32237 -8.72341,8.49178 -5.75324,15.50873c0.93703,1.10512 2.02114,2.02214 3.25183,2.75155c5.80277,0.56782 11.63955,0.81796 17.50985,0.75042c6.03039,0.06254 12.03377,-0.18761 18.01014,-0.75042c3.97674,-3.31036 7.22857,-7.22907 9.75549,-11.75662c0.3557,-0.93403 0.10556,-1.68445 -0.75042,-2.25127c-2.19624,-0.38622 -4.36396,-0.30317 -6.50366,0.25014c-2.72003,-0.39772 -4.8042,-1.73197 -6.25352,-4.00225c-0.92302,-3.52448 -1.92358,-7.02645 -3.00169,-10.50591c-2.14571,-4.47952 -5.56463,-7.56476 -10.25577,-9.25521c-3.43693,-1.23419 -6.9389,-2.23476 -10.50591,-3.00169c-0.44025,-0.67838 -0.60734,-1.4288 -0.50028,-2.25127c8.59384,0.38021 17.18167,0.8805 25.7645,1.50084c2.18423,0.21762 4.01826,-0.44925 5.5031,-2.00113c0.33369,-19.51098 0.33369,-39.02196 0,-58.53294c-1.80552,-1.75399 -3.80664,-1.92058 -6.00338,-0.50028c-0.66688,-0.33369 -1.16716,-0.83397 -1.50084,-1.50084c-0.33369,-4.50253 -0.33369,-9.00507 0,-13.5076c1.25971,-3.34388 3.67757,-5.01132 7.25408,-5.00282c8.7124,0.64236 17.38428,1.55938 26.01464,2.75155c1.05409,0.63236 1.55437,1.54937 1.50084,2.75155zM272.47325,132.47325c2.60046,0.11557 5.10187,0.69889 7.50422,1.75099c8.89451,3.36339 17.73298,6.86536 26.51492,10.50591c1.27272,1.11163 1.27272,2.19574 0,3.25183c-3.63104,0.68939 -6.71628,2.35683 -9.25521,5.00282c-3.45444,5.12388 -7.2901,9.96011 -11.50648,14.50816c-2.70302,3.59152 -2.28579,6.67676 1.2507,9.25521c2.16772,0.83397 4.33594,1.66744 6.50366,2.50141c0.85698,0.68939 1.52436,1.52336 2.00113,2.50141c-1.07911,0.95654 -2.24676,1.79051 -3.50197,2.50141c-0.77093,0.78994 -1.35476,1.70746 -1.75099,2.75155c-0.16659,18.8441 -0.33369,37.68771 -0.50028,56.53181c-0.56132,1.0626 -1.31174,1.97961 -2.25127,2.75155c-2.09768,0.76343 -3.51498,2.18073 -4.25239,4.25239c-0.63236,7.14352 -0.96604,14.31406 -1.00056,21.51211c-0.75943,0.92452 -1.67644,1.67494 -2.75155,2.25127c-7.87093,3.17379 -16.04203,4.67463 -24.5138,4.50253c-0.45826,-0.18711 -0.87549,-0.43725 -1.2507,-0.75042c-0.33369,-5.16941 -0.33369,-10.33932 0,-15.50873c1.12663,-1.85855 2.71103,-3.1928 4.75267,-4.00225c0.68088,-0.76443 1.26471,-1.5984 1.75099,-2.50141c0.33369,-17.34326 0.33369,-34.68602 0,-52.02928c-1.0716,-5.331 -4.15684,-6.91539 -9.25521,-4.75267c-9.67494,6.13095 -19.76362,11.5505 -30.26703,16.25915c-0.81146,-0.22713 -1.39478,-0.72741 -1.75099,-1.50084c13.72172,-15.101 25.47834,-31.61029 35.26985,-49.52787c4.94178,-9.54987 9.61141,-19.22232 14.00788,-29.01633c1.16165,-1.44832 2.57895,-2.44888 4.25239,-3.00169zM326.50366,133.47382c9.53136,0.39122 19.03671,1.14164 28.51605,2.25127c1.26771,0.25815 2.35132,0.84197 3.25183,1.75099c0.33369,0.33369 0.33369,0.66688 0,1.00056c-2.53793,1.70296 -4.53905,3.87118 -6.00338,6.50366c-0.33369,10.50591 -0.33369,21.01182 0,31.51774c0.15659,2.4959 1.2402,4.41398 3.25183,5.75324c3.29185,0.31418 5.87681,-0.93653 7.75436,-3.75211c6.66975,-9.33325 12.83973,-19.0052 18.51042,-29.01633c3.47045,-3.70408 7.22256,-3.95423 11.25633,-0.75042c8.05003,5.06685 15.97099,10.31981 23.76337,15.75887c0.48527,0.8875 0.90251,1.80452 1.2507,2.75155c-0.16009,0.82697 -0.66037,1.32725 -1.50084,1.50084c-1.86355,0.38021 -3.69808,0.29667 -5.5031,-0.25014c-0.97255,0.34469 -1.97311,0.59483 -3.00169,0.75042c-8.1681,5.58614 -16.50629,10.92215 -25.01408,16.00901c-9.21869,4.90176 -18.64049,9.32075 -28.26591,13.25746c-1.03158,1.20118 -1.86555,2.53493 -2.50141,4.00225c-0.16659,4.83622 -0.33369,9.67194 -0.50028,14.50816c-2.16772,2.16772 -4.33594,4.33594 -6.50366,6.50366c-1.00056,6.50366 -1.00056,13.00732 0,19.51098c0.81896,1.15565 1.90307,1.90607 3.25183,2.25127c13.69871,0.48277 27.3734,0.31618 41.02309,-0.50028c2.63848,-1.63792 4.55656,-3.88919 5.75324,-6.7538c3.1978,-7.59177 6.19949,-15.26309 9.00507,-23.01295c0.3552,-0.73691 0.93853,-1.0706 1.75099,-1.00056c0.19661,8.85648 0.61335,17.69496 1.2507,26.51492c0.5403,1.2487 1.20768,2.41636 2.00113,3.50197c7.91645,4.54406 10.08417,11.04772 6.50366,19.51098c-3.49447,4.46151 -8.08005,7.21306 -13.75774,8.25465c-13.98187,2.42687 -28.0733,3.34388 -42.27379,2.75155c-8.93403,0.04503 -17.85555,-0.20512 -26.76506,-0.75042c-10.80058,-1.09562 -16.72041,-7.01545 -17.75999,-17.75999c-0.33369,-6.67025 -0.33369,-13.34101 0,-20.01126c1.22669,-1.66143 2.81058,-2.91214 4.75267,-3.75211c0.77093,-0.78994 1.35476,-1.70746 1.75099,-2.75155c0.16659,-30.18349 0.33369,-60.36747 0.50028,-90.55096c0.7084,-2.43337 2.1257,-4.2674 4.25239,-5.5031zM614.66582,204.5138c-11.84667,-0.72041 -24.10356,-1.05409 -36.77069,-1.00056c-7.33913,0 -14.59321,0.16659 -21.76225,0.50028c-2.60647,0.3537 -4.19236,1.85454 -4.75267,4.50253c-0.16509,5.00282 -0.33519,10.00563 -0.50028,15.00845c-0.64536,1.14665 -1.48083,2.14721 -2.50141,3.00169c-0.16509,7.50422 -0.33519,15.00845 -0.50028,22.51267c0.29517,13.19743 -5.78826,21.78576 -18.26028,25.7645c-4.88275,1.64793 -9.88556,2.3153 -15.00845,2.00113c-2.04115,-0.98305 -3.46195,-2.56694 -4.25239,-4.75267c-0.57532,-4.9733 -2.07617,-9.64293 -4.50253,-14.00788c-3.61203,-3.93271 -8.02902,-6.51717 -13.25746,-7.75436c0.42874,-0.34469 0.76193,-0.76143 1.00056,-1.2507c-0.76143,-0.5313 -1.5949,-0.86499 -2.50141,-1.00056c0.02852,-0.55481 0.19511,-1.05509 0.50028,-1.50084c1.83453,0 3.66856,0 5.5031,0c0.66688,0.33369 1.33425,0.66688 2.00113,1.00056c-0.21912,-0.03252 -0.38622,0.05053 -0.50028,0.25014c0.33369,0.16659 0.66688,0.33369 1.00056,0.50028c5.00282,0.33369 10.00563,0.33369 15.00845,0c0.7154,-0.23263 1.30073,-0.64987 1.75099,-1.2507c0.08505,-2.54343 0.42024,-5.04484 1.00056,-7.50422c0.57532,-0.62185 1.2457,-1.12213 2.00113,-1.50084c0.33519,-10.00563 0.33519,-20.01126 0,-30.01689c-0.80045,-2.30079 -2.38134,-3.71809 -4.75267,-4.25239c-20.17786,-0.16659 -40.35621,-0.33369 -60.53407,-0.50028c-2.55844,-1.09111 -3.22532,-2.75855 -2.00113,-5.00282c41.68996,-0.16659 83.38192,-0.33369 125.07038,-0.50028c2.32631,-0.37121 4.24239,-1.45482 5.75324,-3.25183c3.07173,-4.38747 6.32356,-8.63986 9.75549,-12.75718c2.59646,-1.11363 5.09787,-0.94703 7.50422,0.50028c5.54812,4.21287 10.80108,8.79895 15.75887,13.75774c-0.01501,0.95904 -0.43024,1.79301 -1.2507,2.50141c1.13564,1.05159 1.97111,2.3023 2.50141,3.75211c-0.44025,1.18967 -1.27072,1.94009 -2.50141,2.25127zM480.59037,208.51605c1.88756,-0.11857 3.72209,0.13157 5.5031,0.75042c8.96004,4.77018 17.71497,9.85655 26.26478,15.25859c0.59534,0.77243 0.76043,1.6064 0.50028,2.50141c-2.80658,0.72891 -5.55813,1.64593 -8.25465,2.75155c-17.69496,15.43919 -37.87281,26.61248 -60.53407,33.51886c-1.00056,0.33369 -2.00113,0.33369 -3.00169,0c-0.47577,-0.3592 -0.55881,-0.77594 -0.25014,-1.2507c14.79383,-14.12495 26.46689,-30.46715 35.01971,-49.02759c1.20368,-1.9551 2.78757,-3.45594 4.75267,-4.50253zM559.63485,212.5183c4.84773,0.58583 9.68545,1.33625 14.50816,2.25127c-0.81046,0.42674 -0.98055,0.92702 -0.50028,1.50084c13.05735,2.19674 24.73392,7.36615 35.01971,15.50873c7.14402,6.41761 9.89557,14.33857 8.25465,23.76337c-3.09674,7.84541 -8.84998,10.93015 -17.25971,9.25521c-1.65093,-0.24364 -3.15177,-0.82697 -4.50253,-1.75099c-4.71765,-7.59928 -9.80052,-14.93641 -15.25859,-22.01239c-6.06841,-6.90439 -12.32193,-13.65819 -18.76056,-20.2614c0.59534,-0.50979 1.09562,-1.09362 1.50084,-1.75099c-1.50084,-1.66744 -3.00169,-3.33538 -4.50253,-5.00282c0.42024,-0.61785 0.92052,-1.11813 1.50084,-1.50084zM231.95045,297.06588c0.23663,0.7034 0.73691,1.03708 1.50084,1.00056c0,0.33369 0.16659,0.50028 0.50028,0.50028c0.50028,0.83397 1.16716,1.50084 2.00113,2.00113c0.16659,0.50028 0.50028,0.83397 1.00056,1.00056c-0.03652,0.76393 0.29717,1.26421 1.00056,1.50084c0.40773,0.66888 0.99156,1.16916 1.75099,1.50084c0.19961,-0.11406 0.28266,-0.28116 0.25014,-0.50028c1.17966,-0.12357 2.18023,0.20962 3.00169,1.00056c2.57945,8.67988 3.16328,17.51786 1.75099,26.51492c-0.46926,2.82559 -1.38628,5.49359 -2.75155,8.0045c-0.91852,0.7099 -1.91908,1.29373 -3.00169,1.75099c-1.65893,2.40435 -3.49347,4.65562 -5.5031,6.7538c-0.76393,-0.03652 -1.26421,0.29717 -1.50084,1.00056c-4.13683,1.7825 -8.47277,2.44988 -13.00732,2.00113c-0.05553,-0.30867 -0.22213,-0.55881 -0.50028,-0.75042c0.45826,-0.13908 0.79145,-0.38922 1.00056,-0.75042c0.60934,-0.91652 0.27566,-1.4168 -1.00056,-1.50084c-0.23663,-0.7034 -0.73691,-1.03708 -1.50084,-1.00056c-0.1711,-0.41924 -0.50428,-0.58633 -1.00056,-0.50028c-0.66688,-1.00056 -1.50084,-1.83453 -2.50141,-2.50141c0,-0.33369 -0.16659,-0.50028 -0.50028,-0.50028c0.03652,-0.76393 -0.29717,-1.26421 -1.00056,-1.50084c-2.50841,-4.86224 -4.00926,-10.03165 -4.50253,-15.50873c0,-2.50141 0,-5.00282 0,-7.50422c-1.00056,0 -2.00113,0 -3.00169,0c0,-1.33425 0,-2.668 0,-4.00225c0.65337,-2.61297 1.32024,-5.28097 2.00113,-8.0045c0.7159,-0.64036 1.04959,-1.47433 1.00056,-2.50141c0.45075,-0.39522 0.78444,-0.8955 1.00056,-1.50084c0.7034,-0.23663 1.03708,-0.73691 1.00056,-1.50084c1.16716,-0.83397 2.16772,-1.83453 3.00169,-3.00169c0.33369,0 0.50028,-0.16659 0.50028,-0.50028c0.76393,0.03652 1.26421,-0.29717 1.50084,-1.00056c5.84429,-2.63648 11.68107,-2.63648 17.50985,0zM623.17061,303.56954c-0.66537,0.33369 -1.16566,0.83397 -1.50084,1.50084c-0.45025,0.3547 -0.62035,0.85498 -0.50028,1.50084c-5.41305,-0.57983 -10.75105,-0.57983 -16.00901,0c-1.20568,0.09705 -1.70596,0.76393 -1.50084,2.00113c0,0.16659 0,0.33369 0,0.50028c-0.43524,1.2522 -0.77043,2.58646 -1.00056,4.00225c-1.29073,0.27415 -1.79101,1.10812 -1.50084,2.50141c0.80045,0.13408 1.46582,-0.03302 2.00113,-0.50028c5.46307,-0.60984 10.46589,0.55781 15.00845,3.50197c0.33519,0.66688 0.83547,1.16716 1.50084,1.50084c0.67538,1.01907 1.34075,2.01964 2.00113,3.00169c0.08005,0.82697 0.41523,1.49384 1.00056,2.00113c0.25014,2.34282 0.58533,4.67763 1.00056,7.00394c-0.42524,2.15721 -0.76043,4.32543 -1.00056,6.50366c-0.46526,0.5343 -0.63536,1.20118 -0.50028,2.00113c0.64536,-0.11857 1.14564,0.04803 1.50084,0.50028c-0.42024,0.1711 -0.58533,0.50428 -0.50028,1.00056c-0.7054,0.23663 -1.03558,0.73691 -1.00056,1.50084c-0.83547,0.50028 -1.50084,1.16716 -2.00113,2.00113c-0.95053,0.11907 -1.62091,0.61935 -2.00113,1.50084c-2.64649,1.45432 -5.47808,2.37133 -8.50479,2.75155c-2.93665,0.12907 -5.77325,0.21212 -8.50479,0.25014c-1.31574,0.29617 -2.64649,0.46276 -4.00225,0.50028c-1.4208,-0.58483 -2.92164,-1.08511 -4.50253,-1.50084c-0.50528,-0.58733 -1.17566,-0.92052 -2.00113,-1.00056c-0.73041,-0.61885 -1.56588,-1.11913 -2.50141,-1.50084c-0.23513,-0.7034 -0.73541,-1.03708 -1.50084,-1.00056c0,-0.33369 -0.16509,-0.50028 -0.50028,-0.50028c-0.05003,-1.36927 0.11506,-2.70352 0.50028,-4.00225c0.73541,-0.46826 1.2357,-1.13564 1.50084,-2.00113c0.73041,-0.47927 1.39579,-1.0626 2.00113,-1.75099c0.81546,-0.24714 1.65093,-0.33019 2.50141,-0.25014c1.08061,0.79195 2.25127,1.45882 3.50197,2.00113c0.64036,0.7159 1.47583,1.04959 2.50141,1.00056c0.98555,0.33169 2.07117,0.49828 3.25183,0.50028c1.74098,0.08605 3.32187,-0.24714 4.75267,-1.00056c0.76543,0.03652 1.26571,-0.29717 1.50084,-1.00056c0.33519,0 0.50028,-0.16659 0.50028,-0.50028c1.16566,-0.83847 1.66594,-2.00563 1.50084,-3.50197c0.66537,-1.50084 0.66537,-3.00169 0,-4.50253c0.16509,-1.49634 -0.33519,-2.6635 -1.50084,-3.50197c0,-0.33369 -0.16509,-0.50028 -0.50028,-0.50028c-0.23513,-0.7034 -0.73541,-1.03708 -1.50084,-1.00056c-0.21012,-0.3612 -0.5403,-0.61134 -1.00056,-0.75042c-3.7321,-0.69539 -7.23407,-0.11206 -10.50591,1.75099c-0.67538,-0.1731 -1.34075,-0.33969 -2.00113,-0.50028c-0.23513,-0.7034 -0.73541,-1.03708 -1.50084,-1.00056c-0.65037,-0.49428 -1.31574,-0.99456 -2.00113,-1.50084c-0.24514,-1.99462 0.09005,-3.82915 1.00056,-5.5031c0.31017,-0.05553 0.56032,-0.22212 0.75042,-0.50028c0.51529,-5.65868 0.76543,-11.32888 0.75042,-17.00957c0.42024,-1.4233 0.75543,-2.92415 1.00056,-4.50253c9.32525,-0.56432 18.6605,-0.64786 28.01577,-0.25014c1.11063,0.32618 1.69595,1.07661 1.75099,2.25127c0.25014,1.99412 0.33519,3.99525 0.25014,6.00338zM42.84403,297.06588c0.23668,0.7034 0.73696,1.03708 1.50084,1.00056c1.15475,0.98605 2.32206,1.98662 3.50197,3.00169c-0.03652,0.76393 0.29702,1.26421 1.00056,1.50084c1.04384,1.78751 1.9611,3.62204 2.75155,5.5031c0.43424,3.88969 0.1841,7.72535 -0.75042,11.50648c-0.7159,0.64036 -1.04954,1.47433 -1.00056,2.50141c-0.58718,0.50729 -0.92072,1.17416 -1.00056,2.00113c-0.70355,0.23663 -1.03708,0.73691 -1.00056,1.50084c-0.41934,0.1711 -0.58613,0.50428 -0.50028,1.00056c-0.70355,0.23663 -1.03708,0.73691 -1.00056,1.50084c-0.73762,0.46826 -1.2379,1.13564 -1.50084,2.00113c-0.70355,0.23663 -1.03708,0.73691 -1.00056,1.50084c-0.50028,0.16659 -0.83382,0.50028 -1.00056,1.00056c-0.8817,0.38121 -1.38198,1.04859 -1.50084,2.00113c-1.14895,0.89751 -2.23291,1.89807 -3.25183,3.00169c-0.37026,0.62485 -0.28691,1.12513 0.25014,1.50084c5.43926,0.1711 10.77561,0.67138 16.00901,1.50084c-0.41423,2.91114 -0.66437,5.91283 -0.75042,9.00507c-0.37521,0.31318 -0.79245,0.56332 -1.2507,0.75042c-7.33558,0.25014 -14.67301,0.33369 -22.01239,0.25014c-3.9136,-0.41473 -7.91585,-0.66487 -12.00676,-0.75042c-0.25014,-0.25014 -0.50028,-0.50028 -0.75042,-0.75042c-0.24964,-2.16172 -0.33304,-4.32944 -0.25014,-6.50366c0.83382,-0.50028 1.50084,-1.16716 2.00113,-2.00113c4.00225,-3.66856 7.83776,-7.50422 11.50648,-11.50648c0.8817,-0.38121 1.38198,-1.04859 1.50084,-2.00113c0.50028,-0.16659 0.83382,-0.50028 1.00056,-1.00056c0.70355,-0.23663 1.03708,-0.73691 1.00056,-1.50084c0.33354,0 0.50028,-0.16659 0.50028,-0.50028c0.70355,-0.23663 1.03708,-0.73691 1.00056,-1.50084c0.70355,-0.23663 1.03708,-0.73691 1.00056,-1.50084c3.0148,-3.96223 3.43168,-8.13108 1.2507,-12.50704c-0.8891,-1.14564 -1.97301,-1.97961 -3.25183,-2.50141c-0.81746,-0.33069 -1.73468,-0.49728 -2.75155,-0.50028c-1.43356,-0.10006 -2.68426,0.23363 -3.75211,1.00056c-0.76388,-0.03652 -1.26416,0.29717 -1.50084,1.00056c-0.76388,-0.03652 -1.26416,0.29717 -1.50084,1.00056c-0.33354,0 -0.50028,0.16659 -0.50028,0.50028c-0.96814,0.32518 -1.96871,0.49178 -3.00169,0.50028c-1.32139,-1.15265 -2.65549,-2.32031 -4.00225,-3.50197c0.03652,-0.76393 -0.29702,-1.26421 -1.00056,-1.50084c0,-0.66688 0,-1.33425 0,-2.00113c0.83382,-0.50028 1.50084,-1.16716 2.00113,-2.00113c0.33354,0 0.50028,-0.16659 0.50028,-0.50028c0.76388,0.03652 1.26416,-0.29717 1.50084,-1.00056c7.02215,-3.87418 14.35963,-4.54156 22.01239,-2.00113zM425.05912,298.56672c0.83397,1.16716 1.83453,2.16772 3.00169,3.00169c0,0.33369 0.16659,0.50028 0.50028,0.50028c-0.03652,0.76393 0.29717,1.26421 1.00056,1.50084c-0.08605,0.49628 0.08105,0.82947 0.50028,1.00056c0.43024,0.8945 0.93052,1.72847 1.50084,2.50141c0.99956,6.17598 -0.001,12.01276 -3.00169,17.50985c-0.7034,0.23663 -1.03708,0.73691 -1.00056,1.50084c-0.7034,0.23663 -1.03708,0.73691 -1.00056,1.50084c-0.7034,0.23663 -1.03708,0.73691 -1.00056,1.50084c-0.7034,0.23663 -1.03708,0.73691 -1.00056,1.50084c-0.33369,0 -0.50028,0.16659 -0.50028,0.50028c-0.8815,0.38121 -1.38178,1.04859 -1.50084,2.00113c-0.50028,0.16659 -0.83397,0.50028 -1.00056,1.00056c-1.04409,0.54281 -1.71096,1.37627 -2.00113,2.50141c-1.10112,0.1791 -1.7685,0.84648 -2.00113,2.00113c0.06203,0.30367 0.22863,0.47026 0.50028,0.50028c5.41605,0.41523 10.91914,0.66537 16.50929,0.75042c-0.48827,3.03971 -0.65537,6.12445 -0.50028,9.25521c-0.68639,0.50628 -1.35326,1.00657 -2.00113,1.50084c-11.34238,-0.02702 -22.68176,-0.19411 -34.01914,-0.50028c-1.69545,-3.67557 -1.19517,-7.01095 1.50084,-10.00563c1.96911,-1.13364 3.63655,-2.63448 5.00282,-4.50253c1.00056,-0.66688 1.83453,-1.50084 2.50141,-2.50141c1.70246,-1.20068 3.03671,-2.70152 4.00225,-4.50253c0.50028,-0.16659 0.83397,-0.50028 1.00056,-1.00056c0.8815,-0.38121 1.38178,-1.04859 1.50084,-2.00113c0.33369,0 0.50028,-0.16659 0.50028,-0.50028c0.7034,-0.23663 1.03708,-0.73691 1.00056,-1.50084c0.7034,-0.23663 1.03708,-0.73691 1.00056,-1.50084c0.7034,-0.23663 1.03708,-0.73691 1.00056,-1.50084c1.04659,-1.29473 1.71346,-2.79557 2.00113,-4.50253c0.33069,-0.81746 0.49728,-1.73448 0.50028,-2.75155c-0.02351,-1.14815 -0.3567,-2.06566 -1.00056,-2.75155c-0.02752,-1.55788 -0.69439,-2.72553 -2.00113,-3.50197c-0.55031,-0.5293 -1.21769,-0.94653 -2.00113,-1.2507c-1.76449,-0.40423 -3.43193,-0.32068 -5.00282,0.25014c-0.94053,-0.13558 -1.6074,0.19811 -2.00113,1.00056c-0.76393,-0.03652 -1.26421,0.29717 -1.50084,1.00056c-0.76393,-0.03652 -1.26421,0.29717 -1.50084,1.00056c-0.95154,0.50578 -1.9521,0.58933 -3.00169,0.25014c-1.4173,-1.4173 -2.8351,-2.8351 -4.25239,-4.25239c-0.44575,-1.49984 -0.19561,-2.83359 0.75042,-4.00225c0.95254,-0.11907 1.61991,-0.61935 2.00113,-1.50084c8.13708,-4.93928 16.47527,-5.27297 25.01408,-1.00056z" fill="#fefefe"/><path d="M544.12613,13.90653c0.21012,-0.31213 0.5403,-0.47892 1.00056,-0.50028c1.35576,0.61645 2.69151,1.11673 4.00225,1.50084c-1.79101,0.13413 -3.46195,-0.19941 -5.00282,-1.00056z" fill="#f6f6f6" opacity="0.637"/><path d="M113.88401,13.90653c-0.39522,0.4509 -0.8955,0.78439 -1.50084,1.00056c0.16059,-0.77449 0.66087,-1.10802 1.50084,-1.00056z" fill="#f6f6f6" opacity="0.725"/><path d="M38.84178,14.90709c0.76388,-0.03652 1.26416,0.29702 1.50084,1.00056c-0.76388,0.03652 -1.26416,-0.29702 -1.50084,-1.00056z" fill="#f7f7f7" opacity="0.654"/><path d="M323.50197,16.90822c-0.38372,-0.33619 -0.7174,-0.75307 -1.00056,-1.2507c-3.00169,-0.33354 -6.00338,-0.33354 -9.00507,0c-0.28316,0.49763 -0.61685,0.91451 -1.00056,1.2507c-0.08505,-0.66142 0.08155,-1.24505 0.50028,-1.75099c3.33538,-0.33354 6.67025,-0.33354 10.00563,0c0.41874,0.50593 0.58533,1.08956 0.50028,1.75099z" fill="#f6f6f6" opacity="0.856"/><path d="M26.83502,14.90709c-0.84122,0.75417 -1.84179,1.25446 -3.00169,1.50084c0.7059,-1.02007 1.70646,-1.52036 3.00169,-1.50084z" fill="#f5f5f5" opacity="0.841"/><path d="M542.62528,15.40738c-0.21512,0.60509 -0.55031,1.10537 -1.00056,1.50084c-0.10506,-0.83987 0.22513,-1.34015 1.00056,-1.50084z" fill="#f7f7f7" opacity="0.715"/><path d="M120.38767,15.90766c0.01951,0.62845 -0.23063,1.12874 -0.75042,1.50084c-0.08405,10.09113 -0.33419,20.09676 -0.75042,30.01689c-0.08355,-10.17378 0,-20.34615 0.25014,-30.51717c0.3542,-0.4405 0.77143,-0.77404 1.2507,-1.00056z" fill="#f7f7f7" opacity="0.789"/><path d="M250.46087,15.90766c0.94053,-0.13553 1.6074,0.19801 2.00113,1.00056c-0.82697,-0.07984 -1.49384,-0.41338 -2.00113,-1.00056z" fill="#f7f7f7" opacity="0.65"/><path d="M535.62134,16.40794c0.55531,0.72361 0.64036,1.55743 0.25014,2.50141c-0.33519,0.37641 -0.75042,0.54321 -1.2507,0.50028c0.79044,-0.82131 1.12563,-1.82188 1.00056,-3.00169z" fill="#f7f7f7" opacity="0.589"/><path d="M605.66075,15.40738c-0.15008,0.95204 -0.48027,1.78585 -1.00056,2.50141c-0.19011,-1.09962 0.14508,-1.93339 1.00056,-2.50141z" fill="#f6f6f6" opacity="0.773"/><path d="M23.33305,16.90822c-0.50028,0.83382 -1.16731,1.50084 -2.00113,2.00113c0.16674,-1.16731 0.83382,-1.83438 2.00113,-2.00113z" fill="#f6f6f6" opacity="0.682"/><path d="M42.34375,17.4085c1.02648,0.27651 1.19327,0.77679 0.50028,1.50084c-0.02847,-0.55481 -0.19521,-1.05509 -0.50028,-1.50084z" fill="#f6f7f6" opacity="0.734"/><path d="M253.46256,17.90878c0.83997,-0.10746 1.34025,0.22608 1.50084,1.00056c-0.60534,-0.21617 -1.10562,-0.54966 -1.50084,-1.00056z" fill="#f6f7f6" opacity="0.59"/><path d="M41.84347,19.90991c0.03652,0.76388 -0.29702,1.26416 -1.00056,1.50084c-0.03652,-0.76388 0.29702,-1.26416 1.00056,-1.50084z" fill="#f7f7f7" opacity="0.584"/><path d="M401.54589,20.41019c-0.50729,0.63271 -1.25771,0.96619 -2.25127,1.00056c-0.85398,-0.00425 -1.6044,-0.171 -2.25127,-0.50028c1.55538,0.11802 3.05622,-0.04878 4.50253,-0.50028z" fill="#f6f7f6" opacity="0.913"/><path d="M19.83108,20.91047c0.03652,0.76388 -0.29702,1.26416 -1.00056,1.50084c-0.03652,-0.76388 0.29702,-1.26416 1.00056,-1.50084z" fill="#f7f7f7" opacity="0.657"/><path d="M34.33925,20.91047c1.09962,-0.19006 1.93339,0.14348 2.50141,1.00056c-0.95204,-0.14803 -1.78585,-0.48152 -2.50141,-1.00056z" fill="#f5f5f5" opacity="0.587"/><path d="M245.45805,26.91385c-1.88556,0.12807 -3.72009,-0.03867 -5.5031,-0.50028c-0.27566,-1.65428 -0.44225,-3.32192 -0.50028,-5.00282c2.45438,-0.67453 4.95579,-0.59113 7.50422,0.25014c0.94853,0.90466 1.19867,1.98862 0.75042,3.25183c-0.37421,1.12613 -1.12463,1.79321 -2.25127,2.00113z" fill="#fefefe" opacity="0.957"/><path d="M397.04336,20.91047c-2.00813,-0.0828 -4.00926,0.0006 -6.00338,0.25014c-0.7134,1.02328 -1.21368,2.10724 -1.50084,3.25183c-0.22263,-1.43311 0.11106,-2.68381 1.00056,-3.75211c2.26127,-0.40703 4.42949,-0.32368 6.50366,0.25014z" fill="#f6f6f6" opacity="0.779"/><path d="M239.45467,21.41075c0.05803,1.6809 0.22463,3.34853 0.50028,5.00282c-1.01607,-1.6047 -1.18317,-3.27234 -0.50028,-5.00282z" fill="#f7f7f7" opacity="0.742"/><path d="M525.11543,22.9116c-0.21512,0.60509 -0.55031,1.10537 -1.00056,1.50084c-0.10506,-0.83987 0.22513,-1.34015 1.00056,-1.50084z" fill="#f6f6f6" opacity="0.7"/><path d="M320.50028,33.91779c-1.66744,0 -3.33538,0 -5.00282,0c0,-0.83382 0,-1.66759 0,-2.50141c0.25664,-2.02764 0.67338,-4.02877 1.2507,-6.00338c0.1841,-0.7054 0.60084,-1.20568 1.2507,-1.50084c1.34276,2.94636 2.34332,6.03139 3.00169,9.25521c-0.03502,0.38262 -0.20161,0.63276 -0.50028,0.75042z" fill="#fdfdfd" opacity="0.968"/><path d="M461.07939,24.41244c0.84347,7.19025 1.34376,14.52773 1.50084,22.01239c-0.84347,-7.19025 -1.34376,-14.52773 -1.50084,-22.01239z" fill="#f6f6f6" opacity="0.442"/><path d="M613.16498,32.91723c-0.05503,0.30887 -0.22012,0.55901 -0.50028,0.75042c-1.66093,0.24929 -3.32687,0.33269 -5.00282,0.25014c-0.30017,-0.11767 -0.46526,-0.36781 -0.50028,-0.75042c0.66037,-3.22381 1.66093,-6.30885 3.00169,-9.25521c0.65037,0.29517 1.0656,0.79545 1.2507,1.50084c0.66537,2.4904 1.2457,4.99181 1.75099,7.50422z" fill="#fdfdfd" opacity="0.959"/><path d="M27.83559,23.41188c-0.24639,1.1599 -0.74667,2.16047 -1.50084,3.00169c-0.01951,-1.29523 0.48077,-2.29579 1.50084,-3.00169z" fill="#f6f6f6" opacity="0.642"/><path d="M255.46368,24.91273c0.04903,1.02703 -0.28466,1.86085 -1.00056,2.50141c-0.04903,-1.02703 0.28466,-1.86085 1.00056,-2.50141z" fill="#f7f7f7" opacity="0.633"/><path d="M513.10867,25.91329c0.76043,1.29093 0.42524,2.29149 -1.00056,3.00169c0.56532,-0.90781 0.90051,-1.90837 1.00056,-3.00169z" fill="#f6f6f6" opacity="0.725"/><path d="M239.95495,26.41357c1.783,0.46161 3.61754,0.62835 5.5031,0.50028c-0.81746,0.33074 -1.73448,0.49748 -2.75155,0.50028c-1.14815,-0.02326 -2.06566,-0.3568 -2.75155,-1.00056z" fill="#f6f6f6" opacity="0.513"/><path d="M93.37247,26.91385c0.01951,0.62845 -0.23063,1.12874 -0.75042,1.50084c-0.25014,6.33471 -0.33369,12.67158 -0.25014,19.0107c-0.58033,-6.41701 -0.66387,-12.92067 -0.25014,-19.51098c0.3542,-0.4405 0.77143,-0.77404 1.2507,-1.00056z" fill="#f6f6f6" opacity="0.798"/><path d="M381.53463,27.41413c-0.14158,0.39477 -0.39172,0.72831 -0.75042,1.00056c-0.25014,6.16787 -0.33369,12.33804 -0.25014,18.51042c-0.58033,-6.25017 -0.66387,-12.58703 -0.25014,-19.0107c0.33569,-0.37641 0.75242,-0.54321 1.2507,-0.50028z" fill="#f7f7f7" opacity="0.663"/><path d="M530.11824,29.91554c-0.33519,-0.16674 -0.66537,-0.33354 -1.00056,-0.50028c0.38522,-1.82052 0.7154,-1.65378 1.00056,0.50028z" fill="#f6f6f6" opacity="0.673"/><path d="M399.54476,28.4147c0.66688,1.50084 0.66688,3.00169 0,4.50253c-0.12557,-1.39559 -0.12557,-2.89643 0,-4.50253z" fill="#f7f7f7" opacity="0.322"/><path d="M315.49747,31.41639c0,0.83382 0,1.66759 0,2.50141c1.66744,0 3.33538,0 5.00282,0c-1.73197,0.49108 -3.56651,0.65787 -5.5031,0.50028c-0.14758,-1.11833 0.01951,-2.11889 0.50028,-3.00169z" fill="#f7f7f7" opacity="0.446"/><path d="M254.9634,31.41639c1.30674,0.77654 1.97361,1.94384 2.00113,3.50197c-0.79195,-1.08191 -1.45882,-2.24922 -2.00113,-3.50197z" fill="#f6f6f6" opacity="0.704"/><path d="M246.9589,33.91779c-2.38284,-0.13728 -4.71765,0.02952 -7.00394,0.50028c0.94903,-0.65277 2.11669,-0.98626 3.50197,-1.00056c1.26321,0.0017 2.43087,0.16844 3.50197,0.50028z" fill="#f7f7f7" opacity="0.491"/><path d="M546.62753,33.41751c0.1801,1.19552 0.51029,2.36283 1.00056,3.50197c-0.01001,0.6134 -0.1751,1.11368 -0.50028,1.50084c-0.02501,-1.32089 -0.3602,-2.5716 -1.00056,-3.75211c0.01501,-0.5352 0.1801,-0.95214 0.50028,-1.2507z" fill="#f7f7f7" opacity="0.561"/><path d="M246.9589,33.91779c1.6029,0.4393 2.43637,1.52326 2.50141,3.25183c-0.05653,1.20003 -0.55681,2.11724 -1.50084,2.75155c-0.82697,0.07984 -1.49384,0.41338 -2.00113,1.00056c-6.09443,1.74148 -8.09556,-0.42644 -6.00338,-6.50366c2.28629,-0.47076 4.6211,-0.63756 7.00394,-0.50028z" fill="#fdfdfd" opacity="0.983"/><path d="M613.16498,32.91723c0.63536,0.34489 0.63536,0.76183 0,1.2507c-1.93109,0.40518 -3.76212,0.32183 -5.5031,-0.25014c1.67594,0.08255 3.34188,-0.00085 5.00282,-0.25014c0.28016,-0.19141 0.44525,-0.44155 0.50028,-0.75042z" fill="#f7f7f7" opacity="0.404"/><path d="M539.12331,35.41864c0.15509,1.37422 -0.01001,2.70827 -0.50028,4.00225c-0.46526,-0.59473 -0.63035,-1.26181 -0.50028,-2.00113c0.33519,-0.66703 0.66537,-1.3341 1.00056,-2.00113z" fill="#f7f7f7" opacity="0.593"/><path d="M110.88232,35.91892c0.41473,3.57961 0.66487,7.24833 0.75042,11.00619c2.36983,0.48487 4.78769,0.65162 7.25408,0.50028c-2.53493,0.66252 -5.11988,0.66252 -7.75436,0c-0.25014,-3.83186 -0.33319,-7.66736 -0.25014,-11.50648z" fill="#f7f7f7" opacity="0.87"/><path d="M520.61289,35.91892c0.33519,0 0.66537,0 1.00056,0c-0.33519,2.00113 -0.66537,2.00113 -1.00056,0z" fill="#f6f6f6" opacity="0.593"/><path d="M26.83502,36.91948c0.70355,0.23668 1.03708,0.73696 1.00056,1.50084c-0.70355,-0.23668 -1.03708,-0.73696 -1.00056,-1.50084z" fill="#f6f6f6" opacity="0.63"/><path d="M40.84291,39.42089c0.8817,0.38136 1.38198,1.04839 1.50084,2.00113c-0.8817,-0.38136 -1.38198,-1.04839 -1.50084,-2.00113z" fill="#f5f5f5" opacity="0.661"/><path d="M36.84065,39.92117c-0.56802,0.85708 -1.40179,1.19062 -2.50141,1.00056c0.71555,-0.51904 1.54937,-0.85253 2.50141,-1.00056z" fill="#f7f7f7" opacity="0.567"/><path d="M247.95946,39.92117c-0.39372,0.80255 -1.0606,1.13609 -2.00113,1.00056c0.50729,-0.58718 1.17416,-0.92072 2.00113,-1.00056z" fill="#f6f6f6" opacity="0.638"/><path d="M322.00113,40.92173c-3.03121,-0.12312 -6.03289,0.04362 -9.00507,0.50028c0.05553,-0.30887 0.22212,-0.55901 0.50028,-0.75042c2.92615,-0.40943 5.76074,-0.32603 8.50479,0.25014z" fill="#f6f6f6" opacity="0.898"/><path d="M402.04617,41.42202c-0.14158,0.39477 -0.39172,0.72831 -0.75042,1.00056c-0.08855,1.92924 -0.33869,3.76362 -0.75042,5.5031c-0.08305,-2.00803 0.0005,-4.00916 0.25014,-6.00338c0.33569,-0.37641 0.75242,-0.54321 1.2507,-0.50028z" fill="#f6f6f6" opacity="0.808"/><path d="M614.66582,40.92173c0.80045,0.39372 1.13564,1.06075 1.00056,2.00113c-0.58533,-0.50714 -0.92052,-1.17416 -1.00056,-2.00113z" fill="#f5f5f5" opacity="0.681"/><path d="M42.84403,41.9223c0.91562,1.73998 0.41533,2.90734 -1.50084,3.50197c1.17586,-0.85713 1.67614,-2.02444 1.50084,-3.50197z" fill="#f6f6f6" opacity="0.647"/><path d="M526.61627,41.9223c-0.03002,1.26121 0.30517,2.42852 1.00056,3.50197c0.02501,0.76928 -0.31017,1.26956 -1.00056,1.50084c-0.21512,-1.65888 -0.21512,-3.32652 0,-5.00282z" fill="#f7f7f7" opacity="0.637"/><path d="M254.46312,43.42314c-0.33369,1.3341 -1.16716,2.16787 -2.50141,2.50141c0.66688,-1.00056 1.50084,-1.83438 2.50141,-2.50141z" fill="#f6f6f6" opacity="0.657"/><path d="M22.83277,44.92399c0.76388,-0.03652 1.26416,0.29702 1.50084,1.00056c-0.76388,0.03652 -1.26416,-0.29702 -1.50084,-1.00056z" fill="#f6f6f6" opacity="0.569"/><path d="M179.92117,45.92455c0.77444,0.16069 1.10812,0.66097 1.00056,1.50084c-0.66688,0 -1.33425,0 -2.00113,0c0.38171,-0.38417 0.882,-0.63431 1.50084,-0.75042c-0.27816,-0.19141 -0.44475,-0.44155 -0.50028,-0.75042z" fill="#f6f6f6" opacity="0.643"/><path d="M332.50704,45.92455c0.65087,0.69264 0.65087,1.44306 0,2.25127c-2.668,0.33354 -5.3365,0.33354 -8.0045,0c-0.41874,-0.50593 -0.58533,-1.08956 -0.50028,-1.75099c0.38372,0.33619 0.7174,0.75307 1.00056,1.2507c2.33481,0.33354 4.66913,0.33354 7.00394,0c0.41874,-0.50593 0.58533,-1.08956 0.50028,-1.75099z" fill="#f6f6f6" opacity="0.844"/><path d="M535.12106,46.42483c3.50197,0.66703 7.00394,0.66703 10.50591,0c-1.55087,0.66087 -3.30186,0.99441 -5.25296,1.00056c-1.9511,-0.00615 -3.70208,-0.33969 -5.25296,-1.00056z" fill="#f6f6f6" opacity="0.894"/><path d="M604.15991,46.42483c0.08505,0.66142 -0.08005,1.24505 -0.50028,1.75099c-2.59146,0.40838 -5.09287,0.32503 -7.50422,-0.25014c2.34132,0.08295 4.67763,-0.0004 7.00394,-0.25014c0.28516,-0.49763 0.61535,-0.91451 1.00056,-1.2507z" fill="#f7f7f7" opacity="0.869"/><path d="M100.37641,46.92511c0.27165,0.03002 0.43825,0.19676 0.50028,0.50028c-2.91164,0.65822 -5.74673,0.65822 -8.50479,0c2.76456,0.16079 5.43306,-0.00595 8.0045,-0.50028z" fill="#f6f6f6" opacity="0.844"/><path d="M251.96171,45.92455c-0.83847,1.16751 -2.00563,1.66779 -3.50197,1.50084c1.07511,-0.61845 2.24226,-1.11873 3.50197,-1.50084z" fill="#f6f6f6" opacity="0.827"/><path d="M380.53407,46.92511c6.61372,0.87254 13.28398,1.20608 20.01126,1.00056c-4.91527,0.57948 -9.91808,0.66282 -15.00845,0.25014c-1.90657,0.04177 -3.57451,-0.37516 -5.00282,-1.2507z" fill="#f6f6f6" opacity="0.922"/><path d="M232.45073,47.42539c4.66412,0.28416 9.33325,0.4509 14.00788,0.50028c-4.69164,0.67478 -9.36077,0.50804 -14.00788,-0.50028z" fill="#f6f6f6" opacity="0.688"/><path d="M303.49071,47.42539c2.668,0.66703 5.3365,0.66703 8.0045,0c-1.12213,0.65622 -2.45638,0.98971 -4.00225,1.00056c-1.54587,-0.01086 -2.88012,-0.34434 -4.00225,-1.00056z" fill="#f6f6f6" opacity="0.902"/><path d="M453.57517,46.42483c2.18423,0.93618 4.51904,1.26971 7.00394,1.00056c-2.07417,0.57382 -4.24239,0.65717 -6.50366,0.25014c-0.37621,-0.33559 -0.54331,-0.75247 -0.50028,-1.2507z" fill="#f5f5f5" opacity="0.425"/><path d="M201.93356,84.44623c0.94003,-0.05353 1.10662,0.19661 0.50028,0.75042c-1.68845,0.31618 -1.85554,0.06604 -0.50028,-0.75042z" fill="#f6f7f6" opacity="0.301"/><path d="M196.43046,86.94764c0.16659,0.33369 0.33369,0.66688 0.50028,1.00056c-2.29079,0.08005 -2.45738,-0.25364 -0.50028,-1.00056z" fill="#f6f7f6" opacity="0.351"/><path d="M488.59488,106.9589c3.17279,-0.08305 6.34107,0 9.50535,0.25014c2.50641,0.58733 3.83716,2.17172 4.00225,4.75267c-0.26515,2.44788 -1.26571,4.53255 -3.00169,6.25352c-0.83397,0.33369 -1.66744,0.33369 -2.50141,0c-3.66606,-2.44588 -7.66832,-4.11331 -12.00676,-5.00282c-1.2397,-0.96955 -1.32324,-2.05366 -0.25014,-3.25183c1.16165,-1.44832 2.57895,-2.44888 4.25239,-3.00169z" fill="#fefefe"/><path d="M124.38992,118.46537c0,0.33369 0.16659,0.50028 0.50028,0.50028c-0.03002,0.27165 -0.19661,0.43825 -0.50028,0.50028c-0.63686,-0.37871 -0.63686,-0.7119 0,-1.00056z" fill="#f6f7f6" opacity="0.501"/><path d="M481.59093,152.48452c0.884,-1.62642 1.21769,-3.29385 1.00056,-5.00282c-0.61034,0.60584 -1.19417,0.60584 -1.75099,0c-0.65187,-3.72259 -2.40285,-6.80783 -5.25296,-9.25521c-2.50641,-1.75449 -5.17441,-3.25533 -8.0045,-4.50253c-2.10468,-1.53586 -2.52142,-3.45344 -1.2507,-5.75324c1.52186,-1.71747 3.27284,-3.13476 5.25296,-4.25239c1.73298,-0.40873 3.40091,-0.24164 5.00282,0.50028c1.91007,3.23532 3.9112,6.4036 6.00338,9.50535c2.56945,0.84197 5.1544,1.5924 7.75436,2.25127c0.33369,0.83397 0.33369,1.66744 0,2.50141c-1.31824,2.40035 -2.73554,4.73516 -4.25239,7.00394c0.43825,0.37571 0.93853,0.62585 1.50084,0.75042c-1.55988,2.39435 -3.31086,4.64561 -5.25296,6.7538c-0.19161,-0.27816 -0.44175,-0.44475 -0.75042,-0.50028z" fill="#fefefe"/><path d="M528.11712,126.97016c0.1701,0.41924 0.50528,0.58633 1.00056,0.50028c-0.12007,0.29867 -0.37021,0.46526 -0.75042,0.50028c-0.86048,-0.26565 -0.94053,-0.59934 -0.25014,-1.00056z" fill="#f6f7f6" opacity="0.625"/><path d="M22.83277,161.98986c0.5341,-0.46726 1.20118,-0.63436 2.00113,-0.50028c0.11872,0.64586 -0.04803,1.14614 -0.50028,1.50084c-0.16069,-0.77444 -0.66097,-1.10812 -1.50084,-1.00056z" fill="#f6f7f6" opacity="0.501"/><path d="M556.13288,204.01351c7.16903,-0.33369 14.42312,-0.50028 21.76225,-0.50028c12.66713,-0.05353 24.92403,0.28016 36.77069,1.00056c-5.58314,0.57983 -11.25133,0.66337 -17.00957,0.25014c0.16509,-0.16659 0.33519,-0.33369 0.50028,-0.50028c-14.00788,-0.25014 -28.01577,-0.33369 -42.02365,-0.25014z" fill="#f6f7f6" opacity="0.385"/><path d="M135.8964,210.51717c6.9234,-0.66337 13.92734,-0.66337 21.01182,0c-0.06203,0.30367 -0.22863,0.47026 -0.50028,0.50028c-6.7488,-0.49828 -13.58565,-0.66487 -20.51154,-0.50028z" fill="#f6f7f6" opacity="0.303"/><path d="M126.39105,214.01914c0.49828,-0.04302 0.91501,0.12407 1.2507,0.50028c1.57889,2.3078 2.41236,4.80921 2.50141,7.50422c-1.2402,1.5924 -2.57445,1.75899 -4.00225,0.50028c-0.37021,-2.86061 -0.28666,-5.69571 0.25014,-8.50479z" fill="#fcfcfc"/><path d="M491.59657,246.53744c-0.30517,0.44575 -0.47177,0.94603 -0.50028,1.50084c-0.69289,-0.72391 -0.5263,-1.22419 0.50028,-1.50084z" fill="#f6f7f6" opacity="0.625"/><path d="M497.09966,246.53744c1.01407,-0.08105 2.01463,0.0025 3.00169,0.25014c-0.27215,0.3587 -0.60584,0.60884 -1.00056,0.75042c-0.66688,-0.33369 -1.33425,-0.66688 -2.00113,-1.00056z" fill="#f6f7f6" opacity="0.607"/><path d="M37.34093,262.54645c-1.39619,0.60984 -2.81363,1.27672 -4.25239,2.00113c-0.13928,-0.45826 -0.38942,-0.79145 -0.75042,-1.00056c1.37918,-0.61485 3.04676,-0.94853 5.00282,-1.00056z" fill="#f6f7f6" opacity="0.456"/><path d="M593.15372,295.56503c-0.24514,1.57839 -0.58033,3.07923 -1.00056,4.50253c-0.08005,-1.34426 0,-2.67851 0.25014,-4.00225c0.19011,-0.27816 0.44025,-0.44475 0.75042,-0.50028z" fill="#f7f7f7" opacity="0.762"/><path d="M42.84403,297.06588c0.76388,-0.03652 1.26416,0.29717 1.50084,1.00056c-0.76388,0.03652 -1.26416,-0.29717 -1.50084,-1.00056z" fill="#f7f7f7" opacity="0.637"/><path d="M231.95045,297.06588c0.76393,-0.03652 1.26421,0.29717 1.50084,1.00056c-0.76393,0.03652 -1.26421,-0.29717 -1.50084,-1.00056z" fill="#f6f7f6" opacity="0.617"/><path d="M214.4406,297.06588c-0.23663,0.7034 -0.73691,1.03708 -1.50084,1.00056c0.23663,-0.7034 0.73691,-1.03708 1.50084,-1.00056z" fill="#f6f6f6" opacity="0.749"/><path d="M20.83164,299.067c-0.23668,0.7034 -0.73696,1.03708 -1.50084,1.00056c0.23668,-0.7034 0.73696,-1.03708 1.50084,-1.00056z" fill="#f6f6f6" opacity="0.678"/><path d="M212.43947,298.56672c-0.83397,1.16716 -1.83453,2.16772 -3.00169,3.00169c0.50028,-1.50084 1.50084,-2.50141 3.00169,-3.00169z" fill="#f6f6f6" opacity="0.591"/><path d="M233.95158,298.56672c1.16716,0.16659 1.83453,0.83397 2.00113,2.00113c-0.83397,-0.50028 -1.50084,-1.16716 -2.00113,-2.00113z" fill="#f6f6f6" opacity="0.627"/><path d="M425.05912,298.56672c1.50084,0.50028 2.50141,1.50084 3.00169,3.00169c-1.16716,-0.83397 -2.16772,-1.83453 -3.00169,-3.00169z" fill="#f6f6f6" opacity="0.638"/><path d="M400.04505,299.56729c-0.38121,0.8815 -1.04859,1.38178 -2.00113,1.50084c0.38121,-0.8815 1.04859,-1.38178 2.00113,-1.50084z" fill="#f7f7f7" opacity="0.629"/><path d="M18.83052,300.56785c-0.50028,0.83397 -1.16731,1.50084 -2.00113,2.00113c0.16674,-1.16716 0.83382,-1.83453 2.00113,-2.00113z" fill="#f6f6f6" opacity="0.617"/><path d="M47.84685,301.06813c0.70355,0.23663 1.03708,0.73691 1.00056,1.50084c-0.70355,-0.23663 -1.03708,-0.73691 -1.00056,-1.50084z" fill="#f6f6f6" opacity="0.661"/><path d="M209.43778,301.56841c0.03652,0.76393 -0.29717,1.26421 -1.00056,1.50084c-0.03652,-0.76393 0.29717,-1.26421 1.00056,-1.50084z" fill="#f6f6f6" opacity="0.671"/><path d="M236.95327,301.56841c0.7034,0.23663 1.03708,0.73691 1.00056,1.50084c-0.7034,-0.23663 -1.03708,-0.73691 -1.00056,-1.50084z" fill="#f6f6f6" opacity="0.579"/><path d="M428.56109,302.06869c0.7034,0.23663 1.03708,0.73691 1.00056,1.50084c-0.7034,-0.23663 -1.03708,-0.73691 -1.00056,-1.50084z" fill="#f6f6f6" opacity="0.589"/><path d="M239.95495,304.06982c0.72341,-0.55681 1.55738,-0.64036 2.50141,-0.25014c0.37621,0.33569 0.54331,0.75242 0.50028,1.2507c-0.82146,-0.79095 -1.82203,-1.12413 -3.00169,-1.00056z" fill="#f6f6f6" opacity="0.623"/><path d="M623.17061,303.56954c0,1.00056 -0.50028,1.50084 -1.50084,1.50084c0.33519,-0.66688 0.83547,-1.16716 1.50084,-1.50084z" fill="#f6f6f6" opacity="0.664"/><path d="M16.82939,304.5701c0.70355,0.23663 1.03708,0.73691 1.00056,1.50084c-0.70355,-0.23663 -1.03708,-0.73691 -1.00056,-1.50084z" fill="#f6f6f6" opacity="0.644"/><path d="M207.43666,304.5701c0.04903,1.02708 -0.28466,1.86105 -1.00056,2.50141c-0.04903,-1.02708 0.28466,-1.86105 1.00056,-2.50141z" fill="#f6f6f6" opacity="0.62"/><path d="M34.83953,306.07095c-2.19193,-0.06404 -4.3598,0.10256 -6.50366,0.50028c1.06785,-0.76693 2.31855,-1.10062 3.75211,-1.00056c1.01687,0.003 1.93409,0.1696 2.75155,0.50028z" fill="#f6f6f6" opacity="0.626"/><path d="M220.94426,305.57066c-0.50028,0.83397 -1.16716,1.50084 -2.00113,2.00113c0.16659,-1.16716 0.83397,-1.83453 2.00113,-2.00113z" fill="#f6f6f6" opacity="0.644"/><path d="M227.44792,307.57179c-0.04302,0.49828 0.12407,0.91501 0.50028,1.2507c1.16716,0.16659 2.33481,0.33369 3.50197,0.50028c0.29266,0.65137 0.62585,1.2352 1.00056,1.75099c1.37027,7.61479 1.28672,15.2861 -0.25014,23.01295c-0.18711,0.99606 -0.60384,1.83003 -1.2507,2.50141c-0.7034,0.23663 -1.03708,0.73691 -1.00056,1.50084c-0.27916,0.64536 -0.77944,1.0621 -1.50084,1.2507c-1.43431,0.40073 -2.76856,0.31718 -4.00225,-0.25014c-0.50028,-0.83397 -1.16716,-1.50084 -2.00113,-2.00113c-1.90007,-2.80758 -2.73404,-5.97586 -2.50141,-9.50535c0,-4.83622 0,-9.67194 0,-14.50816c-0.83397,0 -1.66744,0 -2.50141,0c0,-0.66688 0,-1.33425 0,-2.00113c0.10356,-1.37127 0.60384,-2.53843 1.50084,-3.50197c0.83397,-0.50028 1.50084,-1.16716 2.00113,-2.00113c2.73554,-1.12513 4.90376,-0.45776 6.50366,2.00113z" fill="#fefefe" opacity="0.992"/><path d="M430.06194,304.5701c1.13014,0.42224 1.63042,1.25621 1.50084,2.50141c-0.57032,-0.77293 -1.0706,-1.6069 -1.50084,-2.50141z" fill="#f6f6f6" opacity="0.807"/><path d="M409.55039,306.07095c-0.50729,0.58733 -1.17416,0.92052 -2.00113,1.00056c0.39372,-0.80245 1.0606,-1.13614 2.00113,-1.00056z" fill="#f6f6f6" opacity="0.592"/><path d="M605.16047,306.57123c5.25796,-0.57983 10.59596,-0.57983 16.00901,0c-5.24295,0.13858 -10.58095,0.13858 -16.00901,0z" fill="#f7f7f7" opacity="0.547"/><path d="M605.16047,306.57123c-0.50528,0.68639 -1.00557,1.35326 -1.50084,2.00113c-0.20512,-1.2372 0.29517,-1.90407 1.50084,-2.00113z" fill="#f7f7f7" opacity="0.548"/><path d="M26.83502,307.57179c-0.23668,0.7034 -0.73696,1.03708 -1.50084,1.00056c0.23668,-0.7034 0.73696,-1.03708 1.50084,-1.00056z" fill="#f6f6f6" opacity="0.562"/><path d="M227.44792,307.57179c1.34526,0.80545 2.8461,1.22219 4.50253,1.2507c0.44025,0.67838 0.60734,1.4288 0.50028,2.25127c-0.37471,-0.51579 -0.7079,-1.09962 -1.00056,-1.75099c-1.16716,-0.16659 -2.33481,-0.33369 -3.50197,-0.50028c-0.37621,-0.33569 -0.54331,-0.75242 -0.50028,-1.2507z" fill="#f7f7f7" opacity="0.651"/><path d="M416.55434,307.07151c1.30674,0.77644 1.97361,1.94409 2.00113,3.50197c-0.79195,-1.08211 -1.45882,-2.24927 -2.00113,-3.50197z" fill="#f6f6f6" opacity="0.595"/><path d="M406.04842,308.07207c-0.37121,0.92552 -0.87149,1.25871 -1.50084,1.00056c0.23663,-0.7034 0.73691,-1.03708 1.50084,-1.00056z" fill="#f5f5f5" opacity="0.676"/><path d="M603.65963,309.07264c0.08005,1.17916 0,2.34632 -0.25014,3.50197c-0.19011,0.27816 -0.44025,0.44475 -0.75042,0.50028c0.23013,-1.4158 0.56532,-2.75005 1.00056,-4.00225z" fill="#f6f6f6" opacity="0.746"/><path d="M24.8339,309.07264c-0.31728,0.72391 -0.90096,1.05709 -1.75099,1.00056c-0.5352,-0.01401 -0.95214,-0.1806 -1.2507,-0.50028c1.03298,-0.0085 2.03354,-0.1751 3.00169,-0.50028z" fill="#f6f6f6" opacity="0.513"/><path d="M418.55546,310.57348c0.64386,0.68589 0.97705,1.6034 1.00056,2.75155c-0.003,1.01707 -0.1696,1.93409 -0.50028,2.75155c0.12807,-1.88556 -0.03852,-3.72009 -0.50028,-5.5031z" fill="#f7f7f7" opacity="0.597"/><path d="M217.44229,311.07376c0,0.66688 0,1.33425 0,2.00113c0.83397,0 1.66744,0 2.50141,0c0,4.83622 0,9.67194 0,14.50816c-0.49728,-4.57858 -0.66387,-9.2477 -0.50028,-14.00788c-0.83397,0 -1.66744,0 -2.50141,0c-0.14208,-0.95804 0.02451,-1.79151 0.50028,-2.50141z" fill="#f6f6f6" opacity="0.744"/><path d="M602.65907,313.07489c-0.32018,0.49128 -0.65537,0.99156 -1.00056,1.50084c0.41023,0.44325 0.91051,0.60984 1.50084,0.50028c-0.5353,0.46726 -1.20068,0.63436 -2.00113,0.50028c-0.29016,-1.39328 0.21012,-2.22725 1.50084,-2.50141z" fill="#f6f6f6" opacity="0.693"/><path d="M204.43497,315.07601c0,1.33425 0,2.668 0,4.00225c1.00056,0 2.00113,0 3.00169,0c0,2.50141 0,5.00282 0,7.50422c-0.49328,-2.23626 -0.65987,-4.57107 -0.50028,-7.00394c-1.00056,0 -2.00113,0 -3.00169,0c-0.15509,-1.6074 0.01151,-3.10825 0.50028,-4.50253z" fill="#f6f6f6" opacity="0.644"/><path d="M590.65231,317.57742c-0.91051,1.67394 -1.2457,3.50847 -1.00056,5.5031c-0.57032,-1.57088 -0.65537,-3.23832 -0.25014,-5.00282c0.33519,-0.37621 0.75042,-0.54331 1.2507,-0.50028z" fill="#f6f6f6" opacity="0.749"/><path d="M618.16779,318.57798c1.00056,0 1.50084,0.50028 1.50084,1.50084c-0.66537,-0.33369 -1.16566,-0.83397 -1.50084,-1.50084z" fill="#f6f6f6" opacity="0.898"/><path d="M50.84854,319.57855c0.04903,1.02708 -0.28466,1.86105 -1.00056,2.50141c-0.04898,-1.02708 0.28466,-1.86105 1.00056,-2.50141z" fill="#f7f7f7" opacity="0.692"/><path d="M417.05462,320.57911c0.03652,0.76393 -0.29717,1.26421 -1.00056,1.50084c-0.03652,-0.76393 0.29717,-1.26421 1.00056,-1.50084z" fill="#f6f6f6" opacity="0.607"/><path d="M36.84065,321.07939c0.03652,0.76393 -0.29702,1.26421 -1.00056,1.50084c-0.03652,-0.76393 0.29702,-1.26421 1.00056,-1.50084z" fill="#f7f7f7" opacity="0.668"/><path d="M35.84009,322.58024c0.03652,0.76393 -0.29702,1.26421 -1.00056,1.50084c-0.03652,-0.76393 0.29702,-1.26421 1.00056,-1.50084z" fill="#f6f6f6" opacity="0.664"/><path d="M621.66976,323.08052c0.80045,0.39372 1.13564,1.0606 1.00056,2.00113c-0.58533,-0.50729 -0.92052,-1.17416 -1.00056,-2.00113z" fill="#f6f6f6" opacity="0.68"/><path d="M415.05349,323.5808c0.03652,0.76393 -0.29717,1.26421 -1.00056,1.50084c-0.03652,-0.76393 0.29717,-1.26421 1.00056,-1.50084z" fill="#f7f7f7" opacity="0.611"/><path d="M48.84741,324.08108c0.03652,0.76393 -0.29702,1.26421 -1.00056,1.50084c-0.03652,-0.76393 0.29702,-1.26421 1.00056,-1.50084z" fill="#f7f7f7" opacity="0.628"/><path d="M34.33925,324.58136c0.03652,0.76393 -0.29702,1.26421 -1.00056,1.50084c-0.03652,-0.76393 0.29702,-1.26421 1.00056,-1.50084z" fill="#f5f5f5" opacity="0.659"/><path d="M591.65287,324.58136c0.76543,-0.03652 1.26571,0.29717 1.50084,1.00056c-0.76543,0.03652 -1.26571,-0.29717 -1.50084,-1.00056z" fill="#f7f7f7" opacity="0.633"/><path d="M428.56109,324.58136c0.03652,0.76393 -0.29717,1.26421 -1.00056,1.50084c-0.03652,-0.76393 0.29717,-1.26421 1.00056,-1.50084z" fill="#f3f3f3" opacity="0.067"/><path d="M606.66132,325.08164c0.76543,-0.03652 1.26571,0.29717 1.50084,1.00056c-0.76543,0.03652 -1.26571,-0.29717 -1.50084,-1.00056z" fill="#f7f7f7" opacity="0.632"/><path d="M413.55265,325.58193c-0.11907,0.95254 -0.61935,1.61991 -1.50084,2.00113c0.11907,-0.95254 0.61935,-1.61991 1.50084,-2.00113z" fill="#f7f7f7" opacity="0.604"/><path d="M427.56053,326.08221c0.03652,0.76393 -0.29717,1.26421 -1.00056,1.50084c-0.03652,-0.76393 0.29717,-1.26421 1.00056,-1.50084z" fill="#f7f7f7" opacity="0.657"/><path d="M608.66244,326.58249c1.16566,0.83847 1.66594,2.00563 1.50084,3.50197c-0.62035,-1.07511 -1.12063,-2.24226 -1.50084,-3.50197z" fill="#f6f6f6" opacity="0.577"/><path d="M32.33812,327.08277c-0.11887,0.95254 -0.61915,1.61991 -1.50084,2.00113c0.11887,-0.95254 0.61915,-1.61991 1.50084,-2.00113z" fill="#f6f7f6" opacity="0.607"/><path d="M47.34657,326.58249c0.03652,0.76393 -0.29702,1.26421 -1.00056,1.50084c-0.03652,-0.76393 0.29702,-1.26421 1.00056,-1.50084z" fill="#f3f3f3" opacity="0.067"/><path d="M426.55997,327.58305c0.03652,0.76393 -0.29717,1.26421 -1.00056,1.50084c-0.03652,-0.76393 0.29717,-1.26421 1.00056,-1.50084z" fill="#f7f7f7" opacity="0.678"/><path d="M411.05124,328.58361c-0.96554,1.80101 -2.29979,3.30186 -4.00225,4.50253c0.96554,-1.80101 2.29979,-3.30186 4.00225,-4.50253z" fill="#f6f6f6" opacity="0.601"/><path d="M425.5594,329.0839c0.03652,0.76393 -0.29717,1.26421 -1.00056,1.50084c-0.03652,-0.76393 0.29717,-1.26421 1.00056,-1.50084z" fill="#f5f5f5" opacity="0.082"/><path d="M44.84516,330.08446c0.03652,0.76393 -0.29702,1.26421 -1.00056,1.50084c-0.03652,-0.76393 0.29702,-1.26421 1.00056,-1.50084z" fill="#f6f7f6" opacity="0.587"/><path d="M424.05856,331.08502c-0.11907,0.95254 -0.61935,1.61991 -1.50084,2.00113c0.11907,-0.95254 0.61935,-1.61991 1.50084,-2.00113z" fill="#f6f6f6" opacity="0.645"/><path d="M42.84403,332.58587c-0.11887,0.95254 -0.61915,1.61991 -1.50084,2.00113c0.11887,-0.95254 0.61915,-1.61991 1.50084,-2.00113z" fill="#f6f6f6" opacity="0.612"/><path d="M421.55715,334.08671c-0.29016,1.12513 -0.95704,1.9586 -2.00113,2.50141c0.29016,-1.12513 0.95704,-1.9586 2.00113,-2.50141z" fill="#f6f6f6" opacity="0.619"/><path d="M610.16329,334.58699c0.16509,1.49634 -0.33519,2.6635 -1.50084,3.50197c0.38021,-1.25971 0.8805,-2.42687 1.50084,-3.50197z" fill="#f6f6f6" opacity="0.577"/><path d="M230.94989,336.58812c0.03652,0.76393 -0.29717,1.26421 -1.00056,1.50084c-0.03652,-0.76393 0.29717,-1.26421 1.00056,-1.50084z" fill="#f6f6f6" opacity="0.641"/><path d="M592.65343,337.0884c-0.85048,-0.08005 -1.68595,0.003 -2.50141,0.25014c-0.60534,0.68839 -1.27072,1.27172 -2.00113,1.75099c0.78544,-2.37584 2.28629,-3.04321 4.50253,-2.00113z" fill="#f6f6f6" opacity="0.671"/><path d="M222.4451,337.0884c0.83397,0.50028 1.50084,1.16716 2.00113,2.00113c-1.16716,-0.16659 -1.83453,-0.83397 -2.00113,-2.00113z" fill="#f6f6f6" opacity="0.564"/><path d="M404.54758,335.58756c-1.36627,1.86805 -3.03371,3.3689 -5.00282,4.50253c1.36627,-1.86805 3.03371,-3.3689 5.00282,-4.50253z" fill="#f6f6f6" opacity="0.593"/><path d="M608.16216,338.58925c-0.23513,0.7034 -0.73541,1.03708 -1.50084,1.00056c0.23513,-0.7034 0.73541,-1.03708 1.50084,-1.00056z" fill="#f7f7f7" opacity="0.659"/><path d="M622.67033,338.58925c0,0.50028 0,1.00056 0,1.50084c0.59033,-0.10956 1.09061,0.05703 1.50084,0.50028c-0.06003,0.30367 -0.23013,0.47026 -0.50028,0.50028c-0.3552,-0.45225 -0.85548,-0.61885 -1.50084,-0.50028c-0.13508,-0.79995 0.03502,-1.46683 0.50028,-2.00113z" fill="#f7f7f7" opacity="0.653"/><path d="M38.3415,339.08953c5.5031,0 11.00619,0 16.50929,0c0.11857,0.64586 -0.04803,1.14614 -0.50028,1.50084c-5.2334,-0.82947 -10.56975,-1.32975 -16.00901,-1.50084z" fill="#f6f6f6" opacity="0.812"/><path d="M418.05518,339.08953c5.66969,0 11.33988,0 17.00957,0c-0.27616,3.40892 -0.60984,6.7443 -1.00056,10.00563c-0.15509,-3.13076 0.01201,-6.2155 0.50028,-9.25521c-5.59015,-0.08505 -11.09324,-0.33519 -16.50929,-0.75042z" fill="#f7f7f7" opacity="0.689"/><path d="M596.15541,339.08953c1.02558,-0.04903 1.86105,0.28466 2.50141,1.00056c-1.02558,0.04903 -1.86105,-0.28466 -2.50141,-1.00056z" fill="#f6f6f6" opacity="0.757"/><path d="M19.3308,340.59037c-0.50028,0.83397 -1.16731,1.50084 -2.00113,2.00113c0.16674,-1.16716 0.83382,-1.83453 2.00113,-2.00113z" fill="#f6f6f6" opacity="0.605"/><path d="M211.93919,342.09122c0.7034,0.23663 1.03708,0.73691 1.00056,1.50084c-0.7034,-0.23663 -1.03708,-0.73691 -1.00056,-1.50084z" fill="#f7f7f7" opacity="0.658"/><path d="M586.65006,341.09065c-0.38522,1.29873 -0.55031,2.63298 -0.50028,4.00225c-0.32518,-0.47477 -0.49528,-1.0581 -0.50028,-1.75099c-0.09505,-1.00457 0.23513,-1.75499 1.00056,-2.25127z" fill="#f6f6f6" opacity="0.831"/><path d="M623.17061,342.09122c0.03502,0.76393 -0.29517,1.26421 -1.00056,1.50084c-0.03502,-0.76393 0.29517,-1.26421 1.00056,-1.50084z" fill="#f4f4f4" opacity="0.075"/><path d="M213.44003,344.09234c1.00056,0.66688 1.83453,1.50084 2.50141,2.50141c-1.33425,-0.33369 -2.16772,-1.16716 -2.50141,-2.50141z" fill="#f7f7f7" opacity="0.61"/><path d="M586.65006,345.59319c0.76543,-0.03652 1.26571,0.29717 1.50084,1.00056c-0.76543,0.03652 -1.26571,-0.29717 -1.50084,-1.00056z" fill="#f7f7f7" opacity="0.631"/><path d="M620.16892,345.59319c-0.38021,0.8815 -1.05059,1.38178 -2.00113,1.50084c0.38021,-0.8815 1.05059,-1.38178 2.00113,-1.50084z" fill="#f6f6f6" opacity="0.658"/><path d="M216.942,347.09403c0.76393,-0.03652 1.26421,0.29717 1.50084,1.00056c-0.76393,0.03652 -1.26421,-0.29717 -1.50084,-1.00056z" fill="#f7f7f7" opacity="0.654"/><path d="M590.65231,348.09459c0.82546,0.08005 1.49584,0.41323 2.00113,1.00056c-0.94053,0.13558 -1.6059,-0.19811 -2.00113,-1.00056z" fill="#f7f7f7" opacity="0.702"/><path d="M233.4513,348.09459c-0.23663,0.7034 -0.73691,1.03708 -1.50084,1.00056c0.23663,-0.7034 0.73691,-1.03708 1.50084,-1.00056z" fill="#f5f5f5" opacity="0.082"/><path d="M434.06419,349.09516c-0.09705,1.20668 -0.76393,1.70696 -2.00113,1.50084c0.64786,-0.49428 1.31474,-0.99456 2.00113,-1.50084z" fill="#f7f7f7" opacity="0.703"/><path d="M219.44341,349.59544c-0.20912,0.3612 -0.54231,0.61134 -1.00056,0.75042c0.27816,0.19161 0.44475,0.44175 0.50028,0.75042c-0.77444,-0.16059 -1.10812,-0.66087 -1.00056,-1.50084c0.50028,0 1.00056,0 1.50084,0z" fill="#f7f7f7" opacity="0.684"/><path d="M17.32967,342.5915c-0.0829,2.17422 0.0005,4.34194 0.25014,6.50366c0.25014,0.25014 0.50028,0.50028 0.75042,0.75042c4.0909,0.08555 8.09315,0.33569 12.00676,0.75042c-4.17235,0.08305 -8.34134,0 -12.50704,-0.25014c-0.25014,-0.25014 -0.50028,-0.50028 -0.75042,-0.75042c-0.40778,-2.42737 -0.32438,-4.76218 0.25014,-7.00394z" fill="#f6f6f6" opacity="0.894"/><path d="M398.04392,350.09572c11.33738,0.30617 22.67676,0.47327 34.01914,0.50028c-11.34839,0.65187 -22.68777,0.48477 -34.01914,-0.50028z" fill="#f7f7f7" opacity="0.486"/><path d="M601.15822,350.09572c-1.2457,1.04259 -2.58145,1.20918 -4.00225,0.50028c1.35576,-0.03752 2.68651,-0.20411 4.00225,-0.50028z" fill="#f6f6f6" opacity="0.547"/></g></g></svg>