<svg version="1.1" xmlns="http://www.w3.org/2000/svg" xmlns:xlink="http://www.w3.org/1999/xlink" width="1343.35377" height="256.01656" viewBox="0,0,1343.35377,256.01656"><g transform="translate(691.10151,-35.10079)"><g stroke="none" stroke-miterlimit="10"><g stroke-width="1"><g fill-rule="evenodd"><path d="M-688.68618,167.35079c212.45262,0 166.92426,0 379.37688,0c0,96.59947 0,-62.33558 0,34.26389c-212.45262,0 -166.92426,0 -379.37688,0c0,-96.59947 0,62.33558 0,-34.26389zM-689.73777,172.78096c126.80723,0.49794 253.61346,0.66375 380.42267,0.49794c0,5.31148 0,10.62246 0,15.93393c-126.80922,-0.16581 -253.61545,0 -380.42267,0.49794c-2.19689,4.98583 -1.39621,-19.23824 0,-16.92981z" fill="#fefefe"/><path d="M-657.86991,176.26652c9.7929,0 19.58529,0 29.37819,0c0,3.31974 0,6.63897 0,9.95871c-9.7929,0 -19.58529,0 -29.37819,0c0,-3.31974 0,-6.63897 0,-9.95871z" fill="#fefefe"/><path d="M-594.63212,176.26652c9.7929,0 19.58529,0 29.37819,0c0,3.31974 0,6.63897 0,9.95871c-9.7929,0 -19.58529,0 -29.37819,0c0,-3.31974 0,-6.63897 0,-9.95871z" fill="#fefffe"/><path d="M-529.90051,176.26652c8.79703,0 17.59355,0 26.39058,0c0,3.31974 0,6.63897 0,9.95871c-8.79703,0 -17.59355,0 -26.39058,0c0,-3.31974 0,-6.63897 0,-9.95871z" fill="#fefefe"/><path d="M-466.66272,176.26652c8.63071,0 17.26193,0 25.89264,0c0,3.31974 0,6.63897 0,9.95871c-8.63071,0 -17.26193,0 -25.89264,0c0,-3.31974 0,-6.63897 0,-9.95871z" fill="#fefffe"/><path d="M-406.91046,176.26652c9.79439,0 19.5838,0 29.37819,0c0,3.31974 0,6.63897 0,9.95871c-9.79439,0 -19.5838,0 -29.37819,0c0,-3.31974 0,-6.63897 0,-9.95871z" fill="#fefffe"/><path d="M-342.17886,176.26652c9.95871,0 19.91742,0 29.87613,0c0,3.31974 0,6.63897 0,9.95871c-9.95871,0 -19.91742,0 -29.87613,0c0,-3.31974 0,-6.63897 0,-9.95871z" fill="#fefffe"/><path d="M-688.68618,167.35079c212.45262,0 166.92426,0 379.37688,0c0,96.59947 0,-62.33558 0,34.26389c-212.45262,0 -166.92426,0 -379.37688,0c0,-96.59947 0,62.33558 0,-34.26389zM-688.53778,172.78096c126.80723,0.49794 252.41346,0.66375 379.22267,0.49794c0,5.31148 0,10.62246 0,15.93393c-126.80922,-0.16581 -253.61545,0 -380.42267,0.49794c-2.19689,4.98583 -0.19621,-19.23824 1.2,-16.92981z" fill="#fefefe"/><path d="M-657.86991,176.26652c9.7929,0 19.58529,0 29.37819,0c0,3.31974 0,6.63897 0,9.95871c-9.7929,0 -19.58529,0 -29.37819,0c0,-3.31974 0,-6.63897 0,-9.95871z" fill="#fefefe"/><path d="M-594.63212,176.26652c9.7929,0 19.58529,0 29.37819,0c0,3.31974 0,6.63897 0,9.95871c-9.7929,0 -19.58529,0 -29.37819,0c0,-3.31974 0,-6.63897 0,-9.95871z" fill="#fefffe"/><path d="M-529.90051,176.26652c8.79703,0 17.59355,0 26.39058,0c0,3.31974 0,6.63897 0,9.95871c-8.79703,0 -17.59355,0 -26.39058,0c0,-3.31974 0,-6.63897 0,-9.95871z" fill="#fefefe"/><path d="M-466.66272,176.26652c8.63071,0 17.26193,0 25.89264,0c0,3.31974 0,6.63897 0,9.95871c-8.63071,0 -17.26193,0 -25.89264,0c0,-3.31974 0,-6.63897 0,-9.95871z" fill="#fefffe"/><path d="M-406.91046,176.26652c9.79439,0 19.5838,0 29.37819,0c0,3.31974 0,6.63897 0,9.95871c-9.79439,0 -19.5838,0 -29.37819,0c0,-3.31974 0,-6.63897 0,-9.95871z" fill="#fefffe"/><path d="M-342.17886,176.26652c9.95871,0 19.91742,0 29.87613,0c0,3.31974 0,6.63897 0,9.95871c-9.95871,0 -19.91742,0 -29.87613,0c0,-3.31974 0,-6.63897 0,-9.95871z" fill="#fefffe"/></g><g><path d="M-312.26933,167.35079c212.45262,0 166.92426,0 379.37688,0c0,96.59947 0,-62.33558 0,34.26389c-212.45262,0 -166.92426,0 -379.37688,0c0,-4.50869 0,-8.46072 0,-11.90803c105.06931,-0.41106 357.98337,-0.52179 379.37108,-0.49382c0,-5.31147 0,-10.62245 0,-15.93393c-21.38786,0.02797 -274.30192,-0.08276 -379.37108,-0.49382c0,0.0038 0,0.0076 0,0.0114c-0.00693,-0.00386 -0.01388,-0.00769 -0.02084,-0.01148c0.00695,0.00003 0.0139,0.00005 0.02084,0.00008c0,-1.71416 0,-3.52428 0,-5.43429z" fill="#fefefe" fill-rule="nonzero"/><path d="M-312.32443,189.70686c0.0192,-0.05126 0.03756,-0.10328 0.0551,-0.156c0,0.05181 0,0.10374 0,0.15579c-0.01837,0.00007 -0.03674,0.00014 -0.0551,0.00022z" fill="#fefefe" fill-rule="nonzero"/><path d="M-312.26933,189.70664c0,0.00001 0,0.00001 0,0.00001c0,-0.00001 0,-0.00001 0,-0.00001z" fill="#fefefe" fill-rule="nonzero"/><path d="M-281.45306,176.26652c9.7929,0 19.58529,0 29.37819,0c0,3.31974 0,6.63897 0,9.95871c-9.7929,0 -19.58529,0 -29.37819,0c0,-3.31974 0,-6.63897 0,-9.95871z" fill="#fefefe" fill-rule="evenodd"/><path d="M-218.21527,176.26652c9.7929,0 19.58529,0 29.37819,0c0,3.31974 0,6.63897 0,9.95871c-9.7929,0 -19.58529,0 -29.37819,0c0,-3.31974 0,-6.63897 0,-9.95871z" fill="#fefffe" fill-rule="evenodd"/><path d="M-153.48366,176.26652c8.79703,0 17.59355,0 26.39058,0c0,3.31974 0,6.63897 0,9.95871c-8.79703,0 -17.59355,0 -26.39058,0c0,-3.31974 0,-6.63897 0,-9.95871z" fill="#fefefe" fill-rule="evenodd"/><path d="M-90.24586,176.26652c8.63071,0 17.26193,0 25.89264,0c0,3.31974 0,6.63897 0,9.95871c-8.63071,0 -17.26193,0 -25.89264,0c0,-3.31974 0,-6.63897 0,-9.95871z" fill="#fefffe" fill-rule="evenodd"/><path d="M-30.49361,176.26652c9.79439,0 19.5838,0 29.37819,0c0,3.31974 0,6.63897 0,9.95871c-9.79439,0 -19.5838,0 -29.37819,0c0,-3.31974 0,-6.63897 0,-9.95871z" fill="#fefffe" fill-rule="evenodd"/><path d="M34.23799,176.26652c9.95871,0 19.91742,0 29.87613,0c0,3.31974 0,6.63897 0,9.95871c-9.95871,0 -19.91742,0 -29.87613,0c0,-3.31974 0,-6.63897 0,-9.95871z" fill="#fefffe" fill-rule="evenodd"/><path d="" fill="#fefefe" fill-rule="evenodd"/><path d="M-281.45306,176.26652c9.7929,0 19.58529,0 29.37819,0c0,3.31974 0,6.63897 0,9.95871c-9.7929,0 -19.58529,0 -29.37819,0c0,-3.31974 0,-6.63897 0,-9.95871z" fill="#fefefe" fill-rule="evenodd"/><path d="M-218.21527,176.26652c9.7929,0 19.58529,0 29.37819,0c0,3.31974 0,6.63897 0,9.95871c-9.7929,0 -19.58529,0 -29.37819,0c0,-3.31974 0,-6.63897 0,-9.95871z" fill="#fefffe" fill-rule="evenodd"/><path d="M-153.48366,176.26652c8.79703,0 17.59355,0 26.39058,0c0,3.31974 0,6.63897 0,9.95871c-8.79703,0 -17.59355,0 -26.39058,0c0,-3.31974 0,-6.63897 0,-9.95871z" fill="#fefefe" fill-rule="evenodd"/><path d="M-90.24586,176.26652c8.63071,0 17.26193,0 25.89264,0c0,3.31974 0,6.63897 0,9.95871c-8.63071,0 -17.26193,0 -25.89264,0c0,-3.31974 0,-6.63897 0,-9.95871z" fill="#fefffe" fill-rule="evenodd"/><path d="M-30.49361,176.26652c9.79439,0 19.5838,0 29.37819,0c0,3.31974 0,6.63897 0,9.95871c-9.79439,0 -19.5838,0 -29.37819,0c0,-3.31974 0,-6.63897 0,-9.95871z" fill="#fefffe" fill-rule="evenodd"/><path d="M34.23799,176.26652c9.95871,0 19.91742,0 29.87613,0c0,3.31974 0,6.63897 0,9.95871c-9.95871,0 -19.91742,0 -29.87613,0c0,-3.31974 0,-6.63897 0,-9.95871z" fill="#fefffe" fill-rule="evenodd"/></g></g><path d="M-6.18618,35.10079c212.45262,0 444.42426,0 656.87688,0c0,96.59947 0,158.66442 0,255.26389c-212.45262,0 -444.42426,0 -656.87688,0c0,-96.59947 0,-158.66442 0,-255.26389zM144.22882,86.38814c15.95485,-1.32491 26.41149,5.56343 31.36993,20.66432c-0.85147,1.1811 -2.01365,2.01066 -3.48555,2.48968c-1.94245,0.97944 -3.93419,1.64319 -5.97523,1.99174c-4.98633,-13.11512 -13.94916,-16.93279 -26.88851,-11.45252c-6.27,4.9923 -9.25762,11.54862 -8.96284,19.66845c-0.10307,8.17411 3.05035,14.72993 9.46077,19.66845c8.31204,3.96855 15.69791,2.72371 22.15813,-3.73452c1.83639,-2.6769 3.41285,-5.4982 4.73039,-8.4649c3.15343,1.41065 6.30735,2.8218 9.46077,4.23245c-5.27911,15.75816 -16.23369,22.72926 -32.86374,20.91329c-9.74659,-2.10726 -16.46872,-7.83352 -20.16639,-17.17877c-4.42565,-12.75561 -3.42978,-25.03769 2.98761,-36.84722c4.4869,-6.43034 10.54528,-10.41382 18.17464,-11.95045zM353.3617,86.38814c17.33761,-0.83554 28.20904,7.13143 32.61477,23.9009c2.43939,11.93203 0.28183,22.88661 -6.47316,32.86374c-9.58028,9.67588 -20.78383,12.0824 -33.61064,7.22006c-9.2611,-4.95645 -14.65524,-12.67445 -16.1829,-23.154c-1.69398,-10.05531 -0.03386,-19.51608 4.97935,-28.38232c4.57652,-6.6564 10.80072,-10.8057 18.67258,-12.44839zM455.43847,86.38814c15.80248,-0.95006 26.25912,6.02104 31.36993,20.91329c-2.54395,1.52219 -5.19944,2.93284 -7.96697,4.23245c-0.64383,0.24399 -1.30808,0.32714 -1.99174,0.24897c-3.29036,-11.0213 -10.59358,-15.58588 -21.90916,-13.69322c-9.50409,3.89037 -13.98551,11.02778 -13.44426,21.41122c-0.42125,7.94805 2.40005,14.42121 8.4649,19.41948c9.89647,5.16359 18.1124,3.255 24.6478,-5.72626c1.17214,-1.84385 1.91904,-3.8356 2.24071,-5.97523c3.48555,1.10741 6.80479,2.60121 9.95871,4.48142c-3.95311,13.42733 -12.91595,20.39842 -26.88851,20.91329c-13.42932,-0.23403 -22.309,-6.70719 -26.63955,-19.41948c-3.45069,-11.90364 -2.28851,-23.35616 3.48555,-34.35755c4.54764,-6.71018 10.77184,-10.85997 18.67258,-12.44839zM6.30069,87.88194c3.7394,-0.65727 7.55692,-0.65727 11.45252,0c5.1856,9.21031 10.49693,18.33946 15.93393,27.38645c5.40728,-9.23521 10.88457,-18.44701 16.43187,-27.63542c3.65136,-0.33212 7.30322,-0.33212 10.95458,0c-7.5741,12.40855 -14.96037,24.93959 -22.15813,37.59413c-0.24892,8.62922 -0.33192,17.25994 -0.24897,25.89264c-3.31959,0 -6.63912,0 -9.95871,0c0.08296,-8.63271 -0.00005,-17.26342 -0.24897,-25.89264c-7.14826,-12.64407 -14.53429,-25.09246 -22.15813,-37.34516zM81.48894,87.38401c4.27478,-0.15785 8.50723,0.00846 12.69735,0.49794c7.20911,21.04673 14.26336,42.12633 21.16226,63.2378c-3.50148,0.16432 -6.98703,-0.00149 -10.45664,-0.49794c-1.53115,-4.09452 -2.85865,-8.24382 -3.98348,-12.44839c-8.79703,0 -17.59355,0 -26.39058,0c-0.97645,4.34001 -2.30445,8.57246 -3.98348,12.69735c-3.4975,0.41378 -6.98305,0.33063 -10.45664,-0.24897c7.0433,-21.13039 14.18021,-42.20949 21.41122,-63.2378zM185.55745,87.38401c3.15343,0 6.30735,0 9.46077,0c0,8.29909 0,16.59768 0,24.89677c10.45664,0 20.91329,0 31.36993,0c0,-8.29909 0,-16.59768 0,-24.89677c3.15343,0 6.30735,0 9.46077,0c0,21.24541 0,42.49032 0,63.73574c-3.15343,0 -6.30735,0 -9.46077,0c0.16233,-9.24965 -0.00349,-18.46145 -0.49794,-27.63542c-10.28934,-0.24897 -20.58017,-0.33212 -30.872,-0.24897c0,9.29496 0,18.58942 0,27.88438c-3.15343,0 -6.30735,0 -9.46077,0c0,-21.24541 0,-42.49032 0,-63.73574zM248.79526,87.38401c3.31974,0 6.63897,0 9.95871,0c0,21.24541 0,42.49032 0,63.73574c-3.31974,0 -6.63897,0 -9.95871,0c0,-21.24541 0,-42.49032 0,-63.73574zM268.71268,87.38401c3.77784,-0.15635 7.51235,0.00946 11.20355,0.49794c5.31148,9.29496 10.62246,18.58942 15.93393,27.88438c5.31148,-9.29496 10.62246,-18.58942 15.93393,-27.88438c3.70564,-0.65379 7.44015,-0.65379 11.20355,0c-7.51185,12.53254 -14.89773,25.14674 -22.15813,37.84309c-0.24897,8.46341 -0.33212,16.92831 -0.24897,25.39471c-3.15343,0 -6.30735,0 -9.46077,0c0.08316,-8.4664 0,-16.9313 -0.24897,-25.39471c-7.51285,-12.7332 -14.89922,-25.51322 -22.15813,-38.34103zM498.75885,87.38401c3.32123,0 6.63748,0 9.95871,0c0,21.24541 0,42.49032 0,63.73574c-3.32123,0 -6.63748,0 -9.95871,0c0,-21.24541 0,-42.49032 0,-63.73574zM519.67211,87.38401c17.26342,0 34.52186,0 51.78529,0c0,3.65136 0,7.30322 0,10.95458c-6.9711,0 -13.94219,0 -20.91329,0c0,17.59355 0,35.1876 0,52.78116c-3.48555,0 -6.9711,0 -10.45664,0c0,-17.59355 0,-35.1876 0,-52.78116c-6.80678,0 -13.60858,0 -20.41535,0c0,-3.65136 0,-7.30322 0,-10.95458zM576.43675,87.88194c3.7395,-0.65727 7.55866,-0.65727 11.45252,0c5.18351,9.21031 10.49648,18.33946 15.93393,27.38645c5.40758,-9.23521 10.88487,-18.44701 16.43187,-27.63542c3.64987,-0.33212 7.30471,-0.33212 10.95458,0c-7.5736,12.40855 -14.95798,24.93959 -22.15813,37.59413c-0.24897,8.62922 -0.33362,17.25994 -0.24897,25.89264c-3.32123,0 -6.63748,0 -9.95871,0c0.08465,-8.63271 0,-17.26342 -0.24897,-25.89264c-7.15035,-12.64407 -14.53474,-25.09246 -22.15813,-37.34516zM233.8572,161.07845c3.86049,-0.19718 7.67816,0.05179 11.45252,0.7469c2.41598,1.13977 4.73935,2.46777 6.9711,3.98348c1.5914,2.17299 3.08521,4.4137 4.48142,6.72213c126.80723,0.49794 253.61346,0.66375 380.42267,0.49794c0,5.31148 0,10.62246 0,15.93393c-126.80922,-0.16581 -253.61545,0 -380.42267,0.49794c-2.19689,4.98583 -5.84875,8.38872 -10.95458,10.20768c-9.02309,2.86861 -16.74109,0.79371 -23.154,-6.22419c-0.64732,-1.39173 -1.39422,-2.71923 -2.24071,-3.98348c-72.53177,-0.49794 -154.16453,-0.66375 -226.69779,-0.49794c0,-5.31148 0,-10.62246 0,-15.93393c72.53326,0.16581 154.16602,0 226.69779,-0.49794c2.81881,-5.80891 7.30023,-9.62659 13.44426,-11.45252zM22.73256,209.37819c14.0842,-1.42708 23.54498,4.46499 28.38232,17.67671c-2.60779,1.59489 -5.34643,3.00554 -8.21593,4.23245c-4.05125,-11.03027 -11.60324,-14.59897 -22.65606,-10.70561c-4.52583,2.81782 -7.26448,6.88396 -8.21593,12.19942c-1.74392,8.71686 0.82876,15.77111 7.718,21.16226c8.30875,3.84058 15.19684,2.0978 20.66432,-5.22832c0.93019,-1.54609 1.51113,-3.20571 1.74277,-4.97935c3.25351,0.79819 6.24112,2.12618 8.96284,3.98348c-5.06555,14.07215 -15.02426,19.79841 -29.87613,17.17877c-10.51062,-3.38148 -16.56882,-10.60154 -18.17464,-21.66019c-1.69445,-10.74296 1.0442,-20.12058 8.21593,-28.13335c3.45224,-2.72221 7.26971,-4.6308 11.45252,-5.72626zM177.09256,209.37819c14.22104,-1.44302 23.68181,4.53221 28.38232,17.92568c-2.74611,1.45547 -5.56791,2.78346 -8.4649,3.98348c-4.25038,-11.56853 -12.05153,-14.97093 -23.40297,-10.20768c-5.22583,4.06166 -7.88132,9.45579 -7.96697,16.1829c0.16681,10.86694 5.56094,17.17429 16.1829,18.92155c7.83103,-0.71653 12.72723,-4.86583 14.6891,-12.44839c3.23011,0.85247 6.21772,2.18046 8.96284,3.98348c-4.5352,12.57884 -13.49803,18.47141 -26.88851,17.67671c-11.19558,-1.73431 -18.08352,-8.12431 -20.66432,-19.17051c-2.90097,-12.05054 -0.16233,-22.59033 8.21593,-31.6189c3.37451,-2.4349 7.02587,-4.17768 10.95458,-5.22832zM59.08184,209.87613c2.98761,0 5.97523,0 8.96284,0c0,7.13691 0,14.27432 0,21.41122c8.79703,0 17.59355,0 26.39058,0c0,-7.13691 0,-14.27432 0,-21.41122c2.98761,0 5.97523,0 8.96284,0c0,18.09149 0,36.18347 0,54.27496c-2.98761,0 -5.97523,0 -8.96284,0c0,-7.80115 0,-15.60181 0,-23.40297c-8.79703,0 -17.59355,0 -26.39058,0c0.08316,7.63684 0,15.27168 -0.24897,22.90503c-2.85865,0.48549 -5.7636,0.6513 -8.71387,0.49794c0,-18.09149 0,-36.18347 0,-54.27496zM112.36093,209.87613c12.94632,0 25.89264,0 38.83896,0c0.15486,3.28139 -0.01095,6.51797 -0.49794,9.70974c-9.95721,0.24897 -19.91592,0.33212 -29.87613,0.24897c0,3.81767 0,7.63484 0,11.45252c8.29909,0 16.59768,0 24.89677,0c0,3.15343 0,6.30735 0,9.46077c-8.29909,0 -16.59768,0 -24.89677,0c0,4.48142 0,8.96284 0,13.44426c10.45664,0 20.91329,0 31.36993,0c0,3.31974 0,6.63897 0,9.95871c-13.27844,0 -26.55639,0 -39.83483,0c0,-18.09149 0,-36.18347 0,-54.27496zM213.44185,209.87613c2.8218,0 5.6431,0 8.4649,0c-0.16581,8.13975 0.0005,16.27253 0.49794,24.39884c7.21508,-7.96348 14.35249,-16.01311 21.41122,-24.14987c3.82813,-0.41378 7.6458,-0.33113 11.45252,0.24897c-7.06371,7.81012 -14.03481,15.69393 -20.91329,23.65193c8.22689,9.80335 16.35967,19.67891 24.39884,29.62716c-3.64041,0.58009 -7.29177,0.66275 -10.95458,0.24897c-6.39449,-7.80315 -12.86765,-15.52115 -19.41948,-23.154c-2.16702,2.24967 -4.24191,4.57304 -6.22419,6.9711c-0.24897,5.4748 -0.33212,10.95209 -0.24897,16.43187c-2.8218,0 -5.6431,0 -8.4649,0c0,-18.09149 0,-36.18347 0,-54.27496zM296.59704,209.87613c15.10388,0 30.20825,0 45.31212,0c0.15486,3.28139 -0.01095,6.51797 -0.49794,9.70974c-5.97274,0.24897 -11.94796,0.33212 -17.92568,0.24897c0,14.77225 0,29.544 0,44.31625c-2.98761,0 -5.97523,0 -8.96284,0c0,-14.77225 0,-29.544 0,-44.31625c-5.97523,0 -11.95045,0 -17.92568,0c0,-3.31974 0,-6.63897 0,-9.95871zM348.38235,209.87613c2.98761,0 5.97523,0 8.96284,0c0,7.13691 0,14.27432 0,21.41122c8.79703,0 17.59355,0 26.39058,0c0,-7.13691 0,-14.27432 0,-21.41122c2.98761,0 5.97523,0 8.96284,0c0,18.09149 0,36.18347 0,54.27496c-2.98761,0 -5.97523,0 -8.96284,0c0,-7.80115 0,-15.60181 0,-23.40297c-8.79703,0 -17.59355,0 -26.39058,0c0.08316,7.63684 0,15.27168 -0.24897,22.90503c-2.85865,0.48549 -5.7636,0.6513 -8.71387,0.49794c0,-18.09149 0,-36.18347 0,-54.27496zM401.66144,209.87613c12.94632,0 25.89264,0 38.83896,0c0.15486,3.28139 -0.01095,6.51797 -0.49794,9.70974c-9.95721,0.24897 -19.91592,0.33212 -29.87613,0.24897c0,3.81767 0,7.63484 0,11.45252c8.29909,0 16.59768,0 24.89677,0c0,3.15343 0,6.30735 0,9.46077c-8.29909,0 -16.59768,0 -24.89677,0c0,4.48142 0,8.96284 0,13.44426c10.45664,0 20.91329,0 31.36993,0c0,3.31974 0,6.63897 0,9.95871c-13.27844,0 -26.55639,0 -39.83483,0c0,-18.09149 0,-36.18347 0,-54.27496zM480.83318,209.87613c3.33617,-0.16432 6.65541,0.00149 9.95871,0.49794c5.72626,14.108 11.45252,28.21651 17.17877,42.32451c6.00012,-14.01091 11.81103,-28.11891 17.42774,-42.32451c3.19177,-0.48698 6.42835,-0.65279 9.70974,-0.49794c0,18.09149 0,36.18347 0,54.27496c-2.82329,0 -5.64161,0 -8.4649,0c0.08465,-11.45351 0,-22.90603 -0.24897,-34.35755c-4.70051,11.22994 -9.26658,22.51664 -13.69322,33.85961c-3.09716,0.6518 -6.16942,0.6518 -9.21181,0c-4.34349,-11.17666 -8.82491,-22.29755 -13.44426,-33.36167c-0.16581,11.12039 -0.33212,22.24128 -0.49794,33.36167c-2.85865,0.48549 -5.7636,0.6513 -8.71387,0.49794c0,-18.09149 0,-36.18347 0,-54.27496zM559.50695,209.87613c2.46478,-0.11602 4.04324,1.04616 4.73039,3.48555c4.34698,15.88763 9.07736,31.65575 14.19116,47.30387c-0.67221,1.86925 -2.0017,2.45034 -3.98348,1.74277c-4.12788,-2.96819 -7.78273,-6.45374 -10.95458,-10.45664c-1.49381,-0.99587 -2.98761,-0.99587 -4.48142,0c-3.16189,3.19625 -6.31382,6.34967 -9.46077,9.46077c-1.35438,1.03371 -2.84819,1.36584 -4.48142,0.99587c-0.84151,-0.95255 -1.09048,-2.03158 -0.7469,-3.23658c4.75528,-14.59897 8.90309,-29.37072 12.44839,-44.31625c0.53279,-1.89763 1.44401,-3.55725 2.73864,-4.97935zM589.88102,210.37406c9.13214,-0.08316 18.25929,0 27.38645,0.24897c14.27581,0.65877 20.66432,8.04464 19.17051,22.15813c-2.57931,7.717 -7.97693,11.94945 -16.1829,12.69735c-6.9711,0.24897 -13.94219,0.33212 -20.91329,0.24897c0,6.30735 0,12.6142 0,18.92155c-3.15193,0 -6.30884,0 -9.46077,0c0,-18.09149 0,-36.18347 0,-54.27496z" fill="#fefefe" fill-rule="evenodd" stroke-width="1"/><path d="M355.35345,97.34272c12.13369,-0.03137 19.18794,5.94386 21.16226,17.92568c1.46244,8.85578 -0.94458,16.40797 -7.22006,22.65606c-7.20612,4.78516 -14.50884,4.95097 -21.90916,0.49794c-6.95118,-6.58221 -9.52401,-14.63183 -7.718,-24.14987c1.57397,-9.12268 6.8023,-14.76628 15.68497,-16.9298z" fill="#fefefe" fill-rule="evenodd" stroke-width="1"/><path d="M87.46417,99.33446c3.53684,9.1157 6.69026,18.41017 9.46077,27.88438c-6.22121,0.23851 -12.36224,-0.01046 -18.42361,-0.7469c3.23857,-8.96881 6.22618,-18.01431 8.96284,-27.13748z" fill="#fefefe" fill-rule="evenodd" stroke-width="1"/><path d="M235.35101,163.56813c8.24183,-0.66474 14.46602,2.48868 18.67258,9.46077c3.68124,9.69928 1.27471,17.41728 -7.22006,23.154c-8.83088,3.62198 -16.38257,1.87921 -22.65606,-5.22832c-5.79149,-13.27147 -2.05697,-22.40012 11.20355,-27.38645z" fill="#fefefe" fill-rule="evenodd" stroke-width="1"/><path d="M35.67888,176.01652c9.1288,0 18.2578,0 27.38645,0c0,3.31974 0,6.63897 0,9.95871c-9.12865,0 -18.25765,0 -27.38645,0c0,-3.31974 0,-6.63897 0,-9.95871z" fill="#fefffe" fill-rule="evenodd" stroke-width="1"/><path d="M98.91668,176.01652c9.12865,0 18.2578,0 27.38645,0c0,3.31974 0,6.63897 0,9.95871c-9.12865,0 -18.2578,0 -27.38645,0c0,-3.31974 0,-6.63897 0,-9.95871z" fill="#fefffe" fill-rule="evenodd" stroke-width="1"/><path d="M160.16276,176.01652c9.7929,0 19.58529,0 29.37819,0c0,3.31974 0,6.63897 0,9.95871c-9.7929,0 -19.58529,0 -29.37819,0c0,-3.31974 0,-6.63897 0,-9.95871z" fill="#fefefe" fill-rule="evenodd" stroke-width="1"/><path d="M288.6301,176.01652c9.7929,0 19.58529,0 29.37819,0c0,3.31974 0,6.63897 0,9.95871c-9.7929,0 -19.58529,0 -29.37819,0c0,-3.31974 0,-6.63897 0,-9.95871z" fill="#fefefe" fill-rule="evenodd" stroke-width="1"/><path d="M351.86789,176.01652c9.7929,0 19.58529,0 29.37819,0c0,3.31974 0,6.63897 0,9.95871c-9.7929,0 -19.58529,0 -29.37819,0c0,-3.31974 0,-6.63897 0,-9.95871z" fill="#fefffe" fill-rule="evenodd" stroke-width="1"/><path d="M416.5995,176.01652c8.79703,0 17.59355,0 26.39058,0c0,3.31974 0,6.63897 0,9.95871c-8.79703,0 -17.59355,0 -26.39058,0c0,-3.31974 0,-6.63897 0,-9.95871z" fill="#fefefe" fill-rule="evenodd" stroke-width="1"/><path d="M479.8373,176.01652c8.63071,0 17.26193,0 25.89264,0c0,3.31974 0,6.63897 0,9.95871c-8.63071,0 -17.26193,0 -25.89264,0c0,-3.31974 0,-6.63897 0,-9.95871z" fill="#fefffe" fill-rule="evenodd" stroke-width="1"/><path d="M539.58953,176.01652c9.79439,0 19.5838,0 29.37819,0c0,3.31974 0,6.63897 0,9.95871c-9.79439,0 -19.5838,0 -29.37819,0c0,-3.31974 0,-6.63897 0,-9.95871z" fill="#fefffe" fill-rule="evenodd" stroke-width="1"/><path d="M604.32115,176.01652c9.95871,0 19.91742,0 29.87613,0c0,3.31974 0,6.63897 0,9.95871c-9.95871,0 -19.91742,0 -29.87613,0c0,-3.31974 0,-6.63897 0,-9.95871z" fill="#fefffe" fill-rule="evenodd" stroke-width="1"/><path d="M599.34178,219.83483c6.98603,-0.15785 13.95713,0.09112 20.91329,0.7469c6.26901,2.02261 8.01178,6.08925 5.22832,12.19942c-1.04566,1.47737 -2.45482,2.39009 -4.23245,2.73864c-7.27982,0.70358 -14.57955,0.95255 -21.90916,0.7469c0,-5.47729 0,-10.95458 0,-16.43187z" fill="#fefefe" fill-rule="evenodd" stroke-width="1"/><path d="" fill="#fefefe" fill-rule="evenodd" stroke-width="1"/><path d="" fill="#fefffe" fill-rule="evenodd" stroke-width="1"/><path d="" fill="#fefffe" fill-rule="evenodd" stroke-width="1"/><path d="" fill="#fefefe" fill-rule="evenodd" stroke-width="1"/><path d="" fill="#fefefe" fill-rule="evenodd" stroke-width="1"/><path d="" fill="#fefffe" fill-rule="evenodd" stroke-width="1"/><path d="" fill="#fefffe" fill-rule="evenodd" stroke-width="1"/><path d="" fill="#fefefe" fill-rule="evenodd" stroke-width="1"/><path d="M0.60061,291.11735v-250.75075h651.65165v250.75075z" fill-opacity="0.00784" fill="#ffffff" fill-rule="nonzero" stroke-width="0"/><path d="M-529.84985,201.75053v-34.53559h531.70312v34.53559z" fill-opacity="0.00784" fill="#ffffff" fill-rule="nonzero" stroke-width="0"/></g></g></svg>