<svg version="1.1" xmlns="http://www.w3.org/2000/svg" xmlns:xlink="http://www.w3.org/1999/xlink" width="411.5" height="640" viewBox="0,0,411.5,640"><g transform="translate(51.5,0)"><g stroke-miterlimit="10"><g stroke="none" stroke-width="1"><path d="M271.27663,317.24093l86.71887,0.27857l-1.42721,133.81772l-84.88001,-0.43025zM297.10045,390.41148c1.151,1.035 2.484,1.705 4,2c3.795,-0.795 5.795,-3.13 6,-7c0.25,-3.495 0.333,-6.995 0.25,-10.5c-7.3335,0 -14.6665,0 -22,0c-0.128,5.02 0.122,10.02 0.75,15c1.467,3.36 4.05,4.69 7.75,4c1.3195,-0.905 2.403,-2.07 3.25,-3.5zM340.17521,417.86589h-20.33334l-0.33333,19.66667h20.33333zM340.35045,382.66148c-5.9085,-2.54 -11.7415,-5.205 -17.5,-8c5.7585,-2.795 11.5915,-5.46 17.5,-8c0.472,-1.36 0.6385,-2.775 0.5,-4.25c-7.3335,0 -14.6665,0 -22,0c0,1.165 0,2.335 0,3.5c4.836,-0.085 9.6695,0 14.5,0.25c-4.531,2.43 -9.198,4.6 -14,6.5c-0.6385,1.235 -0.6385,2.485 0,3.75c4.743,2.12 9.41,4.37 14,6.75c-4.8305,0.25 -9.664,0.335 -14.5,0.25c0,1.165 0,2.335 0,3.5c7.3335,0 14.6665,0 22,0c0.1385,-1.475 -0.028,-2.89 -0.5,-4.25zM306.85045,362.91148c0.6435,-1.605 0.6435,-3.19 0,-4.75c-7.056,-2.61 -14.056,-5.36 -21,-8.25c-0.5735,1.13 -0.657,2.3 -0.25,3.5c1.2215,0.545 2.4715,1.045 3.75,1.5c0.5825,3.655 0.6655,7.32 0.25,11c-1.2215,0.545 -2.4715,1.045 -3.75,1.5c-0.487,1.12 -0.654,2.29 -0.5,3.5c0.5,0 1,0 1.5,0c6.577,-2.75 13.2435,-5.42 20,-8zM288.85045,423.41148c2.101,-0.16 4.101,0.01 6,0.5c0,3.665 0,7.335 0,11c1.1665,0 2.3335,0 3.5,0c0,-3.835 0,-7.665 0,-11.5c1.8335,0 3.6665,0 5.5,0c0,4.665 0,9.335 0,14c1.1665,0 2.3335,0 3.5,0c0,-5.835 0,-11.665 0,-17.5c-7.3335,0 -14.6665,0 -22,0c0,6 0,12 0,18c1.1665,0 2.3335,0 3.5,0c0,-4.835 0,-9.665 0,-14.5zM322.35045,408.91148c-0.1635,-4.755 0.003,-9.425 0.5,-14c1.8335,0 3.6665,0 5.5,0c0,3.665 0,7.335 0,11c1.1665,0 2.3335,0 3.5,0c-0.1625,-3.76 0.004,-7.425 0.5,-11c1.5,0 3,0 4.5,0c0.4965,4.41 0.6635,8.91 0.5,13.5c1.1665,0 2.3335,0 3.5,0c0,-5.665 0,-11.335 0,-17c-7.3335,0 -14.6665,0 -22,0c0,5.835 0,11.665 0,17.5c1.1665,0 2.3335,0 3.5,0zM307.35045,328.91148c-1.1665,0 -2.3335,0 -3.5,0c0,2.665 0,5.335 0,8c-6.1665,0 -12.3335,0 -18.5,0c0,1.335 0,2.665 0,4c6.1665,0 12.3335,0 18.5,0c0,2.665 0,5.335 0,8c1.1665,0 2.3335,0 3.5,0c0,-6.665 0,-13.335 0,-20zM340.85045,328.91148c-1.1665,0 -2.3335,0 -3.5,0c0,2.665 0,5.335 0,8c-6.1665,0 -12.3335,0 -18.5,0c0,1.335 0,2.665 0,4c6.1665,0 12.3335,0 18.5,0c0,2.665 0,5.335 0,8c1.1665,0 2.3335,0 3.5,0c0,-6.665 0,-13.335 0,-20zM288.85045,401.91148c6.1665,0 12.3335,0 18.5,0c0,-1.165 0,-2.335 0,-3.5c-7.3335,0 -14.6665,0 -22,0c0,6 0,12 0,18c1.1665,0 2.3335,0 3.5,0c0,-4.835 0,-9.665 0,-14.5zM340.85045,352.91148c-7.3335,0 -14.6665,0 -22,0c0,1.335 0,2.665 0,4c7.3335,0 14.6665,0 22,0c0,-1.335 0,-2.665 0,-4z" fill="#ffffff" fill-rule="nonzero"/><path d="M288.85045,437.91148c0,-4.835 0,-9.665 0,-14.5c2.101,-0.16 4.101,0.01 6,0.5c-1.8335,0 -3.6665,0 -5.5,0c0.1635,4.755 -0.003,9.425 -0.5,14z" fill="#bfbfbf" fill-rule="evenodd"/><path d="M303.85045,437.41148c-0.4965,-4.41 -0.6635,-8.91 -0.5,-13.5c-1.5,0 -3,0 -4.5,0c0.1625,3.76 -0.004,7.425 -0.5,11c0,-3.835 0,-7.665 0,-11.5c1.8335,0 3.6665,0 5.5,0c0,4.665 0,9.335 0,14z" fill="#cacaca" fill-rule="evenodd"/><path d="M318.85045,408.91148c1.1665,0 2.3335,0 3.5,0c-0.1635,-4.755 0.003,-9.425 0.5,-14c0,4.835 0,9.665 0,14.5c-1.4425,0.155 -2.776,-0.015 -4,-0.5z" fill="#bbbbbb" fill-rule="evenodd"/><path d="M340.85045,408.41148c-1.224,0.485 -2.5575,0.655 -4,0.5c0,-4.665 0,-9.335 0,-14c0.4965,4.41 0.6635,8.91 0.5,13.5c1.1665,0 2.3335,0 3.5,0z" fill="#c2c2c2" fill-rule="evenodd"/><path d="M328.35045,405.91148c1.1665,0 2.3335,0 3.5,0c-0.1625,-3.76 0.004,-7.425 0.5,-11c0,3.835 0,7.665 0,11.5c-1.4425,0.155 -2.776,-0.015 -4,-0.5z" fill="#cdcdcd" fill-rule="evenodd"/><path d="M289.35045,387.41148c0,-3 0,-6 0,-9c1.8335,0 3.6665,0 5.5,0c0.2145,3.725 -0.0355,7.39 -0.75,11c-1.0765,0.97 -2.3265,1.22 -3.75,0.75c-0.8275,-0.72 -1.161,-1.64 -1,-2.75z" fill="#fcfcfc" fill-rule="evenodd"/><path d="M301.85045,388.91148c-1.2995,-0.025 -2.383,-0.525 -3.25,-1.5c-0.25,-3.16 -0.333,-6.33 -0.25,-9.5c1.8335,0 3.6665,0 5.5,0c0.083,3.005 -0.0005,6.005 -0.25,9c-0.345,0.925 -0.928,1.59 -1.75,2z" fill="#f5f5f5" fill-rule="evenodd"/><path d="M289.35045,387.41148c-0.495,-3.07 -0.6615,-6.24 -0.5,-9.5c2.101,-0.16 4.101,0.01 6,0.5c-1.8335,0 -3.6665,0 -5.5,0c0,3 0,6 0,9z" fill="#c7c7c7" fill-rule="evenodd"/><path d="M294.35045,364.41148c-0.656,-1.12 -0.989,-2.455 -1,-4c0.0835,-1.335 0.1665,-2.665 0.25,-4c3.2665,1.285 6.5165,2.615 9.75,4c-2.992,1.44 -5.992,2.77 -9,4z" fill="#f0f0f0" fill-rule="evenodd"/></g><path d="M0,0c27.5,0 55,0 82.5,0c0,45.33335 0,90.6665 0,136c3.3335,0 6.6665,0 10,0c0,-11 0,-22 0,-33c-0.328,-34.311 -0.495,-68.64415 -0.5,-103c89.3335,0 178.6665,0 268,0c0,213.3335 0,426.6665 0,640c-89.3335,0 -178.6665,0 -268,0c0.3005,-104.685 0.467,-209.3515 0.5,-314c0,-16 0,-32 0,-48c-3.3335,0 -6.6665,0 -10,0c0,60 0,120 0,180c0.4395,60.665 0.606,121.33 0.5,182c-27.6665,0 -55.33335,0 -83,0c0,-4 0,-8 0,-12c30.7771,-1.09 52.8605,-15.42 66.25,-43c11.316,-29.945 6.316,-56.775 -15,-80.5c-14.23465,-13.822 -31.31795,-20.822 -51.25,-21c0,-6.8335 0,-13.6665 0,-20.5c29.2111,-1.152 50.7945,-14.4855 64.75,-40c11.2285,-24.968 9.7285,-49.1345 -4.5,-72.5c-14.6319,-20.6945 -34.71525,-31.528 -60.25,-32.5c0,-6.6665 0,-13.3335 0,-20c31.19615,-1.5475 53.446,-16.381 66.75,-44.5c10.203,-27.7515 6.0365,-53.085 -12.5,-76c-14.61865,-15.6815 -32.70195,-23.8485 -54.25,-24.5c0,-51 0,-102 0,-153zM55,11c10.097,1.1898 13.6805,6.6898 10.75,16.5c-1.1995,2.03335 -2.866,3.53335 -5,4.5c-0.8565,-0.7272 -1.44,-1.64385 -1.75,-2.75c4.5605,-2.6282 5.8105,-6.3782 3.75,-11.25c-3.4155,-3.81565 -7.332,-4.399 -11.75,-1.75c-2.75385,3.11695 -3.17055,6.5336 -1.25,10.25c0.854,1.02175 1.854,1.85505 3,2.5c0.0115,3.16485 -1.2385,3.7482 -3.75,1.75c-5.5475,-6.34645 -5.21415,-12.34645 1,-18c1.675,-0.74315 3.342,-1.3265 5,-1.75zM30.5,29c0,-4.66665 0,-9.33335 0,-14c-1.77095,-0.1564 -3.4376,0.0103 -5,0.5c0,3.66665 0,7.33335 0,11c-1.16665,0 -2.33335,0 -3.5,0c0,-3.83335 0,-7.66665 0,-11.5c-2,0 -4,0 -6,0c0,4.83335 0,9.66665 0,14.5c-1.16665,0 -2.33335,0 -3.5,0c0,-5.83335 0,-11.66665 0,-17.5c7.16665,0 14.33335,0 21.5,0c0,5.66665 0,11.33335 0,17c-1.16665,0 -2.33335,0 -3.5,0zM124,23c6.2545,-0.70805 10.7545,1.7086 13.5,7.25c-1.1855,0.3674 -2.3525,0.7841 -3.5,1.25c-2.7335,-5.09855 -6.7335,-6.34855 -12,-3.75c-3.625,3.6285 -4.208,7.71185 -1.75,12.25c2.6345,2.3726 5.718,3.1226 9.25,2.25c2.25,-0.91665 3.8335,-2.5 4.75,-4.75c0.792,0.68065 1.709,1.014 2.75,1c-0.9065,3.98885 -3.4065,6.4055 -7.5,7.25c-11.045,0.78725 -15.628,-4.29605 -13.75,-15.25c1.599,-3.8527 4.349,-6.3527 8.25,-7.5zM142,23c1.1665,0 2.3335,0 3.5,0c0,3 0,6 0,9c4.3335,0 8.6665,0 13,0c0,-3 0,-6 0,-9c1.1665,0 2.3335,0 3.5,0c0,7.5 0,15 0,22.5c-1.1665,0 -2.3335,0 -3.5,0c0,-3.33335 0,-6.66665 0,-10c-4.4245,-0.1632 -8.758,0.0035 -13,0.5c0,3.16665 0,6.33335 0,9.5c-1.1665,0 -2.3335,0 -3.5,0c0,-7.5 0,-15 0,-22.5zM182.5,35.5c-4,0 -8,0 -12,0c-0.1585,2.1008 0.0085,4.1008 0.5,6c4.8335,0 9.6665,0 14.5,0c0,1.33335 0,2.66665 0,4c-6.1665,0 -12.3335,0 -18.5,0c0,-7.5 0,-15 0,-22.5c6,0 12,0 18,0c0,1.33335 0,2.66665 0,4c-4.8335,0 -9.6665,0 -14.5,0c0,1.66665 0,3.33335 0,5c4,0 8,0 12,0c0,1.16665 0,2.33335 0,3.5zM197,23c6.2545,-0.70805 10.7545,1.7086 13.5,7.25c-1.1855,0.3674 -2.3525,0.7841 -3.5,1.25c-2.7335,-5.09855 -6.7335,-6.34855 -12,-3.75c-3.625,3.6285 -4.208,7.71185 -1.75,12.25c2.6345,2.3726 5.718,3.1226 9.25,2.25c2.25,-0.91665 3.8335,-2.5 4.75,-4.75c0.792,0.68065 1.709,1.014 2.75,1c-0.9065,3.98885 -3.4065,6.4055 -7.5,7.25c-11.045,0.78725 -15.628,-4.29605 -13.75,-15.25c1.599,-3.8527 4.349,-6.3527 8.25,-7.5zM215,23c1.1665,0 2.3335,0 3.5,0c-0.165,3.5158 0.0015,7.0158 0.5,10.5c3.5915,-3.1749 6.925,-6.5916 10,-10.25c1.5,-0.33335 3,-0.33335 4.5,0c-3.3495,3.18205 -6.516,6.5154 -9.5,10c3.6665,4 7.3335,8 11,12c-1.3335,0.33335 -2.6665,0.33335 -4,0c-2.908,-3.49165 -6.075,-6.74165 -9.5,-9.75c-1.179,0.76215 -2.0955,1.76215 -2.75,3c-0.2495,2.3274 -0.333,4.66075 -0.25,7c-1.1665,0 -2.3335,0 -3.5,0c0,-7.5 0,-15 0,-22.5zM254,23c7,0 14,0 21,0c0,1.33335 0,2.66665 0,4c-2.8335,0 -5.6665,0 -8.5,0c0,6.16665 0,12.33335 0,18.5c-1.3335,0 -2.6665,0 -4,0c0,-6.16665 0,-12.33335 0,-18.5c-2.8335,0 -5.6665,0 -8.5,0c0,-1.33335 0,-2.66665 0,-4zM299,45.5c-1.1665,0 -2.3335,0 -3.5,0c0,-3.33335 0,-6.66665 0,-10c-4.5,0 -9,0 -13.5,0c0,3.33335 0,6.66665 0,10c-1.1665,0 -2.3335,0 -3.5,0c0,-7.5 0,-15 0,-22.5c1.1665,0 2.3335,0 3.5,0c0,3 0,6 0,9c4.5,0 9,0 13.5,0c0,-3 0,-6 0,-9c1.1665,0 2.3335,0 3.5,0c0,7.5 0,15 0,22.5zM319,32c0,1.16665 0,2.33335 0,3.5c-3.926,-0.1627 -7.759,0.004 -11.5,0.5c-0.491,1.73095 -0.6575,3.5643 -0.5,5.5c5,0 10,0 15,0c0,1.33335 0,2.66665 0,4c-6,0 -12,0 -18,0c0,-7.5 0,-15 0,-22.5c5.8335,0 11.6665,0 17.5,0c0,1.33335 0,2.66665 0,4c-4.8335,0 -9.6665,0 -14.5,0c0,1.66665 0,3.33335 0,5c4,0 8,0 12,0zM32.5,32.5c0.5,0 1,0 1.5,0c0.13415,1.3097 -0.0325,2.5597 -0.5,3.75c-5.7772,1.88905 -11.4439,4.0557 -17,6.5c5.5561,2.4443 11.2228,4.61095 17,6.5c0.4675,1.1905 0.63415,2.4405 0.5,3.75c-7.04,-2.6015 -14.04,-5.35165 -21,-8.25c-0.4719,-1.35955 -0.63855,-2.77625 -0.5,-4.25c6.8078,-2.4071 13.47445,-5.0738 20,-8zM45.5,36c7.1665,0 14.3335,0 21.5,0c0,1.33335 0,2.66665 0,4c-6,0 -12,0 -18,0c0,4.83335 0,9.66665 0,14.5c-1.16665,0 -2.33335,0 -3.5,0c0,-6.16665 0,-12.33335 0,-18.5zM16.5,60.5c-0.4968,4.576 -0.66345,9.2425 -0.5,14c-1.16665,0 -2.33335,0 -3.5,0c0,-5.8335 0,-11.6665 0,-17.5c7.16665,0 14.33335,0 21.5,0c0,5.6665 0,11.3335 0,17c-1.16665,0 -2.33335,0 -3.5,0c0,-4.5 0,-9 0,-13.5c-1.66665,0 -3.33335,0 -5,0c0,3.6665 0,7.3335 0,11c-1.16665,0 -2.33335,0 -3.5,0c0,-3.6665 0,-7.3335 0,-11c-1.83335,0 -3.66665,0 -5.5,0zM45.5,57c7.0055,2.697 14.0055,5.447 21,8.25c0.4755,1.5285 0.642,3.1115 0.5,4.75c-7.0945,2.379 -14.0945,5.0455 -21,8c-0.66665,-1.1665 -0.66665,-2.3335 0,-3.5c1.2077,-0.4025 2.37435,-0.9025 3.5,-1.5c0.49865,-3.6515 0.6653,-7.3185 0.5,-11c-1.48845,-0.2855 -2.90515,-0.7855 -4.25,-1.5c-0.2483,-1.155 -0.33165,-2.3215 -0.25,-3.5zM173.5,116.5c0.0835,-12.668 0,-25.3345 -0.25,-38c-0.5195,0.372 -0.7695,0.872 -0.75,1.5c-5.489,11.949 -10.989,23.949 -16.5,36c-3.3335,0.6665 -6.6665,0.6665 -10,0c-5.511,-12.051 -11.011,-24.051 -16.5,-36c0.0195,-0.628 -0.2305,-1.128 -0.75,-1.5c-0.25,12.6655 -0.3335,25.332 -0.25,38c-3.1665,0 -6.3335,0 -9.5,0c0,-19 0,-38 0,-57c3.6815,-0.1655 7.3485,0.0015 11,0.5c6.8715,15.242 13.8715,30.4085 21,45.5c7.1285,-15.0915 14.1285,-30.258 21,-45.5c3.6515,-0.4985 7.3185,-0.6655 11,-0.5c0,19 0,38 0,57c-3.1665,0 -6.3335,0 -9.5,0zM270.5,59.5c9.0015,-0.0835 18.0015,0 27,0.25c17.356,0.344 24.273,8.9275 20.75,25.75c-2.9065,5.9175 -7.6565,9.334 -14.25,10.25c-7.9855,0.6505 -15.9855,0.9005 -24,0.75c0,6.6665 0,13.3335 0,20c-3.1665,0 -6.3335,0 -9.5,0c0,-19 0,-38 0,-57zM249,60.5c4.483,-0.2055 5.8995,1.7945 4.25,6c-8.7525,15.426 -17.086,31.0925 -25,47c-3.302,2.9155 -5.302,2.082 -6,-2.5c-0.3725,-4.344 -0.2895,-8.6775 0.25,-13c0.037,-3.5465 -1.713,-5.3795 -5.25,-5.5c-5.0965,0.716 -10.18,0.633 -15.25,-0.25c-2.6285,-1.7395 -2.6285,-3.573 0,-5.5c16.0055,-8.281 31.672,-17.031 47,-26.25zM19,93.5c-0.39455,0.1415 -0.7279,0.3915 -1,0.75c5.33075,0.25 10.66405,0.3335 16,0.25c0,1 0,2 0,3c-7,0 -14,0 -21,0c0,-1.3335 0,-2.6665 0,-4c5.39265,-3.7855 10.726,-7.702 16,-11.75c-5.33075,-0.25 -10.66405,-0.3335 -16,-0.25c0,-1.1665 0,-2.3335 0,-3.5c7,0 14,0 21,0c0.08205,1.3435 -0.0013,2.677 -0.25,4c-5.087,3.662 -10.00365,7.4955 -14.75,11.5zM49,81c3.4105,1.122 3.6605,2.622 0.75,4.5c-1.7468,3.506 -1.66345,6.923 0.25,10.25c1.2625,0.448 2.346,0.198 3.25,-0.75c0.982,-2.4085 1.649,-4.9085 2,-7.5c2.083,-5.38 5.4165,-6.38 10,-3c2.621,5.121 2.2045,9.9545 -1.25,14.5c-0.908,-0.6575 -1.7415,-1.4075 -2.5,-2.25c1.6595,-1.6555 2.326,-3.6555 2,-6c0.478,-2.261 -0.272,-3.844 -2.25,-4.75c-0.906,-0.0035 -1.656,0.33 -2.25,1c-0.9065,2.613 -1.6565,5.2795 -2.25,8c-2.2195,5.5755 -5.553,6.409 -10,2.5c-2.4886,-5.923 -1.7386,-11.423 2.25,-16.5zM30.5,121c0,-2.8335 0,-5.6665 0,-8.5c-6,0 -12,0 -18,0c0,-1.1665 0,-2.3335 0,-3.5c6,0 12,0 18,0c0,-2.6665 0,-5.3335 0,-8c1.16665,0 2.33335,0 3.5,0c0,6.6665 0,13.3335 0,20c-1.16665,0 -2.33335,0 -3.5,0zM49.5,102.5c0.7665,0.9275 1.6,1.844 2.5,2.75c-2.95485,2.549 -4.0382,5.799 -3.25,9.75c0.47255,3.058 1.9725,3.7245 4.5,2c1.022,-2.9415 1.8555,-5.9415 2.5,-9c1.52,-3.0515 3.937,-4.1345 7.25,-3.25c2.217,1.0515 3.467,2.8015 3.75,5.25c0.7675,4.11 -0.1495,7.7765 -2.75,11c-0.908,-0.6575 -1.7415,-1.4075 -2.5,-2.25c1.514,-1.7925 2.1805,-3.876 2,-6.25c0.5875,-3.721 -0.8295,-5.0545 -4.25,-4c-1.1875,3.099 -2.1875,6.2655 -3,9.5c-1.147,3.217 -3.397,4.467 -6.75,3.75c-1.0619,-0.561 -1.97855,-1.311 -2.75,-2.25c-1.797,-4.167 -1.96365,-8.334 -0.5,-12.5c0.80535,-1.719 1.8887,-3.219 3.25,-4.5zM16.5,123.5c1.0169,0.524 1.68355,1.357 2,2.5c-3.0925,3.5865 -3.75915,7.5865 -2,12c1.8443,1.518 3.261,1.185 4.25,-1c0.66665,-2.6665 1.33335,-5.3335 2,-8c3.52085,-5.273 7.02085,-5.273 10.5,0c1.5205,4.8285 0.68715,9.162 -2.5,13c-0.75,-0.75 -1.5,-1.5 -2.25,-2.25c0.9085,-0.9 1.49185,-1.983 1.75,-3.25c0.33335,-2 0.33335,-4 0,-6c-1.25475,-2.3775 -2.75475,-2.544 -4.5,-0.5c-0.7703,3.0185 -1.6036,6.0185 -2.5,9c-2.5561,4.521 -5.7228,5.021 -9.5,1.5c-2.64195,-6.2585 -1.72525,-11.925 2.75,-17zM202,153.5c0.4905,6.794 0.6575,13.627 0.5,20.5c-4.091,2.106 -8.4245,2.9395 -13,2.5c-0.499,-4.822 -0.666,-9.655 -0.5,-14.5c-3.0045,-0.083 -6.0045,0.0005 -9,0.25c-0.6665,0.3335 -1.3335,0.6665 -2,1c-4,0.1665 -8,0.3335 -12,0.5c-1.9805,0.564 -2.4805,1.814 -1.5,3.75c1.8015,1.003 3.6345,0.92 5.5,-0.25c5.2915,-0.1475 9.875,1.6025 13.75,5.25c3.2985,4.3565 2.882,8.273 -1.25,11.75c-2.576,1.061 -5.076,0.8945 -7.5,-0.5c-1.246,-3.403 -2.496,-6.8195 -3.75,-10.25c-1.452,-2.063 -2.535,-1.8965 -3.25,0.5c-0.343,5.951 -0.676,11.951 -1,18c-3.883,2.126 -8.05,2.876 -12.5,2.25c-0.408,-3.7105 -0.658,-7.4605 -0.75,-11.25c-0.499,-1.2105 -1.416,-1.8775 -2.75,-2c-5.797,3.1905 -11.714,6.1905 -17.75,9c-0.3335,-0.3335 -0.3335,-0.6665 0,-1c2.8855,-2.466 5.302,-5.299 7.25,-8.5c-0.438,-0.3755 -0.938,-0.6255 -1.5,-0.75c2.5955,-3.9425 4.5955,-8.1925 6,-12.75c-0.174,-1.0985 -0.674,-2.015 -1.5,-2.75c-4.141,-0.582 -8.308,-0.9155 -12.5,-1c-0.4185,-0.5055 -0.585,-1.089 -0.5,-1.75c5.5025,0.0835 11.0025,0 16.5,-0.25c3.3185,-1.2245 4.235,-3.4745 2.75,-6.75c-0.4165,-0.4165 -0.8335,-0.8335 -1.25,-1.25c-6.1735,-0.0835 -12.34,-0.3335 -18.5,-0.75c5.4675,-1.659 10.9675,-3.242 16.5,-4.75c7.192,-2.7025 14.3585,-5.4525 21.5,-8.25c0.8995,0.0385 1.733,0.2885 2.5,0.75c2.0835,2.75 4.5,5.1665 7.25,7.25c0.591,0.922 1.1745,1.8385 1.75,2.75c-0.065,0.5295 -0.315,0.946 -0.75,1.25c-4.664,-1.4095 -9.247,-1.1595 -13.75,0.75c-0.313,0.375 -0.563,0.792 -0.75,1.25c-0.3335,2.3335 -0.3335,4.6665 0,7c1.1595,1.218 2.4095,1.3015 3.75,0.25c1.144,-1.3715 2.2275,-2.7885 3.25,-4.25c1.62,-2.387 3.5365,-2.9705 5.75,-1.75c2.4165,2.0835 4.8335,4.1665 7.25,6.25c0.3335,-0.3335 0.6665,-0.6665 1,-1c0.1665,-5.1665 0.3335,-10.3335 0.5,-15.5c0.468,-1.104 1.301,-1.771 2.5,-2c4.244,0.417 8.494,0.917 12.75,1.5c0.5105,0.251 0.594,0.584 0.25,1c-1.945,1.2175 -2.695,2.9675 -2.25,5.25c0.1665,1.0835 0.3335,2.1665 0.5,3.25c0.814,0.5175 1.6475,0.5175 2.5,0zM224,144.5c0.1255,13.6735 -0.041,27.34 -0.5,41c-1.1855,2.44 -2.6855,4.69 -4.5,6.75c0.59,1.3495 1.4235,2.516 2.5,3.5c-0.5575,0.6965 -0.8075,1.4465 -0.75,2.25c2.3475,1.765 4.431,3.765 6.25,6c-7.764,0.831 -15.431,0.6645 -23,-0.5c-3.504,-0.083 -7.004,0 -10.5,0.25c-0.4755,0.359 -0.5585,0.7755 -0.25,1.25c0.756,0.3785 1.423,0.8785 2,1.5c-0.109,1.0435 -0.0255,2.0435 0.25,3c10.281,4.9465 21.1145,8.113 32.5,9.5c-5.339,2.5885 -9.0055,6.672 -11,12.25c-1.265,0.711 -2.5985,0.8775 -4,0.5c-9.931,-4.097 -17.514,-10.847 -22.75,-20.25c-1.6155,-0.795 -2.9485,-0.4615 -4,1c-0.0835,7.006 -0.3335,14.006 -0.75,21c-4.7365,2.0695 -9.5695,2.736 -14.5,2c-0.134,-5.6855 0.033,-11.3525 0.5,-17c1.643,-0.371 2.31,-1.2875 2,-2.75c-0.5,-0.3335 -1,-0.3335 -1.5,0c-11.6205,8.226 -24.454,13.5595 -38.5,16c10.1075,-5.1815 18.8575,-12.098 26.25,-20.75c1.027,-1.387 1.777,-2.887 2.25,-4.5c0.047,-1.206 -0.453,-2.1225 -1.5,-2.75c-8.87,-0.09 -17.7035,-0.34 -26.5,-0.75c0,-0.5 0,-1 0,-1.5c12.7365,-0.3195 25.4035,-0.653 38,-1c0.8365,-0.4215 1.42,-1.088 1.75,-2c0.107,-2.6925 0.357,-5.3595 0.75,-8c1.1035,-0.7645 2.3535,-1.0975 3.75,-1c4.43,0.2865 8.847,0.7035 13.25,1.25c0.2285,0.207 0.3955,0.457 0.5,0.75c-0.6575,0.908 -1.4075,1.7415 -2.25,2.5c-1.388,2.817 -0.8045,5.067 1.75,6.75c6.048,0.479 12.048,0.3125 18,-0.5c1.309,-1.3695 2.559,-2.7865 3.75,-4.25c0.5825,-1.657 -0.001,-2.657 -1.75,-3c-1.7015,0.8435 -3.118,0.51 -4.25,-1c-0.6765,-5.422 -3.593,-8.922 -8.75,-10.5c-0.3815,-0.384 -0.8815,-0.634 -1.5,-0.75c4.255,-0.0855 8.4215,-0.3355 12.5,-0.75c0.3085,-0.0555 0.5585,-0.222 0.75,-0.5c0.3335,-9.5 0.3335,-19 0,-28.5c-0.7135,-1.1435 -1.6305,-1.31 -2.75,-0.5c-1.3795,-2.9675 -1.213,-5.8845 0.5,-8.75c4.8725,-0.2465 9.706,0.0865 14.5,1c0.237,0.8645 0.737,1.4475 1.5,1.75zM278.5,142.5c22.5,0 45,0 67.5,0c0,22.5 0,45 0,67.5c-22.5,0 -45,0 -67.5,0c0,-22.5 0,-45 0,-67.5zM85,143.5c9.4305,-0.4905 13.514,3.843 12.25,13c-2.6845,5.7815 -7.1015,7.698 -13.25,5.75c-5.372,-2.9445 -7.122,-7.361 -5.25,-13.25c1.354,-2.7105 3.4375,-4.5435 6.25,-5.5zM78,166c3.8825,2.2915 7.716,4.708 11.5,7.25c2.6615,0.2495 5.328,0.333 8,0.25c0,1 0,2 0,3c-2.838,-0.083 -5.6715,0.0005 -8.5,0.25c-3.713,2.231 -7.296,4.6475 -10.75,7.25c-0.407,-1.201 -0.3235,-2.3675 0.25,-3.5c2.8335,-1.9165 5.6665,-3.8335 8.5,-5.75c-2.8335,-1.9165 -5.6665,-3.8335 -8.5,-5.75c-0.483,-0.948 -0.6495,-1.948 -0.5,-3zM78,188c6.3335,0 12.6665,0 19,0c0,1 0,2 0,3c-6.3335,0 -12.6665,0 -19,0c0,-1 0,-2 0,-3zM78,196c6.3335,0 12.6665,0 19,0c0,1 0,2 0,3c-2.6665,0 -5.3335,0 -8,0c0,3.6665 0,7.3335 0,11c2.6665,0 5.3335,0 8,0c0,1 0,2 0,3c-6.3335,0 -12.6665,0 -19,0c0,-1 0,-2 0,-3c2.6665,0 5.3335,0 8,0c0,-3.6665 0,-7.3335 0,-11c-2.6665,0 -5.3335,0 -8,0c0,-1 0,-2 0,-3zM83.5,217c0.901,0.4075 1.401,1.1575 1.5,2.25c-1.05,1.05 -2.1335,2.1335 -3.25,3.25c-2.0305,7.6375 0.8865,10.8875 8.75,9.75c3.931,-1.96 5.181,-5.0435 3.75,-9.25c-0.8825,-1.4865 -2.1325,-2.57 -3.75,-3.25c0.38,-0.7205 0.713,-1.4705 1,-2.25c0.251,-0.5105 0.584,-0.594 1,-0.25c5.154,3.6445 6.404,8.3945 3.75,14.25c-5.816,6.0375 -11.4825,5.871 -17,-0.5c-2.544,-5.9475 -1.127,-10.614 4.25,-14zM96.5,238c0.5965,0.235 0.93,0.735 1,1.5c-0.0835,0.5 -0.1665,1 -0.25,1.5c-1.1665,0.5 -2.3335,1 -3.5,1.5c-0.3335,3.1665 -0.3335,6.3335 0,9.5c1.1665,0.5 2.3335,1 3.5,1.5c0.404,1.0395 0.3205,2.0395 -0.25,3c-6.3125,-2.437 -12.646,-4.7705 -19,-7c-0.1385,-1.474 0.028,-2.8905 0.5,-4.25c6.11,-2.2835 12.11,-4.7 18,-7.25zM278.5,238.5c22.5,0 45,0 67.5,0c0,22.5 0,45 0,67.5c-22.5,0 -45,0 -67.5,0c0,-22.5 0,-45 0,-67.5zM143,243c0.822,-0.107 1.572,0.06 2.25,0.5c0.2715,1.684 0.188,3.3505 -0.25,5c1.5,0 3,0 4.5,0c0.087,-1.687 0.337,-3.3535 0.75,-5c0.9825,-0.6925 1.899,-0.609 2.75,0.25c-0.409,4.211 -0.659,8.461 -0.75,12.75c-0.8335,0.6665 -1.6665,0.6665 -2.5,0c-0.2495,-1.826 -0.3325,-3.659 -0.25,-5.5c-1.5,0 -3,0 -4.5,0c0,2 0,4 0,6c-0.9835,0.1195 -1.9005,-0.047 -2.75,-0.5c-0.313,-4.5535 -0.063,-9.0535 0.75,-13.5zM162.5,243c2.3575,0.003 4.691,0.253 7,0.75c2.0575,1.2185 2.5575,2.9685 1.5,5.25c2.222,5.3005 0.3055,7.9675 -5.75,8c-0.882,-0.022 -1.7155,-0.189 -2.5,-0.5c-0.4835,-4.5355 -0.5665,-9.0355 -0.25,-13.5zM177.5,243c1.0135,-0.081 2.0135,0.0025 3,0.25c0.745,1.7505 1.578,3.417 2.5,5c0.096,2.7175 0.7625,5.384 2,8c-2.324,1.2755 -3.491,0.5255 -3.5,-2.25c-1.509,-0.0825 -3.009,0.001 -4.5,0.25c-0.3335,0.8335 -0.6665,1.6665 -1,2.5c-1.0705,0.442 -1.9035,0.192 -2.5,-0.75c1.4365,-4.309 2.77,-8.6425 4,-13zM187.5,243c2.5055,-0.083 5.0055,0.0005 7.5,0.25c0.4025,1.067 0.069,1.9835 -1,2.75c-1.292,-0.4465 -2.6255,-0.613 -4,-0.5c-0.1665,1 -0.3335,2 -0.5,3c1.5,0 3,0 4.5,0c0.107,0.822 -0.06,1.572 -0.5,2.25c-1.323,0.2485 -2.6565,0.332 -4,0.25c0,1 0,2 0,3c1.6665,0 3.3335,0 5,0c0.1195,0.9835 -0.047,1.9005 -0.5,2.75c-2.4595,0.401 -4.876,0.3175 -7.25,-0.25c-0.313,-4.5535 -0.063,-9.0535 0.75,-13.5zM204,243c0.822,-0.107 1.572,0.06 2.25,0.5c0.1865,1.099 0.4365,2.1825 0.75,3.25c-0.7965,2.0345 -0.63,3.951 0.5,5.75c0.732,-3.121 1.732,-6.121 3,-9c2.3845,-0.7305 3.0515,0.103 2,2.5c0.561,2.7035 1.2275,5.37 2,8c0.5135,-3.3455 1.097,-6.679 1.75,-10c0.678,-0.44 1.428,-0.607 2.25,-0.5c-0.8465,4.3845 -1.3465,8.718 -1.5,13c-1.3095,0.134 -2.5595,-0.0325 -3.75,-0.5c-1.0645,-2.4245 -1.8975,-4.9245 -2.5,-7.5c-1.0135,2.554 -1.43,5.137 -1.25,7.75c-1.1955,0.1435 -2.362,0.3935 -3.5,0.75c-0.293,-0.1045 -0.543,-0.2715 -0.75,-0.5c-0.417,-2.1675 -0.8335,-4.334 -1.25,-6.5c0.3415,-2.313 0.3415,-4.646 0,-7zM224,243c1.146,-0.128 2.2295,0.0385 3.25,0.5c1.289,4.072 2.539,8.155 3.75,12.25c-0.5005,1.251 -1.3335,1.501 -2.5,0.75c-0.4045,-0.7855 -0.5715,-1.619 -0.5,-2.5c-1.6665,0 -3.3335,0 -5,0c0.2375,1.4115 -0.2625,2.4115 -1.5,3c-0.75,0.0235 -1.25,-0.3095 -1.5,-1c1.336,-4.348 2.6695,-8.6815 4,-13zM133.5,243.5c2.1845,-0.2885 4.1845,0.1285 6,1.25c-0.3555,0.6275 -0.772,1.2105 -1.25,1.75c-2.362,-1.534 -4.1955,-1.034 -5.5,1.5c-0.9585,5.1295 0.9585,6.9625 5.75,5.5c0.4575,0.414 0.7905,0.914 1,1.5c-1.1745,1.124 -2.591,1.7905 -4.25,2c-5.254,-2.0635 -6.754,-5.7305 -4.5,-11c0.865,-0.951 1.7815,-1.7845 2.75,-2.5zM156,243.5c0.8335,0 1.6665,0 2.5,0c0.435,4.327 0.518,8.66 0.25,13c-0.8335,0.6665 -1.6665,0.6665 -2.5,0c-0.25,-4.33 -0.333,-8.6635 -0.25,-13zM198,243.5c0.9835,-0.1195 1.9005,0.047 2.75,0.5c0.3335,4.1665 0.3335,8.3335 0,12.5c-0.678,0.44 -1.428,0.607 -2.25,0.5c-0.03,-4.5065 -0.1965,-9.0065 -0.5,-13.5zM78,257c3.59,2.502 7.2565,4.9185 11,7.25c2.8285,0.2495 5.662,0.333 8.5,0.25c0,1 0,2 0,3c-2.672,-0.083 -5.3385,0.0005 -8,0.25c-3.7345,2.3185 -7.401,4.735 -11,7.25c-0.5705,-0.9605 -0.654,-1.9605 -0.25,-3c2.9595,-1.8545 5.876,-3.771 8.75,-5.75c-2.8725,-2.1445 -5.7895,-4.228 -8.75,-6.25c-0.2475,-0.9865 -0.331,-1.9865 -0.25,-3zM173.5,274.5c0.209,0.361 0.542,0.611 1,0.75c3.8335,0.3335 7.6665,0.3335 11.5,0c0.458,-0.139 0.791,-0.389 1,-0.75c1.055,-0.4765 1.6385,-1.3095 1.75,-2.5c0.1665,-2.6665 0.3335,-5.3335 0.5,-8c1.2865,-1.264 2.8695,-1.764 4.75,-1.5c3.6715,0.362 7.338,0.7785 11,1.25c0.404,0.154 0.7375,0.404 1,0.75c-3.0595,2.3635 -3.8095,5.3635 -2.25,9c1.927,2.0855 4.177,2.502 6.75,1.25c1.863,-1.5305 3.363,-3.364 4.5,-5.5c2.183,-0.7545 4.3495,-0.588 6.5,0.5c2.65,1.7875 5.0665,3.871 7.25,6.25c0.3085,0.4745 0.2255,0.891 -0.25,1.25c-8.046,0.015 -16.046,0.348 -24,1c-0.6965,0.5855 -1.1135,1.3355 -1.25,2.25c-0.1665,1.6665 -0.3335,3.3335 -0.5,5c-0.354,0.4405 -0.771,0.7735 -1.25,1c-4.113,0.8615 -8.28,1.3615 -12.5,1.5c0.1805,-3.0465 -0.0695,-6.0465 -0.75,-9c-0.4515,-0.6005 -1.0345,-1.0175 -1.75,-1.25c-4.1665,-0.3335 -8.3335,-0.3335 -12.5,0c-0.5835,0.5835 -1.1665,1.1665 -1.75,1.75c-0.1665,2 -0.3335,4 -0.5,6c-0.187,0.458 -0.437,0.875 -0.75,1.25c-4.1955,1.5335 -8.5285,2.117 -13,1.75c0.083,-2.838 -0.0005,-5.6715 -0.25,-8.5c-0.438,-1.0675 -1.188,-1.7345 -2.25,-2c-7.451,-0.341 -14.951,-0.674 -22.5,-1c0,-0.5 0,-1 0,-1.5c7.335,0.0835 14.6685,0 22,-0.25c0.458,-0.139 0.791,-0.389 1,-0.75c0.787,-0.2185 1.3705,-0.7185 1.75,-1.5c0.0415,-3.221 0.3745,-6.3875 1,-9.5c0.25,-0.25 0.5,-0.5 0.75,-0.75c5.255,-0.318 10.422,0.182 15.5,1.5c-1.105,0.7545 -2.0215,1.671 -2.75,2.75c-0.3335,2.1665 -0.3335,4.3335 0,6.5c0.354,0.4405 0.771,0.7735 1.25,1zM160.5,358.5c-3.8895,1.353 -7.8895,1.9365 -12,1.75c-0.4845,-2.3685 -0.6515,-4.785 -0.5,-7.25c1.191,-0.8575 2.191,-1.8575 3,-3c0.581,-8.414 0.664,-16.914 0.25,-25.5c-0.1665,-0.6665 -0.3335,-1.3335 -0.5,-2c-0.3355,-0.376 -0.752,-0.543 -1.25,-0.5c-0.723,-0.5565 -1.5565,-0.64 -2.5,-0.25c-4.086,2.46 -8.2525,4.7935 -12.5,7c-0.9735,0.4955 -1.9735,0.6625 -3,0.5c9.8475,-11.112 17.5975,-23.5285 23.25,-37.25c1.1255,-1.813 2.709,-2.3965 4.75,-1.75c4.8265,1.7495 9.493,3.7495 14,6c-0.975,0.942 -2.142,1.609 -3.5,2c-2.357,2.963 -4.7735,5.8795 -7.25,8.75c-0.3335,1.1665 -0.3335,2.3335 0,3.5c1.7115,0.813 3.295,1.813 4.75,3c-0.6575,0.908 -1.4075,1.7415 -2.25,2.5c-0.1665,9.3335 -0.3335,18.6665 -0.5,28c-0.8335,0.6665 -1.6665,1.3335 -2.5,2c-0.578,3.9745 -0.911,7.9745 -1,12c-0.1915,0.278 -0.4415,0.4445 -0.75,0.5zM220,332c0.529,-0.55 0.946,-1.217 1.25,-2c0.0855,3.7555 0.3355,7.4225 0.75,11c-0.118,1.363 0.2985,2.5295 1.25,3.5c3.863,2.331 4.6965,5.498 2.5,9.5c-0.8655,1.0585 -1.949,1.8085 -3.25,2.25c-3.2825,0.923 -6.6155,1.59 -10,2c-8.5,0.3335 -17,0.3335 -25.5,0c-3.0195,-0.393 -5.603,-1.643 -7.75,-3.75c-1.713,-4.9295 -2.046,-9.9295 -1,-15c0.8335,-0.5 1.6665,-1 2.5,-1.5c0.1665,-14.6665 0.3335,-29.3335 0.5,-44c0.0465,-1.2535 0.463,-2.337 1.25,-3.25c5.0305,-0.412 10.1135,0.0045 15.25,1.25c0.3335,0.3335 0.3335,0.6665 0,1c-1.3825,0.5485 -2.2155,1.5485 -2.5,3c-0.3335,4.8335 -0.3335,9.6665 0,14.5c0.0825,1.8375 0.916,3.171 2.5,4c1.6015,-0.635 2.935,-1.635 4,-3c3.0835,-4.75 6.1665,-9.5 9.25,-14.25c1.81,-0.4205 3.477,-0.087 5,1c3.1985,2.3635 6.532,4.53 10,6.5c0.7685,0.555 1.1015,1.305 1,2.25c-1.8865,-0.1185 -3.72,0.1315 -5.5,0.75c-7.842,5.501 -16.1755,10.1675 -25,14c-0.6085,0.824 -1.025,1.7405 -1.25,2.75c-0.1665,2.3335 -0.3335,4.6665 -0.5,7c-0.8335,0.6665 -1.6665,1.3335 -2.5,2c-0.406,3.6235 -0.323,7.207 0.25,10.75c6.786,0.815 13.6195,0.9815 20.5,0.5c1.3355,-0.625 2.4185,-1.5415 3.25,-2.75c1.5975,-3.2095 2.8475,-6.543 3.75,-10zM136.5,366.5c4.3475,0.0175 6.0975,2.184 5.25,6.5c-1.156,1.573 -2.406,3.073 -3.75,4.5c1.625,0.154 3.2915,0.2375 5,0.25c0.44,0.678 0.607,1.428 0.5,2.25c-3.6275,-0.1565 -7.2105,0.01 -10.75,0.5c-0.3335,-0.5 -0.3335,-1 0,-1.5c2.5,-1.8335 4.6665,-4 6.5,-6.5c0.1,-3.98 -1.4835,-4.8135 -4.75,-2.5c-0.573,-0.3225 -1.073,-0.739 -1.5,-1.25c1.046,-1.018 2.213,-1.768 3.5,-2.25zM199,377.5c0,0.8335 0,1.6665 0,2.5c-3.5,0 -7,0 -10.5,0c0,-0.5 0,-1 0,-1.5c3.0585,-1.854 5.3915,-4.354 7,-7.5c-1.121,-2.928 -2.788,-3.261 -5,-1c-0.573,-0.3225 -1.073,-0.739 -1.5,-1.25c2.17,-2.1675 4.67,-2.6675 7.5,-1.5c1.5875,1.937 1.8375,4.0205 0.75,6.25c-1.064,1.565 -2.314,2.9815 -3.75,4.25c1.8145,-0.055 3.648,-0.138 5.5,-0.25zM218,366.5c2.672,-0.083 5.3385,0.0005 8,0.25c-0.3335,0.8335 -0.6665,1.6665 -1,2.5c-1.4645,0.3885 -2.8815,0.305 -4.25,-0.25c-1.5555,0.925 -1.639,1.925 -0.25,3c3.4625,-0.469 5.4625,1.114 6,4.75c-2.7565,4.2285 -6.2565,4.895 -10.5,2c0.249,-0.579 0.6655,-0.9955 1.25,-1.25c1.8795,1.188 3.713,1.188 5.5,0c0.379,-1.1345 0.2955,-2.218 -0.25,-3.25c-1.826,-0.2495 -3.659,-0.3325 -5.5,-0.25c0.3335,-2.5 0.6665,-5 1,-7.5zM163.5,367c2.29,-0.1935 4.457,0.2235 6.5,1.25c2.6145,4.781 1.781,8.781 -2.5,12c-1.3335,0.3335 -2.6665,0.3335 -4,0c-2.091,-2.812 -3.091,-5.979 -3,-9.5c0.554,-1.634 1.554,-2.884 3,-3.75zM247,367.5c0.942,0.441 1.6085,1.191 2,2.25c-2.8045,1.6385 -3.721,4.055 -2.75,7.25c0.5545,1.1575 1.4715,1.9075 2.75,2.25c4.497,0.25 8.997,0.333 13.5,0.25c0,1 0,2 0,3c-4.6695,0.083 -9.3365,0 -14,-0.25c-5.513,-2.3285 -7.0965,-6.245 -4.75,-11.75c1.0315,-1.117 2.1145,-2.117 3.25,-3zM201,433.5c-13.3705,0.162 -26.704,-0.0045 -40,-0.5c-0.131,-1.032 -0.7145,-1.6985 -1.75,-2c-8.067,5.409 -16.817,9.159 -26.25,11.25c9.9205,-5.083 18.1705,-12.1665 24.75,-21.25c0.226,-1.8685 0.809,-3.6185 1.75,-5.25c-0.0725,-0.386 -0.239,-0.7195 -0.5,-1c-1.144,-0.411 -2.311,-0.7445 -3.5,-1c-1.02,-1.3905 -1.8535,-2.8905 -2.5,-4.5c-0.686,-0.201 -1.3525,-0.451 -2,-0.75c-1.306,0.6395 -2.4725,1.4725 -3.5,2.5c-0.4925,0.799 -0.5755,1.6325 -0.25,2.5c1.8335,1.1665 3.6665,2.3335 5.5,3.5c0.818,1.553 1.568,3.1365 2.25,4.75c-1.9295,3.792 -4.846,4.7085 -8.75,2.75c-0.386,0.0725 -0.7195,0.239 -1,0.5c-0.518,-1.6265 -0.8515,-3.293 -1,-5c-0.765,-2.777 -2.515,-3.8605 -5.25,-3.25c-1.981,1.282 -4.0645,2.3655 -6.25,3.25c-0.0835,-0.25 -0.1665,-0.5 -0.25,-0.75c3.2945,-3.629 6.2115,-7.5455 8.75,-11.75c3.6165,-6.6025 6.7,-13.436 9.25,-20.5c1.3015,-0.531 2.635,-0.614 4,-0.25c3.539,1.235 7.039,2.5685 10.5,4c0.4285,0.3445 0.7615,0.761 1,1.25c-2.8875,0.637 -4.7205,2.387 -5.5,5.25c0.0725,0.386 0.239,0.7195 0.5,1c1.5,0.3335 3,0.3335 4.5,0c1.928,-1.55 3.7615,-3.2165 5.5,-5c1.3335,-0.3335 2.6665,-0.3335 4,0c1.5175,1.685 3.184,3.185 5,4.5c2.4475,1.437 3.6145,0.7705 3.5,-2c-0.626,-2.911 -1.043,-5.8275 -1.25,-8.75c2.174,6.503 5.591,12.253 10.25,17.25c0.7935,0.431 1.627,0.7645 2.5,1c1.5175,1.685 3.184,3.185 5,4.5c1.88,0.588 3.2965,0.005 4.25,-1.75c1.661,-2.984 2.744,-6.151 3.25,-9.5c-4.824,0.496 -9.657,0.579 -14.5,0.25c-0.829,-0.3625 -1.079,-0.946 -0.75,-1.75c4.5445,-0.4095 9.128,-0.6595 13.75,-0.75c1.9905,-2.4945 4.4075,-4.4115 7.25,-5.75c1.5255,0.523 2.7755,1.4395 3.75,2.75c3.295,1.2865 6.045,3.3695 8.25,6.25c0.2415,0.474 0.3245,0.974 0.25,1.5c-3.3815,0.7855 -6.215,2.5355 -8.5,5.25c-2.4675,1.303 -4.801,2.803 -7,4.5c-2.0405,2.293 -1.707,4.293 1,6c5.9005,2.785 11.9005,5.285 18,7.5c-2.365,0.789 -4.532,1.956 -6.5,3.5c-1.775,1.9415 -3.3585,4.0245 -4.75,6.25c-1.513,1.682 -3.263,1.932 -5.25,0.75c-10.7955,-6.795 -18.712,-16.045 -23.75,-27.75c-0.6025,-0.2855 -1.186,-0.619 -1.75,-1c-1.3695,-4.068 -3.6195,-4.568 -6.75,-1.5c-1.0195,2.1225 -2.103,4.206 -3.25,6.25c0.5085,0.5245 0.592,1.108 0.25,1.75c-3.4255,4.848 -7.092,9.515 -11,14c-1.069,1.6235 -0.819,3.0405 0.75,4.25c5.8335,0.3335 11.6665,0.3335 17.5,0c1.4765,-1.704 2.8935,-3.454 4.25,-5.25c1.36,-2.072 3.11,-2.4885 5.25,-1.25c2.6175,2.7015 5.284,5.285 8,7.75c-0.221,0.6195 -0.5545,1.1195 -1,1.5zM252,387c3.5,0 7,0 10.5,0c0,1 0,2 0,3c-4.534,-0.1905 -9.034,0.0595 -13.5,0.75c-3.2935,1.8795 -4.21,4.6295 -2.75,8.25c0.976,1.197 2.226,1.947 3.75,2.25c4.1635,0.25 8.33,0.333 12.5,0.25c0,1 0,2 0,3c-4.3365,0.083 -8.67,0 -13,-0.25c-4.336,-1.1705 -6.669,-4.0035 -7,-8.5c0.7015,-5.619 3.8685,-8.5355 9.5,-8.75zM243.5,408.5c6.3335,0 12.6665,0 19,0c0,1 0,2 0,3c-5.3335,0 -10.6665,0 -16,0c0,4.3335 0,8.6665 0,13c-1,0 -2,0 -3,0c0,-5.3335 0,-10.6665 0,-16zM262,427c0.561,0.894 0.6445,1.894 0.25,3c-2.9605,2.022 -5.8775,4.1055 -8.75,6.25c2.874,1.979 5.7905,3.8955 8.75,5.75c0.404,1.0395 0.3205,2.0395 -0.25,3c-3.599,-2.515 -7.2655,-4.9315 -11,-7.25c-2.6615,-0.2495 -5.328,-0.333 -8,-0.25c0,-1 0,-2 0,-3c2.838,0.083 5.6715,-0.0005 8.5,-0.25c3.533,-2.428 7.033,-4.8445 10.5,-7.25zM278.5,322.16667c22.5,0 45,0 67.5,0c0,0.73393 0,171.73394 0,193.5c-22.5,0 -45,0 -67.5,0c0,-22.5 0,-171 0,-193.5zM173,465c0.3085,-0.0555 0.5585,-0.222 0.75,-0.5c0.3335,-4.5 0.3335,-9 0,-13.5c-0.116,-0.6185 -0.366,-1.1185 -0.75,-1.5c-0.2675,-0.973 -0.934,-1.473 -2,-1.5c-9.748,-0.416 -19.581,-0.666 -29.5,-0.75c-0.272,-0.3585 -0.6055,-0.6085 -1,-0.75c20.1605,-0.9145 40.494,-1.331 61,-1.25c0.5,-0.1665 1,-0.3335 1.5,-0.5c1.8815,-2.4265 3.8815,-4.76 6,-7c1.6415,-0.3715 3.1415,-0.038 4.5,1c2.0665,1.5655 3.983,3.3155 5.75,5.25c0.1865,1.099 0.4365,2.1825 0.75,3.25c-0.0725,0.386 -0.239,0.7195 -0.5,1c-9.451,-0.702 -18.951,-0.8685 -28.5,-0.5c-0.893,0.3925 -1.643,0.9755 -2.25,1.75c-0.1665,2.5 -0.3335,5 -0.5,7.5c-0.2805,1.1125 -0.7805,2.1125 -1.5,3c-0.0625,5.3575 -0.396,10.691 -1,16c-2.352,4.1765 -5.9355,6.5935 -10.75,7.25c-1.531,0.3705 -3.031,0.2875 -4.5,-0.25c-1.2945,-2.9625 -2.5445,-5.9625 -3.75,-9c-2.3125,-1.528 -4.5625,-3.1115 -6.75,-4.75c3.7415,0.6805 7.5745,0.847 11.5,0.5c0.3155,-1.646 0.8155,-3.229 1.5,-4.75zM262.5,454.5c-6.3335,0 -12.6665,0 -19,0c0,-1 0,-2 0,-3c4.836,0.083 9.6695,0 14.5,-0.25c-0.272,-0.3585 -0.6055,-0.6085 -1,-0.75c-0.636,-1.7335 0.031,-2.4835 2,-2.25c0.9015,1.5515 1.985,2.9685 3.25,4.25c0.245,0.6465 0.3285,1.3135 0.25,2zM154,451c1.0135,-0.081 2.0135,0.0025 3,0.25c4.4965,2.2475 8.83,4.7475 13,7.5c-3.523,1.185 -6.523,3.185 -9,6c-7.5455,5.481 -15.7955,9.5645 -24.75,12.25c-0.25,-0.1665 -0.5,-0.3335 -0.75,-0.5c3.145,-2.956 6.0615,-6.123 8.75,-9.5c3.3875,-5.28 6.6375,-10.6135 9.75,-16zM193,452.5c5.331,1.414 10.6645,2.9975 16,4.75c3.4825,1.7 6.5655,3.95 9.25,6.75c2.465,3.512 2.7985,7.1785 1,11c-2.6325,2.6265 -5.716,3.2095 -9.25,1.75c-4.186,-7.1185 -9.269,-13.5355 -15.25,-19.25c0.094,-1.866 -0.656,-3.283 -2.25,-4.25c0.278,-0.1915 0.4445,-0.4415 0.5,-0.75zM246.5,459.5c2.753,-0.561 4.92,0.272 6.5,2.5c5.4395,-2.947 8.6065,-1.3635 9.5,4.75c-0.869,6.0595 -3.9525,7.6425 -9.25,4.75c-2.124,2.548 -4.7075,3.1315 -7.75,1.75c-3.1295,-3.6785 -3.546,-7.5955 -1.25,-11.75c0.6985,-0.785 1.4485,-1.452 2.25,-2zM243.5,478.5c1.8225,-0.41 2.989,0.2565 3.5,2c-0.874,2.0445 -2.124,2.3775 -3.75,1c-0.339,-1.049 -0.2555,-2.049 0.25,-3zM243.5,493.5c0,-1 0,-2 0,-3c4.845,0.166 9.678,-0.001 14.5,-0.5c-0.062,-0.3035 -0.2285,-0.47 -0.5,-0.5c-0.3205,-0.491 -0.6535,-0.991 -1,-1.5c0.707,-0.562 1.457,-1.062 2.25,-1.5c0.972,1.805 2.1385,3.4715 3.5,5c0.245,0.6465 0.3285,1.3135 0.25,2c-6.3335,0 -12.6665,0 -19,0zM246.5,498.5c1.912,1.483 1.829,2.815 -0.25,4c-1.814,4.87 -0.1475,7.705 5,8.5c-0.8585,-1.75 -1.442,-3.665 -1.75,-5.75c0.862,-6.098 4.1955,-8.098 10,-6c3.202,3.145 3.785,6.73 1.75,10.75c-1.7715,2.035 -4.0215,3.12 -6.75,3.25c-10.0515,0.8 -13.468,-3.45 -10.25,-12.75c0.6985,-0.785 1.4485,-1.452 2.25,-2zM149,507c9.4065,1.31 12.1565,6.31 8.25,15c-4.1265,4.175 -8.543,4.51 -13.25,1c-3.781,-4.195 -3.948,-8.53 -0.5,-13c1.6615,-1.41 3.495,-2.41 5.5,-3zM178.5,507c7.819,0.235 11.236,4.235 10.25,12c-2.25,5.335 -6.1665,7.25 -11.75,5.75c-6.4355,-3.53 -7.6855,-8.45 -3.75,-14.75c1.5345,-1.475 3.2845,-2.475 5.25,-3zM208.5,507c8.1425,0.72 11.3925,5.055 9.75,13c-2.71,4.565 -6.627,6.145 -11.75,4.75c-5.606,-3.205 -7.023,-7.79 -4.25,-13.75c1.689,-2.045 3.7725,-3.38 6.25,-4zM136,553.5c10.168,-0.085 20.3345,0 30.5,0.25c7.132,1.8 11.049,6.385 11.75,13.75c0.3335,8.665 0.3335,17.335 0,26c-0.693,7.36 -4.61,11.94 -11.75,13.75c-10.3315,0.95 -20.665,0.95 -31,0c-8.0155,-2.59 -11.932,-8.17 -11.75,-16.75c-0.456,-8.685 -0.2895,-17.355 0.5,-26c1.7785,-6.03 5.695,-9.695 11.75,-11zM229,554c0.795,0.065 1.4615,0.395 2,1c0.4465,1.29 0.613,2.625 0.5,4c1.925,0.1 2.425,1.015 1.5,2.75c-0.474,0.24 -0.974,0.325 -1.5,0.25c0.918,2.255 1.918,4.505 3,6.75c-1.1045,0.845 -2.021,0.76 -2.75,-0.25c-0.13,3.025 -0.4635,6.025 -1,9c-1.227,0.755 -2.0605,0.425 -2.5,-1c-0.2795,-1.845 -0.613,-3.675 -1,-5.5c-1.0595,1.49 -1.643,1.32 -1.75,-0.5c0.7725,-2.65 1.439,-5.315 2,-8c-0.661,0.085 -1.2445,-0.08 -1.75,-0.5c-0.2475,-0.985 -0.331,-1.985 -0.25,-3c0.8335,0 1.6665,0 2.5,0c-0.22,-1.84 0.1135,-3.505 1,-5zM240,554c2.334,-0.33 3.334,0.67 3,3c1.6665,0.165 3.3335,0.335 5,0.5c0.762,1.89 0.0955,3.14 -2,3.75c2.935,2.935 2.6015,5.35 -1,7.25c-0.641,0.84 -1.141,1.755 -1.5,2.75c1.521,1.42 3.021,2.84 4.5,4.25c-0.5395,1.02 -1.373,1.69 -2.5,2c-1.4195,-0.96 -2.9195,-1.795 -4.5,-2.5c-1.527,1.095 -3.194,1.93 -5,2.5c-1.2485,-0.22 -1.8315,-0.885 -1.75,-2c1.7325,-1.23 3.3155,-2.65 4.75,-4.25c-0.8895,-2.055 -2.306,-3.64 -4.25,-4.75c-0.219,-1.97 0.3645,-3.72 1.75,-5.25c-1.5105,-0.77 -2.177,-2.02 -2,-3.75c1.6665,-0.165 3.3335,-0.335 5,-0.5c0.0085,-1.03 0.175,-2.03 0.5,-3zM203.5,554.5c2.1315,-0.065 3.1315,0.935 3,3c1.052,0.15 2.052,-0.015 3,-0.5c-0.863,-1.5 -0.446,-2.335 1.25,-2.5c1.609,0.235 2.1925,1.07 1.75,2.5c2.1585,0.825 3.825,0.24 5,-1.75c0.9865,-0.25 1.9865,-0.33 3,-0.25c0.107,0.82 -0.06,1.57 -0.5,2.25c0.7905,0.355 1.5405,0.77 2.25,1.25c0.3335,1.665 0.3335,3.335 0,5c-2.264,0.825 -3.3475,-0.005 -3.25,-2.5c-5.1665,0 -10.3335,0 -15.5,0c0.5,2.5 -0.5,3.5 -3,3c-0.1615,-1.865 0.0055,-3.695 0.5,-5.5c0.8335,-0.415 1.6665,-0.835 2.5,-1.25c-1.1815,-1.04 -1.1815,-1.96 0,-2.75zM205,563c4.17,-0.085 8.3365,0 12.5,0.25c0.5085,0.525 0.592,1.11 0.25,1.75c-0.9365,1.105 -2.02,2.02 -3.25,2.75c2.618,0.67 5.285,0.92 8,0.75c0,0.835 0,1.665 0,2.5c-3.1805,0.18 -6.347,0.515 -9.5,1c0.919,4.83 -1.081,6.745 -6,5.75c-1.2735,-0.66 -1.6065,-1.575 -1,-2.75c1.1215,-0.485 2.288,-0.655 3.5,-0.5c0,-1 0,-2 0,-3c-2.5055,0.085 -5.0055,0 -7.5,-0.25c-1.815,-0.135 -2.315,-0.97 -1.5,-2.5c3.0195,-0.17 6.0195,-0.5 9,-1c0.5255,-0.69 1.192,-1.19 2,-1.5c-2.042,-0.115 -4.042,-0.45 -6,-1c-0.44,-0.68 -0.607,-1.43 -0.5,-2.25zM237.5,581c2.6575,0 3.6575,1.33 3,4c1.052,0.15 2.052,-0.015 3,-0.5c-1.552,-2.615 -0.8855,-3.45 2,-2.5c-0.218,1.43 0.1985,2.6 1.25,3.5c0.3335,0.835 0.3335,1.665 0,2.5c-1.81,0.84 -3.727,1.175 -5.75,1c-0.1355,4.275 0.781,8.275 2.75,12c0.5065,-1.175 1.3395,-2.005 2.5,-2.5c0.9235,0.335 1.507,1 1.75,2c-0.291,3.88 -2.291,5.295 -6,4.25c-1.1045,-0.935 -2.021,-2.02 -2.75,-3.25c-1.2365,-4.25 -1.9865,-8.585 -2.25,-13c-3.837,0.085 -7.6705,0 -11.5,-0.25c-1.3335,-1 -1.3335,-2 0,-3c3.663,-0.25 7.3295,-0.335 11,-0.25c-0.1085,-1.46 0.2245,-2.795 1,-4zM205.5,582c2.242,-0.105 3.1585,0.895 2.75,3c-1.355,2.125 -2.7715,4.21 -4.25,6.25c-3.031,1.47 -4.114,0.555 -3.25,-2.75c1.588,-2.18 3.1715,-4.35 4.75,-6.5zM213,582.5c1.212,-0.155 2.3785,0.015 3.5,0.5c1.1355,1.885 2.552,3.555 4.25,5c0.7695,2.13 0.103,3.465 -2,4c-3.108,-2.51 -5.025,-5.675 -5.75,-9.5zM336,582.5c0.5,0 1,0 1.5,0c0.154,1.21 -0.013,2.38 -0.5,3.5c-1.2785,0.455 -2.5285,0.955 -3.75,1.5c-0.4155,3.68 -0.3325,7.345 0.25,11c1.2785,0.455 2.5285,0.955 3.75,1.5c0.407,1.2 0.3235,2.37 -0.25,3.5c-6.944,-2.89 -13.944,-5.64 -21,-8.25c-0.6435,-1.56 -0.6435,-3.145 0,-4.75c6.7565,-2.58 13.423,-5.25 20,-8zM207.5,591c1.715,-0.355 2.8815,0.23 3.5,1.75c-0.77,2.455 -1.6035,4.87 -2.5,7.25c1.675,0.085 3.3415,0 5,-0.25c0.464,-0.195 0.7975,-0.525 1,-1c-1.148,-2.685 -0.315,-3.685 2.5,-3c2.5525,2.185 3.636,4.935 3.25,8.25c-0.2805,0.26 -0.614,0.43 -1,0.5c-1.844,-0.72 -3.761,-1.055 -5.75,-1c-3.3615,0.17 -6.695,0.5 -10,1c-2.185,-0.26 -3.1015,-1.425 -2.75,-3.5c1.101,-0.45 2.184,-0.95 3.25,-1.5c1.311,-2.785 2.478,-5.62 3.5,-8.5zM226.5,591c3.0615,-0.16 6.0615,0.17 9,1c0.6665,0.665 0.6665,1.335 0,2c-0.948,0.485 -1.948,0.65 -3,0.5c0,1.665 0,3.335 0,5c1.3435,-0.08 2.677,0 4,0.25c0.6665,0.665 0.6665,1.335 0,2c-3.5985,1.025 -7.265,1.61 -11,1.75c-0.3335,-2.665 0.8335,-3.835 3.5,-3.5c0,-1.835 0,-3.665 0,-5.5c-2.8735,0.315 -3.707,-0.85 -2.5,-3.5zM282,596.5c7.3335,0 14.6665,0 22,0c0,1.335 0,2.665 0,4c-7.3335,0 -14.6665,0 -22,0c0,-1.335 0,-2.665 0,-4zM282,604.5c1.1665,0 2.3335,0 3.5,0c0,2.665 0,5.335 0,8c6.1665,0 12.3335,0 18.5,0c0,1.335 0,2.665 0,4c-6.1665,0 -12.3335,0 -18.5,0c0,2.665 0,5.335 0,8c-1.1665,0 -2.3335,0 -3.5,0c0,-6.665 0,-13.335 0,-20zM315.5,604.5c1.1665,0 2.3335,0 3.5,0c0,2.665 0,5.335 0,8c6.1665,0 12.3335,0 18.5,0c0,1.335 0,2.665 0,4c-6.1665,0 -12.3335,0 -18.5,0c0,2.665 0,5.335 0,8c-1.1665,0 -2.3335,0 -3.5,0c0,-6.665 0,-13.335 0,-20z" fill="#ffffff" fill-rule="evenodd" stroke="none" stroke-width="1"/><path d="M89,6c0,0.16665 0,0.33335 0,0.5c-0.8335,0 -1.6665,0 -2.5,0c0,4.66665 0,9.33335 0,14c-0.497,-4.7428 -0.6635,-9.5761 -0.5,-14.5c1,0 2,0 3,0z" fill="#ffffff" fill-rule="evenodd" stroke="none" stroke-width="1"/><path d="M89,6.5c0,4.66665 0,9.33335 0,14c-0.8335,0 -1.6665,0 -2.5,0c0,-4.66665 0,-9.33335 0,-14c0.8335,0 1.6665,0 2.5,0z" fill="#ffffff" fill-rule="evenodd" stroke="none" stroke-width="1"/><path d="M89,6c0.6635,2.2255 0.997,4.64215 1,7.25c-0.003,2.60785 -0.3365,5.0245 -1,7.25c0,-4.66665 0,-9.33335 0,-14c0,-0.16665 0,-0.33335 0,-0.5z" fill="#ffffff" fill-rule="evenodd" stroke="none" stroke-width="1"/><path d="M25.5,26.5c-1.22395,0.48655 -2.5573,0.6532 -4,0.5c0,-3.83335 0,-7.66665 0,-11.5c-1.66665,0 -3.33335,0 -5,0c0.16345,4.7575 -0.0032,9.42415 -0.5,14c0,-4.83335 0,-9.66665 0,-14.5c2,0 4,0 6,0c0,3.83335 0,7.66665 0,11.5c1.16665,0 2.33335,0 3.5,0z" fill="#d8d8d8" fill-rule="evenodd" stroke="none" stroke-width="1"/><path d="M25.5,15.5c1.5624,-0.4897 3.22905,-0.6564 5,-0.5c0,4.66665 0,9.33335 0,14c-0.49665,-4.4089 -0.6633,-8.9089 -0.5,-13.5c-1.5,0 -3,0 -4.5,0z" fill="#cccccc" fill-rule="evenodd" stroke="none" stroke-width="1"/><path d="M142,23c0,7.5 0,15 0,22.5c1.1665,0 2.3335,0 3.5,0c-1.224,0.48655 -2.5575,0.6532 -4,0.5c-0.165,-7.75455 0.002,-15.4212 0.5,-23z" fill="#c1c1c1" fill-rule="evenodd" stroke="none" stroke-width="1"/><path d="M215,23c0,7.5 0,15 0,22.5c1.1665,0 2.3335,0 3.5,0c-1.224,0.48655 -2.5575,0.6532 -4,0.5c-0.165,-7.75455 0.002,-15.4212 0.5,-23z" fill="#c1c1c1" fill-rule="evenodd" stroke="none" stroke-width="1"/><path d="M182.5,35.5c-3.741,0.496 -7.574,0.6627 -11.5,0.5c0,1.83335 0,3.66665 0,5.5c-0.4915,-1.8992 -0.6585,-3.8992 -0.5,-6c4,0 8,0 12,0z" fill="#c4c4c4" fill-rule="evenodd" stroke="none" stroke-width="1"/><path d="M319,32c0.4865,1.22395 0.653,2.5573 0.5,4c-4,0 -8,0 -12,0c3.741,-0.496 7.574,-0.6627 11.5,-0.5c0,-1.16665 0,-2.33335 0,-3.5z" fill="#c0c0c0" fill-rule="evenodd" stroke="none" stroke-width="1"/><path d="M162,23c0.498,7.5788 0.665,15.24545 0.5,23c-1.5,0 -3,0 -4.5,0c0,-3.33335 0,-6.66665 0,-10c-4.1665,0 -8.3335,0 -12.5,0c4.242,-0.4965 8.5755,-0.6632 13,-0.5c0,3.33335 0,6.66665 0,10c1.1665,0 2.3335,0 3.5,0c0,-7.5 0,-15 0,-22.5z" fill="#d2d2d2" fill-rule="evenodd" stroke="none" stroke-width="1"/><path d="M299,45.5c-1.224,0.48655 -2.5575,0.6532 -4,0.5c0,-3.33335 0,-6.66665 0,-10c-4.1665,0 -8.3335,0 -12.5,0c0,3.33335 0,6.66665 0,10c-1.4425,0.1532 -2.776,-0.01345 -4,-0.5c1.1665,0 2.3335,0 3.5,0c0,-3.33335 0,-6.66665 0,-10c4.5,0 9,0 13.5,0c0,3.33335 0,6.66665 0,10c1.1665,0 2.3335,0 3.5,0z" fill="#c1c1c1" fill-rule="evenodd" stroke="none" stroke-width="1"/><path d="M86,38.5c1,0 2,0 3,0c0,5.16665 0,10.33335 0,15.5c-1,0 -2,0 -3,0c0,-5.16665 0,-10.33335 0,-15.5z" fill="#ffffff" fill-rule="evenodd" stroke="none" stroke-width="1"/><path d="M86,38.5c1.224,-0.48655 2.5575,-0.6532 4,-0.5c0,5.5 0,11 0,16.5c-1.4425,0.153 -2.776,-0.0135 -4,-0.5c1,0 2,0 3,0c0,-5.16665 0,-10.33335 0,-15.5c-1,0 -2,0 -3,0z" fill="#ffffff" fill-rule="evenodd" stroke="none" stroke-width="1"/><path d="M16.5,60.5c0,4.8335 0,9.6665 0,14.5c-1.4427,0.153 -2.77605,-0.0135 -4,-0.5c1.16665,0 2.33335,0 3.5,0c-0.16345,-4.7575 0.0032,-9.424 0.5,-14z" fill="#cdcdcd" fill-rule="evenodd" stroke="none" stroke-width="1"/><path d="M53.5,64c3.269,0.8675 6.436,2.0345 9.5,3.5c-2.835,1.5815 -5.835,2.915 -9,4c-0.497,-2.478 -0.6635,-4.978 -0.5,-7.5z" fill="#f0f0f0" fill-rule="evenodd" stroke="none" stroke-width="1"/><path d="M300,69.5c-6.5,0 -13,0 -19.5,0c0,5.6665 0,11.3335 0,17c7.1665,0 14.3335,0 21.5,0c-7.245,0.498 -14.5785,0.6645 -22,0.5c0,-6 0,-12 0,-18c6.755,-0.1645 13.422,0.002 20,0.5z" fill="#d1d1d1" fill-rule="evenodd" stroke="none" stroke-width="1"/><path d="M300,69.5c7.985,0.116 11.0685,4.116 9.25,12c-1.436,3.093 -3.853,4.7595 -7.25,5c-7.1665,0 -14.3335,0 -21.5,0c0,-5.6665 0,-11.3335 0,-17c6.5,0 13,0 19.5,0z" fill="#fdfdfd" fill-rule="evenodd" stroke="none" stroke-width="1"/><path d="M86,71c1,0 2,0 3,0c0,4.6665 0,9.3335 0,14c-1,0 -2,0 -3,0c0,-4.6665 0,-9.3335 0,-14z" fill="#ffffff" fill-rule="evenodd" stroke="none" stroke-width="1"/><path d="M86,71c1.224,-0.4865 2.5575,-0.653 4,-0.5c0,5.1665 0,10.3335 0,15.5c-1.599,0.268 -2.9325,-0.0655 -4,-1c1,0 2,0 3,0c0,-4.6665 0,-9.3335 0,-14c-1,0 -2,0 -3,0z" fill="#ffffff" fill-rule="evenodd" stroke="none" stroke-width="1"/><path d="M173.5,116.5c-0.3335,-12.1665 -0.6665,-24.3335 -1,-36.5c-0.0195,-0.628 0.2305,-1.128 0.75,-1.5c0.25,12.6655 0.3335,25.332 0.25,38z" fill="#d2d2d2" fill-rule="evenodd" stroke="none" stroke-width="1"/><path d="M129.5,80c-0.3335,12.1665 -0.6665,24.3335 -1,36.5c-0.0835,-12.668 0,-25.3345 0.25,-38c0.5195,0.372 0.7695,0.872 0.75,1.5z" fill="#d6d6d6" fill-rule="evenodd" stroke="none" stroke-width="1"/><path d="M19,93.5c5,0.3335 10,0.6665 15,1c-5.33595,0.0835 -10.66925,0 -16,-0.25c0.2721,-0.3585 0.60545,-0.6085 1,-0.75z" fill="#bfbfbf" fill-rule="evenodd" stroke="none" stroke-width="1"/><path d="M13,93.5c0,1.3335 0,2.6665 0,4c7,0 14,0 21,0c-7.07845,0.498 -14.24515,0.6645 -21.5,0.5c-0.155,-1.6065 0.01165,-3.1065 0.5,-4.5z" fill="#bebebe" fill-rule="evenodd" stroke="none" stroke-width="1"/><path d="M12.5,112.5c6,0 12,0 18,0c0,2.8335 0,5.6665 0,8.5c-0.49405,-2.57 -0.6607,-5.237 -0.5,-8c-5.92265,0.164 -11.756,-0.0025 -17.5,-0.5z" fill="#c2c2c2" fill-rule="evenodd" stroke="none" stroke-width="1"/><path d="M82.5,0c0.1665,0 0.3335,0 0.5,0c0,45 0,90 0,135c3,0 6,0 9,0c-0.1655,-10.7535 0.0015,-21.42 0.5,-32c0,11 0,22 0,33c-3.3335,0 -6.6665,0 -10,0c0,-45.3335 0,-90.66665 0,-136z" fill="#ffffff" fill-rule="evenodd" stroke="none" stroke-width="1"/><path d="M89,104c0.3335,0 0.6665,0 1,0c0,4.3335 0,8.6665 0,13c-1.4425,0.153 -2.776,-0.0135 -4,-0.5c1,0 2,0 3,0c0,-4.1665 0,-8.3335 0,-12.5z" fill="#ffffff" fill-rule="evenodd" stroke="none" stroke-width="1"/><path d="M86,104c1,0 2,0 3,0c0,4.1665 0,8.3335 0,12.5c-1,0 -2,0 -3,0c0,-4.1665 0,-8.3335 0,-12.5z" fill="#ffffff" fill-rule="evenodd" stroke="none" stroke-width="1"/><path d="M90,104c-0.3335,0 -0.6665,0 -1,0c-1,0 -2,0 -3,0c0.417,-0.624 1.0835,-0.9575 2,-1c0.9165,0.0425 1.583,0.376 2,1z" fill="#ffffff" fill-rule="evenodd" stroke="none" stroke-width="1"/><path d="M224,144.5c0.5815,12.2485 0.665,24.5815 0.25,37c-0.0915,1.4325 -0.3415,2.7655 -0.75,4c0.459,-13.66 0.6255,-27.3265 0.5,-41z" fill="#c4c4c4" fill-rule="evenodd" stroke="none" stroke-width="1"/><path d="M85.5,146.5c7.232,-0.688 10.1485,2.479 8.75,9.5c-2.3585,3.675 -5.6085,4.7585 -9.75,3.25c-3.503,-2.452 -4.4195,-5.702 -2.75,-9.75c1.057,-1.3105 2.307,-2.3105 3.75,-3z" fill="#ffffff" fill-rule="evenodd" stroke="none" stroke-width="1"/><path d="M202,153.5c0.665,3.233 0.9985,6.6495 1,10.25c0,3.504 -0.167,6.921 -0.5,10.25c0.1575,-6.873 -0.0095,-13.706 -0.5,-20.5z" fill="#b5b5b5" fill-rule="evenodd" stroke="none" stroke-width="1"/><path d="M168,174c0.323,6.19 -0.0105,12.19 -1,18c0.324,-6.049 0.657,-12.049 1,-18z" fill="#b6b6b6" fill-rule="evenodd" stroke="none" stroke-width="1"/><path d="M209.5,180c-4.0785,0.4145 -8.245,0.6645 -12.5,0.75c0.6185,0.116 1.1185,0.366 1.5,0.75c-1.0135,0.081 -2.0135,-0.0025 -3,-0.25c-0.4185,-0.5055 -0.585,-1.089 -0.5,-1.75c4.8195,0.43 9.653,0.5965 14.5,0.5z" fill="#c1c1c1" fill-rule="evenodd" stroke="none" stroke-width="1"/><path d="M78,188c6.4115,-0.4975 12.9115,-0.6645 19.5,-0.5c0,1.3335 0,2.6665 0,4c-6.5885,0.1645 -13.0885,-0.0025 -19.5,-0.5c6.3335,0 12.6665,0 19,0c0,-1 0,-2 0,-3c-6.3335,0 -12.6665,0 -19,0z" fill="#ffffff" fill-rule="evenodd" stroke="none" stroke-width="1"/><path d="M78,196c6.4115,-0.4975 12.9115,-0.6645 19.5,-0.5c0.151,1.2795 -0.016,2.4465 -0.5,3.5c0,-1 0,-2 0,-3c-6.3335,0 -12.6665,0 -19,0z" fill="#ffffff" fill-rule="evenodd" stroke="none" stroke-width="1"/><path d="M172,200.5c-12.5965,0.347 -25.2635,0.6805 -38,1c0,0.5 0,1 0,1.5c-0.6505,-0.692 -0.6505,-1.442 0,-2.25c12.6655,-0.25 25.332,-0.3335 38,-0.25z" fill="#d4d4d4" fill-rule="evenodd" stroke="none" stroke-width="1"/><path d="M204,203.5c7.569,1.1645 15.236,1.331 23,0.5c-0.0555,0.3085 -0.222,0.5585 -0.5,0.75c-7.6665,0.3335 -15.3335,0.3335 -23,0c0.376,-0.3355 0.543,-0.752 0.5,-1.25z" fill="#bababa" fill-rule="evenodd" stroke="none" stroke-width="1"/><path d="M189.5,205.5c1.5855,1.0095 2.252,2.5095 2,4.5c-0.8335,0 -1.6665,0 -2.5,0c-0.118,-1.5545 0.0485,-3.0545 0.5,-4.5z" fill="#e3e3e3" fill-rule="evenodd" stroke="none" stroke-width="1"/><path d="M171.5,218.5c-0.467,5.6475 -0.634,11.3145 -0.5,17c-0.5795,-5.413 -0.663,-10.913 -0.25,-16.5c0.1915,-0.278 0.4415,-0.4445 0.75,-0.5z" fill="#cccccc" fill-rule="evenodd" stroke="none" stroke-width="1"/><path d="M88.5,244c0.6665,0 1.3335,0 2,0c0,2.1665 0,4.3335 0,6.5c-3.1705,-0.64 -6.1705,-1.7235 -9,-3.25c2.346,-1.139 4.6795,-2.2225 7,-3.25z" fill="#ffffff" fill-rule="evenodd" stroke="none" stroke-width="1"/><path d="M165,245.5c1.3335,0 2.6665,0 4,0c0.3395,2.8675 -0.8275,3.701 -3.5,2.5c-0.4045,-0.7855 -0.5715,-1.619 -0.5,-2.5z" fill="#efefef" fill-rule="evenodd" stroke="none" stroke-width="1"/><path d="M178.5,246.5c0.498,-0.043 0.9145,0.124 1.25,0.5c0.4765,1.466 0.7265,2.966 0.75,4.5c-1.052,0.1495 -2.052,-0.017 -3,-0.5c0.4615,-1.4735 0.7945,-2.9735 1,-4.5z" fill="#e9e9e9" fill-rule="evenodd" stroke="none" stroke-width="1"/><path d="M225,246.5c0.625,0.0385 1.0415,0.372 1.25,1c0.411,1.3085 0.661,2.642 0.75,4c-1,0 -2,0 -3,0c0.27,-1.6825 0.603,-3.349 1,-5z" fill="#e9e9e9" fill-rule="evenodd" stroke="none" stroke-width="1"/><path d="M165.5,251c1.3335,0 2.6665,0 4,0c0.25,2.9145 -1.083,4.0815 -4,3.5c0,-1.1665 0,-2.3335 0,-3.5z" fill="#f1f1f1" fill-rule="evenodd" stroke="none" stroke-width="1"/><path d="M156,274.5c-0.209,0.361 -0.542,0.611 -1,0.75c-7.3315,0.25 -14.665,0.3335 -22,0.25c7.596,-0.3565 15.263,-0.6895 23,-1z" fill="#bebebe" fill-rule="evenodd" stroke="none" stroke-width="1"/><path d="M173.5,274.5c4.5035,0.6505 9.0035,0.6505 13.5,0c-0.209,0.361 -0.542,0.611 -1,0.75c-3.8335,0.3335 -7.6665,0.3335 -11.5,0c-0.458,-0.139 -0.791,-0.389 -1,-0.75z" fill="#c0c0c0" fill-rule="evenodd" stroke="none" stroke-width="1"/><path d="M133,277c7.549,0.326 15.049,0.659 22.5,1c-7.6855,0.325 -15.1855,-0.008 -22.5,-1z" fill="#c7c7c7" fill-rule="evenodd" stroke="none" stroke-width="1"/><path d="M92.5,326c-0.499,-15.581 -0.666,-31.248 -0.5,-47c-3,0 -6,0 -9,0c0.1665,59.7505 0,119.417 -0.5,179c0,-60 0,-120 0,-180c3.3335,0 6.6665,0 10,0c0,16 0,32 0,48z" fill="#ffffff" fill-rule="evenodd" stroke="none" stroke-width="1"/><path d="M201.5,286.5c-0.763,0.815 -1.763,1.2315 -3,1.25c-2.4185,0.2335 -4.835,0.4835 -7.25,0.75c-0.8535,-0.004 -1.6035,-0.171 -2.25,-0.5c4.22,-0.1385 8.387,-0.6385 12.5,-1.5z" fill="#bfbfbf" fill-rule="evenodd" stroke="none" stroke-width="1"/><path d="M86,298c1,0 2,0 3,0c0,4.6665 0,9.3335 0,14c-1,0 -2,0 -3,0c0,-4.6665 0,-9.3335 0,-14z" fill="#ffffff" fill-rule="evenodd" stroke="none" stroke-width="1"/><path d="M86,298c1.224,-0.4865 2.5575,-0.653 4,-0.5c0,5.1665 0,10.3335 0,15.5c-1.599,0.268 -2.9325,-0.0655 -4,-1c1,0 2,0 3,0c0,-4.6665 0,-9.3335 0,-14c-1,0 -2,0 -3,0z" fill="#ffffff" fill-rule="evenodd" stroke="none" stroke-width="1"/><path d="M149.5,322c0.498,-0.043 0.9145,0.124 1.25,0.5c0.1665,0.6665 0.3335,1.3335 0.5,2c0.414,8.586 0.331,17.086 -0.25,25.5c0.0835,-8.1685 0,-16.335 -0.25,-24.5c-0.0765,-1.3255 -0.4935,-2.492 -1.25,-3.5z" fill="#cbcbcb" fill-rule="evenodd" stroke="none" stroke-width="1"/><path d="M89,329.5c0,0.1665 0,0.3335 0,0.5c-0.8335,0 -1.6665,0 -2.5,0c0,4.5 0,9 0,13.5c0.8335,0 1.6665,0 2.5,0c-0.8825,0.4805 -1.8825,0.6475 -3,0.5c0,-4.8335 0,-9.6665 0,-14.5c1,0 2,0 3,0z" fill="#ffffff" fill-rule="evenodd" stroke="none" stroke-width="1"/><path d="M89,330c0,4.5 0,9 0,13.5c-0.8335,0 -1.6665,0 -2.5,0c0,-4.5 0,-9 0,-13.5c0.8335,0 1.6665,0 2.5,0z" fill="#ffffff" fill-rule="evenodd" stroke="none" stroke-width="1"/><path d="M89,329.5c0.9875,4.973 1.321,10.1395 1,15.5c-1.599,0.268 -2.9325,-0.0655 -4,-1c1.1175,0.1475 2.1175,-0.0195 3,-0.5c0,-4.5 0,-9 0,-13.5c0,-0.1665 0,-0.3335 0,-0.5z" fill="#ffffff" fill-rule="evenodd" stroke="none" stroke-width="1"/><path d="M222,341c-0.4145,-3.5775 -0.6645,-7.2445 -0.75,-11c-0.304,0.783 -0.721,1.45 -1.25,2c-0.1515,-1.544 0.515,-2.377 2,-2.5c0,3.8335 0,7.6665 0,11.5z" fill="#bdbdbd" fill-rule="evenodd" stroke="none" stroke-width="1"/><path d="M148,353c-0.1515,2.465 0.0155,4.8815 0.5,7.25c4.1105,0.1865 8.1105,-0.397 12,-1.75c-0.0555,0.3085 -0.222,0.5585 -0.5,0.75c-3.883,1.477 -7.883,1.977 -12,1.5c-0.662,-2.633 -0.662,-5.2165 0,-7.75z" fill="#c7c7c7" fill-rule="evenodd" stroke="none" stroke-width="1"/><path d="M89,362c0,4 0,8 0,12c-1,0 -2,0 -3,0c0,-4 0,-8 0,-12c1,0 2,0 3,0z" fill="#ffffff" fill-rule="evenodd" stroke="none" stroke-width="1"/><path d="M89,362c0.985,4.1345 1.318,8.4675 1,13c-1.599,0.268 -2.9325,-0.0655 -4,-1c1,0 2,0 3,0c0,-4 0,-8 0,-12z" fill="#ffffff" fill-rule="evenodd" stroke="none" stroke-width="1"/><path d="M166,368.5c0.795,0.064 1.4615,0.3975 2,1c1.372,2.872 1.2055,5.622 -0.5,8.25c-1.1345,0.379 -2.218,0.2955 -3.25,-0.25c-0.9145,-2.8075 -0.9975,-5.641 -0.25,-8.5c0.7995,0.134 1.466,-0.033 2,-0.5z" fill="#f2f2f2" fill-rule="evenodd" stroke="none" stroke-width="1"/><path d="M199,377.5c0.4805,0.8825 0.6475,1.8825 0.5,3c-3.8335,0 -7.6665,0 -11.5,0c-0.134,-0.7995 0.033,-1.466 0.5,-2c0,0.5 0,1 0,1.5c3.5,0 7,0 10.5,0c0,-0.8335 0,-1.6665 0,-2.5z" fill="#cccccc" fill-rule="evenodd" stroke="none" stroke-width="1"/><path d="M86,394c1,0 2,0 3,0c0,4 0,8 0,12c-1,0 -2,0 -3,0c0,-4 0,-8 0,-12z" fill="#ffffff" fill-rule="evenodd" stroke="none" stroke-width="1"/><path d="M86,394c1.224,-0.4865 2.5575,-0.653 4,-0.5c0,4.5 0,9 0,13.5c-1.599,0.268 -2.9325,-0.0655 -4,-1c1,0 2,0 3,0c0,-4 0,-8 0,-12c-1,0 -2,0 -3,0z" fill="#ffffff" fill-rule="evenodd" stroke="none" stroke-width="1"/><path d="M157.5,401c2.173,-0.083 4.3395,0.0005 6.5,0.25c1.679,2.5095 1.179,4.426 -1.5,5.75c-1.8605,-1.2635 -3.8605,-2.2635 -6,-3c-0.1665,-0.3335 -0.3335,-0.6665 -0.5,-1c0.393,-0.7705 0.893,-1.437 1.5,-2z" fill="#f1f1f1" fill-rule="evenodd" stroke="none" stroke-width="1"/><path d="M243.5,408.5c0,5.3335 0,10.6665 0,16c1,0 2,0 3,0c-1.0535,0.484 -2.2205,0.651 -3.5,0.5c-0.164,-5.5895 0.0025,-11.0895 0.5,-16.5z" fill="#b4b4b4" fill-rule="evenodd" stroke="none" stroke-width="1"/><path d="M86,426c1,0 2,0 3,0c0,5 0,10 0,15c-1,0 -2,0 -3,0c0,-5 0,-10 0,-15z" fill="#ffffff" fill-rule="evenodd" stroke="none" stroke-width="1"/><path d="M86,426c1.224,-0.4865 2.5575,-0.653 4,-0.5c0,5.3335 0,10.6665 0,16c-1.4425,0.153 -2.776,-0.0135 -4,-0.5c1,0 2,0 3,0c0,-5 0,-10 0,-15c-1,0 -2,0 -3,0z" fill="#ffffff" fill-rule="evenodd" stroke="none" stroke-width="1"/><path d="M161,433c13.296,0.4955 26.6295,0.662 40,0.5c-6.581,0.3335 -13.248,0.5 -20,0.5c-6.842,-0.0005 -13.5085,-0.3335 -20,-1z" fill="#b6b6b6" fill-rule="evenodd" stroke="none" stroke-width="1"/><path d="M140.5,446.5c0.3945,0.1415 0.728,0.3915 1,0.75c9.919,0.084 19.752,0.334 29.5,0.75c-10.0015,0.0835 -20.0015,0 -30,-0.25c-0.376,-0.3355 -0.543,-0.752 -0.5,-1.25z" fill="#b5b5b5" fill-rule="evenodd" stroke="none" stroke-width="1"/><path d="M173,449.5c0.384,0.3815 0.634,0.8815 0.75,1.5c0.3335,4.5 0.3335,9 0,13.5c-0.1915,0.278 -0.4415,0.4445 -0.75,0.5c0,-5.1665 0,-10.3335 0,-15.5z" fill="#d8d8d8" fill-rule="evenodd" stroke="none" stroke-width="1"/><path d="M257,450.5c0.3945,0.1415 0.728,0.3915 1,0.75c-4.8305,0.25 -9.664,0.333 -14.5,0.25c0,1 0,2 0,3c6.3335,0 12.6665,0 19,0c-6.4115,0.4975 -12.9115,0.6645 -19.5,0.5c0,-1.3335 0,-2.6665 0,-4c4.7575,0.1635 9.424,-0.003 14,-0.5z" fill="#d5d5d5" fill-rule="evenodd" stroke="none" stroke-width="1"/><path d="M89,458c-0.8335,0 -1.6665,0 -2.5,0c0,4.6665 0,9.3335 0,14c-0.1665,0 -0.3335,0 -0.5,0c0,-4.8335 0,-9.6665 0,-14.5c1.8015,-0.2325 2.8015,-0.066 3,0.5z" fill="#ffffff" fill-rule="evenodd" stroke="none" stroke-width="1"/><path d="M89,458c0,4.6665 0,9.3335 0,14c-0.8335,0 -1.6665,0 -2.5,0c0,-4.6665 0,-9.3335 0,-14c0.8335,0 1.6665,0 2.5,0z" fill="#ffffff" fill-rule="evenodd" stroke="none" stroke-width="1"/><path d="M247,462.5c1.995,-0.442 3.4115,0.2245 4.25,2c0.988,3.1665 0.0715,5.5 -2.75,7c-2.8215,-1.5 -3.738,-3.8335 -2.75,-7c0.331,-0.742 0.748,-1.4085 1.25,-2z" fill="#f7f7f7" fill-rule="evenodd" stroke="none" stroke-width="1"/><path d="M256,463c3.048,0.2485 4.298,1.9155 3.75,5c-0.374,2.207 -1.624,2.957 -3.75,2.25c-0.5835,-0.25 -1,-0.6665 -1.25,-1.25c-0.3335,-1.5 -0.3335,-3 0,-4.5c0.349,-0.5955 0.7655,-1.0955 1.25,-1.5z" fill="#f2f2f2" fill-rule="evenodd" stroke="none" stroke-width="1"/><path d="M86,472c0.1665,0 0.3335,0 0.5,0c0.8335,0 1.6665,0 2.5,0c0.438,-0.0655 0.7715,0.101 1,0.5c-0.6665,0.1665 -1.3335,0.3335 -2,0.5c-0.9165,-0.0425 -1.583,-0.376 -2,-1z" fill="#ffffff" fill-rule="evenodd" stroke="none" stroke-width="1"/><path d="M257.5,489.5c0.2715,0.03 0.438,0.1965 0.5,0.5c-4.822,0.499 -9.655,0.666 -14.5,0.5c0,1 0,2 0,3c-0.484,-1.0535 -0.651,-2.2205 -0.5,-3.5c4.924,0.1635 9.757,-0.003 14.5,-0.5z" fill="#bcbcbc" fill-rule="evenodd" stroke="none" stroke-width="1"/><path d="M86,490.5c1,0 2,0 3,0c0,4.3335 0,8.6665 0,13c-1,0 -2,0 -3,0c0,-4.3335 0,-8.6665 0,-13z" fill="#ffffff" fill-rule="evenodd" stroke="none" stroke-width="1"/><path d="M86,490.5c1.224,-0.4865 2.5575,-0.653 4,-0.5c0,4.6665 0,9.3335 0,14c-1.4425,0.155 -2.776,-0.015 -4,-0.5c1,0 2,0 3,0c0,-4.3335 0,-8.6665 0,-13c-1,0 -2,0 -3,0z" fill="#ffffff" fill-rule="evenodd" stroke="none" stroke-width="1"/><path d="M255.5,501c2.7685,0.355 4.2685,1.935 4.5,4.75c-0.327,3.5 -2.1605,4.835 -5.5,4c-0.9165,-0.25 -1.5,-0.835 -1.75,-1.75c-0.9925,-3.23 -0.076,-5.565 2.75,-7z" fill="#f6f6f6" fill-rule="evenodd" stroke="none" stroke-width="1"/><path d="M86,522.5c1,0 2,0 3,0c0,4.335 0,8.665 0,13c-1,0 -2,0 -3,0c0,-4.335 0,-8.665 0,-13z" fill="#ffffff" fill-rule="evenodd" stroke="none" stroke-width="1"/><path d="M86,522.5c1.224,-0.485 2.5575,-0.655 4,-0.5c0,4.665 0,9.335 0,14c-1.4425,0.155 -2.776,-0.015 -4,-0.5c1,0 2,0 3,0c0,-4.335 0,-8.665 0,-13c-1,0 -2,0 -3,0z" fill="#ffffff" fill-rule="evenodd" stroke="none" stroke-width="1"/><path d="M90,555.5c-0.3335,0 -0.6665,0 -1,0c-1,0 -2,0 -3,0c0.417,-0.625 1.0835,-0.955 2,-1c0.9165,0.045 1.583,0.375 2,1z" fill="#ffffff" fill-rule="evenodd" stroke="none" stroke-width="1"/><path d="M86,555.5c1,0 2,0 3,0c0,4 0,8 0,12c-1,0 -2,0 -3,0c0,-4 0,-8 0,-12z" fill="#ffffff" fill-rule="evenodd" stroke="none" stroke-width="1"/><path d="M89,555.5c0.3335,0 0.6665,0 1,0c0,4.165 0,8.335 0,12.5c-1.4425,0.155 -2.776,-0.015 -4,-0.5c1,0 2,0 3,0c0,-4 0,-8 0,-12z" fill="#ffffff" fill-rule="evenodd" stroke="none" stroke-width="1"/><path d="M90,587.5c-0.3335,0 -0.6665,0 -1,0c-1,0 -2,0 -3,0c0.417,-0.625 1.0835,-0.955 2,-1c0.9165,0.045 1.583,0.375 2,1z" fill="#ffffff" fill-rule="evenodd" stroke="none" stroke-width="1"/><path d="M86,587.5c1,0 2,0 3,0c0,4.835 0,9.665 0,14.5c-1,0 -2,0 -3,0c0,-4.835 0,-9.665 0,-14.5z" fill="#ffffff" fill-rule="evenodd" stroke="none" stroke-width="1"/><path d="M89,587.5c0.3335,0 0.6665,0 1,0c0,5 0,10 0,15c-1.4425,0.155 -2.776,-0.015 -4,-0.5c1,0 2,0 3,0c0,-4.835 0,-9.665 0,-14.5z" fill="#ffffff" fill-rule="evenodd" stroke="none" stroke-width="1"/><path d="M328.5,589c0.656,1.12 0.989,2.455 1,4c-0.0835,1.335 -0.1665,2.665 -0.25,4c-3.2665,-1.285 -6.5165,-2.615 -9.75,-4c2.992,-1.44 5.992,-2.77 9,-4z" fill="#f0f0f0" fill-rule="evenodd" stroke="none" stroke-width="1"/><path d="M89,620c0.986,4.47 1.3195,9.135 1,14c-1.4425,0.155 -2.776,-0.015 -4,-0.5c0.1665,0 0.3335,0 0.5,0c0.8335,0 1.6665,0 2.5,0c0,-4.335 0,-8.665 0,-13c0,-0.165 0,-0.335 0,-0.5z" fill="#ffffff" fill-rule="evenodd" stroke="none" stroke-width="1"/><path d="M89,620c0,0.165 0,0.335 0,0.5c-0.8335,0 -1.6665,0 -2.5,0c0,4.335 0,8.665 0,13c-0.1665,0 -0.3335,0 -0.5,0c0,-4.5 0,-9 0,-13.5c1,0 2,0 3,0z" fill="#ffffff" fill-rule="evenodd" stroke="none" stroke-width="1"/><path d="M89,620.5c0,4.335 0,8.665 0,13c-0.8335,0 -1.6665,0 -2.5,0c0,-4.335 0,-8.665 0,-13c0.8335,0 1.6665,0 2.5,0z" fill="#ffffff" fill-rule="evenodd" stroke="none" stroke-width="1"/><path d="M141.09452,558.06022c6.54363,0.0184 13.08658,0.0184 19.62875,0c2.97404,0.03608 5.77816,0.74032 8.41232,2.11268c2.66252,2.03386 4.08378,4.73555 4.26378,8.10502c0.15341,8.16901 0.15341,16.33809 0,24.50712c-0.44058,5.97206 -3.62883,9.36518 -9.56469,10.1793c-8.70678,0.15341 -17.41367,0.15341 -26.12045,0c-4.68001,-0.71124 -7.56095,-3.36171 -8.6428,-7.95137c-0.26904,-1.75608 -0.42269,-3.52303 -0.46094,-5.30091c-0.17332,-7.45347 -0.12207,-14.90548 0.15365,-22.35603c0.76693,-4.85188 3.54548,-7.80959 8.3355,-8.87327c1.34713,-0.10252 2.6788,-0.24336 3.9949,-0.42255zM164.67976,562.74655c-0.60154,0.31498 -1.13933,0.7247 -1.61334,1.2292c-0.98727,1.9018 -0.65431,3.52796 0.99873,4.87838c1.99153,0.81858 3.54078,0.3192 4.64789,-1.49808c0.64088,-3.26475 -0.70356,-4.80126 -4.0333,-4.6095zM164.67976,577.03595c-0.00445,0.41785 0.09794,0.80197 0.3073,1.15238c0.64817,8.75904 -3.2699,14.22644 -11.7542,16.40212c-7.21631,0.63765 -12.32516,-2.32011 -15.32656,-8.87328c-2.0977,-6.70881 -0.42038,-12.25302 5.03202,-16.63257c5.24884,-3.24615 10.54975,-3.32299 15.90275,-0.23048c2.97288,1.98815 4.91909,4.71542 5.83868,8.18184z" fill="#fefefe" fill-rule="evenodd" stroke="none" stroke-width="1"/><path d="M150.46714,571.65828c3.09727,-0.12216 5.69649,0.95339 7.79773,3.22665c1.52551,2.10669 2.14011,4.46267 1.8438,7.06789c-1.09067,4.91909 -4.15084,7.53115 -9.18056,7.83614c-5.53179,-0.46133 -8.52795,-3.4575 -8.98851,-8.98851c0.08651,-4.01532 1.93031,-6.89625 5.53139,-8.64279c0.34986,-0.13374 0.7084,-0.23616 1.07555,-0.3073c0.65393,-0.04318 1.29411,-0.10718 1.92062,-0.19208z" fill="#fefefe" fill-rule="evenodd" stroke="none" stroke-width="1"/><path d="M111.64207,540.5803c32.77863,0 45.4005,-0.30642 78.17913,-0.30642c0,18.43796 0,76.67523 0,95.1132c-32.77863,0 -45.4005,-13.61829 -78.17913,-13.61829c0,-18.43796 0,-50.1878 0,-68.62576zM166.21624,607.38222c-0.62873,0.02397 -1.24334,0.12637 -1.84379,0.30729c-8.73284,0.2171 -17.4652,0.20428 -26.19727,-0.0384c-7.62948,-0.75942 -12.30296,-4.86954 -14.02053,-12.33039c-0.35924,-3.29356 -0.53854,-6.59703 -0.53777,-9.9104c-0.06169,-5.83907 -0.03612,-11.67775 0.07683,-17.51607c0.36445,-4.24834 2.04178,-7.87188 5.03203,-10.87072c2.09386,-1.76362 4.501,-2.86478 7.22153,-3.30346c0.17509,-0.03632 0.32874,-0.11315 0.46095,-0.23046c1.09937,-0.1023 2.20049,-0.17913 3.30346,-0.23046c7.63123,-0.15365 15.26256,-0.15365 22.89381,0c9.33415,0.4735 14.57107,5.35187 15.71069,14.63514c0.15057,8.42499 0.15057,16.85016 0,25.27537c-0.32851,4.30541 -2.03148,7.9546 -5.10886,10.94754c-2.07757,1.62776 -4.4079,2.71606 -6.99107,3.26505z" fill="#fefefe" fill-rule="evenodd" stroke="none" stroke-width="1"/><path d="M-28,224.61123c0,-15.46397 12.53603,-28 28,-28c15.46397,0 28,12.53603 28,28c0,15.46397 -12.53603,28 -28,28c-15.46397,0 -28,-12.53603 -28,-28z" fill="#ffffff" fill-rule="nonzero" stroke="none" stroke-width="0"/><path d="M-26.33693,388.94816c0,-14.54548 11.79144,-26.33693 26.33693,-26.33693c14.54548,0 26.33693,11.79144 26.33693,26.33693c0,14.54548 -11.79144,26.33693 -26.33693,26.33693c-14.54548,0 -26.33693,-11.79144 -26.33693,-26.33693z" fill="none" fill-rule="nonzero" stroke="#ffffff" stroke-width="25"/><path d="M-44,555.61123c0,-24.30053 19.69947,-44 44,-44c24.30053,0 44,19.69947 44,44c0,24.30053 -19.69947,44 -44,44c-24.30053,0 -44,-19.69947 -44,-44z" fill="none" fill-rule="nonzero" stroke="#ffffff" stroke-width="15"/><path d="M-9.5,555.61123c0,-5.24671 4.25329,-9.5 9.5,-9.5c5.24671,0 9.5,4.25329 9.5,9.5c0,5.24671 -4.25329,9.5 -9.5,9.5c-5.24671,0 -9.5,-4.25329 -9.5,-9.5z" fill="#ffffff" fill-rule="nonzero" stroke="#ffffff" stroke-width="15"/><path d="M303.6097,154.06022c6.54363,0.0184 13.08658,0.0184 19.62875,0c2.97404,0.03608 5.77816,0.74032 8.41232,2.11268c2.66252,2.03386 4.08378,4.73555 4.26378,8.10502c0.15341,8.16901 0.15341,16.33809 0,24.50712c-0.44058,5.97206 -3.62883,9.36518 -9.56469,10.1793c-8.70678,0.15341 -17.41367,0.15341 -26.12045,0c-4.68001,-0.71124 -7.56095,-3.36171 -8.6428,-7.95137c-0.26904,-1.75608 -0.42269,-3.52303 -0.46094,-5.30091c-0.17332,-7.45347 -0.12207,-14.90548 0.15365,-22.35603c0.76693,-4.85188 3.54548,-7.80959 8.3355,-8.87327c1.34713,-0.10252 2.6788,-0.24336 3.9949,-0.42255zM327.19494,158.74655c-0.60154,0.31498 -1.13933,0.7247 -1.61334,1.2292c-0.98727,1.9018 -0.65431,3.52796 0.99873,4.87838c1.99153,0.81858 3.54078,0.3192 4.64789,-1.49808c0.64088,-3.26475 -0.70356,-4.80126 -4.0333,-4.6095zM327.19494,173.03595c-0.00445,0.41785 0.09794,0.80197 0.3073,1.15238c0.64817,8.75904 -3.2699,14.22644 -11.7542,16.40212c-7.21631,0.63765 -12.32516,-2.32011 -15.32656,-8.87328c-2.0977,-6.70881 -0.42038,-12.25302 5.03202,-16.63257c5.24884,-3.24615 10.54975,-3.32299 15.90275,-0.23048c2.97288,1.98815 4.91909,4.71542 5.83868,8.18184z" fill="#fefefe" fill-rule="evenodd" stroke="none" stroke-width="1"/><path d="M303.6097,154.06022c6.54363,0.0184 13.08658,0.0184 19.62875,0c2.97404,0.03608 5.77816,0.74032 8.41232,2.11268c2.66252,2.03386 4.08378,4.73555 4.26378,8.10502c0.15341,8.16901 0.15341,16.33809 0,24.50712c-0.44058,5.97206 -3.62883,9.36518 -9.56469,10.1793c-8.70678,0.15341 -17.41367,0.15341 -26.12045,0c-4.68001,-0.71124 -7.56095,-3.36171 -8.6428,-7.95137c-0.26904,-1.75608 -0.42269,-3.52303 -0.46094,-5.30091c-0.17332,-7.45347 -0.12207,-14.90548 0.15365,-22.35603c0.76693,-4.85188 3.54548,-7.80959 8.3355,-8.87327c1.34713,-0.10252 2.6788,-0.24336 3.9949,-0.42255zM327.19494,158.74655c-0.60154,0.31498 -1.13933,0.7247 -1.61334,1.2292c-0.98727,1.9018 -0.65431,3.52796 0.99873,4.87838c1.99153,0.81858 3.54078,0.3192 4.64789,-1.49808c0.64088,-3.26475 -0.70356,-4.80126 -4.0333,-4.6095zM327.19494,173.03595c-0.00445,0.41785 0.09794,0.80197 0.3073,1.15238c0.64817,8.75904 -3.2699,14.22644 -11.7542,16.40212c-7.21631,0.63765 -12.32516,-2.32011 -15.32656,-8.87328c-2.0977,-6.70881 -0.42038,-12.25302 5.03202,-16.63257c5.24884,-3.24615 10.54975,-3.32299 15.90275,-0.23048c2.97288,1.98815 4.91909,4.71542 5.83868,8.18184z" fill="#fefefe" fill-rule="evenodd" stroke="none" stroke-width="1"/><path d="M312.98232,167.65828c3.09727,-0.12216 5.69649,0.95339 7.79773,3.22665c1.52551,2.10669 2.14011,4.46267 1.8438,7.06789c-1.09067,4.91909 -4.15084,7.53115 -9.18056,7.83614c-5.53179,-0.46133 -8.52795,-3.4575 -8.98851,-8.98851c0.08651,-4.01532 1.93031,-6.89625 5.53139,-8.64279c0.34986,-0.13374 0.7084,-0.23616 1.07555,-0.3073c0.65393,-0.04318 1.29411,-0.10718 1.92062,-0.19208z" fill="#fefefe" fill-rule="evenodd" stroke="none" stroke-width="1"/><path d="M196,608.5l-8.2001,-58.09472l66.67998,-1.71882l0.12667,60.37108zM229,554c0.795,0.065 1.4615,0.395 2,1c0.4465,1.29 0.613,2.625 0.5,4c1.925,0.1 2.425,1.015 1.5,2.75c-0.474,0.24 -0.974,0.325 -1.5,0.25c0.918,2.255 1.918,4.505 3,6.75c-1.1045,0.845 -2.021,0.76 -2.75,-0.25c-0.13,3.025 -0.4635,6.025 -1,9c-1.227,0.755 -2.0605,0.425 -2.5,-1c-0.2795,-1.845 -0.613,-3.675 -1,-5.5c-1.0595,1.49 -1.643,1.32 -1.75,-0.5c0.7725,-2.65 1.439,-5.315 2,-8c-0.661,0.085 -1.2445,-0.08 -1.75,-0.5c-0.2475,-0.985 -0.331,-1.985 -0.25,-3c0.8335,0 1.6665,0 2.5,0c-0.22,-1.84 0.1135,-3.505 1,-5zM240,554c2.334,-0.33 3.334,0.67 3,3c1.6665,0.165 3.3335,0.335 5,0.5c0.762,1.89 0.0955,3.14 -2,3.75c2.935,2.935 2.6015,5.35 -1,7.25c-0.641,0.84 -1.141,1.755 -1.5,2.75c1.521,1.42 3.021,2.84 4.5,4.25c-0.5395,1.02 -1.373,1.69 -2.5,2c-1.4195,-0.96 -2.9195,-1.795 -4.5,-2.5c-1.527,1.095 -3.194,1.93 -5,2.5c-1.2485,-0.22 -1.8315,-0.885 -1.75,-2c1.7325,-1.23 3.3155,-2.65 4.75,-4.25c-0.8895,-2.055 -2.306,-3.64 -4.25,-4.75c-0.219,-1.97 0.3645,-3.72 1.75,-5.25c-1.5105,-0.77 -2.177,-2.02 -2,-3.75c1.6665,-0.165 3.3335,-0.335 5,-0.5c0.0085,-1.03 0.175,-2.03 0.5,-3zM203.5,554.5c2.1315,-0.065 3.1315,0.935 3,3c1.052,0.15 2.052,-0.015 3,-0.5c-0.863,-1.5 -0.446,-2.335 1.25,-2.5c1.609,0.235 2.1925,1.07 1.75,2.5c2.1585,0.825 3.825,0.24 5,-1.75c0.9865,-0.25 1.9865,-0.33 3,-0.25c0.107,0.82 -0.06,1.57 -0.5,2.25c0.7905,0.355 1.5405,0.77 2.25,1.25c0.3335,1.665 0.3335,3.335 0,5c-2.264,0.825 -3.3475,-0.005 -3.25,-2.5c-5.1665,0 -10.3335,0 -15.5,0c0.5,2.5 -0.5,3.5 -3,3c-0.1615,-1.865 0.0055,-3.695 0.5,-5.5c0.8335,-0.415 1.6665,-0.835 2.5,-1.25c-1.1815,-1.04 -1.1815,-1.96 0,-2.75zM205,563c4.17,-0.085 8.3365,0 12.5,0.25c0.5085,0.525 0.592,1.11 0.25,1.75c-0.9365,1.105 -2.02,2.02 -3.25,2.75c2.618,0.67 5.285,0.92 8,0.75c0,0.835 0,1.665 0,2.5c-3.1805,0.18 -6.347,0.515 -9.5,1c0.919,4.83 -1.081,6.745 -6,5.75c-1.2735,-0.66 -1.6065,-1.575 -1,-2.75c1.1215,-0.485 2.288,-0.655 3.5,-0.5c0,-1 0,-2 0,-3c-2.5055,0.085 -5.0055,0 -7.5,-0.25c-1.815,-0.135 -2.315,-0.97 -1.5,-2.5c3.0195,-0.17 6.0195,-0.5 9,-1c0.5255,-0.69 1.192,-1.19 2,-1.5c-2.042,-0.115 -4.042,-0.45 -6,-1c-0.44,-0.68 -0.607,-1.43 -0.5,-2.25zM237.5,581c2.6575,0 3.6575,1.33 3,4c1.052,0.15 2.052,-0.015 3,-0.5c-1.552,-2.615 -0.8855,-3.45 2,-2.5c-0.218,1.43 0.1985,2.6 1.25,3.5c0.3335,0.835 0.3335,1.665 0,2.5c-1.81,0.84 -3.727,1.175 -5.75,1c-0.1355,4.275 0.781,8.275 2.75,12c0.5065,-1.175 1.3395,-2.005 2.5,-2.5c0.9235,0.335 1.507,1 1.75,2c-0.291,3.88 -2.291,5.295 -6,4.25c-1.1045,-0.935 -2.021,-2.02 -2.75,-3.25c-1.2365,-4.25 -1.9865,-8.585 -2.25,-13c-3.837,0.085 -7.6705,0 -11.5,-0.25c-1.3335,-1 -1.3335,-2 0,-3c3.663,-0.25 7.3295,-0.335 11,-0.25c-0.1085,-1.46 0.2245,-2.795 1,-4zM205.5,582c2.242,-0.105 3.1585,0.895 2.75,3c-1.355,2.125 -2.7715,4.21 -4.25,6.25c-3.031,1.47 -4.114,0.555 -3.25,-2.75c1.588,-2.18 3.1715,-4.35 4.75,-6.5zM213,582.5c1.212,-0.155 2.3785,0.015 3.5,0.5c1.1355,1.885 2.552,3.555 4.25,5c0.7695,2.13 0.103,3.465 -2,4c-3.108,-2.51 -5.025,-5.675 -5.75,-9.5zM207.5,591c1.715,-0.355 2.8815,0.23 3.5,1.75c-0.77,2.455 -1.6035,4.87 -2.5,7.25c1.675,0.085 3.3415,0 5,-0.25c0.464,-0.195 0.7975,-0.525 1,-1c-1.148,-2.685 -0.315,-3.685 2.5,-3c2.5525,2.185 3.636,4.935 3.25,8.25c-0.2805,0.26 -0.614,0.43 -1,0.5c-1.844,-0.72 -3.761,-1.055 -5.75,-1c-3.3615,0.17 -6.695,0.5 -10,1c-2.185,-0.26 -3.1015,-1.425 -2.75,-3.5c1.101,-0.45 2.184,-0.95 3.25,-1.5c1.311,-2.785 2.478,-5.62 3.5,-8.5zM226.5,591c3.0615,-0.16 6.0615,0.17 9,1c0.6665,0.665 0.6665,1.335 0,2c-0.948,0.485 -1.948,0.65 -3,0.5c0,1.665 0,3.335 0,5c1.3435,-0.08 2.677,0 4,0.25c0.6665,0.665 0.6665,1.335 0,2c-3.5985,1.025 -7.265,1.61 -11,1.75c-0.3335,-2.665 0.8335,-3.835 3.5,-3.5c0,-1.835 0,-3.665 0,-5.5c-2.8735,0.315 -3.707,-0.85 -2.5,-3.5z" fill="#ffffff" fill-rule="evenodd" stroke="none" stroke-width="1"/><path d="M272.08471,310.87834l-1.14308,-76.27541l80.84794,-2.91648l0.64123,78.81354zM318.37959,243.61104c0.88642,0.07247 1.62957,0.44042 2.22999,1.115c0.49785,1.43835 0.68349,2.92687 0.5575,4.45999c2.14637,0.1115 2.70387,1.13172 1.67249,3.06624c-0.52851,0.2676 -1.08601,0.36237 -1.67249,0.27875c1.02357,2.51432 2.13856,5.02306 3.34499,7.52623c-1.23151,0.94217 -2.25341,0.8474 -3.06624,-0.27875c-0.14495,3.37286 -0.5168,6.71785 -1.115,10.03497c-1.3681,0.84182 -2.29745,0.47387 -2.78749,-1.115c-0.31164,-2.05717 -0.68349,-4.09761 -1.115,-6.13248c-1.18134,1.66134 -1.83194,1.4718 -1.95124,-0.5575c0.86133,-2.95474 1.60448,-5.92621 2.22999,-8.91997c-0.73701,0.09477 -1.38761,-0.0892 -1.95124,-0.5575c-0.27596,-1.09827 -0.36906,-2.21327 -0.27875,-3.34499c0.92935,0 1.85814,0 2.78749,0c-0.2453,-2.05159 0.12655,-3.90806 1.115,-5.57498zM330.64455,243.61104c2.6024,-0.36795 3.7174,0.74705 3.34499,3.34499c1.85814,0.18397 3.71684,0.37352 5.57498,0.5575c0.84963,2.10734 0.10648,3.50109 -2.22999,4.18124c3.27251,3.27251 2.90066,5.96523 -1.115,8.08372c-0.71471,0.9366 -1.27221,1.95682 -1.67249,3.06624c1.69591,1.58329 3.3684,3.16659 5.01748,4.73873c-0.60154,1.1373 -1.53089,1.88434 -2.78749,2.22999c-1.58274,-1.0704 -3.25523,-2.00142 -5.01748,-2.78749c-1.7026,1.22092 -3.5613,2.15194 -5.57498,2.78749c-1.39207,-0.2453 -2.04212,-0.98677 -1.95124,-2.22999c1.93173,-1.37145 3.69677,-2.95474 5.29623,-4.73873c-0.99179,-2.29132 -2.57118,-4.05859 -4.73873,-5.29623c-0.24418,-2.19654 0.40642,-4.14779 1.95124,-5.85373c-1.6842,-0.85855 -2.42735,-2.25229 -2.22999,-4.18124c1.85814,-0.18397 3.71684,-0.37352 5.57498,-0.5575c0.00948,-1.14845 0.19512,-2.26344 0.5575,-3.34499zM289.94718,244.16854c2.37661,-0.07247 3.49161,1.04252 3.34499,3.34499c1.17298,0.16725 2.28797,-0.01672 3.34499,-0.5575c-0.96224,-1.67249 -0.49729,-2.60352 1.39375,-2.78749c1.79403,0.26202 2.44463,1.19305 1.95124,2.78749c2.40672,0.91987 4.26486,0.2676 5.57498,-1.95124c1.09994,-0.27875 2.21494,-0.36795 3.34499,-0.27875c0.1193,0.9143 -0.0669,1.75054 -0.5575,2.50874c0.8814,0.39582 1.71765,0.85855 2.50874,1.39375c0.37185,1.85647 0.37185,3.71851 0,5.57498c-2.52435,0.91987 -3.73245,-0.00557 -3.62374,-2.78749c-5.76063,0 -11.52182,0 -17.28245,0c0.5575,2.78749 -0.5575,3.90249 -3.34499,3.34499c-0.18007,-2.07947 0.00613,-4.11991 0.5575,-6.13248c0.92935,-0.46272 1.85814,-0.93102 2.78749,-1.39375c-1.31737,-1.1596 -1.31737,-2.18539 0,-3.06624zM291.61968,253.64601c4.64954,-0.09477 9.29517,0 13.93746,0.27875c0.56698,0.58537 0.66008,1.23765 0.27875,1.95124c-1.04419,1.23207 -2.25229,2.25229 -3.62374,3.06624c2.91906,0.74705 5.89276,1.0258 8.91997,0.83625c0,0.93102 0,1.85647 0,2.78749c-3.54625,0.2007 -7.07688,0.57422 -10.59247,1.115c1.02468,5.38543 -1.20531,7.52065 -6.68998,6.41123c-1.41995,-0.7359 -1.79124,-1.75612 -1.115,-3.06624c1.25047,-0.54077 2.55111,-0.73032 3.90249,-0.5575c0,-1.115 0,-2.22999 0,-3.34499c-2.79362,0.09477 -5.58111,0 -8.36247,-0.27875c-2.02372,-0.15052 -2.58122,-1.08155 -1.67249,-2.78749c3.36673,-0.18955 6.71172,-0.5575 10.03497,-1.115c0.58593,-0.76935 1.32908,-1.32685 2.22999,-1.67249c-2.27682,-0.12822 -4.50682,-0.50175 -6.68998,-1.115c-0.4906,-0.7582 -0.6768,-1.59444 -0.5575,-2.50874zM327.85706,273.71594c2.9631,0 4.0781,1.48295 3.34499,4.45999c1.17298,0.16725 2.28797,-0.01672 3.34499,-0.5575c-1.73047,-2.91572 -0.98733,-3.84674 2.22999,-2.78749c-0.24307,1.59444 0.22133,2.89899 1.39375,3.90249c0.37185,0.93102 0.37185,1.85647 0,2.78749c-2.01814,0.9366 -4.15559,1.31012 -6.41123,1.115c-0.15108,4.76661 0.87081,9.2266 3.06624,13.37996c0.56475,-1.31012 1.49354,-2.23557 2.78749,-2.78749c1.0297,0.37352 1.6803,1.115 1.95124,2.22999c-0.32446,4.32619 -2.55446,5.90391 -6.68998,4.73873c-1.23151,-1.04252 -2.25341,-2.25229 -3.06624,-3.62374c-1.37869,-4.73873 -2.21494,-9.57224 -2.50874,-14.49495c-4.27824,0.09477 -8.55258,0 -12.82246,-0.27875c-1.48685,-1.115 -1.48685,-2.22999 0,-3.34499c4.08423,-0.27875 8.17237,-0.37352 12.26496,-0.27875c-0.12098,-1.62789 0.25032,-3.11642 1.115,-4.45999zM292.17717,274.83094c2.49982,-0.11707 3.52172,0.99792 3.06624,3.34499c-1.51082,2.36937 -3.09021,4.69414 -4.73873,6.96873c-3.37955,1.63904 -4.5871,0.61882 -3.62374,-3.06624c1.77061,-2.43069 3.53621,-4.85023 5.29623,-7.24748zM300.53965,275.38844c1.35138,-0.17282 2.65202,0.01672 3.90249,0.5575c1.26608,2.10177 2.84547,3.96381 4.73873,5.57498c0.85799,2.37494 0.11484,3.86346 -2.22999,4.45999c-3.46541,-2.79864 -5.60286,-6.3276 -6.41123,-10.59247zM294.40717,284.86591c1.91222,-0.39582 3.21286,0.25645 3.90249,1.95124c-0.85855,2.73732 -1.7879,5.43003 -2.78749,8.08372c1.86762,0.09477 3.72576,0 5.57498,-0.27875c0.51736,-0.21742 0.88921,-0.58537 1.115,-1.115c-1.28002,-2.99377 -0.35122,-4.10876 2.78749,-3.34499c2.84603,2.43627 4.05413,5.50251 3.62374,9.19872c-0.31276,0.2899 -0.68461,0.47945 -1.115,0.5575c-2.05605,-0.8028 -4.1935,-1.17632 -6.41123,-1.115c-3.74806,0.18955 -7.4649,0.5575 -11.14996,1.115c-2.43627,-0.2899 -3.45816,-1.58887 -3.06624,-3.90249c1.22761,-0.50175 2.43515,-1.05925 3.62374,-1.67249c1.46176,-3.10527 2.76296,-6.26628 3.90249,-9.47747zM315.5921,284.86591c3.41356,-0.1784 6.75855,0.18955 10.03497,1.115c0.74315,0.74147 0.74315,1.48852 0,2.22999c-1.05702,0.54077 -2.17201,0.72475 -3.34499,0.5575c0,1.85647 0,3.71851 0,5.57498c1.498,-0.0892 2.98485,0 4.45999,0.27875c0.74315,0.74147 0.74315,1.48852 0,2.22999c-4.01231,1.14287 -8.10045,1.79514 -12.26496,1.95124c-0.37185,-2.97147 0.92935,-4.27601 3.90249,-3.90249c0,-2.04602 0,-4.08646 0,-6.13248c-3.20394,0.35122 -4.13329,-0.94775 -2.78749,-3.90249z" fill="#ffffff" fill-rule="evenodd" stroke="none" stroke-width="1"/><path d="M274.34524,137.03878c32.77863,0 45.4005,-0.30642 78.17913,-0.30642c0,18.43796 0,76.67523 0,95.1132c-32.77863,0 -45.4005,-13.61829 -78.17913,-13.61829c0,-18.43796 0,-50.1878 0,-68.62576zM328.91941,203.8407c-0.62873,0.02397 -1.24334,0.12637 -1.84379,0.30729c-8.73284,0.2171 -17.4652,0.20428 -26.19727,-0.0384c-7.62948,-0.75942 -12.30296,-4.86954 -14.02053,-12.33039c-0.35924,-3.29356 -0.53854,-6.59703 -0.53777,-9.9104c-0.06169,-5.83907 -0.03612,-11.67775 0.07683,-17.51607c0.36445,-4.24834 2.04178,-7.87188 5.03203,-10.87072c2.09386,-1.76362 4.501,-2.86478 7.22153,-3.30346c0.17509,-0.03632 0.32874,-0.11315 0.46095,-0.23046c1.09937,-0.1023 2.20049,-0.17913 3.30346,-0.23046c7.63123,-0.15365 15.26256,-0.15365 22.89381,0c9.33415,0.4735 14.57107,5.35187 15.71069,14.63514c0.15057,8.42499 0.15057,16.85016 0,25.27537c-0.32851,4.30541 -2.03148,7.9546 -5.10886,10.94754c-2.07757,1.62776 -4.4079,2.71606 -6.99107,3.26505z" fill="#fefefe" fill-rule="evenodd" stroke="none" stroke-width="1"/><path d="M340.67333,463.73664c0.70319,0 1.40638,0 2.10956,0c-0.01899,1.19472 -0.48801,2.13277 -1.40638,2.81275c-5.33157,2.33107 -10.72292,4.55807 -16.17333,6.68029c-0.905,0.9915 -1.72562,2.04628 -2.46116,3.16435c-0.94298,7.94884 -0.94298,15.91807 0,23.9084c1.18909,5.01795 2.24387,10.057 3.16435,15.11855c-0.75311,2.98574 -2.62852,4.50955 -5.62551,4.57072c-0.01899,-1.9197 0.45004,-3.67767 1.40638,-5.27391c-4.34219,-22.08363 -6.21689,-21.73203 -5.62551,1.05478c-2.33248,0.507 -4.67691,0.62443 -7.03188,0.35159c1.15323,-0.98095 2.20801,-2.03573 3.16435,-3.16435c0.56536,-8.81306 0.44863,-17.60291 -0.35159,-26.36956c0.67084,-3.87949 1.37403,-7.74703 2.10956,-11.60261c-2.58914,0.11603 -5.16703,-0.0007 -7.73507,-0.35159c0.49997,-0.8825 1.08572,-1.70242 1.75797,-2.46116c0.36495,0.71444 0.95141,1.18276 1.75797,1.40638c2.61164,-0.4859 4.95607,-1.54069 7.03188,-3.16435c0.8382,-1.3677 0.8382,-2.77408 0,-4.21913c0.52388,-2.88167 2.16512,-4.05388 4.92232,-3.51594c1.43169,1.75797 1.66656,3.63337 0.70319,5.62551c5.80341,0.2419 11.42892,-0.69545 16.87652,-2.81275c0.61951,-0.49786 1.08783,-1.08432 1.40638,-1.75797z" fill="#ffffff" fill-rule="evenodd" stroke="none" stroke-width="1"/></g></g></svg>