<svg version="1.1" xmlns="http://www.w3.org/2000/svg" xmlns:xlink="http://www.w3.org/1999/xlink" width="582.01902" height="117.82573" viewBox="0,0,582.01902,117.82573"><g transform="translate(-92.98098,-126.67084)"><g fill-rule="evenodd" stroke="none" stroke-miterlimit="10"><g fill="#ffffff"><path d="M92.98098,126.67084c182.33953,0 399.67949,0 582.01902,0c0,33.94193 0,83.88366 0,117.82573c-182.33953,0 -399.67949,0 -582.01902,0c0,-33.94208 0,-83.88381 0,-117.82573zM389.2087,163.43142c-0.14789,5.77624 0.00044,11.54303 0.44546,17.30049c0.27039,-0.0611 0.41873,-0.22585 0.44546,-0.4943c5.61451,-4.89846 11.55377,-5.47516 17.81821,-1.73005c2.94446,2.82581 4.80067,6.36831 5.56819,10.62744c0.59335,7.39818 0.81608,14.81268 0.66818,22.24349c-2.22728,0 -4.45456,0 -6.68183,0c0.18398,-7.27461 -0.03875,-14.5245 -0.66818,-21.74919c-1.83572,-5.34526 -5.32497,-7.40486 -10.4682,-6.17875c-3.16184,1.03768 -5.31517,3.26203 -6.45911,6.67305c-0.637,7.05563 -0.85973,14.14093 -0.66818,21.25489c-2.22728,0 -4.45456,0 -6.68183,0c0,-15.98219 0,-31.96473 0,-47.94707c2.22728,0 4.45456,0 6.68183,0zM532.64529,163.43142c-0.14789,5.77624 0.00044,11.54303 0.44546,17.30049c0.27039,-0.0611 0.41873,-0.22585 0.44546,-0.4943c6.0671,-5.25223 12.30348,-5.58173 18.70912,-0.9886c0.29845,0.65905 0.74391,1.15335 1.33637,1.4829c1.70163,2.29963 2.81527,4.93588 3.34092,7.90879c0.61473,7.55982 0.83745,15.13892 0.66818,22.73779c-2.22728,0 -4.45456,0 -6.68183,0c0.19155,-7.44316 -0.03118,-14.85766 -0.66818,-22.24349c-1.82637,-5.07478 -5.16728,-6.96963 -10.02274,-5.68445c-4.40823,1.59916 -6.85823,4.97686 -7.35001,10.13314c-0.22273,5.92912 -0.29712,11.86072 -0.22273,17.79479c-2.07894,0 -4.15743,0 -6.23638,0c-0.34657,-15.37816 -0.34657,-31.3603 0,-47.94707c2.07894,0 4.15743,0 6.23638,0zM161.13563,186.66351c-1.18803,0.4943 -1.18803,0.9886 0,1.4829c5.27374,4.70672 6.46133,10.47322 3.56364,17.30049c-0.62631,0.2338 -0.92343,0.7281 -0.89091,1.4829c-7.60347,6.62905 -15.77045,7.5351 -24.50004,2.71865c-5.38564,-4.42349 -6.79627,-10.10793 -4.23183,-17.05334c1.26211,-2.0596 2.82107,-3.78965 4.67728,-5.19015c-0.53677,-0.67996 -1.13056,-1.25666 -1.78182,-1.73005c0.03251,-0.75475 -0.26447,-1.24905 -0.89091,-1.4829c-2.65808,-7.69699 -0.72779,-13.54623 5.79092,-17.54764c5.06304,-2.17299 10.11139,-2.00819 15.14548,0.4943c6.81101,5.40967 7.85025,11.91796 3.11819,19.52484zM284.08127,205.4469c-0.62631,0.2338 -0.92343,0.7281 -0.89091,1.4829c-6.52057,6.06654 -13.79664,7.38434 -21.8273,3.9544c-0.35191,-0.44536 -0.79737,-0.77506 -1.33637,-0.9886c-2.50836,-1.88328 -4.29018,-4.43733 -5.34547,-7.66164c1.93016,-0.90605 3.86076,-1.8126 5.79092,-2.71865c3.02108,5.25539 7.3273,7.15004 12.9182,5.68445c5.01004,-2.2891 7.53398,-6.49065 7.57273,-12.60464c0.5684,-0.43815 0.5684,-0.93245 0,-1.4829c-0.27039,0.0611 -0.41873,0.22585 -0.44546,0.4943c-1.30964,2.04887 -3.09146,3.36668 -5.34547,3.9544c-7.53754,2.18184 -13.84831,0.03954 -18.93185,-6.4259c-4.41446,-10.68607 -1.81612,-18.34771 7.79546,-22.98493c12.22463,-3.5592 19.72342,1.46614 22.49549,15.07614c1.47223,8.39242 0.65571,16.46611 -2.45001,24.22068zM124.16285,165.40862c0,15.32329 0,30.64658 0,45.96987c-2.37575,0 -4.75154,0 -7.12728,0c0.07421,-11.69958 0,-23.39802 -0.22273,-35.09528c-0.31948,0.269 -0.54221,0.59855 -0.66818,0.9886c-0.68017,-0.03608 -1.12562,0.29347 -1.33637,0.9886c-0.68017,-0.03608 -1.12562,0.29347 -1.33637,0.9886c-0.78311,0.1863 -1.52551,0.5158 -2.22728,0.9886c-0.80177,-2.02747 -1.54417,-4.08707 -2.22728,-6.17875c3.58137,-2.24279 6.84803,-4.96143 9.80001,-8.15594c1.73719,-0.45965 3.51901,-0.62445 5.34547,-0.4943zM239.09029,165.40862c1.63349,0 3.26652,0 4.90001,0c0,15.32329 0,30.64658 0,45.96987c-2.22728,0 -4.45456,0 -6.68183,0c0.07439,-11.69958 0,-23.39802 -0.22273,-35.09528c-0.6762,0.32792 -1.19604,0.82222 -1.55909,1.4829c-0.68021,-0.03608 -1.12567,0.29347 -1.33637,0.9886c-0.87888,0.48773 -1.76979,0.98203 -2.67273,1.4829c-1.05974,-2.04111 -1.95065,-4.18306 -2.67273,-6.4259c3.99618,-1.96593 7.41149,-4.76698 10.24547,-8.40309zM328.18134,165.40862c2.61482,11.44195 5.43589,22.81084 8.46365,34.10668c0.29712,1.9772 0.59379,1.9772 0.89091,0c2.81082,-11.15679 5.48355,-22.36093 8.01819,-33.61238c2.22728,-0.65905 4.45456,-0.65905 6.68183,0c2.40457,11.33498 5.0773,22.53913 8.01819,33.61238c0.10557,1.8729 0.40269,1.8729 0.89091,0c2.90883,-11.33315 5.73034,-22.70205 8.46365,-34.10668c2.46159,-0.15887 4.83764,0.00588 7.12728,0.4943c-1.66288,5.70165 -3.14759,11.46849 -4.45456,17.30049c-0.63433,0.99577 -0.931,2.14912 -0.89091,3.4601c-0.71317,1.50771 -1.15863,3.15536 -1.33637,4.943c-0.63433,0.99601 -0.931,2.14921 -0.89091,3.4601c-0.71317,1.50761 -1.15863,3.15561 -1.33637,4.943c-0.63433,0.99601 -0.931,2.14921 -0.89091,3.4601c-0.90739,2.52933 -1.64997,5.16543 -2.22728,7.90879c-2.54176,0.16262 -5.06572,-0.00247 -7.57273,-0.4943c-0.52029,-2.06172 -1.11453,-4.03892 -1.78182,-5.9316c0.04009,-1.31088 -0.25659,-2.46408 -0.89091,-3.4601c-1.57691,-7.65868 -3.43313,-15.23817 -5.56819,-22.73779c-1.98628,6.84027 -3.69416,13.76031 -5.12274,20.76059c-0.63433,0.99601 -0.931,2.14921 -0.89091,3.4601c-0.87087,2.53427 -1.61344,5.17037 -2.22728,7.90879c-2.78766,0.76567 -5.46039,0.60107 -8.01819,-0.4943c0.04009,-1.31088 -0.25659,-2.46408 -0.89091,-3.4601c-1.97248,-8.53754 -4.19975,-16.94069 -6.68183,-25.20928c0.04009,-1.31098 -0.25659,-2.46433 -0.89091,-3.4601c-0.17774,-1.78763 -0.6232,-3.43528 -1.33637,-4.943c0.04009,-1.31098 -0.25659,-2.46433 -0.89091,-3.4601c-0.09845,-1.26902 -0.39557,-2.42236 -0.89091,-3.4601c2.18095,-0.96196 4.55656,-1.29151 7.12728,-0.9886zM517.49981,177.27182c0,2.30675 0,4.61345 0,6.9202c-2.82107,0 -5.64258,0 -8.46365,0c-0.14522,4.37426 0.00312,8.65815 0.44546,12.85179c-0.32117,2.69443 0.27262,5.08387 1.78182,7.16735c2.61125,0.71921 5.20959,0.96636 7.79546,0.74145c0.4753,1.9945 0.99515,3.9717 1.55909,5.9316c-5.06304,2.69393 -9.96305,2.44678 -14.70002,-0.74145c-2.24287,-3.27671 -3.43045,-6.98396 -3.56364,-11.12174c0,-4.943 0,-9.88599 0,-14.82899c-2.22728,0 -4.45456,0 -6.68183,0c0,-2.30675 0,-4.61345 0,-6.9202c2.22728,0 4.45456,0 6.68183,0c0,-3.13055 0,-6.26115 0,-9.39169c2.22728,0 4.45456,0 6.68183,0c0,3.13055 0,6.26115 0,9.39169c2.82107,0 5.64258,0 8.46365,0zM429.29967,202.4811c0.2107,0.69499 0.65615,1.02468 1.33637,0.9886c1.5925,1.64305 3.52266,2.46656 5.79092,2.4715c3.86388,0.08799 6.90812,-1.55952 9.13183,-4.943c1.91056,1.00887 3.91511,1.66777 6.01365,1.9772c-0.12295,1.59115 -0.71674,2.90895 -1.78182,3.9544c-0.89091,0.6589 -1.63349,1.4829 -2.22728,2.4715c-8.16163,5.23711 -15.88315,4.5782 -23.16367,-1.9772c-0.10602,-0.94115 -0.55147,-1.60054 -1.33637,-1.9772c-3.62021,-7.44514 -3.54583,-14.85979 0.22273,-22.24349c6.67381,-7.56817 14.32094,-8.96872 22.94094,-4.20155c5.14457,5.00572 7.37184,11.34922 6.68183,19.03054c-8.46365,0 -16.9273,0 -25.39095,0c0.23297,1.66974 0.82676,3.15264 1.78182,4.4487zM489.43613,190.12361c0,7.0848 0,14.17009 0,21.25489c-2.07894,0 -4.15743,0 -6.23638,0c0.07306,-1.32818 -0.00133,-2.64648 -0.22273,-3.9544c-0.31939,0.2689 -0.54212,0.5986 -0.66818,0.9886c-2.98767,3.02956 -6.55131,4.51246 -10.69092,4.4487c-3.84161,-0.18339 -7.18252,-1.66628 -10.02274,-4.4487c-2.88655,-6.20692 -1.62413,-11.06786 3.78637,-14.58184c5.4203,-2.43062 11.06288,-3.58397 16.9273,-3.4601c0.37374,-3.39969 -0.96263,-5.70644 -4.0091,-6.9202c-4.16634,-1.06344 -7.72998,0.00756 -10.69092,3.21295c-0.62631,0.23385 -0.92343,0.72815 -0.89091,1.4829c-2.16402,-0.54155 -4.09418,-1.61255 -5.79092,-3.21295c6.0132,-8.71218 13.58594,-10.85413 22.71821,-6.4259c3.53736,2.8616 5.46751,6.7336 5.79092,11.61604zM576.74536,176.28322c13.79575,-0.83977 20.32612,6.40998 19.60003,21.74919c-8.46365,0 -16.9273,0 -25.39095,0c0.97109,4.12345 3.34537,6.67749 7.12728,7.66164c4.53028,0.71476 8.24538,-0.85069 11.13638,-4.69585c1.82637,1.04248 3.75964,1.70138 5.79092,1.9772c-0.24946,1.84374 -0.98891,3.40918 -2.22728,4.69585c-8.33447,6.79909 -16.57539,6.71654 -24.72276,-0.24715c-4.84655,-7.3359 -5.43901,-15.0799 -1.78182,-23.23208c2.60146,-4.13215 6.09383,-6.7684 10.4682,-7.90879zM623.96361,182.70911c-0.32073,0.51956 -0.76619,0.84911 -1.33637,0.9886c-5.98246,-1.74829 -9.62183,0.72321 -10.91365,7.4145c-0.49445,6.74472 -0.71718,13.49982 -0.66818,20.26629c-2.08028,0 -4.1561,0 -6.23638,0c0,-11.36889 0,-22.73779 0,-34.10668c2.08028,0 4.1561,0 6.23638,0c-0.07127,1.00209 0,1.99069 0.22273,2.9658c0.32073,-0.269 0.54346,-0.59855 0.66818,-0.9886c1.18937,-1.15528 2.52573,-2.06148 4.0091,-2.71865c2.52573,-0.32955 5.04701,-0.32955 7.57273,0c0.62809,0.1818 1.07355,0.5937 1.33637,1.23575c-0.57909,1.58566 -0.87755,3.23331 -0.89091,4.943zM201.2266,181.72051c0.2107,0.69513 0.65615,1.02468 1.33637,0.9886c1.62591,2.90727 1.7003,5.87307 0.22273,8.89739c-2.46025,2.69294 -5.20737,3.1047 -8.24092,1.23575c-2.48252,-2.87435 -2.85358,-6.0873 -1.11364,-9.63884c2.33864,-1.99969 4.93698,-2.49399 7.79546,-1.4829z"/><path d="M389.2087,163.43142c0.29712,5.60205 0.59379,11.20414 0.89091,16.80619c-0.02673,0.26845 -0.17506,0.4332 -0.44546,0.4943c-0.44501,-5.75745 -0.59335,-11.52425 -0.44546,-17.30049z"/><path d="M532.64529,163.43142c0.29712,5.60205 0.59379,11.20414 0.89091,16.80619c-0.02673,0.26845 -0.17506,0.4332 -0.44546,0.4943c-0.44501,-5.75745 -0.59335,-11.52425 -0.44546,-17.30049z"/><path d="M124.16285,165.40862c-1.82646,-0.13015 -3.60828,0.03465 -5.34547,0.4943c0.68948,-0.63977 1.58039,-0.96927 2.67273,-0.9886c0.97844,0.00227 1.86935,0.16707 2.67273,0.4943z"/><path d="M328.18134,165.40862c-2.57072,-0.30291 -4.94633,0.02664 -7.12728,0.9886c-0.40269,-0.35046 -0.55103,-0.84476 -0.44546,-1.4829c2.60948,-0.15926 5.13387,0.00549 7.57273,0.4943z"/><path d="M352.23592,165.90292c-2.22728,-0.65905 -4.45456,-0.65905 -6.68183,0c0.92253,-0.64684 2.03617,-0.97634 3.34092,-0.9886c1.30473,0.01226 2.41837,0.34176 3.34092,0.9886z"/><path d="M369.60868,165.40862c2.45579,-0.65035 4.98019,-0.65035 7.57273,0c-0.05523,0.29989 -0.20357,0.46464 -0.44546,0.4943c-2.28964,-0.48842 -4.66569,-0.65317 -7.12728,-0.4943z"/><path d="M239.09029,165.40862c1.69184,-0.48609 3.47366,-0.65089 5.34547,-0.4943c0.14789,15.57261 -0.00089,31.0608 -0.44546,46.46417c0,-15.32329 0,-30.64658 0,-45.96987c-1.63349,0 -3.26652,0 -4.90001,0z"/><path d="M321.94496,169.85732c0.63433,0.99577 0.931,2.14912 0.89091,3.4601c-0.63433,-0.99577 -0.931,-2.14912 -0.89091,-3.4601z"/><path d="M146.88106,172.32882c3.30038,-0.43454 6.41856,0.14211 9.35456,1.73005c2.55735,3.64546 2.1119,6.77601 -1.33637,9.39169c-3.8621,1.78492 -7.57408,1.45537 -11.13638,-0.9886c-2.59522,-4.84493 -1.55598,-8.22263 3.11819,-10.13314z"/><path d="M266.70852,172.32882c2.38052,-0.08205 4.75613,0.0003 7.12728,0.24715c5.07819,1.96 6.93396,5.83199 5.56819,11.61604c-1.21164,2.49681 -3.06785,4.06206 -5.56819,4.69585c-4.22247,1.019 -8.00884,0.1128 -11.35911,-2.71865c-3.06206,-6.36638 -1.6513,-10.97988 4.23183,-13.84039z"/><path d="M117.03556,211.37849c-0.29699,-11.36889 -0.59393,-22.73779 -0.89091,-34.10668c0.12598,-0.39005 0.3487,-0.7196 0.66818,-0.9886c0.22273,11.69726 0.29694,23.3957 0.22273,35.09528z"/><path d="M611.93632,179.24901c-0.12472,0.39005 -0.34745,0.7196 -0.66818,0.9886c-0.22273,-0.9751 -0.294,-1.9637 -0.22273,-2.9658c-2.08028,0 -4.1561,0 -6.23638,0c0,11.36889 0,22.73779 0,34.10668c-0.44546,-11.44847 -0.59246,-22.98197 -0.44546,-34.60098c2.37428,0 4.75301,0 7.12728,0c-0.12472,0.94644 0.02227,1.77024 0.44546,2.4715z"/><path d="M235.52666,177.76612c-0.2107,0.69513 -0.65615,1.02468 -1.33637,0.9886c0.2107,-0.69513 0.65615,-1.02468 1.33637,-0.9886z"/><path d="M114.80828,178.26042c-0.21074,0.69513 -0.6562,1.02468 -1.33637,0.9886c0.21074,-0.69513 0.6562,-1.02468 1.33637,-0.9886z"/><path d="M552.24532,179.24901c0.89091,0 1.33637,0.4943 1.33637,1.4829c-0.59246,-0.32955 -1.03791,-0.82385 -1.33637,-1.4829z"/><path d="M324.17224,178.26042c0.63433,0.99577 0.931,2.14912 0.89091,3.4601c-0.63433,-0.99577 -0.931,-2.14912 -0.89091,-3.4601z"/><path d="M201.2266,181.72051c0.68021,-0.03608 1.12567,0.29347 1.33637,0.9886c-0.68021,0.03608 -1.12567,-0.29347 -1.33637,-0.9886z"/><path d="M433.75423,183.20341c2.55914,-0.1428 5.08354,0.10435 7.57273,0.74145c2.40991,1.63954 3.74628,4.02864 4.0091,7.16735c-5.93926,0 -11.87896,0 -17.81821,0c0.30113,-1.82233 0.96931,-3.47003 2.00455,-4.943c1.41654,-1.06882 2.82686,-2.05742 4.23183,-2.9658z"/><path d="M577.19082,183.20341c2.92219,-0.28739 5.74192,0.12456 8.46365,1.23575c2.0491,1.6607 3.08701,3.88505 3.11819,6.67305c-5.93791,0 -11.88029,0 -17.81821,0c0.96664,-3.711 3.04691,-6.34725 6.23638,-7.90879z"/><path d="M623.96361,182.70911c0,0.4943 0,0.9886 0,1.4829c-0.57464,0.1173 -1.0201,-0.04745 -1.33637,-0.4943c0.57018,-0.13949 1.01563,-0.46904 1.33637,-0.9886z"/><path d="M517.49981,177.27182c0.43966,2.37531 0.58845,4.84681 0.44546,7.4145c-2.82107,0 -5.64258,0 -8.46365,0c0,4.11915 0,8.23849 0,12.35749c-0.44234,-4.19364 -0.59067,-8.47754 -0.44546,-12.85179c2.82107,0 5.64258,0 8.46365,0c0,-2.30675 0,-4.61345 0,-6.9202z"/><path d="M372.28141,183.20341c0.04009,1.31098 -0.25659,2.46433 -0.89091,3.4601c-0.04009,-1.31098 0.25659,-2.46433 0.89091,-3.4601z"/><path d="M137.08105,184.19201c0.62644,0.23385 0.92343,0.72815 0.89091,1.4829c-0.62644,-0.23385 -0.92343,-0.72815 -0.89091,-1.4829z"/><path d="M495.67251,184.19201c2.22728,0 4.45456,0 6.68183,0c0,4.943 0,9.88599 0,14.82899c-0.44278,-4.68893 -0.59112,-9.46693 -0.44546,-14.33469c-2.16625,0.15793 -4.24519,-0.00687 -6.23638,-0.4943z"/><path d="M161.13563,186.66351c0,0.4943 0,0.9886 0,1.4829c-1.18803,-0.4943 -1.18803,-0.9886 0,-1.4829z"/><path d="M467.60883,186.66351c0.03251,0.75475 -0.2646,1.24905 -0.89091,1.4829c-0.03251,-0.75475 0.2646,-1.24905 0.89091,-1.4829z"/><path d="M280.51763,191.60651c0.02673,-0.26845 0.17506,-0.4332 0.44546,-0.4943c0.5684,0.55045 0.5684,1.04475 0,1.4829c0.07662,-0.49015 -0.07217,-0.8197 -0.44546,-0.9886z"/><path d="M146.43561,191.60651c2.5284,-0.0821 5.0528,0.0003 7.57273,0.24715c5.18554,1.70138 6.67024,5.24403 4.45456,10.62744c-1.38937,1.43001 -3.02286,2.33606 -4.90001,2.71865c-3.71465,0.65 -7.27829,0.1557 -10.69092,-1.4829c-3.88794,-5.86882 -2.6999,-9.90577 3.56364,-12.11034z"/><path d="M370.05413,191.60651c0.04009,1.31088 -0.25659,2.46408 -0.89091,3.4601c-0.04009,-1.31088 0.25659,-2.46408 0.89091,-3.4601z"/><path d="M480.08158,196.0552c0.74258,0 1.4847,0 2.22728,0c0,0.6589 0,1.3183 0,1.9772c-0.22005,2.88028 -1.40808,5.10463 -3.56364,6.67305c-3.5819,1.59609 -7.14555,1.59609 -10.69092,0c-1.78182,-1.8126 -1.78182,-3.6247 0,-5.4373c3.75385,-2.23374 7.76295,-3.30489 12.02729,-3.21295z"/><path d="M480.08158,196.0552c0.78623,-0.47502 1.67714,-0.64012 2.67273,-0.4943c0.12651,0.94658 -0.02183,1.77009 -0.44546,2.4715c0,-0.6589 0,-1.3183 0,-1.9772c-0.74258,0 -1.4847,0 -2.22728,0z"/><path d="M360.25411,199.5153c0.29712,0 0.59379,0 0.89091,0c-0.48822,1.8729 -0.78534,1.8729 -0.89091,0z"/><path d="M336.64499,199.5153c0.29712,0 0.59379,0 0.89091,0c-0.29712,1.9772 -0.59379,1.9772 -0.89091,0z"/><path d="M343.77228,199.5153c0.04009,1.31088 -0.25659,2.46408 -0.89091,3.4601c-0.04009,-1.31088 0.25659,-2.46408 0.89091,-3.4601z"/><path d="M367.82686,200.0096c0.04009,1.31088 -0.25659,2.46408 -0.89091,3.4601c-0.04009,-1.31088 0.25659,-2.46408 0.89091,-3.4601z"/><path d="M429.29967,202.4811c0.68021,-0.03608 1.12567,0.29361 1.33637,0.9886c-0.68021,0.03608 -1.12567,-0.29361 -1.33637,-0.9886z"/><path d="M354.4632,201.4925c0.63433,0.99601 0.931,2.14921 0.89091,3.4601c-0.63433,-0.99601 -0.931,-2.14921 -0.89091,-3.4601z"/><path d="M489.43613,190.12361c0.44367,7.1624 0.59201,14.4123 0.44546,21.74919c-2.37561,0 -4.75167,0 -7.12728,0c0.13453,-1.26491 -0.01426,-2.41861 -0.44546,-3.4601c0.12607,-0.39 0.34879,-0.7197 0.66818,-0.9886c0.22139,1.30792 0.29578,2.62621 0.22273,3.9544c2.07894,0 4.15743,0 6.23638,0c0,-7.0848 0,-14.17009 0,-21.25489z"/><path d="M423.06331,205.4469c0.7849,0.37666 1.23035,1.03605 1.33637,1.9772c-0.7849,-0.37666 -1.23035,-1.03605 -1.33637,-1.9772z"/><path d="M164.69927,205.4469c0.03251,0.7548 -0.2646,1.2491 -0.89091,1.4829c-0.03251,-0.7548 0.2646,-1.2491 0.89091,-1.4829z"/><path d="M284.08127,205.4469c0.03251,0.7548 -0.2646,1.2491 -0.89091,1.4829c-0.03251,-0.7548 0.2646,-1.2491 0.89091,-1.4829z"/><path d="M331.74499,206.9298c0.63433,0.99601 0.931,2.14921 0.89091,3.4601c-0.63433,-0.99601 -0.931,-2.14921 -0.89091,-3.4601z"/><path d="M449.79062,206.9298c-0.29712,1.3183 -1.03925,2.1418 -2.22728,2.4715c0.59379,-0.9886 1.33637,-1.8126 2.22728,-2.4715z"/><path d="M260.02669,209.89559c0.539,0.21354 0.98445,0.54324 1.33637,0.9886c-0.74792,0.10627 -1.19338,-0.22342 -1.33637,-0.9886z"/></g><path d="M227.6537,175.64984c0.24468,0.04402 0.44296,0.17607 0.59484,0.39656c2.14183,6.7558 4.3229,13.49733 6.54325,20.22458c-4.62667,0.52862 -9.25295,0.52862 -13.87961,0c2.37104,-6.84304 4.61834,-13.71663 6.74152,-20.62114z" fill="#fefefe"/></g></g></svg>