<svg xmlns:xlink="http://www.w3.org/1999/xlink" style="shape-rendering:geometricPrecision; text-rendering:geometricPrecision; image-rendering:optimizeQuality; fill-rule:evenodd; clip-rule:evenodd" height="695px" width="200px" version="1.1" xmlns="http://www.w3.org/2000/svg">
<g><path d="M 17.5,-0.5 C 51.8333,-0.5 86.1667,-0.5 120.5,-0.5C 120.5,14.5 120.5,29.5 120.5,44.5C 97.1643,44.3334 73.831,44.5 50.5,45C 47.4583,45.5546 45.625,47.3879 45,50.5C 44.3333,77.5 44.3333,104.5 45,131.5C 48.5499,144.72 56.7166,153.887 69.5,159C 89.1198,166.598 108.453,165.931 127.5,157C 132.621,153.547 137.454,149.714 142,145.5C 144.637,141.928 146.303,137.928 147,133.5C 147.172,88.7625 147.672,44.0958 148.5,-0.5C 162.833,-0.5 177.167,-0.5 191.5,-0.5C 192.162,23.262 192.495,47.0953 192.5,71C 192.629,97.1934 192.129,123.36 191,149.5C 187.532,163.969 179.698,175.469 167.5,184C 146.018,198.124 122.352,205.291 96.5,205.5C 67.0914,206.162 41.0914,197.328 18.5,179C 13.2346,173.737 8.7346,167.904 5,161.5C 2.60064,154.499 0.767311,147.499 -0.5,140.5C -0.5,100.5 -0.5,60.5 -0.5,20.5C 1.19653,9.80397 7.19653,2.80397 17.5,-0.5 Z" fill="#9866ff" style="opacity:0.976"></path></g>
<g><path d="M 199.5,330.5 C 199.5,338.167 199.5,345.833 199.5,353.5C 196.16,366.322 189.16,376.822 178.5,385C 165.635,393.202 152.301,400.536 138.5,407C 92.2439,425.794 45.9106,443.628 -0.5,460.5C -0.5,444.167 -0.5,427.833 -0.5,411.5C 8.9153,407.748 18.4153,404.081 28,400.5C 28.1712,372.928 28.6712,345.428 29.5,318C 44.0747,317.177 58.5747,317.344 73,318.5C 73.3333,340.5 73.6667,362.5 74,384.5C 99.4872,376.67 123.654,366.003 146.5,352.5C 154.941,344.375 154.274,336.875 144.5,330C 136.594,324.915 128.26,320.582 119.5,317C 79.7027,301.678 39.7027,286.845 -0.5,272.5C -0.5,256.5 -0.5,240.5 -0.5,224.5C 0.14987,224.196 0.816537,223.863 1.5,223.5C 39.8276,238.441 78.161,253.274 116.5,268C 137.831,276.498 158.165,286.832 177.5,299C 188.626,306.942 195.959,317.442 199.5,330.5 Z" fill="#9966ff" style="opacity:0.976"></path></g>
<g><path d="M 192.5,694.5 C 156.167,694.5 119.833,694.5 83.5,694.5C 65.1782,692.752 47.8449,687.585 31.5,679C 14.4846,668.482 4.31798,653.315 1,633.5C 0.333333,587.167 0.333333,540.833 1,494.5C 15.6667,493.167 30.3333,493.167 45,494.5C 45.3333,536.167 45.6667,577.833 46,619.5C 48.6994,633.37 56.8661,642.37 70.5,646.5C 71.3332,614.172 71.8332,581.838 72,549.5C 72.7877,530.424 80.6211,514.924 95.5,503C 111.871,491.315 130.204,484.981 150.5,484C 164.742,483.177 178.908,483.344 193,484.5C 193.816,498.878 193.649,513.212 192.5,527.5C 176.148,528.13 159.814,528.964 143.5,530C 131.508,533.072 123.008,540.239 118,551.5C 116.536,584.125 116.036,616.792 116.5,649.5C 141.502,649.333 166.502,649.5 191.5,650C 192.126,650.75 192.626,651.584 193,652.5C 193.798,666.545 193.632,680.545 192.5,694.5 Z" fill="#9966ff" style="opacity:0.979"></path></g>
</svg>
