<svg version="1.1" xmlns="http://www.w3.org/2000/svg" xmlns:xlink="http://www.w3.org/1999/xlink" width="463.95274" height="113.16486" viewBox="0,0,463.95274,113.16486"><g transform="translate(-130.93744,-287.86237)"><g fill-rule="evenodd" stroke="none" stroke-miterlimit="10"><g><path d="M177.52664,396.96361c-3.89024,0 -7.78058,0 -11.67082,0c-5.23895,-1.18664 -10.62547,-2.23402 -16.1596,-3.14214c-0.21402,-2.3004 0.68373,-4.39516 2.69326,-6.28429c1.419,-0.63427 2.76563,-1.38245 4.0399,-2.24439c0.74729,-9.5901 0.59764,-19.16609 -0.44887,-28.72817c-3.26236,-0.90736 -6.55416,-0.90736 -9.87532,0c0.49511,13.5905 -0.40264,27.05683 -2.69326,40.399c-1.19698,0 -2.39404,0 -3.59102,0c0.86589,-25.73048 1.01554,-51.46617 0.44888,-77.20698c-1.81948,-4.23337 -4.51271,-7.82438 -8.0798,-10.77307c-1.92914,-3.22025 -1.62989,-6.21247 0.89776,-8.97755c2.44133,-2.63043 4.98497,-5.17467 7.63092,-7.63093c1.74219,-0.66703 3.38804,-0.51711 4.93766,0.44888c0.44888,1.79551 0.89776,3.59103 1.34663,5.38654c-0.8693,13.44003 -1.16852,26.90636 -0.89776,40.399c3.5342,0.26349 6.97556,-0.03582 10.32419,-0.89776c0.59853,-5.98507 0.59853,-11.97005 0,-17.95511c-0.65052,-2.19897 -1.54826,-4.29369 -2.69326,-6.28429c-2.57835,-2.27724 -4.82274,-4.82086 -6.73316,-7.63092c2.53634,-4.76708 5.52882,-9.25586 8.97756,-13.46634c1.19698,-0.5988 2.39404,-0.5988 3.59102,0c1.98314,2.13486 4.07797,4.08031 6.28429,5.83542c8.62232,2.93028 13.11109,8.91561 13.46634,17.95511c-4.55647,-1.95962 -9.34447,-3.1566 -14.36409,-3.59102c-0.89775,0.29922 -1.79551,0.59853 -2.69326,0.89775c-1.01887,7.13788 -1.16852,14.31992 -0.44888,21.54613c0.5303,-4.69293 1.72737,-9.1817 3.59102,-13.46633c3.22976,-2.32456 6.52157,-2.32456 9.87531,0c1.06572,1.38649 1.36504,2.88278 0.89776,4.48878c-2.6315,4.27996 -5.77364,8.1703 -9.42643,11.67083c1.47761,1.0413 3.12347,1.63984 4.93766,1.79551c4.63924,-1.09706 9.27768,-1.09706 13.91521,0c0.89417,4.1769 1.79192,8.36645 2.69326,12.56858c-0.09713,0.84559 -0.39636,1.59379 -0.89775,2.24439c-8.20926,1.01051 -16.43863,1.75861 -24.68828,2.24439c-0.4487,8.07423 -0.59826,16.15403 -0.44887,24.2394c4.20015,-0.14885 8.3897,0.00072 12.56857,0.44887c6.72078,4.40215 7.61854,9.63903 2.69327,15.71073zM151.49173,343.99603c4.28795,-1.77235 8.77673,-2.07166 13.46634,-0.89775c-1.60833,1.13459 -3.40384,1.73311 -5.38654,1.79551c-2.66472,-0.59395 -5.35798,-0.89326 -8.0798,-0.89775zM166.75357,388.88381c-0.11752,-0.78683 0.18179,-1.38533 0.89775,-1.79551c1.68931,-0.53264 3.33526,-1.13108 4.93766,-1.79552c0.7481,1.49629 1.49629,2.99252 2.24438,4.48878c-0.44852,1.23938 -1.34627,1.83789 -2.69326,1.79551c-2.06556,-0.43425 -3.86107,-1.332 -5.38653,-2.69326z" fill="#f6f6f6" opacity="0.976"/><path d="M163.16256,377.21299c-0.39725,-6.27486 1.69748,-11.51183 6.28429,-15.71072c6.07099,0.00494 7.71683,2.84786 4.93765,8.52868c-3.6518,2.61849 -7.39248,5.01244 -11.22195,7.18205z" fill="#f7f7f7" opacity="0.939"/><path d="M178.4244,376.31523c0.06957,-3.92912 0.51845,-7.81936 1.34663,-11.67082c3.33876,-3.05444 7.07944,-3.50332 11.22195,-1.34663c2.10982,2.13019 2.25938,4.37458 0.44887,6.73316c-3.69588,3.41893 -8.035,5.51374 -13.01745,6.28429z" fill="#f6f6f6" opacity="0.952"/><path d="M179.32215,337.71174c-0.43595,-4.66734 0.16258,-9.15612 1.79551,-13.46634c2.46937,-0.46324 4.5641,-1.51066 6.28429,-3.14215c-0.98959,-2.15542 -1.13926,-4.39981 -0.44888,-6.73317c2.76975,-3.22554 5.9119,-5.91881 9.42644,-8.0798c1.02999,0.28548 1.77809,0.88375 2.24439,1.79551c1.5401,25.03427 1.68976,50.02178 0.44888,74.96259c-1.67593,0.63849 -3.02256,0.18961 -4.0399,-1.34663c-0.29922,-17.95511 -0.59854,-35.91023 -0.89776,-53.86533c-0.37167,-0.41064 -0.82055,-0.70986 -1.34663,-0.89776c-3.42054,4.91584 -7.90932,8.50687 -13.46633,10.77307z" fill="#f6f6f6" opacity="0.978"/><path d="M200.8683,315.26785c2.49378,-5.42666 5.78558,-10.36459 9.87531,-14.81297c1.01896,-0.67242 1.91671,-0.52339 2.69327,0.44888c0.65581,2.34224 1.10469,4.73656 1.34663,7.18204c0.29922,14.36409 0.59854,28.72818 0.89775,43.09227c0.29922,0.29922 0.59854,0.59853 0.89776,0.89775c1.19671,-1.19698 2.39431,-2.39405 3.59102,-3.59103c1.29367,0.68212 2.6403,1.28056 4.0399,1.79552c0.29896,-0.44888 0.5988,-0.89776 0.89776,-1.34663c-1.07461,-5.18382 -1.82335,-10.4207 -2.24439,-15.71073c-0.29895,-0.29922 -0.5988,-0.59853 -0.89776,-0.89776c-1.42204,1.22212 -3.06853,1.82065 -4.93765,1.79551c0.23323,-7.58074 2.92669,-14.16425 8.0798,-19.75062c3.13765,-2.57495 5.98085,-2.27572 8.52868,0.89775c3.48329,5.32531 2.58553,9.81409 -2.69327,13.46634c-0.14992,1.04741 -0.29895,2.09473 -0.44887,3.14214c1.87182,12.94366 3.96628,25.81155 6.28429,38.60349c-2.91142,4.55764 -6.8014,7.99901 -11.67082,10.32419c0.15351,-4.83504 -0.29537,-9.62305 -1.34664,-14.36409c-2.23721,-1.79291 -4.78055,-2.69067 -7.63092,-2.69327c0.14938,8.08537 -0.00018,16.16517 -0.44888,24.23941c-0.96895,1.70008 -2.16592,1.99933 -3.59102,0.89776c-0.87037,-20.34072 -1.46891,-40.68988 -1.79551,-61.04738c-2.30328,-4.84303 -5.44543,-9.03259 -9.42643,-12.56858zM224.20994,361.95114c0.4785,-3.31667 2.27401,-5.26175 5.38653,-5.83541c1.73536,5.2955 -0.06015,7.24058 -5.38653,5.83541zM224.20994,324.24541c1.62943,-2.61014 4.02285,-3.80711 7.18205,-3.59102c0,0.89776 0,1.79551 0,2.69327c-2.42933,0.06742 -4.82364,0.36664 -7.18205,0.89775z" fill="#f6f6f6" opacity="0.962"/></g><g fill="#f7f7f7"><path d="M304.20583,335.44363c0,-0.89775 0,-1.79551 0,-2.69326c2.32522,-3.68349 4.86887,-7.27451 7.63092,-10.77306c6.16094,6.01496 11.24816,12.89716 15.26184,20.64838c3.82749,-5.97636 8.61549,-6.87411 14.36409,-2.69327c3.39127,4.5193 2.94239,8.5592 -1.34663,12.1197c-6.68864,2.32699 -13.12258,5.17017 -19.30174,8.52868c-0.44888,-0.29895 -0.89776,-0.5988 -1.34663,-0.89776c0.67152,-3.05686 1.56928,-6.04908 2.69327,-8.97756c-0.44888,-0.89776 -0.89775,-1.79551 -1.34663,-2.69326c-5.47236,-4.34334 -11.00855,-8.53317 -16.60848,-12.56858z" opacity="0.972"/><path d="M310.49012,377.63815c1.46544,-4.55881 4.15868,-8.29975 8.0798,-11.22195c1.79551,-0.5988 3.59103,-0.59881 5.38654,0c8.08025,9.12209 14.21497,19.44628 18.40399,30.97257c0.7007,1.29636 0.55113,2.49307 -0.44888,3.59102c-10.02793,-8.55292 -20.50178,-16.33377 -31.42145,-23.34165zM319.46768,378.5359c3.45349,-0.90314 6.59563,-0.00538 9.42644,2.69327c0.43343,0.85107 0.58309,1.74883 0.44888,2.69327c-1.60519,0.25586 -3.10147,-0.04309 -4.48878,-0.89776c-1.28451,-2.18873 -3.08002,-3.68439 -5.38654,-4.48878zM333.83176,392.00224c0.79577,-1.14553 1.69352,-1.14553 2.69326,0c-0.83006,0.95342 -1.72782,0.95342 -2.69326,0z" opacity="0.963"/><path d="M415.52753,348.90997c0,0.59881 0,1.19671 0,1.79551c-4.21407,-1.66354 -7.50614,-4.50673 -9.87531,-8.52868c-2.24439,-1.78384 -4.63871,-3.43033 -7.18205,-4.93765c-3.34414,3.03172 -7.23475,4.82723 -11.67083,5.38653c0.97954,-3.09187 1.8773,-6.23401 2.69326,-9.42643c-2.51085,-3.80738 -6.10186,-6.05178 -10.77306,-6.73317c0,5.98533 0,11.96978 0,17.95511c1.23298,-0.14095 2.43004,0.00897 3.59102,0.44887c5.89826,5.14863 10.98557,10.98404 15.26185,17.50624c-2.03341,1.02973 -4.12806,1.17965 -6.28429,0.44888c-9.14507,-1.83321 -18.12263,-4.07761 -26.93267,-6.73317c-2.75575,2.06664 -5.74833,3.71222 -8.97755,4.93766c-2.59685,1.03152 -5.29012,1.4804 -8.0798,1.34663c1.05073,-5.37755 1.79883,-10.76409 2.24439,-16.1596c-8.24185,-10.5172 -17.66829,-19.79371 -28.27931,-27.83042c1.97775,-5.77077 5.26956,-10.5585 9.87532,-14.36409c6.72114,8.05825 13.00543,16.437 18.85287,25.13716c0.97577,-8.41197 0.67655,-16.79072 -0.89775,-25.13716c-3.30266,0.2011 -6.59446,0.50095 -9.87531,0.89776c1.00629,-3.56768 2.65224,-6.85885 4.93766,-9.87531c3.02373,-1.7174 5.56734,-3.9618 7.63092,-6.73317c1.79551,-0.5988 3.59102,-0.5988 5.38654,0c5.5686,1.72549 8.41152,5.46644 8.52868,11.22195c-1.692,2.06753 -3.93639,3.11521 -6.73317,3.14215c-0.59853,0.89775 -1.19697,1.79551 -1.79551,2.69327c4.84231,15.57965 7.23636,31.58933 7.18205,48.02992c0.64432,-4.20329 1.24276,-8.39312 1.79551,-12.56858c1.98107,-1.01895 4.0759,-1.61685 6.28429,-1.79551c-0.32966,-5.09207 -0.77854,-10.17965 -1.34664,-15.26184c-1.77944,-2.97157 -3.87417,-5.66484 -6.28428,-8.0798c-1.54782,-2.15192 -1.54782,-4.24728 0,-6.28429c2.74309,-4.2401 6.33411,-7.53218 10.77307,-9.87531c2.75602,1.74793 5.0004,3.99232 6.73316,6.73317c4.58475,2.78753 8.92388,5.92968 13.01746,9.42644c2.09716,-7.49895 4.19162,-14.97995 6.28429,-22.44389c2.63492,2.03432 4.58035,4.57765 5.83541,7.63092c0.86005,4.60728 2.05676,9.09606 3.59102,13.46634c-2.82973,4.59561 -4.47531,9.53327 -4.93766,14.81297c3.90973,6.3202 7.05187,12.90344 9.42644,19.75062zM325.75197,317.48852c0.84955,-4.46095 3.24359,-5.80758 7.18205,-4.0399c-2.31612,1.60339 -4.71007,2.95003 -7.18205,4.0399zM351.78688,293.24912c1.12651,-2.82523 2.62279,-3.12419 4.48878,-0.89776c-1.3873,0.85466 -2.8836,1.15362 -4.48878,0.89776zM352.68464,344.42119c-0.14553,-1.81975 0.00404,-3.61526 0.44888,-5.38653c0.59854,-1.19671 1.19698,-1.19671 1.79551,0c1.12247,4.41696 1.57135,8.90574 1.34664,13.46634c-0.89776,0 -1.79551,0 -2.69327,0c0.27831,-2.88449 -0.02092,-5.57776 -0.89776,-8.0798zM368.84424,346.2167c1.04059,-1.68508 2.53688,-2.13396 4.48878,-1.34663c-1.26108,1.13925 -2.75736,1.58813 -4.48878,1.34663zM372.43526,308.51097c0.4223,-1.07102 1.32006,-1.66983 2.69327,-1.79552c0.89775,0.29895 1.79551,0.5988 2.69326,0.89776c-1.70214,0.86723 -3.49766,1.16618 -5.38654,0.89776z" opacity="0.975"/><path d="M338.32055,375.84264c-0.14068,-1.23262 0.00898,-2.43022 0.44888,-3.59102c3.02992,-3.18165 6.17207,-6.17387 9.42643,-8.97756c4.14736,2.89706 6.99028,6.78704 8.52868,11.67083c2.09474,1.79551 4.18956,3.59102 6.28429,5.38653c0.40372,-1.81257 1.15182,-3.45815 2.24439,-4.93765c14.36095,-0.44888 28.72504,-0.5988 43.09227,-0.44888c0.51172,4.67641 2.00738,9.01526 4.48878,13.01745c-0.41028,0.37167 -0.71013,0.82055 -0.89776,1.34664c-14.96828,0.38693 -29.93055,0.68678 -44.88778,0.89775c0.46764,3.57396 0.76686,7.16499 0.89776,10.77307c-0.94444,0.13376 -1.8422,-0.01526 -2.69327,-0.44888c-5.97699,-6.24658 -11.96196,-12.53087 -17.95511,-18.85287c-2.66139,-2.52269 -5.65389,-4.46723 -8.97756,-5.83541zM349.09362,369.55835c0.63651,-0.81157 1.53427,-1.11053 2.69327,-0.89776c0.13421,0.94444 -0.01544,1.8422 -0.44888,2.69326c-0.63588,-0.79092 -1.38398,-1.38882 -2.24439,-1.79551zM393.08364,385.71795c1.07156,-1.14643 2.56759,-1.74523 4.48878,-1.79551c2.75342,0.09606 5.44669,0.54494 8.0798,1.34663c-0.98753,0.9184 -2.18424,1.36728 -3.59102,1.34663c-2.9617,-0.63741 -5.95481,-0.93636 -8.97756,-0.89776z" opacity="0.982"/></g><g><path d="M532.04728,289.68159c0.89775,0 1.79552,0 2.69327,0c0.88806,20.88 1.18737,41.82823 0.89776,62.8429c-1.49629,0 -2.99249,0 -4.48878,0c0,-6.88309 0,-13.76529 0,-20.64838c-3.89024,0 -7.78057,0 -11.67082,0c0.14894,4.49865 -0.00063,8.98743 -0.44888,13.46633c-2.83646,2.69416 -4.78162,2.24528 -5.83541,-1.34664c0.75851,-4.00489 1.05773,-8.04478 0.89775,-12.1197c-3.53419,-0.26304 -6.97556,0.03591 -10.32419,0.89775c-0.29922,5.68548 -0.59854,11.37187 -0.89776,17.05736c-1.01733,1.53606 -2.36397,1.98494 -4.0399,1.34663c-0.73077,-6.06254 -1.17965,-12.19691 -1.34663,-18.40399c-3.40213,-0.57097 -6.84352,-1.16977 -10.32419,-1.79551c-0.43696,-0.84927 -0.73622,-1.74703 -0.89776,-2.69327c0.34716,-3.679 0.79604,-7.27002 1.34664,-10.77306c3.34861,-0.86185 6.78999,-1.1608 10.32419,-0.89775c0.40381,-4.87751 -1.69101,-8.16958 -6.28429,-9.87532c-1.28136,-2.72289 -0.98211,-5.26623 0.89776,-7.63092c2.35948,-2.21387 5.05275,-3.85945 8.0798,-4.93765c2.17562,1.06115 3.07338,2.85665 2.69327,5.38653c-1.13638,5.68998 -1.13638,11.37547 0,17.05736c3.2918,0 6.58351,0 9.87531,0c0.42841,-3.9196 -1.21744,-6.61287 -4.93766,-8.0798c-0.59853,-1.79551 -0.59854,-3.59102 0,-5.38653c2.37393,-4.03361 5.81539,-6.42793 10.32419,-7.18205c0.78347,6.85526 0.78347,13.73836 0,20.64838c3.93567,0.29267 7.82591,-0.00718 11.67082,-0.89776c0.98142,-3.2391 1.13108,-6.53118 0.44888,-9.87531c-2.17822,-2.61157 -4.12339,-5.30484 -5.83541,-8.0798c1.80467,-3.29656 4.19862,-5.98982 7.18205,-8.0798zM493.44379,327.38732c0.4223,-1.07102 1.32006,-1.66983 2.69327,-1.79551c0.89776,0.14992 1.79551,0.29895 2.69327,0.44887c-1.57063,1.18414 -3.36614,1.63302 -5.38653,1.34664zM520.37646,327.38732c2.40392,-1.26494 4.79787,-1.11591 7.18204,0.44888c-2.41694,0.38604 -4.81098,0.23611 -7.18204,-0.44888z" fill="#f7f7f7" opacity="0.979"/><path d="M508.70563,367.78633c-0.14382,-1.52529 0.00584,-3.02184 0.44888,-4.48878c1.52133,-2.86833 3.76572,-4.9628 6.73316,-6.28429c1.46379,0.82684 2.95999,1.57556 4.48878,2.24439c16.76262,0.4408 33.52067,0.29087 50.27432,-0.44888c1.45849,4.96459 2.05694,10.05217 1.79551,15.26185c-6.29219,-0.33307 -8.53658,2.65915 -6.73316,8.97756c2.83251,0.81696 5.22655,2.31261 7.18204,4.48878c0.93097,2.49217 1.6788,5.03641 2.24438,7.63092c0.05477,1.53606 -0.54404,2.73276 -1.79551,3.59102c-20.64838,0.5988 -41.29676,0.5988 -61.94514,0c-0.41063,-0.37167 -0.70985,-0.82054 -0.89775,-1.34663c1.54818,-3.88639 3.19412,-7.77636 4.93766,-11.67082c2.31486,-7.81137 0.07047,-13.79581 -6.73317,-17.95511zM520.37646,381.25266c0.48299,-1.45167 0.78221,-2.94822 0.89775,-4.48877c5.2841,-1.31881 10.67063,-1.9167 16.1596,-1.79551c0,2.99222 0,5.98534 0,8.97755c-2.91959,0.78733 -5.91208,1.38524 -8.97755,1.79551c-3.92786,0.43182 -6.62113,-1.06474 -8.0798,-4.48878zM534.74055,396.51451c0.68454,-0.68948 1.58229,-1.13836 2.69326,-1.34664c3.89025,-0.5988 7.78058,-0.5988 11.67083,0c-4.71672,1.14105 -9.50481,1.58992 -14.36409,1.34664zM543.71809,383.04817c-0.20298,-2.46793 0.09624,-4.86225 0.89775,-7.18205c5.05239,-0.89327 10.1397,-1.19312 15.26185,-0.89775c0,2.99222 0,5.98533 0,8.97755c-2.8431,0.47402 -5.68602,1.07281 -8.52868,1.79551c-2.79858,-0.28459 -5.34218,-1.18234 -7.63092,-2.69326zM561.6732,392.02573c1.06357,-3.65207 3.30796,-5.14773 6.73317,-4.48878c0.66694,1.74254 0.51728,3.38813 -0.44888,4.93765c-2.06233,0.01616 -4.15706,-0.13377 -6.28429,-0.44888z" fill="#f6f6f6" opacity="0.982"/><path d="M594.89017,299.5569c0,2.69327 0,5.38654 0,8.0798c-0.98394,1.4391 -2.18155,2.78573 -3.59102,4.0399c-3.76249,1.43551 -7.35352,3.0811 -10.77307,4.93766c-0.22982,-2.05765 0.06912,-4.0031 0.89776,-5.83542c-1.73536,-0.70294 -3.082,-0.25407 -4.0399,1.34663c-0.72,7.22604 -0.57008,14.40808 0.44888,21.54614c4.75092,0.89326 9.53866,1.19222 14.36409,0.89775c1.36639,4.98434 1.96519,10.07102 1.79551,15.26184c-17.05735,0 -34.11471,0 -51.17207,0c1.58445,-4.07761 2.93108,-8.26743 4.0399,-12.56858c0.59853,-8.37876 0.59854,-16.7584 0,-25.13716c-2.87506,-2.70404 -5.11945,-5.84619 -6.73317,-9.42644c2.24547,-3.55331 4.93873,-6.84538 8.0798,-9.87531c2.73861,-0.76938 5.13265,-0.17058 7.18205,1.79551c11.07229,0.29895 22.14494,0.5988 33.21696,0.89775c2.34943,0.97137 4.44479,2.318 6.28429,4.0399zM551.7979,325.59181c-0.14911,-5.09566 0.00054,-10.18324 0.44888,-15.26184c2.21378,-1.14643 4.45817,-1.14643 6.73317,0c1.08512,8.05826 1.08512,16.13806 0,24.2394c-2.09473,0 -4.18956,0 -6.28429,0c0.28082,-3.17985 -0.0185,-6.17207 -0.89775,-8.97756zM564.36648,323.7963c0.34949,-4.49237 0.79837,-8.98115 1.34664,-13.46633c1.61228,-1.13745 3.25822,-1.13745 4.93765,0c0.89614,8.05736 1.19536,16.13716 0.89775,24.2394c-2.09474,0 -4.18956,0 -6.28429,0c0.28441,-3.77237 -0.0149,-7.36339 -0.89775,-10.77306zM566.16198,340.85366c-0.12559,-1.45795 0.47285,-2.50474 1.79551,-3.14214c4.35456,-0.83851 8.54394,-0.53955 12.56858,0.89775c-4.50404,2.63132 -9.29204,3.37916 -14.36409,2.24439zM576.93506,305.84119c1.42653,-1.62135 3.22204,-2.81805 5.38653,-3.59102c1.44628,0.73616 2.04509,1.93376 1.79551,3.59102c-1.47501,-0.01796 -2.67172,0.58084 -3.59102,1.79551c-0.9193,-1.21466 -2.11601,-1.81347 -3.59102,-1.79551z" fill="#f6f6f6" opacity="0.974"/></g></g></g></svg>